<svg width="41" height="41" viewBox="0 0 41 41" xmlns="http://www.w3.org/2000/svg">
    <path
        d="M23.0414 14.3252H14.4082C14.5294 15.2945 15.6199 15.8903 16.15 15.9913C15.0898 16.9757 14.4082 19.8535 16.9073 20.535C19.7731 21.3166 20.3909 18.768 20.3151 17.5059C22.8597 17.5664 23.1929 15.4107 23.0414 14.3252Z" />
    <path
        d="M27.2795 26.0635C28.6123 25.4576 30.0058 23.2867 30.5359 22.277C29.7786 21.6711 28.0632 21.4827 27.2795 22.5799C26.1435 24.1702 26.7999 25.3566 27.2795 26.0635Z" />
    <path
        d="M18.4222 25.9121L13.727 25.9878C13.3635 26.4725 12.0609 27.351 11.4551 27.7296C15.0295 29.1836 17.5892 27.1238 18.4222 25.9121Z" />
    <path fill-rule="evenodd" clip-rule="evenodd"
        d="M6.0003 25.4577C6.12652 25.7101 6.37895 26.4725 6.37895 27.5024C6.37895 28.7898 6.0003 29.5471 5.54592 29.5471C5.09154 29.5471 4.71289 28.7898 4.71289 27.4267C4.71289 26.3362 5.0663 25.6596 5.243 25.4577V17.0517C5.31873 15.7643 5.97001 14.4617 7.66636 14.4011C9.36271 14.3405 12.3111 14.3759 13.5733 14.4011C13.7752 14.9312 14.3457 16.0369 15.0122 16.2186C14.3053 17.4303 13.6642 20.1415 16.7539 21.2925C19.253 22.2236 20.9191 19.8032 21.0706 18.3391C22.1308 18.0866 24.1603 16.9457 23.7968 14.4011H25.4629C26.2454 14.0982 27.8257 13.4015 27.8862 13.038C27.9468 12.6745 27.3057 11.7758 26.9775 11.3719C27.5833 11.2457 29.0373 11.4325 30.0067 13.1894C30.1329 13.3157 30.4308 13.4621 30.6125 13.038C30.7943 12.6139 30.1329 11.9525 29.7795 11.6748H30.0824C30.1077 10.9175 30.4459 9.32722 31.597 9.0243C31.9359 8.93514 32.4452 9.20605 31.8999 9.63014C31.5213 9.9583 30.7943 10.8267 30.9154 11.6748H31.9757C32.0766 10.8923 32.5209 9.26663 33.4903 9.0243C33.7491 8.9596 34.0961 9.25151 33.7175 9.70587C33.7037 9.72236 33.6893 9.73958 33.6743 9.7575C33.3449 10.1508 32.733 10.8814 32.733 11.7506C32.8339 11.7506 33.1268 11.8414 33.4903 12.205C33.8538 12.5685 36.0651 14.6283 37.1253 15.6128C37.3525 15.8147 37.6706 16.4307 37.1253 17.2789C36.9991 17.4808 36.6255 17.8847 36.1408 17.8847C35.6561 17.8847 34.1718 17.9352 33.4903 17.9604C33.0106 17.9604 31.9454 18.2936 31.5213 19.6265C31.0972 20.9593 30.9407 21.4945 30.9154 21.5955C30.2591 21.1158 28.5375 20.4898 26.9018 21.8227C24.8571 23.4887 26.2959 26.1393 26.5988 26.5936L24.8571 27.5024V33.7122H22.8881L22.9638 25.5334C22.989 25.4072 22.9487 25.1548 22.5852 25.1548H14.4063C14.7092 24.5742 15.3151 23.3372 15.3151 23.0343C15.3151 22.6557 15.1636 22.58 15.0879 22.58C15.0803 22.58 15.0703 22.5792 15.0584 22.5783C14.9526 22.5701 14.694 22.55 14.5578 22.9586C14.5434 23.0018 14.5296 23.0574 14.5131 23.1245C14.3555 23.7624 13.9414 25.4395 10.2412 27.4267L10.1654 27.5781L10.014 33.7122H8.2722V17.2789C8.2722 16.7487 8.4691 15.5825 9.25669 15.1584H7.66636C6.83333 15.1584 6.07603 15.9157 6.0003 17.0517C5.9362 18.0131 5.96076 20.6024 5.982 22.843C5.99148 23.8424 6.0003 24.7725 6.0003 25.4577ZM32.4281 14.5525C32.7627 14.5525 33.0339 14.2813 33.0339 13.9467C33.0339 13.6121 32.7627 13.3408 32.4281 13.3408C32.0935 13.3408 31.8223 13.6121 31.8223 13.9467C31.8223 14.2813 32.0935 14.5525 32.4281 14.5525Z" />
</svg>