<svg xmlns="http://www.w3.org/2000/svg" width="41" height="41" viewBox="0 0 41 41">
    <path
        d="M10.2988 32.4017C12.3417 34.3022 26.0462 25.8756 28.0755 22.3261C29.0495 20.6212 27.8996 18.1197 26.0191 16.1214C28.1566 14.6541 30.0371 19.2237 31.8229 18.2595C32.6346 17.8123 33.1622 16.4288 32.7699 15.5764C32.0664 14.0671 29.7259 14.0671 28.1431 13.8855C29.266 13.606 31.9582 12.4181 32.0123 10.7412C32.0664 9.45554 30.4835 7.98822 29.2389 8.14194C27.602 8.33758 27.0067 10.7691 26.452 12.3343C26.3844 11.3421 26.1814 9.16207 25.1262 8.21181C23.7192 6.94013 22.0282 8.14194 21.9876 9.67913C21.9335 11.5377 25.8026 12.5719 24.5851 14.8078C22.5287 13.1728 20.1071 12.2784 18.5513 13.2147C17.8884 13.6479 17.1308 14.4864 16.3461 15.5764C17.5502 16.89 19.2142 18.4691 20.5265 19.3774C20.7971 19.5731 20.8782 19.9644 20.6753 20.2439C20.4859 20.5373 20.1071 20.6072 19.8365 20.4116C18.4972 19.4753 16.8602 17.9241 15.6427 16.6245C15.0339 17.5608 14.4115 18.6228 13.8298 19.7408C14.9797 20.9426 16.4408 22.2981 17.6043 23.1086C17.8749 23.3043 17.9425 23.6956 17.7531 23.9751C17.5637 24.2685 17.1849 24.3384 16.9008 24.1427C15.7509 23.3322 14.3845 22.0745 13.2346 20.9007C10.84 25.7778 9.08127 31.2837 10.2988 32.4017Z" />
</svg>