<svg width="41" height="40" viewBox="0 0 41 40" xmlns="http://www.w3.org/2000/svg">
    <path
        d="M36.0598 13.9752C36.2701 12.9563 35.5647 12.6497 35.1856 12.6238C35.2664 12.1343 35.1244 11.1741 33.9105 11.2486C32.6967 11.3231 32.7179 12.3134 32.8802 12.7992C31.532 13.8584 29.752 13.9789 29.3579 14.0201C28.9639 14.0613 25.079 13.7461 22.2654 14.7617C18.0448 16.2852 18.2471 23.1833 22.1251 23.4337C25.6687 23.6625 30.4006 18.83 31.4103 17.0848C32.218 15.6887 33.7496 14.9382 34.4144 14.7376C34.8752 14.908 35.8494 14.9941 36.0598 13.9752Z" />
    <path
        d="M26.8443 13.2678C26.0541 12.336 22.4627 11.4347 20.7657 11.1005C22.0451 10.633 25.7512 11.1131 26.6057 11.0237C27.2892 10.9522 28.4164 10.345 28.8945 10.0503C28.6529 9.65292 28.4589 8.8279 29.6156 8.70695C30.7724 8.586 30.9314 9.41469 30.8663 9.84415C31.3507 9.90027 31.6986 10.38 31.8119 10.6128C32.0687 12.0274 30.9031 12.0648 30.2882 11.9066C29.4882 11.8835 28.5008 12.8054 28.1071 13.2692C27.8799 13.1328 27.1706 13.2114 26.8443 13.2678Z" />
    <path
        d="M19.7389 23.272C15.8551 16.2875 21.6711 13.6998 25.0646 13.279C21.326 11.6639 18.1975 11.4895 17.1006 11.6042C8.56886 12.1004 4.37537 19.5994 5.19025 24.1333C6.00514 28.6671 12.4876 30.8823 20.7075 29.9569C28.9274 29.0314 33.5567 24.622 34.4779 23.272C35.2148 22.1919 32.8296 18.7138 31.938 17.8393C25.6211 25.5207 21.1732 24.6617 19.7389 23.272Z" />
</svg>