<svg xmlns="http://www.w3.org/2000/svg" width="24" height="24" viewBox="0 0 24 24" >
  
    <path d="M3.91367 10.295C3.83738 10.3728 3.74635 10.4346 3.6459 10.4767C3.54545 10.5189 3.43761 10.5406 3.32867 10.5406C3.21974 10.5406 3.1119 10.5189 3.01145 10.4767C2.911 10.4346 2.81997 10.3728 2.74367 10.295C2.58838 10.1371 2.50136 9.92438 2.50136 9.70285C2.50136 9.48131 2.58838 9.26864 2.74367 9.11065L9.98087 1.80025C11.6129 0.533046 13.2545 -0.075354 14.8889 0.00744604C16.9481 0.113046 18.5513 0.897846 19.9121 2.18545C21.2993 3.49825 22.1969 5.37145 22.1969 7.64185C22.1969 9.38425 21.6905 10.9178 20.6213 12.2786L10.4177 22.7906C9.38567 23.6366 8.23847 24.0458 7.00967 23.9966C5.44967 23.9318 4.28927 23.4278 3.42647 22.5746C2.41607 21.5774 1.79688 20.3522 1.79688 18.7046C1.79688 17.3942 2.24927 16.1846 3.18287 15.0494L12.1637 5.88025C12.8837 5.11225 13.5881 4.65625 14.3081 4.54585C14.7886 4.47058 15.2803 4.51376 15.7404 4.67165C16.2004 4.82954 16.615 5.09736 16.9481 5.45185C17.5865 6.12745 17.8601 6.96985 17.7641 7.92865C17.6981 8.58265 17.4305 9.18505 16.9385 9.76225L8.68247 18.2198C8.60668 18.2979 8.5161 18.3601 8.41602 18.4027C8.31595 18.4454 8.20838 18.4677 8.09958 18.4684C7.99079 18.4691 7.88295 18.4481 7.78236 18.4066C7.68177 18.3652 7.59043 18.3042 7.51367 18.227C7.35741 18.07 7.2691 17.8579 7.26775 17.6363C7.26641 17.4148 7.35214 17.2016 7.50647 17.0426L15.7229 8.62825C15.9629 8.34625 16.0889 8.06185 16.1189 7.75945C16.1669 7.27945 16.0517 6.92545 15.7529 6.60985C15.6018 6.44839 15.4133 6.32668 15.204 6.25551C14.9947 6.18434 14.771 6.16591 14.5529 6.20185C14.2613 6.24625 13.8533 6.51145 13.3505 7.04665L4.40687 16.175C3.76247 16.961 3.45047 17.795 3.45047 18.7058C3.45047 19.8506 3.86447 20.6702 4.58087 21.377C5.15087 21.941 5.92487 22.277 7.07687 22.325C7.89287 22.3574 8.64887 22.0874 9.30647 21.5546L19.3829 11.1746C20.1569 10.1822 20.5433 9.01465 20.5433 7.64305C20.5433 5.86465 19.8509 4.42225 18.7817 3.40945C17.6897 2.37505 16.4417 1.76545 14.8061 1.68145C13.5965 1.61905 12.3281 2.08945 11.0657 3.05665L3.91367 10.295Z" />
 
</svg>