<svg xmlns="http://www.w3.org/2000/svg" width="16" height="16" viewBox="0 0 16 16" >
 
    <path fill-rule="evenodd" clip-rule="evenodd" d="M9.47075 1.16425C9.87169 0.742208 10.4211 0.5 10.9998 0.5C11.2858 0.5 11.5683 0.559327 11.8309 0.673859C12.0936 0.788361 12.3305 0.955443 12.5288 1.16425C12.7271 1.373 12.8832 1.61946 12.9892 1.88892C13.0336 2.00175 13.0691 2.11803 13.0954 2.23656H15C15.2761 2.23656 15.5 2.46042 15.5 2.73656C15.5 3.0127 15.2761 3.23656 15 3.23656H13.0954C13.0691 3.35509 13.0336 3.47136 12.9892 3.5842C12.8832 3.85366 12.7271 4.10011 12.5288 4.30886C12.3305 4.51767 12.0936 4.68475 11.8309 4.79926C11.5683 4.91379 11.2858 4.97311 10.9998 4.97311C10.4211 4.97311 9.87169 4.73091 9.47075 4.30886C9.18639 4.00954 8.99271 3.63706 8.90445 3.23656H1C0.723858 3.23656 0.5 3.0127 0.5 2.73656C0.5 2.46042 0.723858 2.23656 1 2.23656H8.90445C8.99271 1.83605 9.18639 1.46358 9.47075 1.16425ZM10.9998 1.5C10.7034 1.5 10.4136 1.62371 10.1957 1.853C9.97709 2.08316 9.85005 2.40056 9.85005 2.73656C9.85005 3.07255 9.97709 3.38995 10.1957 3.62011C10.4136 3.84941 10.7034 3.97311 10.9998 3.97311C11.1471 3.97311 11.2936 3.94261 11.4313 3.8826C11.569 3.82256 11.6958 3.73382 11.8038 3.62011C11.9119 3.50636 11.9989 3.36994 12.0587 3.21802C12.1189 3.06504 12.1503 2.90129 12.1503 2.73656C12.1503 2.57182 12.1189 2.40807 12.0587 2.25509C11.9989 2.10318 11.9119 1.96676 11.8038 1.853C11.6958 1.7393 11.569 1.65055 11.4313 1.59052C11.2936 1.53051 11.1471 1.5 10.9998 1.5ZM2.47075 6.4273C2.87169 6.00525 3.42112 5.76304 3.99978 5.76304C4.57844 5.76304 5.12788 6.00525 5.52882 6.4273C5.81298 6.72641 6.00718 7.09884 6.09573 7.4996H15C15.2761 7.4996 15.5 7.72346 15.5 7.9996C15.5 8.27574 15.2761 8.4996 15 8.4996H6.09573C6.00718 8.90036 5.81298 9.27279 5.52882 9.57191C5.12788 9.99395 4.57844 10.2362 3.99978 10.2362C3.42112 10.2362 2.87169 9.99395 2.47075 9.57191C2.18639 9.27258 1.99271 8.90011 1.90445 8.4996H1C0.723858 8.4996 0.5 8.27574 0.5 7.9996C0.5 7.72346 0.723858 7.4996 1 7.4996H1.90445C1.99271 7.0991 2.18639 6.72662 2.47075 6.4273ZM3.99978 6.76304C3.70337 6.76304 3.41358 6.88675 3.19575 7.11604C2.97709 7.34621 2.85005 7.66361 2.85005 7.9996C2.85005 8.3356 2.97709 8.65299 3.19575 8.88316C3.41358 9.11245 3.70337 9.23616 3.99978 9.23616C4.29619 9.23616 4.58599 9.11245 4.80382 8.88316C5.02286 8.65259 5.15027 8.33503 5.15027 7.9996C5.15027 7.66418 5.02286 7.34661 4.80382 7.11604C4.58599 6.88675 4.29619 6.76304 3.99978 6.76304ZM7.47064 11.6903C7.87158 11.2683 8.42102 11.0261 8.99968 11.0261C9.57844 11.0261 10.128 11.2683 10.529 11.6905C10.8133 11.9897 11.0073 12.362 11.0957 12.7626H15C15.2761 12.7626 15.5 12.9865 15.5 13.2626C15.5 13.5388 15.2761 13.7626 15 13.7626H11.0957C11.0073 14.1635 10.8134 14.5363 10.529 14.8356C10.128 15.2577 9.57844 15.5 8.99968 15.5C8.42041 15.5 7.87116 15.2565 7.47064 14.835C7.18628 14.5356 6.9926 14.1632 6.90434 13.7626H1C0.723858 13.7626 0.5 13.5388 0.5 13.2626C0.5 12.9865 0.723858 12.7626 1 12.7626H6.90434C6.9926 12.3621 7.18628 11.9897 7.47064 11.6903ZM8.99968 12.0261C8.70327 12.0261 8.41347 12.1498 8.19564 12.3791C7.97699 12.6093 7.84995 12.9267 7.84995 13.2626C7.84995 13.5986 7.97699 13.916 8.19564 14.1462C8.4139 14.3759 8.70387 14.5 8.99968 14.5C9.29619 14.5 9.58608 14.3762 9.80398 14.1469C10.0228 13.9165 10.1502 13.5986 10.1502 13.2626C10.1502 12.9269 10.023 12.6097 9.80398 12.3792C9.58608 12.1498 9.29619 12.0261 8.99968 12.0261Z" />
  
</svg>