<svg width="41" height="41" viewBox="0 0 41 41" xmlns="http://www.w3.org/2000/svg">
    <path d="M15.3729 19.2378H6.59766V30.2069H15.3729V19.2378Z" />
    <path d="M25.2479 19.2378H16.4727V30.2069H25.2479V19.2378Z" />
    <path d="M35.1151 19.2378H26.3398V30.2069H35.1151V19.2378Z" />
    <path
        d="M14.9438 30.7554H6.88963C6.72838 30.7554 6.59766 30.8861 6.59766 31.0473V32.7943C6.59766 32.9556 6.72838 33.0863 6.88963 33.0863H14.9438C15.1051 33.0863 15.2358 32.9556 15.2358 32.7943V31.0473C15.2358 30.8861 15.1051 30.7554 14.9438 30.7554Z" />
    <path
        d="M24.8188 30.7554H16.7646C16.6034 30.7554 16.4727 30.8861 16.4727 31.0473V32.7943C16.4727 32.9556 16.6034 33.0863 16.7646 33.0863H24.8188C24.9801 33.0863 25.1108 32.9556 25.1108 32.7943V31.0473C25.1108 30.8861 24.9801 30.7554 24.8188 30.7554Z" />
    <path
        d="M34.686 30.7554H26.6318C26.4706 30.7554 26.3398 30.8861 26.3398 31.0473V32.7943C26.3398 32.9556 26.4706 33.0863 26.6318 33.0863H34.686C34.8473 33.0863 34.978 32.9556 34.978 32.7943V31.0473C34.978 30.8861 34.8473 30.7554 34.686 30.7554Z" />
    <path d="M15.2393 18.6895H6.73828L10.7301 13.7595V8.68018H11.2475V13.7595L15.2393 18.6895Z" />
    <path d="M25.1065 18.6895H16.6055L20.5973 13.7595V8.68018H21.1147V13.7595L25.1065 18.6895Z" />
    <path d="M34.9815 18.6895H26.4805L30.4723 13.7595V8.68018H30.9897V13.7595L34.9815 18.6895Z" />
    <rect x="6.73828" y="8.26855" width="26.7371" height="0.548453" rx="0.274227" />
</svg>