<svg width="40" height="40" viewBox="0 0 40 40" xmlns="http://www.w3.org/2000/svg">
    <path d="M20 0C8.96 0 0 8.96 0 20C0 31.04 8.96 40 20 40C31.04 40 40 31.04 40 20C40 8.96 31.04 0 20 0Z" />
    <path fill-rule="evenodd" clip-rule="evenodd"
        d="M28 26.9285L26.9285 28L22.5293 23.6008C21.4217 24.4769 20.0219 25 18.5 25C14.9101 25 12 22.0899 12 18.5C12 14.9101 14.9101 12 18.5 12C22.0899 12 25 14.9101 25 18.5C25 20.0219 24.4769 21.4217 23.6008 22.5293L28 26.9285ZM18.5156 23.5156C21.277 23.5156 23.5156 21.277 23.5156 18.5156C23.5156 15.7542 21.277 13.5156 18.5156 13.5156C15.7542 13.5156 13.5156 15.7542 13.5156 18.5156C13.5156 21.277 15.7542 23.5156 18.5156 23.5156Z"
        fill="currentColor" />
</svg>