<svg width="69" height="68" viewBox="0 0 69 68" xmlns="http://www.w3.org/2000/svg">
    <path
        d="M0.823741 45.3618C0.823741 45.9618 0.723741 46.4618 0.823741 47.0618C0.923741 47.6618 1.12374 48.3618 1.32374 48.9618C1.72374 50.2618 2.12364 51.4618 2.72364 52.6618C3.82364 54.9618 5.22372 57.1618 6.92372 59.0618C10.3237 62.9618 14.9237 66.0618 20.0237 67.1618C20.6237 67.2618 20.7236 66.0618 20.2236 65.8618C15.4236 64.3618 11.0237 61.8618 7.62367 58.1618C5.92367 56.3618 4.52372 54.1618 3.42372 51.9618C2.92372 50.8618 2.42367 49.7618 2.12367 48.6618C1.92367 47.9618 1.72367 47.3618 1.62367 46.6618C1.52367 46.1618 1.32367 45.8618 1.12367 45.3618C1.02367 44.9618 0.823741 45.1618 0.823741 45.3618Z" />
    <path
        d="M32.3241 1.66141C36.0241 1.76141 39.7241 1.9614 43.3241 2.9614C46.9241 3.9614 50.3241 5.4614 53.4241 7.4614C59.6241 11.4614 64.624 17.2614 67.224 24.1614C67.524 25.0614 68.2241 24.0614 68.0241 23.4614C65.4241 16.2614 60.3241 10.2614 53.8241 6.16141C47.6241 2.26141 39.624 -0.438587 32.224 0.661413C31.824 0.761413 31.8241 1.66141 32.3241 1.66141Z" />
</svg>