<svg width="40" height="40" viewBox="0 0 40 40" xmlns="http://www.w3.org/2000/svg">
    <path
        d="M20 0C8.96 0 0 8.96 0 20C0 31.04 8.96 40 20 40C31.04 40 40 31.04 40 20C40 8.96 31.04 0 20 0ZM29.28 13.6C28.98 16.76 27.68 24.44 27.02 27.98C26.74 29.48 26.18 29.98 25.66 30.04C24.5 30.14 23.62 29.28 22.5 28.54C20.74 27.38 19.74 26.66 18.04 25.54C16.06 24.24 17.34 23.52 18.48 22.36C18.78 22.06 23.9 17.4 24 16.98C24.0139 16.9164 24.012 16.8503 23.9946 16.7876C23.9772 16.7249 23.9447 16.6673 23.9 16.62C23.78 16.52 23.62 16.56 23.48 16.58C23.3 16.62 20.5 18.48 15.04 22.16C14.24 22.7 13.52 22.98 12.88 22.96C12.16 22.94 10.8 22.56 9.78 22.22C8.52 21.82 7.54 21.6 7.62 20.9C7.66 20.54 8.16 20.18 9.1 19.8C14.94 17.26 18.82 15.58 20.76 14.78C26.32 12.46 27.46 12.06 28.22 12.06C28.38 12.06 28.76 12.1 29 12.3C29.2 12.46 29.26 12.68 29.28 12.84C29.26 12.96 29.3 13.32 29.28 13.6Z" />
    <path
        d="M29.2798 13.5996C28.9798 16.7596 27.6798 24.4396 27.0198 27.9796C26.7398 29.4796 26.1798 29.9796 25.6598 30.0396C24.4998 30.1396 23.6198 29.2796 22.4998 28.5396C20.7398 27.3796 19.7398 26.6596 18.0398 25.5396C16.0598 24.2396 17.3398 23.5196 18.4798 22.3596C18.7798 22.0596 23.8998 17.3996 23.9998 16.9796C24.0137 16.916 24.0118 16.8499 23.9944 16.7872C23.977 16.7244 23.9445 16.6669 23.8998 16.6196C23.7798 16.5196 23.6198 16.5596 23.4798 16.5796C23.2998 16.6196 20.4998 18.4796 15.0398 22.1596C14.2398 22.6996 13.5198 22.9796 12.8798 22.9596C12.1598 22.9396 10.7998 22.5596 9.77981 22.2196C8.51981 21.8196 7.53981 21.5996 7.61981 20.8996C7.65981 20.5396 8.15981 20.1796 9.09981 19.7996C14.9398 17.2596 18.8198 15.5796 20.7598 14.7796C26.3198 12.4596 27.4598 12.0596 28.2198 12.0596C28.3798 12.0596 28.7598 12.0996 28.9998 12.2996C29.1998 12.4596 29.2598 12.6796 29.2798 12.8396C29.2598 12.9596 29.2998 13.3196 29.2798 13.5996Z"
        fill="currentColor" />
</svg>