<svg xmlns="http://www.w3.org/2000/svg" width="41" height="40" viewBox="0 0 41 40" >
  <path d="M29.794 13.5996C29.494 16.7596 28.194 24.4396 27.534 27.9796C27.254 29.4796 26.694 29.9796 26.174 30.0396C25.014 30.1396 24.134 29.2796 23.014 28.5396C21.254 27.3796 20.254 26.6596 18.554 25.5396C16.574 24.2396 17.854 23.5196 18.994 22.3596C19.294 22.0596 24.414 17.3996 24.514 16.9796C24.5279 16.916 24.526 16.8499 24.5086 16.7872C24.4912 16.7244 24.4587 16.6669 24.414 16.6196C24.294 16.5196 24.134 16.5596 23.994 16.5796C23.814 16.6196 21.014 18.4796 15.554 22.1596C14.754 22.6996 14.034 22.9796 13.394 22.9596C12.674 22.9396 11.314 22.5596 10.294 22.2196C9.03397 21.8196 8.05397 21.5996 8.13397 20.8996C8.17397 20.5396 8.67397 20.1796 9.61397 19.7996C15.454 17.2596 19.334 15.5796 21.274 14.7796C26.834 12.4596 27.974 12.0596 28.734 12.0596C28.894 12.0596 29.274 12.0996 29.514 12.2996C29.714 12.4596 29.774 12.6796 29.794 12.8396C29.774 12.9596 29.814 13.3196 29.794 13.5996Z"/>
</svg>