<svg width="41" height="41" viewBox="0 0 41 41" xmlns="http://www.w3.org/2000/svg">
    <path
        d="M23.6825 28.8865H13.3337C13.3337 26.7857 11.3884 25.8024 10.4547 25.6963C7.71576 25.3851 6.56416 27.7194 6.71978 28.8865H5.47481C4.47883 28.8865 4.12609 27.901 4.07422 27.4082V12.2351C4.07422 10.9279 5.00795 10.6529 5.47481 10.6789H22.4375C23.4957 10.6789 23.7084 11.7163 23.6825 12.2351V28.8865Z" />
    <path fill-rule="evenodd" clip-rule="evenodd"
        d="M9.98509 31.688C11.4892 31.688 12.7085 30.4687 12.7085 28.9646C12.7085 27.4605 11.4892 26.2412 9.98509 26.2412C8.48101 26.2412 7.26172 27.4605 7.26172 28.9646C7.26172 30.4687 8.48101 31.688 9.98509 31.688ZM9.98357 30.1317C10.6282 30.1317 11.1507 29.6091 11.1507 28.9645C11.1507 28.3199 10.6282 27.7974 9.98357 27.7974C9.33896 27.7974 8.81641 28.3199 8.81641 28.9645C8.81641 29.6091 9.33896 30.1317 9.98357 30.1317Z" />
    <path fill-rule="evenodd" clip-rule="evenodd"
        d="M29.282 31.688C30.786 31.688 32.0053 30.4687 32.0053 28.9646C32.0053 27.4605 30.786 26.2412 29.282 26.2412C27.7779 26.2412 26.5586 27.4605 26.5586 28.9646C26.5586 30.4687 27.7779 31.688 29.282 31.688ZM29.2804 30.1317C29.925 30.1317 30.4476 29.6091 30.4476 28.9645C30.4476 28.3199 29.925 27.7974 29.2804 27.7974C28.6358 27.7974 28.1133 28.3199 28.1133 28.9645C28.1133 29.6091 28.6358 30.1317 29.2804 30.1317Z" />
    <path fill-rule="evenodd" clip-rule="evenodd"
        d="M24.8477 28.9001V14.3763C24.8477 14.1027 24.9566 13.7915 25.3923 13.7915H30.45C30.7613 13.7915 31.0569 14.0249 31.3059 14.3362C31.5549 14.6474 34.989 18.9789 36.6749 21.1057C36.8599 21.3391 36.9861 21.7904 36.9861 22.3507V27.7974C36.9861 28.1865 36.7862 28.9646 35.9746 28.9646C35.7113 28.9646 35.3721 28.967 35.0065 28.9697C34.1835 28.9756 33.2274 28.9825 32.7065 28.9646C32.6287 28.0049 31.9595 26.07 29.9053 25.6965C27.3376 25.2297 25.8592 27.564 25.937 28.8868L24.8477 28.9001ZM26.7931 15.3476H29.7499L34.1851 20.7944H26.7931V15.3476Z" />
</svg>