<svg xmlns="http://www.w3.org/2000/svg" width="41" height="40" viewBox="0 0 41 40">
  <path d="M27.9775 22.5641C27.9775 22.5641 29.7463 24.31 30.1817 25.1204C30.1942 25.1384 30.2018 25.1523 30.2046 25.162C30.381 25.4579 30.4247 25.6919 30.3358 25.8641C30.19 26.1516 29.69 26.2933 29.5192 26.3058H26.3942C26.1775 26.3058 25.7233 26.2495 25.1733 25.8704C24.7504 25.5745 24.3338 25.0891 23.9275 24.6162C23.3213 23.912 22.7963 23.3037 22.2671 23.3037C22.1999 23.3034 22.133 23.314 22.0692 23.335C21.6692 23.4641 21.1567 24.035 21.1567 25.5558C21.1567 26.0308 20.7817 26.3037 20.5171 26.3037H19.0858C18.5983 26.3037 16.0588 26.1329 13.8088 23.76C11.0546 20.8537 8.57542 15.0245 8.55459 14.9704C8.39834 14.5933 8.72126 14.3912 9.07334 14.3912H12.2296C12.6504 14.3912 12.7879 14.6475 12.8838 14.8745C12.9963 15.1391 13.4088 16.1912 14.0858 17.3745C15.1838 19.3037 15.8567 20.087 16.3963 20.087C16.4974 20.0859 16.5968 20.0601 16.6858 20.012C17.39 19.6204 17.2588 17.11 17.2275 16.5891C17.2275 16.4912 17.2254 15.4662 16.865 14.9745C16.6067 14.6183 16.1671 14.4829 15.9004 14.4329C16.0084 14.2839 16.1506 14.1632 16.315 14.0808C16.7983 13.8391 17.6692 13.8037 18.5338 13.8037H19.015C19.9525 13.8162 20.1942 13.8766 20.5338 13.962C21.2213 14.1266 21.2358 14.5704 21.1754 16.0891C21.1567 16.5204 21.1379 17.0079 21.1379 17.5829L21.1317 17.9829C21.1108 18.7558 21.0858 19.6329 21.6317 19.9933C21.7021 20.0397 21.7849 20.0637 21.8692 20.062C22.0588 20.062 22.6296 20.062 24.1754 17.41C24.6504 16.5554 25.0646 15.6685 25.415 14.7558C25.4463 14.7016 25.5379 14.535 25.6463 14.4704C25.7271 14.432 25.8151 14.4114 25.9046 14.41H29.615C30.0192 14.41 30.2963 14.4704 30.3483 14.6266C30.44 14.8745 30.3317 15.6308 28.6379 17.9245L27.8817 18.9225C26.3463 20.935 26.3463 21.037 27.9775 22.5641Z" />
</svg>