<svg width="40" height="40" viewBox="0 0 40 40" xmlns="http://www.w3.org/2000/svg">

    <path
        d="M20 0C8.95417 0 0 8.95417 0 20C0 31.0458 8.95417 40 20 40C31.0458 40 40 31.0458 40 20C40 8.95417 31.0458 0 20 0ZM27.6917 22.5646C27.6917 22.5646 29.4604 24.3104 29.8958 25.1208C29.9083 25.1389 29.916 25.1528 29.9187 25.1625C30.0951 25.4583 30.1389 25.6924 30.05 25.8646C29.9042 26.1521 29.4042 26.2938 29.2333 26.3063H26.1083C25.8917 26.3063 25.4375 26.25 24.8875 25.8708C24.4646 25.575 24.0479 25.0896 23.6417 24.6167C23.0354 23.9125 22.5104 23.3042 21.9813 23.3042C21.914 23.3039 21.8472 23.3144 21.7833 23.3354C21.3833 23.4646 20.8708 24.0354 20.8708 25.5562C20.8708 26.0312 20.4958 26.3042 20.2313 26.3042H18.8C18.3125 26.3042 15.7729 26.1333 13.5229 23.7604C10.7687 20.8542 8.28958 15.025 8.26875 14.9708C8.1125 14.5937 8.43542 14.3917 8.7875 14.3917H11.9437C12.3646 14.3917 12.5021 14.6479 12.5979 14.875C12.7104 15.1396 13.1229 16.1917 13.8 17.375C14.8979 19.3042 15.5708 20.0875 16.1104 20.0875C16.2116 20.0863 16.311 20.0606 16.4 20.0125C17.1042 19.6208 16.9729 17.1104 16.9417 16.5896C16.9417 16.4917 16.9396 15.4667 16.5792 14.975C16.3208 14.6187 15.8812 14.4833 15.6146 14.4333C15.7225 14.2844 15.8647 14.1636 16.0292 14.0812C16.5125 13.8396 17.3833 13.8042 18.2479 13.8042H18.7292C19.6667 13.8167 19.9083 13.8771 20.2479 13.9625C20.9354 14.1271 20.95 14.5708 20.8896 16.0896C20.8708 16.5208 20.8521 17.0083 20.8521 17.5833L20.8458 17.9833C20.825 18.7562 20.8 19.6333 21.3458 19.9937C21.4162 20.0402 21.499 20.0641 21.5833 20.0625C21.7729 20.0625 22.3437 20.0625 23.8896 17.4104C24.3645 16.5559 24.7788 15.669 25.1292 14.7562C25.1604 14.7021 25.2521 14.5354 25.3604 14.4708C25.4412 14.4324 25.5293 14.4118 25.6187 14.4104H29.3292C29.7333 14.4104 30.0104 14.4708 30.0625 14.6271C30.1542 14.875 30.0458 15.6312 28.3521 17.925L27.5958 18.9229C26.0604 20.9354 26.0604 21.0375 27.6917 22.5646Z" />
    <path
        d="M27.6919 22.5641C27.6919 22.5641 29.4606 24.31 29.896 25.1204C29.9085 25.1384 29.9162 25.1523 29.9189 25.162C30.0953 25.4579 30.1391 25.6919 30.0502 25.8641C29.9044 26.1516 29.4044 26.2933 29.2335 26.3058H26.1085C25.8919 26.3058 25.4377 26.2495 24.8877 25.8704C24.4648 25.5745 24.0481 25.0891 23.6419 24.6162C23.0356 23.912 22.5106 23.3037 21.9814 23.3037C21.9142 23.3034 21.8474 23.314 21.7835 23.335C21.3835 23.4641 20.871 24.035 20.871 25.5558C20.871 26.0308 20.496 26.3037 20.2314 26.3037H18.8002C18.3127 26.3037 15.7731 26.1329 13.5231 23.76C10.7689 20.8537 8.28978 15.0245 8.26895 14.9704C8.1127 14.5933 8.43561 14.3912 8.7877 14.3912H11.9439C12.3648 14.3912 12.5023 14.6475 12.5981 14.8745C12.7106 15.1391 13.1231 16.1912 13.8002 17.3745C14.8981 19.3037 15.571 20.087 16.1106 20.087C16.2118 20.0859 16.3112 20.0601 16.4002 20.012C17.1044 19.6204 16.9731 17.11 16.9419 16.5891C16.9419 16.4912 16.9398 15.4662 16.5794 14.9745C16.321 14.6183 15.8814 14.4829 15.6148 14.4329C15.7227 14.2839 15.8649 14.1632 16.0294 14.0808C16.5127 13.8391 17.3835 13.8037 18.2481 13.8037H18.7294C19.6669 13.8162 19.9085 13.8766 20.2481 13.962C20.9356 14.1266 20.9502 14.5704 20.8898 16.0891C20.871 16.5204 20.8523 17.0079 20.8523 17.5829L20.846 17.9829C20.8252 18.7558 20.8002 19.6329 21.346 19.9933C21.4164 20.0397 21.4992 20.0637 21.5835 20.062C21.7731 20.062 22.3439 20.062 23.8898 17.41C24.3647 16.5554 24.779 15.6685 25.1294 14.7558C25.1606 14.7016 25.2523 14.535 25.3606 14.4704C25.4414 14.432 25.5295 14.4114 25.6189 14.41H29.3294C29.7335 14.41 30.0106 14.4704 30.0627 14.6266C30.1544 14.8745 30.046 15.6308 28.3523 17.9245L27.596 18.9225C26.0606 20.935 26.0606 21.037 27.6919 22.5641Z"
        fill="currentColor" />

</svg>