<svg width="41" height="40" viewBox="0 0 41 40" xmlns="http://www.w3.org/2000/svg">
    <path
        d="M12.7712 22.2759C14.5516 23.6112 17.0441 27.3366 12.7712 31.5562C9.56643 29.1526 9.63318 24.7462 12.7712 22.2759Z" />
    <path
        d="M21.9396 27.5131C19.9005 26.6215 15.4305 26.2876 13.8635 32.0847C17.5338 33.6896 21.3357 31.4608 21.9396 27.5131Z" />
    <path
        d="M16.2868 16.1333C18.0672 17.4686 20.5597 21.1941 16.2868 25.4136C13.0821 23.0101 13.1488 18.6036 16.2868 16.1333Z" />
    <path
        d="M25.5568 21.4296C23.5177 20.538 19.0477 20.2041 17.4807 26.0012C21.151 27.6061 24.9529 25.3773 25.5568 21.4296Z" />
    <path
        d="M19.7555 9.99121C21.5359 11.3265 24.0285 15.052 19.7555 19.2715C16.5508 16.868 16.6176 12.4615 19.7555 9.99121Z" />
    <path
        d="M29.0568 15.3827C27.0177 14.4911 22.5477 14.1572 20.9807 19.9544C24.651 21.5592 28.4529 19.3304 29.0568 15.3827Z" />
    <path
        d="M27.4489 7.06616C28.4282 9.06463 28.9557 13.5159 23.232 15.3331C21.4694 11.7358 23.5311 7.84083 27.4489 7.06616Z" />
</svg>