<svg xmlns="http://www.w3.org/2000/svg" width="16" height="16" viewBox="0 0 16 16" fill="none">
  <g opacity="0.5">
    <path fill-rule="evenodd" clip-rule="evenodd" d="M7.66406 3.16602C6.47059 3.16602 5.326 3.64012 4.48208 4.48404C3.63817 5.32795 3.16406 6.47254 3.16406 7.66602C3.16406 8.85949 3.63817 10.0041 4.48208 10.848C5.326 11.6919 6.47059 12.166 7.66406 12.166C8.85754 12.166 10.0021 11.6919 10.846 10.848C11.69 10.0041 12.1641 8.85949 12.1641 7.66602C12.1641 6.47254 11.69 5.32795 10.846 4.48404C10.0021 3.64012 8.85754 3.16602 7.66406 3.16602ZM3.77498 3.77693C4.80643 2.74548 6.20537 2.16602 7.66406 2.16602C9.12275 2.16602 10.5217 2.74548 11.5532 3.77693C12.5846 4.80838 13.1641 6.20732 13.1641 7.66602C13.1641 8.96139 12.7071 10.2096 11.8824 11.1953L13.6663 12.9791C13.8615 13.1744 13.8615 13.491 13.6663 13.6862C13.471 13.8815 13.1544 13.8815 12.9592 13.6862L11.1737 11.9007C10.1911 12.7151 8.95085 13.166 7.66406 13.166C6.20537 13.166 4.80643 12.5866 3.77498 11.5551C2.74353 10.5237 2.16406 9.12471 2.16406 7.66602C2.16406 6.20732 2.74353 4.80838 3.77498 3.77693Z" fill="#313131"/>
  </g>
</svg>