<svg xmlns="http://www.w3.org/2000/svg" width="91" height="90" viewBox="0 0 91 90" fill="none">
    <path fill-rule="evenodd" clip-rule="evenodd"
        d="M45.5 90C70.3528 90 90.5 69.8528 90.5 45C90.5 20.1472 70.3528 0 45.5 0C20.6472 0 0.5 20.1472 0.5 45C0.5 69.8528 20.6472 90 45.5 90ZM48.6818 20.4767C47.5301 23.239 47.7155 26.0957 48.2609 27.8337C53.9486 26.0822 56.2072 23.3721 56.8975 20.4767H69.9027V65.8446H48.4449V69.0326H73.0907V17.2887H57.1184C57.0369 16.1122 56.8112 14.9511 56.5621 13.8555C53.9718 14.6752 52.0967 15.8909 50.7646 17.2887H21.1016V69.0326H45.3182V67.879C48.1642 60.9677 44.6536 46.4295 30.543 41.5053C28.4926 47.3101 29.2185 58.441 39.4895 65.8446H24.2896V20.4767H48.6818ZM49.0094 41.6893C47.6027 37.3262 48.0165 27.4577 59.9321 23.7873C61.3719 29.9496 62.2159 37.731 49.0094 41.6893ZM48.1997 61.7982C46.4626 55.8514 47.28 41.9713 61.9939 36.9685C63.7719 45.3677 64.5076 56.4032 48.1997 61.7982ZM34.7733 30.6538C33.118 34.7615 34.7732 43.0993 44.8278 47.3909C47.0349 43.7124 45.1956 33.8418 34.7733 30.6538ZM38.2767 21.5803C37.159 24.2886 38.2767 29.7861 45.0662 32.6157C46.5565 30.1903 45.3146 23.6822 38.2767 21.5803Z"
        fill="#136729" />
</svg>