<svg width="90" height="90" viewBox="0 0 90 90" fill="none" xmlns="http://www.w3.org/2000/svg">
    <circle cx="45" cy="45" r="45" fill="#166F2F" />
    <path
        d="M48.3895 65.9002C47.7656 65.9002 47.2598 66.406 47.2598 67.0299C47.2598 67.6538 47.7656 68.1596 48.3895 68.1596V65.9002ZM22.5946 21.8416H67.0297V19.5822H22.5946V21.8416ZM67.0297 21.8416V65.9002H69.2891V21.8416H67.0297ZM22.5946 65.9002V21.8416H20.3351V65.9002H22.5946ZM43.6824 65.9002H22.5945V68.1596H43.6824V65.9002ZM67.0297 65.9002H48.3895V68.1596H67.0297V65.9002ZM20.3351 65.9002C20.3351 67.148 21.3467 68.1596 22.5945 68.1596V65.9002H22.5946H20.3351ZM67.0297 65.9002V65.9002V68.1596C68.2775 68.1596 69.2891 67.148 69.2891 65.9002H67.0297ZM67.0297 21.8416V21.8416H69.2891C69.2891 20.5938 68.2775 19.5822 67.0297 19.5822V21.8416ZM22.5946 19.5822C21.3467 19.5822 20.3351 20.5938 20.3351 21.8416H22.5946V21.8416V19.5822Z"
        fill="white" />
    <path
        d="M31.6455 45.001C31.5355 45.001 31.4453 45.0906 31.4453 45.2021V54.2051C31.4453 60.7684 36.7509 66.0887 43.2949 66.0889C43.4049 66.0889 43.495 65.9992 43.4951 65.8877V56.8838C43.495 50.3206 38.1895 45.0012 31.6455 45.001Z"
        fill="white" stroke="white" stroke-width="0.376569" />
    <path
        d="M34.9287 31.4443C34.8752 31.4443 34.834 31.4869 34.834 31.5361V38.0117C34.834 42.7017 38.6685 46.5068 43.4014 46.5068C43.4547 46.5067 43.4951 46.4642 43.4951 46.415V39.9385C43.4949 35.2487 39.6613 31.4445 34.9287 31.4443Z"
        fill="white" stroke="white" stroke-width="0.376569" />
    <path
        d="M55.4502 27.3018C55.5081 27.3018 55.5449 27.3456 55.5449 27.3867V33.7051C55.5448 38.2737 51.7147 41.9873 46.9775 41.9873C46.9198 41.9872 46.8838 41.9434 46.8838 41.9023V35.585C46.8838 31.0163 50.7131 27.3019 55.4502 27.3018Z"
        fill="white" stroke="white" stroke-width="0.376569" />
    <path
        d="M52.8965 17.1357C52.9047 17.1357 52.9092 17.1418 52.9092 17.1455V21.7266C52.9089 25.0125 50.2181 27.6796 46.8955 27.6797C46.8875 27.6797 46.884 27.6737 46.8838 27.6699V23.0889C46.8838 19.8028 49.5739 17.136 52.8965 17.1357Z"
        fill="white" stroke="white" stroke-width="0.376569" />
    <path
        d="M38.5996 27.3037C38.5997 29.998 40.7886 32.1845 43.4951 32.1973V28.4316C43.4951 25.7371 41.3064 23.5496 38.5996 23.5371V27.3037Z"
        fill="white" stroke="white" stroke-width="0.376569" />
    <path
        d="M58.7334 40.4824C58.8434 40.4824 58.9336 40.572 58.9336 40.6836V49.6865C58.9336 56.2498 53.628 61.5701 47.084 61.5703C46.974 61.5703 46.8839 61.4806 46.8838 61.3691V52.3652C46.8839 45.802 52.1894 40.4826 58.7334 40.4824Z"
        fill="white" stroke="white" stroke-width="0.376569" />
</svg>