<svg xmlns="http://www.w3.org/2000/svg" width="1200" height="791" viewBox="0 0 1200 791" fill="none">
    <path
        d="M308.634 121.134C307.05 126.797 306.565 132.698 305.536 138.488C303.664 149.003 299.97 159.19 294.661 168.463C292.411 172.396 289.857 176.187 286.69 179.428C283.723 182.458 280.271 184.962 276.813 187.418C270.966 191.576 265.057 195.643 259.09 199.625C250.006 205.681 240.58 211.624 229.993 214.311C221.606 216.438 212.54 216.518 204.926 220.617C202.244 222.059 199.322 224.487 196.841 226.245C195.853 226.94 194.841 227.67 194.224 228.707C193.455 230.008 193.424 231.602 193.451 233.114C193.6 241.108 194.838 249.219 193.094 257.022C192.256 260.765 190.755 264.324 189.605 267.983C188.218 272.404 187.342 276.984 187.005 281.608C186.659 286.364 186.877 291.179 185.997 295.866C185.117 300.553 182.933 305.267 178.917 307.848C174.321 310.802 168.44 310.393 162.999 310.923C159.509 311.262 156.065 312.033 152.765 313.209C151.019 313.828 148.981 315.146 149.355 316.959C149.532 317.809 150.225 318.446 150.88 319.024C155.864 323.403 160.847 327.785 165.831 332.164C161.682 338.075 154.415 342.274 147.591 344.661C140.767 347.048 133.611 348.535 127.033 351.531C125.228 352.354 123.429 353.322 122.147 354.834C120.553 356.709 119.936 359.203 119.444 361.613C117.728 369.998 116.612 379.226 110.516 385.241C106.233 389.468 100.22 391.315 94.5434 393.321C93.4171 393.719 92.2526 394.155 91.4278 395.02C88.8321 397.745 91.0397 402.844 88.5479 405.659C87.2171 407.164 85.0269 407.444 83.0792 407.946C78.6432 409.091 74.54 412.048 72.7587 416.258C70.9774 420.471 71.9477 425.894 75.5623 428.706C78.2482 430.796 81.8351 431.224 85.2279 431.539C92.315 432.193 100.993 431.906 104.5 425.725C106.278 422.591 106.261 418.482 108.766 415.888C111.611 412.944 116.682 413.331 120.071 415.628C123.46 417.925 125.567 421.633 127.56 425.209C129.504 428.699 131.448 432.193 133.393 435.686C130.301 437.001 127.21 438.319 124.122 439.633C122.816 440.19 121.267 441.152 121.481 442.552C121.634 443.556 122.646 444.161 123.54 444.642C131.577 448.945 138.893 454.576 145.103 461.238C146.721 462.971 148.35 464.994 148.364 467.363C148.378 469.397 147.172 471.244 145.779 472.728C137.021 482.064 121.371 480.96 111.376 488.964C118.252 491.451 125.734 492.24 132.98 491.24C135.631 490.874 138.938 490.542 140.39 492.783C141.048 493.797 141.097 495.069 141.152 496.277C141.571 505.637 143.571 514.924 147.044 523.626C148.18 526.473 143.886 528.901 141.114 530.212C128.953 535.975 115.507 539.019 102.046 539.064C96.4252 539.081 89.9723 538.915 86.2329 543.1C84.2991 545.269 83.5297 548.199 82.2267 550.793C77.9779 559.26 68.4717 563.56 59.5028 566.659C56.1723 567.811 52.7483 568.897 49.2238 568.907C45.6993 568.918 42.005 567.697 39.8044 564.947C38.2656 563.024 37.5898 560.554 36.266 558.475C34.9456 556.393 32.4746 554.622 30.1354 555.407C27.0926 556.431 26.4965 560.879 23.5681 562.19C21.6031 563.069 19.1113 562.263 17.2919 563.411C15.5972 564.483 15.2264 566.863 15.7289 568.8C16.2349 570.737 17.4028 572.429 18.2068 574.262C20.5807 579.668 19.4509 586.427 15.4447 590.771C12.7485 593.698 9.04029 595.451 5.84155 597.824C2.64628 600.197 -0.240563 603.697 0.0158905 607.665C0.352053 612.864 5.60589 616.07 9.86857 619.076C26.4722 630.788 34.7931 650.877 48.6485 665.73C57.3021 663.122 63.2664 655.429 64.2021 646.45C64.6111 642.524 64.0046 638.536 64.4863 634.617C65.3527 627.522 70.0035 620.999 76.4391 617.858C82.8713 614.721 90.8872 615.06 97.0282 618.733C99.721 620.345 102.292 622.618 105.429 622.683C107.799 622.732 110.021 621.462 111.74 619.837C115.656 616.136 117.427 610.76 120.449 606.302C123.471 601.847 129.061 598.073 134.023 600.166C136.46 601.193 138.213 603.448 140.657 604.458C148.017 607.506 155.34 597.949 163.245 598.959C165.99 599.311 168.385 600.913 170.967 601.909C177.828 604.562 185.487 602.815 192.845 602.615C198.643 602.456 205.678 604.268 207.244 609.844C209.404 617.523 199.391 623.313 197.971 631.161C206.253 637.304 217.267 637.934 227.581 638.252C235 638.477 242.424 638.664 249.847 638.806C253.326 638.875 256.882 638.923 260.199 637.868C265.026 636.329 268.821 632.638 272.21 628.878C291.919 607.035 305.764 577.901 332.543 565.666C342.884 560.941 354.678 565.224 365.379 569.063C369.919 570.692 374.549 572.574 377.918 576.019C382.846 581.055 384.243 588.551 384.367 595.586C384.492 602.622 383.595 609.737 384.915 616.651C386.461 624.714 391.111 632.144 397.696 637.062C401.834 640.151 406.62 642.237 410.997 644.973C422.413 652.119 431.045 663.706 443.643 668.476C452.917 671.987 463.161 671.337 473.08 671.257C482.998 671.178 493.53 671.918 501.633 677.625C519.075 677.034 535.893 677.494 553.336 676.902C554.452 676.864 555.63 676.84 556.604 677.38C558.191 678.258 558.683 680.257 559.096 682.021C562.107 694.82 569.146 706.248 576.077 717.424C576.586 718.243 577.113 719.084 577.893 719.648C578.714 720.243 579.733 720.481 580.728 720.682C584.128 721.374 587.857 721.778 590.892 720.111C593.492 718.683 595.1 716.002 597.12 713.837C601.605 709.025 608.591 706.687 615.072 707.822C620.534 708.776 625.399 712.007 629.17 716.061C632.94 720.115 635.727 724.975 638.281 729.886C645.507 725.5 649.256 716.742 650.927 708.468C652.597 700.195 652.303 691.665 653.017 683.253C654.223 669.037 659.178 653.942 671.086 646.059C674.878 643.551 679.165 641.915 683.192 639.805C692.958 634.696 701.008 626.91 708.913 619.235C713.079 615.191 719.851 621.878 723.143 626.658C726.2 631.092 728.986 636.786 734.312 637.64C738.943 638.384 743.261 634.945 747.943 634.707C754.981 634.35 760.124 640.919 766.213 644.454C769.547 646.388 773.307 647.443 777.033 648.442C788.473 651.521 799.999 654.284 811.592 656.726C813.986 657.231 816.485 657.767 818.384 659.31C820.114 660.714 821.136 662.79 822.106 664.793C827.533 676.02 832.961 687.251 837.805 698.742C839.275 702.229 840.765 705.85 843.52 708.448C845.27 704.906 848.164 703.854 851.983 702.83C855.802 701.807 859.94 700.959 862.709 698.14C865.963 694.826 866.424 689.721 868.722 685.691C873.078 678.051 882.938 675.719 891.727 675.09C900.512 674.457 910.004 674.557 917.143 669.407C920.377 670.002 921 673.682 921.888 676.843C922.775 680.005 922.709 683.353 923.374 686.566C924.341 691.226 926.947 695.598 930.839 698.348C934.731 701.091 939.919 702.076 944.438 700.572C946.774 699.793 948.86 698.413 951.165 697.552C953.816 696.559 956.682 696.279 959.514 696.155C963 695.996 966.493 696.058 969.983 696.117L1007.66 696.757C1008.24 696.767 1008.85 696.784 1009.36 697.068C1010.35 697.618 1010.58 698.915 1010.68 700.042C1011.06 704.069 1011.2 708.119 1011.11 712.159C1019.21 713.2 1027.29 710.502 1034.78 707.258C1036.57 706.48 1038.45 705.649 1040.4 705.791C1043.24 706.002 1045.61 708.347 1046.49 711.052C1047.37 713.757 1046.98 716.728 1046.11 719.437C1044.42 724.719 1035.45 723.252 1031.31 726.956C1027.99 729.931 1027.54 734.871 1027.31 739.312C1026.98 745.759 1026.8 752.753 1030.53 758.025C1037.32 767.609 1052.3 765.88 1062.05 772.448C1066.11 775.184 1069.06 779.249 1072.71 782.51C1077.24 786.564 1082.87 789.366 1088.85 790.528C1095.7 791.863 1103.84 790.501 1107.7 784.69C1110.64 780.262 1110.34 774.51 1109.87 769.218C1108.66 755.513 1106.95 741.456 1100.39 729.354C1096.69 722.519 1091.49 716.417 1089.02 709.043C1086.19 700.551 1087.29 691.222 1089.66 682.589C1092.02 673.952 1095.59 665.671 1097.73 656.979C1099.1 651.444 1099.93 645.623 1102.91 640.767C1105.16 637.124 1108.45 634.281 1111.51 631.282C1120 622.943 1126.87 612.974 1131.65 602.082C1136.99 589.9 1132.57 574.217 1128.62 561.516C1124.67 548.814 1118.18 537.068 1111.45 525.584C1104.22 513.246 1096.67 501.095 1089.12 488.947C1086.68 485.011 1084.14 480.967 1080.38 478.249C1074.96 474.337 1067.58 473.586 1062.67 469.055C1058.64 465.333 1057.02 459.754 1055.58 454.465C1055.23 453.199 1054.88 451.874 1055.16 450.591C1055.76 447.803 1058.87 446.492 1061.41 445.199C1070.41 440.619 1076.14 431.629 1081.45 423.051C1084.57 417.994 1087.78 412.716 1088.42 406.804C1088.88 402.481 1088.15 397.465 1091.2 394.363C1095.31 390.188 1102.2 393 1108.01 393.799C1120.26 395.487 1131.25 386.794 1140.54 378.652C1143.51 376.048 1140.18 370.821 1138.48 367.258C1136.78 363.696 1135.29 359.351 1137.34 355.975C1143.51 356.349 1149.67 356.719 1155.84 357.093C1157.95 357.217 1160.12 357.335 1162.1 356.612C1165.11 355.508 1167.15 352.603 1168.1 349.549C1169.04 346.491 1169.06 343.243 1169.2 340.047C1169.4 335.315 1169.87 330.594 1170.6 325.91C1170.97 323.579 1171.41 321.206 1172.59 319.152C1175.17 314.613 1180.76 312.497 1183.58 308.097C1187.65 301.736 1184.6 293.324 1185.82 285.877C1187.8 273.898 1200.78 264.998 1199.96 252.885C1191.2 252.252 1181.47 251.166 1175.68 244.556C1172.85 241.315 1171.23 236.985 1167.78 234.408C1165.71 232.865 1163.18 232.107 1160.7 231.381C1155.29 229.79 1149.32 228.226 1144.16 230.506C1141.55 231.654 1139.18 233.771 1136.33 233.657C1135.11 233.609 1133.94 233.135 1132.86 232.547C1127.78 229.78 1124.3 224.474 1118.93 222.319C1115.27 220.852 1111.19 221.035 1107.26 221.329C1105.53 224.889 1103.22 228.621 1099.89 230.779C1098.45 231.717 1096.81 232.301 1095.24 233.021C1091.05 234.947 1087.35 237.88 1083.02 239.489C1076.87 241.772 1069.68 241.08 1064.09 237.662C1056.47 233.017 1052.44 224.173 1050.49 215.48C1048.96 208.715 1048.42 201.731 1048.89 194.813C1049.1 191.742 1049.5 188.667 1050.42 185.723C1052.28 179.708 1056.29 174.378 1061.55 170.908C1077.4 160.469 1071.5 134.351 1082.07 118.606C1085.23 113.902 1089.66 109.343 1089.51 103.681C1089.4 99.3569 1086.59 95.6559 1084.47 91.8856C1081.34 86.3479 1079.54 80.0803 1079.24 73.7366C1079.17 72.3427 1079.11 70.793 1078.11 69.8176C1077.5 69.2227 1076.64 68.9633 1075.8 68.8076C1066.28 66.9986 1056.2 75.5353 1047.39 71.516C1045.33 80.8413 1052.96 89.1289 1057.31 97.6344C1058.62 100.191 1059.67 103.138 1058.84 105.884C1058.47 107.081 1057.78 108.143 1057.09 109.187C1054.14 113.687 1049.3 118.824 1044.34 116.714C1041.25 115.396 1039.66 111.588 1036.44 110.595C1033.1 109.568 1029.79 111.999 1026.98 114.078C1024.17 116.16 1020.28 118.052 1017.38 116.088C1015.98 115.13 1015.23 113.48 1014.62 111.889C1009.67 99.0629 1008.68 84.4904 1000.74 73.2593C996.835 67.7319 991.359 63.218 988.718 56.9884C988.386 56.2102 988.101 55.342 988.347 54.5361C988.68 53.4361 989.841 52.8481 990.888 52.3811L1011.15 43.3672C1014.96 41.6723 1018.85 39.9221 1021.84 37.0235C1026.42 32.5926 1028.29 25.9549 1028.25 19.5939C1028.21 13.2329 1026.47 7.02067 1024.74 0.898352C1017.47 -1.09399 1009.59 0.41756 1002.74 3.56519C995.885 6.71282 989.879 11.3962 983.939 16.0381C974.922 23.0874 965.367 30.9219 962.459 41.9767C961 47.5213 961.385 53.3669 960.602 59.0465C959.112 69.8246 953.206 79.9281 944.542 86.5278C942.175 88.3299 939.583 89.9106 937.698 92.2108C935.809 94.5075 934.752 97.797 936.017 100.485C937.59 103.833 941.815 104.801 945.478 105.369C952.964 106.527 960.453 107.69 967.938 108.848C967.117 111.574 965.072 115.431 964.248 118.156C969.141 118.315 974.034 118.474 978.928 118.634C979.735 118.661 980.591 118.699 981.264 119.142C982.882 120.204 982.459 122.642 981.849 124.472C980.609 128.184 979.008 132.303 975.407 133.849C973.584 134.631 971.536 134.603 969.564 134.808C962.702 135.527 956.232 139.384 952.343 145.07C951.848 145.797 951.38 146.589 951.321 147.464C951.075 151.037 956.46 151.417 959.403 153.469C962.848 155.872 962.66 161.41 960.002 164.662C957.344 167.913 953.071 169.345 948.964 170.231C946.053 170.86 943.045 171.296 940.096 170.881C933.317 169.926 928.043 164.769 922.934 160.213C921.098 158.574 918.855 156.876 916.429 157.308C914.468 157.661 913.026 159.328 911.976 161.019C908.133 167.2 907.36 175.187 909.949 181.991C903.267 185.097 894.929 184.312 888.951 180.009C884.109 176.522 881.021 171.185 877.237 166.578C876.669 165.883 876.003 165.156 875.113 165.014C873.768 164.8 872.635 165.993 871.9 167.138C865.863 176.553 867.973 190.344 859.753 197.937C853.48 203.734 843.648 203.346 835.438 200.967C827.225 198.583 819.334 194.561 810.791 194.211C805.149 193.98 799.556 195.38 794.229 197.252C790.885 198.428 787.454 199.905 785.274 202.696C783.34 205.173 782.64 208.358 781.341 211.215C780.044 214.076 777.674 216.892 774.534 217.006C762.9 217.428 750.583 217.013 738.963 216.331C737.612 216.252 736.149 216.12 735.134 215.221C733.54 213.817 733.852 211.112 735.186 209.458C736.517 207.805 738.554 206.919 740.471 205.999C749.163 201.842 756.863 195.917 764.491 190.036C765.697 189.109 766.938 188.141 767.679 186.809C768.501 185.336 768.618 183.582 768.66 181.894C768.837 174.544 767.929 167.166 765.974 160.079C765.472 158.259 764.855 156.381 763.52 155.042C762.155 153.676 760.218 153.053 758.326 152.659C751.533 151.231 744.276 152.126 738.038 155.16C731.762 158.211 726.709 163.226 721.424 167.775C716.135 172.323 710.202 176.616 703.306 177.695C701.975 177.906 700.537 177.972 699.358 177.325C698.371 176.785 697.702 175.824 696.992 174.952C690.729 167.252 679.899 165.385 670.04 164.146C667.406 163.814 664.671 163.458 662.422 162.047C661.008 161.158 659.872 159.899 658.752 158.657C654.625 154.074 650.494 149.491 646.366 144.908C643.14 141.324 638.271 138.401 635.917 134.195C632.996 128.979 633.627 122.601 634.112 116.648C634.829 107.804 635.041 98.9246 634.743 90.0593C634.725 89.4609 634.687 88.821 634.316 88.3541C634.029 87.9874 633.582 87.7833 633.138 87.6381C628.751 86.1957 624.055 89.2638 621.424 93.0513C618.794 96.8388 617.428 101.387 614.788 105.168C614.157 106.071 613.353 106.987 612.261 107.146C611.409 107.274 610.57 106.904 609.797 106.531C603.161 103.345 596.985 99.2082 591.516 94.2861C589.052 92.0724 586.685 89.6304 585.299 86.6246C584.197 84.2345 583.767 81.5884 583.545 78.9665C582.949 71.8411 583.83 64.6811 583.958 57.5315C584.086 50.3819 583.386 42.9728 579.927 36.7087C575.166 28.0821 566.013 22.9698 557.325 18.3037C552.209 15.5573 550.48 8.11369 547.902 2.92183C542.031 3.27464 535.408 4.00448 531.818 8.65328C529.025 12.2713 528.907 17.3075 526.616 21.2611C524.277 25.2977 519.647 28.3969 519.55 33.0561C519.453 37.8744 524.235 41.1673 526.602 45.363C526.925 45.9337 527.209 46.5598 527.153 47.2135C527.035 48.5521 525.608 49.32 524.363 49.8423C505.317 57.8428 485.909 64.9855 466.218 71.2462C463.629 72.0694 460.947 72.8892 458.24 72.6263C455.176 72.3288 452.435 70.6858 449.784 69.1328C440.524 63.7092 430.799 58.8355 420.34 56.4281C417.034 55.6671 412.976 58.8528 410.994 61.6027C409.008 64.3525 407.705 67.5832 405.452 70.1186C403.03 72.8442 399.696 74.5702 396.39 76.1198C389.223 79.4784 381.813 82.3078 374.3 84.8052C369.84 86.2856 365.327 87.6588 361.044 89.5889C356.296 91.73 351.839 94.549 346.908 96.2335C341.55 98.0633 335.714 98.5233 330.672 101.1C327.237 102.854 324.357 105.503 321.522 108.122C317.547 111.792 312.612 117.461 308.634 121.134Z"
        fill="#E6E3D6" />
</svg>