<svg width="42" height="58" viewBox="0 0 42 58" fill="none" xmlns="http://www.w3.org/2000/svg">

    <path
        d="M38.2135 7.12626C37.7431 7.12626 37.3001 7.03805 36.8845 6.86163C36.4729 6.6813 36.1102 6.43431 35.7966 6.12068C35.483 5.80705 35.236 5.44441 35.0556 5.03277C34.8792 4.61721 34.791 4.1742 34.791 3.70376C34.791 3.23331 34.8792 2.79226 35.0556 2.38062C35.236 1.96506 35.483 1.60046 35.7966 1.28683C36.1102 0.9732 36.4729 0.728175 36.8845 0.551757C37.3001 0.371419 37.7431 0.28125 38.2135 0.28125C38.6879 0.28125 39.1309 0.371419 39.5425 0.551757C39.9581 0.728175 40.3227 0.9732 40.6363 1.28683C40.95 1.60046 41.195 1.96506 41.3714 2.38062C41.5478 2.79226 41.636 3.23331 41.636 3.70376C41.636 4.1742 41.5478 4.61721 41.3714 5.03277C41.195 5.44441 40.95 5.80705 40.6363 6.12068C40.3227 6.43431 39.9581 6.6813 39.5425 6.86163C39.1309 7.03805 38.6879 7.12626 38.2135 7.12626ZM38.2135 6.30298C38.6957 6.30298 39.1329 6.18733 39.5249 5.95602C39.9169 5.7208 40.2286 5.40717 40.4599 5.01513C40.6951 4.61917 40.8127 4.18204 40.8127 3.70376C40.8127 3.22547 40.6951 2.7903 40.4599 2.39826C40.2286 2.0023 39.9169 1.68867 39.5249 1.45737C39.1329 1.22215 38.6957 1.10453 38.2135 1.10453C37.7352 1.10453 37.2981 1.22215 36.9021 1.45737C36.5101 1.68867 36.1965 2.0023 35.9613 2.39826C35.73 2.7903 35.6143 3.22547 35.6143 3.70376C35.6143 4.18204 35.73 4.61917 35.9613 5.01513C36.1965 5.40717 36.5101 5.7208 36.9021 5.95602C37.2981 6.18733 37.7352 6.30298 38.2135 6.30298ZM37.0139 5.24447V2.09247H38.6134C38.7428 2.08855 38.8839 2.12384 39.0368 2.19832C39.1897 2.26889 39.3191 2.37866 39.4249 2.52764C39.5347 2.67661 39.5896 2.86479 39.5896 3.09217C39.5896 3.31172 39.5386 3.4999 39.4367 3.65671C39.3348 3.80961 39.2132 3.92918 39.0721 4.01543L39.719 5.24447H38.9545L38.3958 4.1742H37.7078V5.24447H37.0139ZM37.7078 3.65671H38.3547C38.4487 3.66063 38.5507 3.61555 38.6604 3.52146C38.7702 3.42737 38.8251 3.28427 38.8251 3.09217C38.8251 2.90007 38.7683 2.7707 38.6546 2.70405C38.5448 2.63349 38.4487 2.5982 38.3664 2.5982H37.7078V3.65671Z"
        fill="#242424" />


    <path fill-rule="evenodd" clip-rule="evenodd"
        d="M30.2351 48.5647C32.9917 43.9151 34.4112 37.324 34.4112 29.8313C34.4112 22.3385 32.9917 15.7474 30.2351 11.0978C27.5277 6.53129 23.5652 3.85542 18.1763 3.85542C12.7873 3.85542 8.82488 6.53129 6.11746 11.0978C3.36081 15.7474 1.94136 22.3385 1.94136 29.8313C1.94136 37.324 3.36081 43.9151 6.11746 48.5647C8.82488 53.1313 12.7873 55.8071 18.1763 55.8071C23.5652 55.8071 27.5277 53.1313 30.2351 48.5647ZM18.1763 57.6625C30.4686 57.6625 36.2666 45.2021 36.2666 29.8313C36.2666 14.4605 30.4686 2 18.1763 2C5.88388 2 0.0859375 14.4605 0.0859375 29.8313C0.0859375 45.2021 5.88388 57.6625 18.1763 57.6625Z"
        fill="#242424" />

    <path fill-rule="evenodd" clip-rule="evenodd"
        d="M24.1144 29.0468C23.0305 30.1646 21.2015 31.2337 18.2154 31.3582C15.6353 31.4657 14.2173 32.3679 13.4457 33.1635C13.0517 33.5699 12.8091 33.9663 12.6669 34.2536C12.5959 34.3971 12.5505 34.5124 12.5241 34.5865C12.5109 34.6235 12.5026 34.6501 12.4983 34.6644L12.4948 34.6766L12.4947 34.6768C12.4947 34.6768 12.4949 34.6764 12.4951 34.6755L12.4957 34.673L12.4962 34.6713L12.4964 34.6703C12.4966 34.6698 12.4967 34.6692 11.6867 34.4667C10.8767 34.2642 10.8768 34.2637 10.877 34.2631L10.8773 34.2618L10.878 34.2591L10.8796 34.2526L10.8842 34.2355C10.8878 34.2223 10.8926 34.2056 10.8986 34.1855C10.9106 34.1455 10.9276 34.092 10.9507 34.0271C10.9968 33.8974 11.0673 33.721 11.1703 33.513C11.376 33.0972 11.7132 32.5515 12.2469 32.0011C13.3308 30.8834 15.1597 29.8142 18.1459 29.6897C20.726 29.5822 22.144 28.68 22.9156 27.8844C23.3096 27.4781 23.5522 27.0816 23.6943 26.7943C23.7654 26.6508 23.8108 26.5355 23.8372 26.4614C23.8503 26.4244 23.8587 26.3979 23.863 26.3835L23.8665 26.3713C23.8666 26.3708 23.8665 26.3712 23.8662 26.3724L23.8655 26.3749L23.8651 26.3766L23.8649 26.3776C23.8647 26.3782 23.8646 26.3787 24.6746 26.5812C25.4846 26.7837 25.4845 26.7843 25.4843 26.7848L25.484 26.7861L25.4833 26.7888L25.4816 26.7953L25.477 26.8124C25.4734 26.8256 25.4687 26.8423 25.4627 26.8624C25.4507 26.9025 25.4336 26.9559 25.4106 27.0208C25.3644 27.1505 25.2939 27.3269 25.191 27.5349C24.9853 27.9507 24.6481 28.4964 24.1144 29.0468Z"
        fill="#FFDF58" />

    <path
        d="M10.834 26.6378V11.7891H13.2756L17.0426 21.376C17.1356 21.6019 17.2452 21.8876 17.3714 22.233C17.5043 22.5719 17.6372 22.924 17.7701 23.2894C17.9096 23.6482 18.0325 23.977 18.1388 24.276C18.2451 23.977 18.3647 23.6482 18.4975 23.2894C18.6371 22.924 18.7699 22.5719 18.8962 22.233C19.029 21.8876 19.1387 21.6019 19.225 21.376L22.9323 11.7891H25.3838V26.6378H23.6199V18.0275C23.6199 17.496 23.6265 16.9047 23.6398 16.2537C23.6531 15.5959 23.6664 14.9448 23.6797 14.3004C23.394 15.0844 23.1316 15.8019 22.8924 16.453C22.6532 17.1041 22.4539 17.6289 22.2945 18.0275L18.8463 26.6378H17.3714L13.9034 18.0275C13.7506 17.6488 13.5579 17.1539 13.3254 16.5427C13.0929 15.9314 12.8338 15.2571 12.5481 14.5196C12.568 15.1309 12.5813 15.7421 12.5879 16.3533C12.6012 16.9645 12.6079 17.5226 12.6079 18.0275V26.6378H10.834Z"
        fill="#242424" />


    <path
        d="M10.834 33.952V48.8008H13.2756L17.0426 39.2139C17.1356 38.988 17.2452 38.7023 17.3714 38.3568C17.5043 38.018 17.6372 37.6659 17.7701 37.3005C17.9096 36.9417 18.0325 36.6128 18.1388 36.3139C18.2451 36.6128 18.3647 36.9417 18.4975 37.3005C18.6371 37.6659 18.7699 38.018 18.8962 38.3568C19.029 38.7023 19.1387 38.988 19.225 39.2139L22.9323 48.8008H25.3838V33.952H23.6199V42.5623C23.6199 43.0938 23.6265 43.6851 23.6398 44.3362C23.6531 44.9939 23.6664 45.645 23.6797 46.2894C23.394 45.5055 23.1316 44.788 22.8924 44.1369C22.6532 43.4858 22.4539 42.9609 22.2945 42.5623L18.8463 33.952H17.3714L13.9034 42.5623C13.7506 42.941 13.5579 43.436 13.3254 44.0472C13.0929 44.6584 12.8338 45.3327 12.5481 46.0702C12.568 45.459 12.5813 44.8478 12.5879 44.2365C12.6012 43.6253 12.6079 43.0672 12.6079 42.5623V33.952H10.834Z"
        fill="#242424" />

</svg>