<svg width="52" height="64" viewBox="0 0 52 64" fill="none" xmlns="http://www.w3.org/2000/svg">
    <path
        d="M0.664062 24.9666C0.664062 42.4642 15.9713 56.934 22.7467 62.4817C23.7164 63.2756 24.2071 63.6774 24.9305 63.8811C25.4938 64.0396 26.3229 64.0396 26.8862 63.8811C27.611 63.677 28.0982 63.2792 29.0715 62.4822C35.8469 56.9346 51.1534 42.4658 51.1534 24.9682C51.1534 18.3464 48.4938 11.9951 43.7595 7.31278C39.0252 2.63049 32.6045 0 25.9092 0C19.2138 0 12.7924 2.63088 8.0581 7.31318C3.32378 11.9955 0.664062 18.3448 0.664062 24.9666Z"
        fill="#447A48" />
    <path
        d="M31.2803 9.82031C31.4157 10.4158 31.5377 11.047 31.582 11.6865H40.2666V39.8203H26.8662V38.0869H38.5332V13.4199H31.4619C31.0867 14.9943 29.8592 16.4676 26.7666 17.4199C26.4701 16.4748 26.3706 14.9218 26.9971 13.4199H13.7334V38.0869H22C16.4141 34.0615 16.0189 28.0099 17.1338 24.8535C24.8033 27.5302 26.7119 35.4305 25.167 39.1895V39.8203H12V11.6865H28.1299C28.8541 10.9271 29.8727 10.2658 31.2803 9.82031ZM34.2334 22.3867C35.2001 26.9534 35.5999 32.9534 26.7334 35.8867C25.789 32.6533 26.2336 25.1067 34.2334 22.3867ZM19.4336 18.9541C25.0999 20.6875 26.1003 26.0537 24.9004 28.0537C19.434 25.7205 18.5338 21.1875 19.4336 18.9541ZM33.1123 15.2207C33.8951 18.571 34.3539 22.8021 27.1738 24.9541C26.409 22.5819 26.6338 17.2163 33.1123 15.2207ZM21.3379 14.0205C25.1644 15.1634 25.8396 18.7018 25.0293 20.0205C21.3383 18.4821 20.7304 15.4931 21.3379 14.0205Z"
        fill="white" />
</svg>