<svg width="365" height="365" viewBox="0 0 365 365" fill="none" xmlns="http://www.w3.org/2000/svg">
    <rect width="365" height="365" fill="#E6E3D6" />
    <path
        d="M184.623 221.233C181.281 209.917 182.854 183.503 211.156 173.983C214.575 189.967 215.991 210.967 184.623 221.233Z"
        fill="#C9C3AB" />
    <path
        d="M186.18 182.967C183.474 174.664 184.27 155.885 207.19 148.9C209.959 160.626 211.583 175.434 186.18 182.967Z"
        fill="#C9C3AB" />
    <path d="M184.74 156.6C182.684 150.117 183.289 135.454 200.708 130C202.812 139.156 204.046 150.719 184.74 156.6Z"
        fill="#C9C3AB" />
    <path
        d="M158.797 161.967C155.613 169.783 158.797 185.65 178.137 193.817C182.382 186.817 178.844 168.033 158.797 161.967Z"
        fill="#C9C3AB" />
    <path d="M165.536 144.7C163.386 149.854 165.536 160.315 178.595 165.7C181.462 161.085 179.073 148.7 165.536 144.7Z"
        fill="#C9C3AB" />
    <path
        d="M150.66 182.617C146.121 195.329 148.656 221.467 178.109 234.767C185.212 222.633 179.239 192.483 150.66 182.617Z"
        fill="#C9C3AB" />
    <path d="M226.368 142.6H138.632V228.933H179.08V235H132.5V136.533H232.5V235H185.094V228.933H226.368V142.6Z"
        fill="#C9C3AB" />
</svg>