<svg width="306" height="6" viewBox="0 0 306 6" fill="none" xmlns="http://www.w3.org/2000/svg"
    preserveAspectRatio="none">
    <path
        d="M0.899154 0.601201C24.5992 1.1012 48.1992 1.50121 71.8992 1.80121C95.5992 2.10121 119.199 2.4012 142.899 2.7012C156.199 2.9012 169.499 3.0012 182.899 3.0012C183.399 3.0012 183.399 1.9012 182.899 1.9012C159.299 1.4012 135.599 1.2012 111.899 1.0012C88.2991 0.801203 64.5992 0.501204 40.9992 0.401204C27.6992 0.301204 14.3992 0.301206 0.999152 0.301206C0.699152 0.201206 0.699154 0.601201 0.899154 0.601201Z"
        fill="#313131" />
    <path
        d="M159.9 5.70135C169.4 6.00135 178.9 5.90136 188.3 5.90136C197.7 5.90136 207.1 5.90136 216.5 5.90136C235.4 5.90136 254.2 5.90136 273.1 5.90136C283.7 5.90136 294.4 6.00135 305 5.70135C305.6 5.70135 305.6 4.40136 305 4.40136C286.2 4.00136 267.3 4.30136 248.4 4.30136C229.5 4.30136 210.7 4.40136 191.8 4.50136C181.2 4.50136 170.5 4.40136 159.9 4.80136C159.5 4.70136 159.5 5.60135 159.9 5.70135Z"
        fill="#313131" />
</svg>