<svg width="230" height="62" viewBox="0 0 230 62" fill="none" xmlns="http://www.w3.org/2000/svg"
    preserveAspectRatio="none">
    <g clip-path="url(#clip0_3009_16532)">
        <path
            d="M24.3969 2.59787C27.4969 2.89787 30.6969 2.59787 33.7969 2.49787C35.2969 2.49787 36.8969 2.39787 38.3969 2.39787C39.9969 2.29787 41.5969 2.39787 43.1969 2.09787C43.5969 1.99787 43.4969 1.29787 43.1969 1.29787C41.5969 1.09787 39.9969 1.29787 38.3969 1.29787C36.8969 1.29787 35.2969 1.39787 33.7969 1.49787C30.6969 1.59787 27.4969 1.49787 24.3969 1.99787C24.0969 1.99787 24.0969 2.59787 24.3969 2.59787Z"
            fill="#313131" />
        <path
            d="M50.1972 2.59787C53.2972 2.89787 56.4972 2.59787 59.5972 2.49787C61.0972 2.49787 62.6972 2.39787 64.1972 2.39787C65.7972 2.29787 67.3972 2.39787 68.9972 2.09787C69.3972 1.99787 69.2972 1.29787 68.9972 1.29787C67.3972 1.09787 65.7972 1.29787 64.1972 1.29787C62.6972 1.29787 61.0972 1.39787 59.5972 1.49787C56.4972 1.59787 53.2972 1.49787 50.1972 1.99787C49.8972 1.99787 49.9972 2.59787 50.1972 2.59787Z"
            fill="#313131" />
        <path
            d="M76.8969 2.19944C79.9969 2.49944 83.1969 2.19944 86.2969 2.09944C87.7969 2.09944 89.3969 1.99944 90.8969 1.99944C92.4969 1.89944 94.0969 1.99944 95.6969 1.69944C96.0969 1.59944 95.9969 0.899436 95.6969 0.899436C94.0969 0.699436 92.4969 0.899436 90.8969 0.899436C89.3969 0.899436 87.7969 0.999436 86.2969 1.09944C83.1969 1.19944 79.9969 1.09944 76.8969 1.59944C76.5969 1.59944 76.5969 2.19944 76.8969 2.19944Z"
            fill="#313131" />
        <path
            d="M103.6 1.99883C106.9 2.39883 110.2 2.19883 113.5 2.19883C115.1 2.19883 116.7 2.19883 118.4 2.19883C120.1 2.19883 121.8 2.29883 123.4 1.99883C123.8 1.89883 123.7 1.19883 123.4 1.19883C121.7 0.998828 120 1.09883 118.4 1.09883C116.8 1.09883 115.2 1.09883 113.5 1.09883C110.2 1.09883 106.9 0.898828 103.6 1.29883C103.3 1.39883 103.3 1.99883 103.6 1.99883Z"
            fill="#313131" />
        <path
            d="M133.6 1.29961C132.8 1.19961 132 1.19961 131.3 1.19961C130.9 1.19961 130.9 2.09961 131.3 2.09961C132.9 2.19961 134.6 2.09961 136.3 2.09961C138.2 2.09961 140.2 2.09961 142.1 2.09961C143.4 2.09961 144.7 2.09961 146 2.09961C147.4 2.09961 149 2.19961 150.4 1.89961C150.8 1.79961 150.7 1.09961 150.4 1.09961C149 0.899609 147.4 0.999609 146 0.999609C144.7 0.999609 143.4 0.999609 142.1 0.999609C140.2 0.999609 138.2 1.09961 136.3 1.09961C134.6 1.09961 133 1.19961 131.4 1.19961C131.4 1.49961 131.4 1.79961 131.4 2.09961C132.2 1.99961 132.9 1.99961 133.7 1.99961C133.9 1.89961 133.9 1.29961 133.6 1.29961Z"
            fill="#313131" />
        <path
            d="M160 0.998828C158.9 0.898828 157.9 0.898828 156.8 0.898828C156.8 1.19883 156.8 1.49883 156.8 1.79883C158.6 1.79883 160.5 1.79883 162.3 1.79883C164.5 1.79883 166.8 1.79883 169 1.79883C170.5 1.79883 172 1.79883 173.5 1.79883C175.2 1.79883 177 1.89883 178.7 1.59883C179.1 1.49883 179 0.798828 178.7 0.798828C177 0.598828 175.2 0.698828 173.5 0.698828C172 0.698828 170.5 0.698828 169 0.698828C166.8 0.698828 164.5 0.698828 162.3 0.798828C160.5 0.798828 158.7 0.798828 156.8 0.898828C156.4 0.898828 156.4 1.79883 156.8 1.79883C157.9 1.79883 158.9 1.79883 160 1.69883C160.3 1.59883 160.2 0.998828 160 0.998828Z"
            fill="#313131" />
        <path
            d="M189 1.19805C188.1 1.09805 187.2 1.09805 186.3 1.09805C185.9 1.09805 185.9 1.99805 186.3 1.99805C187.9 1.99805 189.4 1.99805 191 1.99805C192.9 1.99805 194.8 1.99805 196.7 1.99805C198 1.99805 199.3 1.99805 200.6 1.99805C202.1 1.99805 203.6 2.09805 205.1 1.79805C205.5 1.69805 205.4 0.998047 205.1 0.998047C203.6 0.798047 202.1 0.898047 200.6 0.898047C199.3 0.898047 198 0.898047 196.7 0.898047C194.8 0.898047 192.9 0.998047 191 0.998047C189.4 0.998047 187.9 0.998047 186.3 1.09805C186.3 1.39805 186.3 1.69805 186.3 1.99805C187.2 1.99805 188.1 1.99805 189 1.79805C189.3 1.79805 189.3 1.19805 189 1.19805Z"
            fill="#313131" />
        <path
            d="M23.7992 60.7996C26.8992 61.1996 30.0992 60.9996 33.1992 60.9996C34.6992 60.9996 36.2992 60.9996 37.7992 60.9996C39.3992 60.9996 40.9992 61.0996 42.5992 60.8996C42.9992 60.7996 42.8992 60.0996 42.5992 60.0996C40.9992 59.7996 39.3992 59.9996 37.7992 59.8996C36.2992 59.8996 34.6992 59.8996 33.1992 59.8996C30.0992 59.8996 26.8992 59.6996 23.7992 60.0996C23.4992 60.0996 23.4992 60.6996 23.7992 60.7996Z"
            fill="#313131" />
        <path
            d="M50.1972 61.0979C53.2972 61.3979 56.4972 61.0979 59.5972 60.9979C61.0972 60.9979 62.6972 60.8979 64.1972 60.8979C65.7972 60.7979 67.3972 60.8979 68.9972 60.5979C69.3972 60.4979 69.2972 59.7979 68.9972 59.7979C67.3972 59.5979 65.7972 59.7979 64.1972 59.7979C62.6972 59.7979 61.0972 59.8979 59.5972 59.9979C56.4972 60.0979 53.2972 59.9979 50.1972 60.4979C49.8972 60.4979 49.9972 60.9979 50.1972 61.0979Z"
            fill="#313131" />
        <path
            d="M76.1972 60.799C79.2972 61.099 82.4971 60.799 85.5971 60.699C87.0971 60.699 88.6972 60.599 90.1972 60.599C91.7972 60.499 93.3971 60.599 94.9971 60.299C95.3971 60.199 95.2971 59.499 94.9971 59.499C93.3971 59.299 91.7972 59.499 90.1972 59.499C88.6972 59.499 87.0971 59.599 85.5971 59.699C82.4971 59.799 79.2972 59.699 76.1972 60.199C75.8972 60.199 75.9972 60.799 76.1972 60.799Z"
            fill="#313131" />
        <path
            d="M102.197 60.3981C105.697 60.7981 109.297 60.5981 112.797 60.6981C114.497 60.6981 116.297 60.7981 117.997 60.7981C119.797 60.7981 121.597 60.8981 123.397 60.6981C123.797 60.5981 123.697 59.8981 123.397 59.8981C121.597 59.5981 119.797 59.6981 117.997 59.6981C116.297 59.6981 114.497 59.6981 112.797 59.6981C109.297 59.6981 105.697 59.4981 102.197 59.7981C101.897 59.7981 101.997 60.3981 102.197 60.3981Z"
            fill="#313131" />
        <path
            d="M135.198 59.8992C134.398 59.7992 133.598 59.7992 132.898 59.7992C132.498 59.7992 132.498 60.6992 132.898 60.6992C134.498 60.7992 136.198 60.6992 137.898 60.6992C139.798 60.6992 141.798 60.6992 143.698 60.6992C144.998 60.6992 146.298 60.6992 147.598 60.6992C148.998 60.6992 150.598 60.7992 151.998 60.4992C152.398 60.3992 152.298 59.6992 151.998 59.6992C150.598 59.4992 148.998 59.5992 147.598 59.5992C146.298 59.5992 144.998 59.5992 143.698 59.5992C141.798 59.5992 139.798 59.6992 137.898 59.6992C136.198 59.6992 134.598 59.7992 132.998 59.7992C132.998 60.0992 132.998 60.3992 132.998 60.6992C133.798 60.5992 134.498 60.5992 135.298 60.5992C135.498 60.4992 135.498 59.8992 135.198 59.8992Z"
            fill="#313131" />
        <path
            d="M161.297 59.4988C160.397 59.3988 159.497 59.3988 158.597 59.3988C158.597 59.6988 158.597 59.9988 158.597 60.2988C160.197 60.2988 161.697 60.2988 163.297 60.2988C165.197 60.2988 167.097 60.2988 168.997 60.2988C170.297 60.2988 171.597 60.2988 172.897 60.2988C174.397 60.2988 175.897 60.3988 177.397 60.0988C177.797 59.9988 177.697 59.2988 177.397 59.2988C175.897 59.0988 174.397 59.1988 172.897 59.1988C171.597 59.1988 170.297 59.1988 168.997 59.1988C167.097 59.1988 165.197 59.2988 163.297 59.2988C161.697 59.2988 160.197 59.2988 158.597 59.3988C158.197 59.3988 158.197 60.2988 158.597 60.2988C159.497 60.2988 160.397 60.2988 161.297 60.1988C161.597 60.0988 161.597 59.4988 161.297 59.4988Z"
            fill="#313131" />
        <path
            d="M189 59.3992C188.1 59.2992 187.2 59.2992 186.3 59.2992C185.9 59.2992 185.9 60.1992 186.3 60.1992C187.9 60.1992 189.4 60.1992 191 60.1992C192.9 60.1992 194.8 60.1992 196.7 60.1992C198 60.1992 199.3 60.1992 200.6 60.1992C202.1 60.1992 203.6 60.2992 205.1 59.9992C205.5 59.8992 205.4 59.1992 205.1 59.1992C203.6 58.9992 202.1 59.0992 200.6 59.0992C199.3 59.0992 198 59.0992 196.7 59.0992C194.8 59.0992 192.9 59.1992 191 59.1992C189.4 59.1992 187.9 59.1992 186.3 59.2992C186.3 59.5992 186.3 59.8992 186.3 60.1992C187.2 60.1992 188.1 60.1992 189 59.9992C189.3 59.9992 189.3 59.3992 189 59.3992Z"
            fill="#313131" />
        <path
            d="M211.5 2.59935C216 4.29935 220 7.19935 223 10.9993C223.5 11.5993 223.9 10.4993 223.6 10.0993C220.5 6.19935 216.4 3.19935 211.7 1.39935C211.1 1.19935 211 2.39935 211.5 2.59935Z"
            fill="#313131" />
        <path
            d="M224.296 49.6997C221.496 53.5997 217.596 56.6997 213.196 58.6997C212.696 58.8997 212.896 60.0997 213.396 59.8997C217.996 57.8997 221.896 54.6997 224.796 50.5997C225.196 50.0997 224.696 49.0997 224.296 49.6997Z"
            fill="#313131" />
        <path
            d="M6.60018 13.1997C9.30018 9.19974 13.1002 5.99974 17.5002 3.99974C18.0002 3.79974 17.8002 2.59974 17.3002 2.79974C12.8002 4.89974 8.90018 8.19974 6.10018 12.2997C5.70018 12.7997 6.20018 13.7997 6.60018 13.1997Z"
            fill="#313131" />
        <path
            d="M17.4985 58.7992C13.0985 56.7992 9.29851 53.5992 6.59851 49.5992C6.19851 48.9992 5.79851 50.0992 5.99851 50.4992C8.79851 54.5992 12.6985 57.8992 17.2985 59.9992C17.8985 60.1992 17.9985 58.9992 17.4985 58.7992Z"
            fill="#313131" />
        <path
            d="M226.198 15.7985C227.698 19.3985 228.698 23.0985 229.198 26.8985C229.198 27.0985 229.398 27.3985 229.698 27.2985C229.998 27.1985 229.998 26.7985 229.998 26.4985C229.498 22.5985 228.398 18.7985 226.898 15.0985C226.498 14.3985 225.898 15.2985 226.198 15.7985Z"
            fill="#313131" />
        <path
            d="M1.7 29.8996C2 26.0996 2.8 22.2996 4.2 18.6996C4.4 18.1996 3.8 17.2996 3.5 18.0996C2.1 21.7996 1.3 25.6996 1 29.5996C1 29.7996 1 30.2996 1.3 30.3996C1.4 30.4996 1.6 30.1996 1.7 29.8996Z"
            fill="#313131" />
        <path
            d="M228.801 33.598C228.901 36.998 228.401 40.498 227.001 43.698C226.801 44.198 227.401 45.098 227.701 44.298C229.201 40.998 229.701 37.198 229.601 33.598C229.601 33.398 229.501 32.998 229.201 32.998C228.901 32.998 228.801 33.398 228.801 33.598Z"
            fill="#313131" />
        <path
            d="M4.09844 45.2988C2.69844 42.1988 1.79844 38.7988 1.69844 35.3988C1.69844 35.1988 1.59844 34.7988 1.29844 34.7988C0.998437 34.7988 0.898438 35.1988 0.898438 35.3988C0.998438 38.9988 1.89844 42.5988 3.39844 45.8988C3.69844 46.6988 4.29844 45.7988 4.09844 45.2988Z"
            fill="#313131" />
    </g>
    <defs>
        <clipPath id="clip0_3009_16532">
            <rect width="229.1" height="60.6" fill="white" transform="translate(0.898438 0.699219)" />
        </clipPath>
    </defs>
</svg>