<svg width="248" height="62" viewBox="0 0 248 62" fill="none" xmlns="http://www.w3.org/2000/svg" preserveAspectRatio="none">
<g clip-path="url(#clip0_3010_54010)">
<path d="M25.4389 2.8336C28.7946 3.13558 32.2586 2.8336 35.6143 2.73294C37.2381 2.73294 38.9701 2.63228 40.5938 2.63228C42.3258 2.53162 44.0578 2.63228 45.7898 2.3303C46.2228 2.22964 46.1146 1.52502 45.7898 1.52502C44.0578 1.3237 42.3258 1.52502 40.5938 1.52502C38.9701 1.52502 37.2381 1.62568 35.6143 1.72634C32.2586 1.827 28.7946 1.72634 25.4389 2.22964C25.1141 2.22964 25.1141 2.8336 25.4389 2.8336Z" fill="#E6E3D6"/>
<path d="M53.369 2.8336C56.7248 3.13558 60.1888 2.8336 63.5445 2.73294C65.1682 2.73294 66.9002 2.63228 68.524 2.63228C70.256 2.53162 71.988 2.63228 73.72 2.3303C74.153 2.22964 74.0447 1.52502 73.72 1.52502C71.988 1.3237 70.256 1.52502 68.524 1.52502C66.9002 1.52502 65.1682 1.62568 63.5445 1.72634C60.1888 1.827 56.7248 1.72634 53.369 2.22964C53.0443 2.22964 53.1525 2.8336 53.369 2.8336Z" fill="#E6E3D6"/>
<path d="M82.2709 2.43126C85.6266 2.73324 89.0906 2.43126 92.4464 2.3306C94.0701 2.3306 95.8021 2.22994 97.4259 2.22994C99.1579 2.12928 100.89 2.22994 102.622 1.92796C103.055 1.8273 102.947 1.12268 102.622 1.12268C100.89 0.921359 99.1579 1.12268 97.4259 1.12268C95.8021 1.12268 94.0701 1.22334 92.4464 1.324C89.0906 1.42466 85.6266 1.324 82.2709 1.8273C81.9462 1.8273 81.9462 2.43126 82.2709 2.43126Z" fill="#E6E3D6"/>
<path d="M111.173 2.22971C114.745 2.63235 118.318 2.43103 121.89 2.43103C123.622 2.43103 125.354 2.43103 127.194 2.43103C129.034 2.43103 130.875 2.53169 132.607 2.22971C133.04 2.12905 132.931 1.42443 132.607 1.42443C130.766 1.22311 128.926 1.32377 127.194 1.32377C125.462 1.32377 123.73 1.32377 121.89 1.32377C118.318 1.32377 114.745 1.12245 111.173 1.52509C110.849 1.62575 110.849 2.22971 111.173 2.22971Z" fill="#E6E3D6"/>
<path d="M143.647 1.52636C142.781 1.4257 141.915 1.4257 141.157 1.4257C140.724 1.4257 140.724 2.33164 141.157 2.33164C142.889 2.4323 144.729 2.33164 146.569 2.33164C148.626 2.33164 150.791 2.33164 152.848 2.33164C154.255 2.33164 155.662 2.33164 157.069 2.33164C158.585 2.33164 160.317 2.4323 161.832 2.13032C162.265 2.02966 162.157 1.32504 161.832 1.32504C160.317 1.12372 158.585 1.22438 157.069 1.22438C155.662 1.22438 154.255 1.22438 152.848 1.22438C150.791 1.22438 148.626 1.32504 146.569 1.32504C144.729 1.32504 142.997 1.4257 141.265 1.4257C141.265 1.72768 141.265 2.02966 141.265 2.33164C142.131 2.23098 142.889 2.23098 143.755 2.23098C143.971 2.13032 143.971 1.52636 143.647 1.52636Z" fill="#E6E3D6"/>
<path d="M172.226 1.22363C171.036 1.12297 169.953 1.12297 168.762 1.12297C168.762 1.42495 168.762 1.72693 168.762 2.02891C170.711 2.02891 172.767 2.02891 174.716 2.02891C177.097 2.02891 179.587 2.02891 181.969 2.02891C183.592 2.02891 185.216 2.02891 186.84 2.02891C188.68 2.02891 190.629 2.12957 192.469 1.82759C192.902 1.72693 192.794 1.02231 192.469 1.02231C190.629 0.820989 188.68 0.921649 186.84 0.921649C185.216 0.921649 183.592 0.921649 181.969 0.921649C179.587 0.921649 177.097 0.921649 174.716 1.02231C172.767 1.02231 170.819 1.02231 168.762 1.12297C168.329 1.12297 168.329 2.02891 168.762 2.02891C169.953 2.02891 171.036 2.02891 172.226 1.92825C172.551 1.82759 172.443 1.22363 172.226 1.22363Z" fill="#E6E3D6"/>
<path d="M203.619 1.4248C202.644 1.32414 201.67 1.32414 200.696 1.32414C200.263 1.32414 200.263 2.23008 200.696 2.23008C202.428 2.23008 204.052 2.23008 205.784 2.23008C207.84 2.23008 209.897 2.23008 211.954 2.23008C213.361 2.23008 214.768 2.23008 216.176 2.23008C217.799 2.23008 219.423 2.33074 221.047 2.02876C221.48 1.9281 221.372 1.22348 221.047 1.22348C219.423 1.02216 217.799 1.12282 216.176 1.12282C214.768 1.12282 213.361 1.12282 211.954 1.12282C209.897 1.12282 207.84 1.22348 205.784 1.22348C204.052 1.22348 202.428 1.22348 200.696 1.32414C200.696 1.62612 200.696 1.9281 200.696 2.23008C201.67 2.23008 202.644 2.23008 203.619 2.02876C203.943 2.02876 203.943 1.4248 203.619 1.4248Z" fill="#E6E3D6"/>
<path d="M24.7904 61.4192C28.1462 61.8218 31.6102 61.6205 34.9659 61.6205C36.5897 61.6205 38.3216 61.6205 39.9454 61.6205C41.6774 61.6205 43.4094 61.7211 45.1414 61.5198C45.5744 61.4192 45.4661 60.7145 45.1414 60.7145C43.4094 60.4126 41.6774 60.6139 39.9454 60.5132C38.3216 60.5132 36.5897 60.5132 34.9659 60.5132C31.6102 60.5132 28.1462 60.3119 24.7904 60.7145C24.4657 60.7145 24.4657 61.3185 24.7904 61.4192Z" fill="#E6E3D6"/>
<path d="M53.369 61.7184C56.7248 62.0204 60.1888 61.7184 63.5445 61.6177C65.1682 61.6177 66.9002 61.5171 68.524 61.5171C70.256 61.4164 71.988 61.5171 73.72 61.2151C74.153 61.1144 74.0447 60.4098 73.72 60.4098C71.988 60.2085 70.256 60.4098 68.524 60.4098C66.9002 60.4098 65.1682 60.5104 63.5445 60.6111C60.1888 60.7118 56.7248 60.6111 53.369 61.1144C53.0443 61.1144 53.1525 61.6177 53.369 61.7184Z" fill="#E6E3D6"/>
<path d="M81.5136 61.4176C84.8693 61.7196 88.3333 61.4176 91.689 61.3169C93.3128 61.3169 95.0448 61.2163 96.6685 61.2163C98.4005 61.1156 100.132 61.2163 101.864 60.9143C102.297 60.8136 102.189 60.109 101.864 60.109C100.132 59.9077 98.4005 60.109 96.6685 60.109C95.0448 60.109 93.3128 60.2097 91.689 60.3103C88.3333 60.411 84.8693 60.3103 81.5136 60.8136C81.1888 60.8136 81.2971 61.4176 81.5136 61.4176Z" fill="#E6E3D6"/>
<path d="M109.658 61.0145C113.447 61.4171 117.344 61.2158 121.133 61.3165C122.973 61.3165 124.921 61.4171 126.762 61.4171C128.71 61.4171 130.659 61.5178 132.607 61.3165C133.04 61.2158 132.932 60.5112 132.607 60.5112C130.659 60.2092 128.71 60.3099 126.762 60.3099C124.921 60.3099 122.973 60.3099 121.133 60.3099C117.344 60.3099 113.447 60.1086 109.658 60.4105C109.333 60.4105 109.442 61.0145 109.658 61.0145Z" fill="#E6E3D6"/>
<path d="M145.377 60.5127C144.511 60.412 143.645 60.412 142.887 60.412C142.454 60.412 142.454 61.318 142.887 61.318C144.619 61.4186 146.459 61.318 148.3 61.318C150.356 61.318 152.521 61.318 154.578 61.318C155.985 61.318 157.393 61.318 158.8 61.318C160.315 61.318 162.047 61.4186 163.563 61.1167C163.996 61.016 163.888 60.3114 163.563 60.3114C162.047 60.1101 160.315 60.2107 158.8 60.2107C157.393 60.2107 155.985 60.2107 154.578 60.2107C152.521 60.2107 150.356 60.3114 148.3 60.3114C146.459 60.3114 144.728 60.412 142.996 60.412C142.996 60.714 142.996 61.016 142.996 61.318C143.862 61.2173 144.619 61.2173 145.485 61.2173C145.702 61.1167 145.702 60.5127 145.377 60.5127Z" fill="#E6E3D6"/>
<path d="M173.634 60.1103C172.66 60.0097 171.686 60.0097 170.711 60.0097C170.711 60.3117 170.711 60.6136 170.711 60.9156C172.443 60.9156 174.067 60.9156 175.799 60.9156C177.856 60.9156 179.913 60.9156 181.969 60.9156C183.377 60.9156 184.784 60.9156 186.191 60.9156C187.815 60.9156 189.439 61.0163 191.062 60.7143C191.495 60.6137 191.387 59.909 191.062 59.909C189.439 59.7077 187.815 59.8084 186.191 59.8084C184.784 59.8084 183.377 59.8084 181.969 59.8084C179.913 59.8084 177.856 59.909 175.799 59.909C174.067 59.909 172.443 59.909 170.711 60.0097C170.278 60.0097 170.278 60.9156 170.711 60.9156C171.686 60.9156 172.66 60.9156 173.634 60.815C173.959 60.7143 173.959 60.1103 173.634 60.1103Z" fill="#E6E3D6"/>
<path d="M203.619 60.0088C202.644 59.9081 201.67 59.9081 200.696 59.9081C200.263 59.9081 200.263 60.8141 200.696 60.8141C202.428 60.8141 204.052 60.8141 205.784 60.8141C207.84 60.8141 209.897 60.8141 211.954 60.8141C213.361 60.8141 214.768 60.8141 216.176 60.8141C217.799 60.8141 219.423 60.9147 221.047 60.6127C221.48 60.5121 221.372 59.8075 221.047 59.8075C219.423 59.6061 217.799 59.7068 216.176 59.7068C214.768 59.7068 213.361 59.7068 211.954 59.7068C209.897 59.7068 207.84 59.8075 205.784 59.8075C204.052 59.8075 202.428 59.8075 200.696 59.9081C200.696 60.2101 200.696 60.5121 200.696 60.8141C201.67 60.8141 202.644 60.8141 203.619 60.6127C203.943 60.6127 203.943 60.0088 203.619 60.0088Z" fill="#E6E3D6"/>
<path d="M227.972 2.83398C232.843 4.5452 237.173 7.46434 240.42 11.2894C240.962 11.8934 241.394 10.7861 241.07 10.3835C237.714 6.45774 233.276 3.43794 228.188 1.62606C227.539 1.42474 227.43 2.63266 227.972 2.83398Z" fill="#E6E3D6"/>
<path d="M241.829 50.2459C238.798 54.1716 234.577 57.2921 229.814 59.3053C229.272 59.5066 229.489 60.7145 230.03 60.5132C235.009 58.5 239.231 55.2789 242.37 51.1518C242.803 50.6485 242.262 49.6419 241.829 50.2459Z" fill="#E6E3D6"/>
<path d="M6.16919 13.5049C9.09193 9.47846 13.2054 6.25734 17.9684 4.24414C18.5097 4.04282 18.2932 2.83489 17.7519 3.03621C12.8807 5.15008 8.65893 8.47186 5.62794 12.5989C5.19494 13.1022 5.73619 14.1088 6.16919 13.5049Z" fill="#E6E3D6"/>
<path d="M17.9711 59.406C13.2082 57.3928 9.09467 54.1717 6.17193 50.1453C5.73893 49.5413 5.30593 50.6486 5.52243 51.0512C8.55342 55.1783 12.7752 58.5 17.7546 60.6139C18.4041 60.8152 18.5124 59.6073 17.9711 59.406Z" fill="#E6E3D6"/>
<path d="M243.885 16.1212C245.508 19.745 246.591 23.4694 247.132 27.2945C247.132 27.4958 247.349 27.7978 247.673 27.6971C247.998 27.5964 247.998 27.1938 247.998 26.8918C247.457 22.9661 246.266 19.141 244.642 15.4166C244.209 14.712 243.56 15.6179 243.885 16.1212Z" fill="#E6E3D6"/>
<path d="M0.867123 30.3155C1.19187 26.4905 2.05787 22.6654 3.57336 19.0416C3.78986 18.5383 3.14037 17.6324 2.81562 18.4377C1.30012 22.1621 0.434124 26.0878 0.109375 30.0136C0.109375 30.2149 0.109375 30.7182 0.434124 30.8188C0.542374 30.9195 0.758873 30.6175 0.867123 30.3155Z" fill="#E6E3D6"/>
<path d="M246.703 34.0376C246.811 37.46 246.27 40.9831 244.754 44.2042C244.538 44.7075 245.187 45.6135 245.512 44.8082C247.136 41.4864 247.677 37.6613 247.569 34.0376C247.569 33.8362 247.46 33.4336 247.136 33.4336C246.811 33.4336 246.703 33.8362 246.703 34.0376Z" fill="#E6E3D6"/>
<path d="M3.46399 45.8154C1.94849 42.6949 0.974247 39.2725 0.865997 35.8501C0.865997 35.6487 0.757748 35.2461 0.432999 35.2461C0.10825 35.2461 0 35.6487 0 35.8501C0.10825 39.4738 1.0825 43.0976 2.70624 46.4194C3.03099 47.2246 3.68049 46.3187 3.46399 45.8154Z" fill="#E6E3D6"/>
</g>
<defs>
<clipPath id="clip0_3010_54010">
<rect width="248" height="61" fill="white" transform="translate(0 0.921875)"/>
</clipPath>
</defs>
</svg>
