<svg width="248" height="61" viewBox="0 0 248 61" fill="none" xmlns="http://www.w3.org/2000/svg" preserveAspectRatio="none">
<g clip-path="url(#clip0_3010_54079)">
<path d="M25.4391 1.91075C28.7949 2.21273 32.2589 1.91075 35.6146 1.81009C37.2383 1.81009 38.9703 1.70943 40.5941 1.70943C42.3261 1.60877 44.0581 1.70943 45.7901 1.40745C46.2231 1.30679 46.1148 0.602171 45.7901 0.602171C44.0581 0.400851 42.3261 0.602171 40.5941 0.602171C38.9703 0.602171 37.2383 0.702831 35.6146 0.803491C32.2589 0.904151 28.7949 0.803491 25.4391 1.30679C25.1144 1.30679 25.1144 1.91075 25.4391 1.91075Z" fill="#313131"/>
<path d="M53.3678 1.91075C56.7235 2.21273 60.1875 1.91075 63.5433 1.81009C65.167 1.81009 66.899 1.70943 68.5228 1.70943C70.2547 1.60877 71.9867 1.70943 73.7187 1.40745C74.1517 1.30679 74.0435 0.602171 73.7187 0.602171C71.9867 0.400851 70.2547 0.602171 68.5228 0.602171C66.899 0.602171 65.167 0.702831 63.5433 0.803491C60.1875 0.904151 56.7235 0.803491 53.3678 1.30679C53.0431 1.30679 53.1513 1.91075 53.3678 1.91075Z" fill="#313131"/>
<path d="M82.2702 1.51036C85.6259 1.81234 89.0899 1.51036 92.4456 1.4097C94.0694 1.4097 95.8014 1.30904 97.4251 1.30904C99.1571 1.20838 100.889 1.30904 102.621 1.00706C103.054 0.906401 102.946 0.20178 102.621 0.20178C100.889 0.000460174 99.1571 0.20178 97.4251 0.20178C95.8014 0.20178 94.0694 0.30244 92.4456 0.4031C89.0899 0.50376 85.6259 0.4031 82.2702 0.906401C81.9454 0.906401 81.9454 1.51036 82.2702 1.51036Z" fill="#313131"/>
<path d="M111.172 1.30783C114.744 1.71047 118.317 1.50915 121.889 1.50915C123.621 1.50915 125.353 1.50915 127.193 1.50915C129.033 1.50915 130.873 1.60981 132.605 1.30783C133.038 1.20717 132.93 0.502553 132.605 0.502553C130.765 0.301232 128.925 0.401893 127.193 0.401893C125.461 0.401893 123.729 0.401893 121.889 0.401893C118.317 0.401893 114.744 0.200572 111.172 0.603213C110.847 0.703873 110.847 1.30783 111.172 1.30783Z" fill="#313131"/>
<path d="M143.647 0.604489C142.781 0.503829 141.915 0.503829 141.157 0.503829C140.724 0.503829 140.724 1.40977 141.157 1.40977C142.889 1.51043 144.73 1.40977 146.57 1.40977C148.626 1.40977 150.791 1.40977 152.848 1.40977C154.255 1.40977 155.663 1.40977 157.07 1.40977C158.585 1.40977 160.317 1.51043 161.833 1.20845C162.266 1.10779 162.158 0.403169 161.833 0.403169C160.317 0.201849 158.585 0.302509 157.07 0.302509C155.663 0.302509 154.255 0.302509 152.848 0.302509C150.791 0.302509 148.626 0.403169 146.57 0.403169C144.73 0.403169 142.998 0.503829 141.266 0.503829C141.266 0.805809 141.266 1.10779 141.266 1.40977C142.132 1.30911 142.889 1.30911 143.755 1.30911C143.972 1.20845 143.972 0.604489 143.647 0.604489Z" fill="#313131"/>
<path d="M172.225 0.301755C171.034 0.201095 169.952 0.201095 168.761 0.201095C168.761 0.503075 168.761 0.805055 168.761 1.10704C170.709 1.10704 172.766 1.10704 174.715 1.10704C177.096 1.10704 179.586 1.10704 181.967 1.10704C183.591 1.10704 185.215 1.10704 186.838 1.10704C188.679 1.10704 190.627 1.2077 192.467 0.905715C192.9 0.805055 192.792 0.100434 192.467 0.100434C190.627 -0.100886 188.679 -0.000225606 186.838 -0.000225606C185.215 -0.000225606 183.591 -0.000225606 181.967 -0.000225606C179.586 -0.000225606 177.096 -0.000225608 174.715 0.100434C172.766 0.100434 170.818 0.100434 168.761 0.201095C168.328 0.201095 168.328 1.10704 168.761 1.10704C169.952 1.10704 171.034 1.10704 172.225 1.00638C172.55 0.905715 172.441 0.301755 172.225 0.301755Z" fill="#313131"/>
<path d="M203.617 0.50195C202.643 0.40129 201.669 0.40129 200.694 0.40129C200.261 0.40129 200.261 1.30723 200.694 1.30723C202.426 1.30723 204.05 1.30723 205.782 1.30723C207.839 1.30723 209.896 1.30723 211.952 1.30723C213.36 1.30723 214.767 1.30723 216.174 1.30723C217.798 1.30723 219.422 1.40789 221.045 1.10591C221.478 1.00525 221.37 0.30063 221.045 0.30063C219.422 0.0993096 217.798 0.19997 216.174 0.19997C214.767 0.19997 213.36 0.19997 211.952 0.19997C209.896 0.19997 207.839 0.30063 205.782 0.30063C204.05 0.30063 202.426 0.30063 200.694 0.40129C200.694 0.70327 200.694 1.00525 200.694 1.30723C201.669 1.30723 202.643 1.30723 203.617 1.10591C203.942 1.10591 203.942 0.50195 203.617 0.50195Z" fill="#313131"/>
<path d="M24.7899 60.4973C28.1457 60.8999 31.6097 60.6986 34.9654 60.6986C36.5892 60.6986 38.3212 60.6986 39.9449 60.6986C41.6769 60.6986 43.4089 60.7993 45.1409 60.5979C45.5739 60.4973 45.4656 59.7927 45.1409 59.7927C43.4089 59.4907 41.6769 59.692 39.9449 59.5913C38.3212 59.5913 36.5892 59.5913 34.9654 59.5913C31.6097 59.5913 28.1457 59.39 24.7899 59.7927C24.4652 59.7927 24.4652 60.3966 24.7899 60.4973Z" fill="#313131"/>
<path d="M53.3678 60.7975C56.7235 61.0995 60.1875 60.7975 63.5433 60.6968C65.167 60.6968 66.899 60.5962 68.5228 60.5962C70.2547 60.4955 71.9867 60.5962 73.7187 60.2942C74.1517 60.1935 74.0435 59.4889 73.7187 59.4889C71.9867 59.2876 70.2547 59.4889 68.5228 59.4889C66.899 59.4889 65.167 59.5896 63.5433 59.6902C60.1875 59.7909 56.7235 59.6902 53.3678 60.1935C53.0431 60.1935 53.1513 60.6968 53.3678 60.7975Z" fill="#313131"/>
<path d="M81.5128 60.4967C84.8686 60.7987 88.3325 60.4967 91.6883 60.396C93.312 60.396 95.044 60.2954 96.6678 60.2954C98.3998 60.1947 100.132 60.2954 101.864 59.9934C102.297 59.8927 102.189 59.1881 101.864 59.1881C100.132 58.9868 98.3998 59.1881 96.6678 59.1881C95.044 59.1881 93.312 59.2888 91.6883 59.3894C88.3325 59.4901 84.8686 59.3894 81.5128 59.8927C81.1881 59.8927 81.2963 60.4967 81.5128 60.4967Z" fill="#313131"/>
<path d="M109.658 60.0926C113.446 60.4953 117.343 60.2939 121.132 60.3946C122.972 60.3946 124.921 60.4953 126.761 60.4953C128.71 60.4953 130.658 60.5959 132.607 60.3946C133.04 60.2939 132.931 59.5893 132.607 59.5893C130.658 59.2873 128.71 59.388 126.761 59.388C124.921 59.388 122.972 59.388 121.132 59.388C117.343 59.388 113.446 59.1867 109.658 59.4887C109.333 59.4887 109.441 60.0926 109.658 60.0926Z" fill="#313131"/>
<path d="M145.378 59.5908C144.512 59.4902 143.646 59.4902 142.889 59.4902C142.456 59.4902 142.456 60.3961 142.889 60.3961C144.621 60.4968 146.461 60.3961 148.301 60.3961C150.358 60.3961 152.523 60.3961 154.58 60.3961C155.987 60.3961 157.394 60.3961 158.801 60.3961C160.317 60.3961 162.049 60.4968 163.564 60.1948C163.997 60.0941 163.889 59.3895 163.564 59.3895C162.049 59.1882 160.317 59.2888 158.801 59.2888C157.394 59.2888 155.987 59.2888 154.58 59.2888C152.523 59.2888 150.358 59.3895 148.301 59.3895C146.461 59.3895 144.729 59.4902 142.997 59.4902C142.997 59.7921 142.997 60.0941 142.997 60.3961C143.863 60.2954 144.621 60.2954 145.487 60.2954C145.703 60.1948 145.703 59.5908 145.378 59.5908Z" fill="#313131"/>
<path d="M173.633 59.1875C172.659 59.0868 171.684 59.0868 170.71 59.0868C170.71 59.3888 170.71 59.6908 170.71 59.9928C172.442 59.9928 174.066 59.9928 175.798 59.9928C177.855 59.9928 179.911 59.9928 181.968 59.9928C183.375 59.9928 184.783 59.9928 186.19 59.9928C187.814 59.9928 189.437 60.0934 191.061 59.7915C191.494 59.6908 191.386 58.9862 191.061 58.9862C189.437 58.7849 187.814 58.8855 186.19 58.8855C184.783 58.8855 183.375 58.8855 181.968 58.8855C179.911 58.8855 177.855 58.9862 175.798 58.9862C174.066 58.9862 172.442 58.9862 170.71 59.0868C170.277 59.0868 170.277 59.9928 170.71 59.9928C171.684 59.9928 172.659 59.9928 173.633 59.8921C173.958 59.7915 173.958 59.1875 173.633 59.1875Z" fill="#313131"/>
<path d="M203.617 59.0879C202.643 58.9872 201.669 58.9872 200.694 58.9872C200.261 58.9872 200.261 59.8932 200.694 59.8932C202.426 59.8932 204.05 59.8932 205.782 59.8932C207.839 59.8932 209.896 59.8932 211.952 59.8932C213.36 59.8932 214.767 59.8932 216.174 59.8932C217.798 59.8932 219.422 59.9938 221.045 59.6918C221.478 59.5912 221.37 58.8866 221.045 58.8866C219.422 58.6852 217.798 58.7859 216.174 58.7859C214.767 58.7859 213.36 58.7859 211.952 58.7859C209.896 58.7859 207.839 58.8866 205.782 58.8866C204.05 58.8866 202.426 58.8866 200.694 58.9872C200.694 59.2892 200.694 59.5912 200.694 59.8932C201.669 59.8932 202.643 59.8932 203.617 59.6918C203.942 59.6918 203.942 59.0879 203.617 59.0879Z" fill="#313131"/>
<path d="M227.973 1.91308C232.844 3.6243 237.174 6.54344 240.422 10.3685C240.963 10.9725 241.396 9.86523 241.071 9.46259C237.716 5.53684 233.277 2.51704 228.19 0.70516C227.54 0.50384 227.432 1.71176 227.973 1.91308Z" fill="#313131"/>
<path d="M241.829 49.324C238.798 53.2497 234.577 56.3702 229.814 58.3834C229.272 58.5847 229.489 59.7926 230.03 59.5913C235.009 57.5781 239.231 54.357 242.37 50.2299C242.803 49.7266 242.262 48.72 241.829 49.324Z" fill="#313131"/>
<path d="M6.16992 12.583C9.09266 8.55658 13.2061 5.33546 17.9691 3.32226C18.5104 3.12094 18.2939 1.91302 17.7526 2.11434C12.8814 4.2282 8.65966 7.54998 5.62867 11.677C5.19567 12.1803 5.73692 13.1869 6.16992 12.583Z" fill="#313131"/>
<path d="M17.9694 58.4831C13.2064 56.4699 9.09296 53.2488 6.17022 49.2224C5.73722 48.6185 5.30422 49.7257 5.52072 50.1284C8.55171 54.2554 12.7734 57.5772 17.7529 59.6911C18.4024 59.8924 18.5107 58.6845 17.9694 58.4831Z" fill="#313131"/>
<path d="M243.886 15.1993C245.51 18.8231 246.593 22.5475 247.134 26.3726C247.134 26.5739 247.35 26.8759 247.675 26.7752C248 26.6746 248 26.2719 248 25.9699C247.459 22.0442 246.268 18.2191 244.644 14.4947C244.211 13.7901 243.562 14.696 243.886 15.1993Z" fill="#313131"/>
<path d="M0.865658 29.3927C1.19041 25.5676 2.0564 21.7425 3.5719 18.1188C3.7884 17.6155 3.1389 16.7095 2.81415 17.5148C1.29866 21.2392 0.432659 25.165 0.10791 29.0907C0.10791 29.292 0.10791 29.7953 0.432659 29.896C0.540909 29.9967 0.757408 29.6947 0.865658 29.3927Z" fill="#313131"/>
<path d="M246.701 33.1157C246.81 36.5381 246.268 40.0612 244.753 43.2823C244.537 43.7856 245.186 44.6916 245.511 43.8863C247.134 40.5645 247.676 36.7394 247.567 33.1157C247.567 32.9144 247.459 32.5117 247.134 32.5117C246.81 32.5117 246.701 32.9144 246.701 33.1157Z" fill="#313131"/>
<path d="M3.46399 44.8935C1.94849 41.7731 0.974247 38.3506 0.865997 34.9282C0.865997 34.7269 0.757748 34.3242 0.432999 34.3242C0.10825 34.3242 0 34.7269 0 34.9282C0.10825 38.5519 1.0825 42.1757 2.70624 45.4975C3.03099 46.3028 3.68049 45.3968 3.46399 44.8935Z" fill="#313131"/>
</g>
<defs>
<clipPath id="clip0_3010_54079">
<rect width="248" height="61" fill="white"/>
</clipPath>
</defs>
</svg>
