<svg width="132" height="92" viewBox="0 0 132 92" fill="none" xmlns="http://www.w3.org/2000/svg">
<path d="M0.81777 54.4215C-0.118358 55.3735 -0.0152253 56.7618 0.0244412 57.9954C0.0799742 59.6892 0.143441 61.3829 0.222773 63.0767C0.377473 66.4642 0.575805 69.8517 0.81777 73.2313C0.85347 73.739 1.6468 73.743 1.6111 73.2313C1.38103 70.0421 1.19064 66.8529 1.04387 63.6598C0.972472 62.0969 0.905023 60.5341 0.853456 58.9673C0.829657 58.2533 0.782075 57.5313 0.797942 56.8173C0.809842 56.1549 0.897096 55.4726 1.38103 54.9808C1.73803 54.6159 1.17874 54.0565 0.821741 54.4215H0.81777Z" fill="#313131"/>
<path d="M0.797835 73.1119C4.29642 73.1357 7.73946 73.7624 11.1746 74.3693C14.6097 74.9762 18.1955 75.6069 21.71 76.2296C28.7309 77.4672 35.7559 78.7088 42.7768 79.9464C49.8335 81.1919 56.8862 82.4375 63.9429 83.683C70.9638 84.9206 77.9888 86.1621 85.0097 87.3997C92.0307 88.6373 99.0556 89.8789 106.077 91.1165C106.953 91.2712 107.834 91.4259 108.71 91.5806C109.21 91.6678 109.424 90.9062 108.921 90.815C101.864 89.5695 94.8113 88.324 87.7546 87.0784C80.698 85.8329 73.6453 84.5874 66.5886 83.3419C59.532 82.0963 52.4793 80.8508 45.4226 79.6053C38.3659 78.3597 31.3132 77.1142 24.2566 75.8687C20.7461 75.2499 17.2356 74.6311 13.7212 74.0083C10.29 73.4014 6.85491 72.7033 3.38013 72.4217C2.51936 72.3542 1.6586 72.3146 0.797835 72.3066C0.286138 72.3066 0.286138 73.096 0.797835 73.1V73.1119Z" fill="#313131"/>
<path d="M109.117 91.6106C109.621 87.5686 110.129 83.5266 110.632 79.4845C110.886 77.4655 111.136 75.4425 111.39 73.4235C111.624 71.5473 111.771 69.6195 112.477 67.8464C112.667 67.3704 111.898 67.1641 111.711 67.6362C111.005 69.4132 110.855 71.349 110.621 73.2292L109.863 79.2902C109.351 83.3957 108.836 87.5051 108.324 91.6106C108.26 92.1144 109.054 92.1104 109.117 91.6106Z" fill="#313131"/>
<path d="M108.978 91.4146C111.255 89.6375 113.575 87.8009 115.178 85.3614C116.031 84.0604 116.566 82.6284 116.955 81.129C117.387 79.4511 117.76 77.7574 118.161 76.0755C118.629 74.0962 119.097 72.1208 119.565 70.1414C119.684 69.6456 118.918 69.4314 118.799 69.9312C118.002 73.3029 117.213 76.6745 116.408 80.0422C116.043 81.5654 115.626 83.0608 114.829 84.4214C114.107 85.6589 113.163 86.7418 112.136 87.7335C110.969 88.8561 109.696 89.8596 108.419 90.8553C108.018 91.1686 108.581 91.7279 108.978 91.4146Z" fill="#313131"/>
<path d="M112.21 68.578C115.538 66.2813 119.005 64.1869 122.591 62.3107L122.008 61.8625C121.02 64.7502 120.032 67.6419 119.045 70.5296C118.878 71.0135 119.644 71.2198 119.81 70.7398C120.798 67.8521 121.786 64.9604 122.773 62.0727C122.892 61.7276 122.48 61.4737 122.19 61.6245C118.604 63.5007 115.137 65.5951 111.809 67.8918C111.393 68.1813 111.79 68.8676 112.21 68.578Z" fill="#313131"/>
<path d="M1.28072 53.4581C8.51589 53.8191 15.7431 54.3704 22.9545 55.0725C30.1936 55.7786 37.4169 56.6394 44.6282 57.6151C51.8118 58.5909 58.9796 59.6778 66.1354 60.844C73.2635 62.0062 80.3796 63.2438 87.4878 64.5251C94.6278 65.8103 101.76 67.1391 108.888 68.4679C109.784 68.6345 110.677 68.8011 111.573 68.9677C112.073 69.0629 112.287 68.2973 111.784 68.2021C104.62 66.8654 97.46 65.5247 90.2923 64.2236C83.1245 62.9225 76.0084 61.6691 68.8486 60.483C61.6888 59.297 54.4655 58.1784 47.2502 57.1749C40.0349 56.1713 32.9425 55.2947 25.7629 54.5529C18.5237 53.8072 11.2687 53.2122 4.00581 52.7997C3.09745 52.7481 2.18909 52.7005 1.28072 52.6529C0.769027 52.6291 0.772994 53.4224 1.28072 53.4462V53.4581Z" fill="#313131"/>
<path d="M0.936616 53.0625C3.9949 50.9165 7.05319 48.7706 10.1115 46.6246C10.528 46.3351 10.1313 45.6449 9.71084 45.9384C6.65255 48.0844 3.59427 50.2303 0.535981 52.3763C0.119483 52.6658 0.516152 53.356 0.936616 53.0625Z" fill="#313131"/>
<path d="M13.7339 38.9391C12.3337 38.709 11.2547 39.6531 10.6002 40.8113C9.78311 42.2591 9.52132 44.0521 9.44199 45.6903C9.39836 46.6264 9.41818 47.5943 9.57684 48.5225C9.69188 49.1849 10.6756 49.3436 11.2468 49.3515C12.7343 49.3713 14.0354 48.4114 14.7732 47.1778C15.7847 45.488 16.0465 43.3698 16.4788 41.4817C16.5938 40.9858 15.8283 40.7717 15.7133 41.2715C15.3087 43.0445 15.0667 45.0437 14.1623 46.6463C13.4126 47.9751 11.6871 49.1532 10.1798 48.2448L10.3623 48.4828C10.0806 46.5233 10.1996 44.5122 10.7232 42.6003C11.0524 41.3984 11.9687 39.4547 13.5157 39.7086C14.0155 39.7919 14.2297 39.0263 13.726 38.943L13.7339 38.9391Z" fill="#313131"/>
<path d="M18.6271 42.519C17.0721 43.594 16.5248 45.5813 16.9056 47.3822C17.3459 49.4527 18.9642 51.0354 20.6421 52.1937C20.8246 52.3206 21.0745 52.2175 21.1856 52.0509C22.3676 50.2818 23.6092 48.5484 24.9142 46.8665L24.2914 46.7872C25.4061 48.5523 26.8618 50.0477 28.5952 51.2139C29.0197 51.4995 29.4163 50.8133 28.9959 50.5277C27.3815 49.4408 26.0169 48.0327 24.9777 46.3865C24.8547 46.1961 24.5175 46.093 24.3549 46.3072C23.0102 48.0446 21.725 49.8256 20.5033 51.6503L21.0467 51.5075C19.6029 50.5119 18.2145 49.1791 17.7385 47.4377C17.33 45.9462 17.7028 44.1255 19.0317 43.2053C19.4482 42.9157 19.0515 42.2295 18.631 42.519H18.6271Z" fill="#313131"/>
<path d="M39.2976 45.8242C37.6514 45.8599 36.1996 46.919 35.4618 48.3668C34.6288 50.0011 34.8272 51.913 35.5967 53.5314C35.9656 54.3049 36.4971 55.1895 37.1834 55.721C38.0758 56.4191 38.8771 55.6456 39.599 55.0943C40.4201 54.4636 41.2611 53.8487 42.0663 53.1943C42.7486 52.6389 43.3991 52.0003 43.764 51.1871C44.4026 49.7631 43.6807 47.4704 41.8322 47.5775C41.3245 47.6052 41.3206 48.3986 41.8322 48.3708C43.165 48.2954 43.4626 50.0447 42.9905 50.9769C42.3241 52.2898 40.8406 53.1546 39.7101 54.0233C39.3928 54.2652 39.0794 54.5072 38.7621 54.7492C38.3971 55.0268 38.0322 55.3997 37.5959 55.0387C37.0643 54.5945 36.6558 53.8805 36.3503 53.2696C35.7117 51.9924 35.4618 50.4374 36.0092 49.0848C36.5566 47.7322 37.814 46.6533 39.3015 46.6215C39.8132 46.6096 39.8132 45.8163 39.3015 45.8282L39.2976 45.8242Z" fill="#313131"/>
<path d="M51.3974 46.8761C49.8504 47.1775 48.9817 48.7404 48.9539 50.22C48.9182 51.9693 50.1201 53.3814 51.6314 54.1231C52.5794 54.5872 53.6068 54.8252 54.654 54.9085C55.1617 54.9482 55.1617 54.1549 54.654 54.1152C52.861 53.9724 50.6239 53.1989 49.9337 51.3544C49.4101 49.9582 50.0011 47.955 51.6116 47.6377C52.1114 47.5385 51.9011 46.773 51.4013 46.8721L51.3974 46.8761Z" fill="#313131"/>
<path d="M54.8806 46.7728C56.2729 47.1377 57.4787 48.177 57.9706 49.5454C58.4625 50.9139 58.2007 52.6434 57.2447 53.8254C56.9274 54.2181 57.4827 54.7854 57.804 54.3848C58.9345 52.9885 59.3431 51.0488 58.7362 49.3352C58.1293 47.6216 56.7647 46.4435 55.0948 46.0072C54.599 45.8763 54.3887 46.6419 54.8846 46.7728H54.8806Z" fill="#313131"/>
<path d="M67.2492 49.1767C66.2734 48.9545 65.2817 49.3512 64.6351 50.1009C63.9211 50.9339 63.7228 52.0287 64.0084 53.0798C64.6669 55.4955 67.0984 56.5546 69.2563 57.2766C69.7402 57.4392 69.9505 56.6736 69.4665 56.511C67.7053 55.92 65.7141 55.1465 64.9247 53.3099C64.5836 52.5166 64.5558 51.6042 65.0397 50.8664C65.4642 50.2159 66.2496 49.7598 67.035 49.9383C67.5308 50.0533 67.745 49.2877 67.2452 49.1727L67.2492 49.1767Z" fill="#313131"/>
<path d="M69.4902 49.3167C70.8309 49.987 72.2827 50.9589 72.7825 52.4503C73.1831 53.6522 72.8896 55.1952 71.7036 55.8299C71.2514 56.0718 71.652 56.7541 72.1042 56.5161C73.5401 55.7506 74.0161 53.918 73.6036 52.4225C73.1117 50.6296 71.4695 49.4277 69.8908 48.6344C69.4346 48.4043 69.034 49.0906 69.4902 49.3206V49.3167Z" fill="#313131"/>
<path d="M61.3313 43.382C59.3678 44.3975 58.0469 46.5078 58.0469 48.7251C58.0469 50.9425 59.3836 53.0527 61.3471 54.0603C61.5058 54.1436 61.6962 54.1277 61.8271 53.9968C63.4653 52.4101 64.9171 50.4982 65.8334 48.3959C66.2499 47.4399 66.5077 46.3372 66.0873 45.3376C65.7342 44.4927 64.9845 43.87 64.0524 43.8422C63.5407 43.8263 63.5407 44.6197 64.0524 44.6355C64.9012 44.6593 65.4605 45.4963 65.5081 46.2856C65.5716 47.2892 65.0678 48.2452 64.5958 49.098C63.7073 50.7045 62.5847 52.1563 61.2638 53.4335L61.7438 53.3701C60.0223 52.4855 58.8402 50.6767 58.8363 48.7212C58.8323 46.7656 60.0064 44.9528 61.7279 44.0604C62.1801 43.8263 61.7795 43.1401 61.3273 43.3741L61.3313 43.382Z" fill="#313131"/>
<path d="M40.9873 41.0816C40.071 44.9888 43.2364 49.1577 47.2427 49.3283C47.4847 49.3402 47.7108 49.0625 47.6235 48.8245C46.8579 46.7024 45.9853 44.6199 45.0095 42.585L44.4661 43.1284C45.9853 44.0209 47.4926 44.9332 49.0237 45.8019C50.1423 46.4366 51.6616 47.099 52.8555 46.262C53.7956 45.6036 53.99 44.3025 53.6409 43.2712C53.1966 41.9463 51.963 41.1173 50.8524 40.3914L50.4517 41.0776C51.1618 41.5338 51.971 41.748 52.8119 41.6925C53.0459 41.6766 53.2918 41.4465 53.1927 41.1887C52.5025 39.3641 50.2732 38.4874 48.5319 39.3839C48.0797 39.6179 48.4803 40.3042 48.9325 40.0701C50.1899 39.4236 51.9233 40.0701 52.4271 41.4029L52.8079 40.8992C52.0939 40.9428 51.4513 40.7801 50.8484 40.3914C50.416 40.1138 50.0233 40.8 50.4478 41.0776C51.3601 41.6766 52.443 42.3509 52.8515 43.4219C53.2006 44.3382 52.9705 45.6313 51.8559 45.8376C50.6818 46.0518 49.472 45.1514 48.52 44.5921C47.3022 43.8781 46.0844 43.1601 44.8667 42.4461C44.5057 42.2319 44.1606 42.6445 44.3233 42.9896C45.2713 44.961 46.1162 46.98 46.858 49.0387L47.2387 48.535C43.756 48.3882 40.9516 44.6833 41.7449 41.2919C41.86 40.796 41.0984 40.5818 40.9794 41.0816H40.9873Z" fill="#313131"/>
<path d="M27.2579 37.8137C26.0084 37.2306 24.5527 37.4171 23.4142 38.1747C22.2123 38.976 21.4309 40.277 20.939 41.6098C20.5503 42.665 20.3599 44.0453 21.0818 45.0053C21.9704 46.1794 23.5451 45.9097 24.747 45.4654C26.5201 44.8109 28.2139 43.9382 29.7886 42.895L29.1936 42.5539C29.0389 43.8073 27.9838 44.7236 27.7101 45.9454C27.4919 46.9212 27.7061 48.0397 28.6938 48.4919C29.6815 48.9441 30.8755 48.3849 31.6767 47.7661C32.7319 46.9529 33.6244 45.9136 34.3701 44.8109L33.6442 44.5055C33.4419 45.8462 35.3657 46.8498 36.2622 45.7272C36.881 44.9497 36.4724 43.8867 36.0321 43.137C35.4649 42.1731 34.7549 41.2806 33.9774 40.4754L33.5926 41.1378C35.0206 41.5305 36.4962 41.6773 37.9758 41.5662C38.3248 41.5384 38.4915 41.1537 38.2574 40.8879C37.1785 39.6582 35.6196 38.9641 33.9853 38.968C33.4736 38.968 33.4736 39.7614 33.9853 39.7614C35.4252 39.7614 36.7501 40.3722 37.6981 41.4512L37.9797 40.7729C36.5676 40.88 35.1753 40.7451 33.8068 40.3722C33.4181 40.2651 33.1484 40.753 33.4221 41.0347C33.9139 41.5464 34.378 42.0898 34.7866 42.6729C35.1555 43.1965 35.5799 43.7716 35.7386 44.4023C36.0956 45.8462 34.3027 45.4773 34.4137 44.7157C34.4812 44.2794 33.9536 44.0176 33.6878 44.4103C33.069 45.3226 32.3432 46.1516 31.5141 46.8775C30.8874 47.4249 29.6934 48.2738 28.8525 47.6708C28.0909 47.1235 28.4598 45.9335 28.8168 45.2631C29.2928 44.3706 29.864 43.5773 29.9909 42.5499C30.0266 42.2524 29.626 42.0541 29.3959 42.2088C27.9759 43.1489 26.4646 43.9541 24.8779 44.5729C23.6562 45.0489 21.6213 45.5685 21.4111 43.6844C21.2643 42.3516 21.9942 40.8443 22.7994 39.8248C23.7395 38.6388 25.3777 37.8058 26.8612 38.5C27.3214 38.7142 27.726 38.0319 27.2619 37.8137H27.2579Z" fill="#313131"/>
<path d="M20.8201 32.3359C18.7098 32.4629 16.5361 32.6017 14.5925 33.5061C12.986 34.2518 11.6254 35.533 11.0582 37.2347C10.9709 37.4965 11.197 37.7187 11.439 37.7385C13.6365 37.8892 15.834 38.0836 18.0355 38.1907C19.638 38.27 21.7284 37.8615 22.0775 35.9853C22.1687 35.4855 21.4072 35.2712 21.312 35.775C20.9589 37.675 18.5234 37.437 17.0994 37.3379C15.2152 37.207 13.3271 37.0761 11.4429 36.9452L11.8237 37.4489C13.0534 33.76 17.5516 33.3276 20.8241 33.1332C21.3318 33.1015 21.3358 32.3082 20.8241 32.3399L20.8201 32.3359Z" fill="#313131"/>
<path d="M86.6014 41.9626C84.8759 41.4272 83.0433 41.9349 81.651 43.0297C80.112 44.2395 79.3068 46.084 79.2671 48.0237C79.2473 49.055 79.4297 50.0943 79.7669 51.0661C79.9295 51.5341 80.1279 51.9943 80.3579 52.4306C80.5761 52.8471 80.8141 53.3548 81.1949 53.6444C81.9406 54.2116 83.1187 53.7317 83.8803 53.4104C84.7014 53.0613 85.4551 52.5734 86.1135 51.9745C87.6446 50.5861 88.6125 48.6345 88.7315 46.5679C88.7632 46.0562 87.9699 46.0602 87.9382 46.5679C87.7597 49.6302 85.3678 52.4862 82.3254 53.0732C82.008 53.1327 81.7542 53.1407 81.5321 52.8709C81.417 52.7281 81.3298 52.5536 81.2346 52.391C80.9926 51.9745 80.7824 51.5381 80.6118 51.0899C80.2984 50.2648 80.1001 49.3922 80.0644 48.5076C79.993 46.8337 80.5166 45.1796 81.7344 44.0055C82.9521 42.8313 84.7292 42.2165 86.3912 42.7322C86.8791 42.8829 87.0893 42.1174 86.6014 41.9666V41.9626Z" fill="#313131"/>
<path d="M89.2908 34.2614C87.9739 33.4284 86.1889 34.2297 84.9195 34.8009C83.563 35.4078 82.2698 36.574 82.373 38.1963C82.4761 39.8187 83.8724 40.3581 85.2329 40.4811C86.9386 40.6358 88.8902 40.6557 90.5046 40.025C92.0159 39.4339 93.2574 38.1805 93.424 36.5184C93.4756 36.0107 92.6823 36.0147 92.6307 36.5184C92.472 38.113 90.9766 39.1404 89.5367 39.4974C88.6244 39.7235 87.6764 39.7473 86.7442 39.7394C85.9826 39.7314 85.1774 39.7552 84.4356 39.545C82.5753 39.0174 83.0433 36.9349 84.3325 36.0305C85.0068 35.5546 85.8041 35.2729 86.5816 35.0071C87.359 34.7414 88.1762 34.4955 88.8902 34.9477C89.3225 35.2214 89.7232 34.5351 89.2908 34.2614Z" fill="#313131"/>
<path d="M99.9605 40.5568C101.741 41.0407 103.166 42.3299 104.014 43.9483C104.962 45.7571 105.058 47.8674 104.538 49.8189C104.26 50.8622 103.816 51.8538 103.253 52.7741C103.106 53.0121 102.955 53.2422 102.793 53.4683C102.642 53.6785 102.571 53.8649 102.317 53.734C101.876 53.504 101.46 53.028 101.103 52.6829C99.6749 51.2826 98.5523 49.5611 97.87 47.6809C97.5408 46.7686 97.2552 45.8206 97.3147 44.8408C97.3663 44.0118 97.6717 43.0875 98.588 42.9249C99.0918 42.8376 98.8776 42.0721 98.3778 42.1594C96.3548 42.5164 96.335 45.1661 96.7356 46.7051C97.3306 48.974 98.5087 51.0843 100.107 52.7979C100.496 53.2144 100.909 53.6071 101.349 53.972C101.722 54.2854 102.206 54.7931 102.745 54.5987C103.205 54.4321 103.507 53.8451 103.761 53.4564C104.125 52.8971 104.447 52.306 104.716 51.6952C105.696 49.4659 106.014 46.8638 105.145 44.5473C104.304 42.3021 102.519 40.4259 100.175 39.7913C99.6828 39.6564 99.4726 40.4219 99.9644 40.5568H99.9605Z" fill="#313131"/>
<path d="M93.702 46.9093C91.4768 47.6669 89.8504 49.9596 90.0567 52.3396C90.263 54.7196 92.1709 56.7545 94.5112 57.1234C94.7016 57.1551 94.8484 57.0996 94.9595 56.9409C95.8877 55.6161 96.7643 54.2595 97.5973 52.8711C97.8591 52.4308 97.1729 52.0342 96.9111 52.4705C96.082 53.8588 95.2014 55.2154 94.2732 56.5403L94.7215 56.3578C92.7382 56.0444 91.0325 54.3745 90.8461 52.3396C90.6596 50.3047 92.0043 48.3214 93.9083 47.6748C94.3883 47.5122 94.182 46.7466 93.6981 46.9093H93.702Z" fill="#313131"/>
<path d="M76.9155 54.8619C76.0269 55.4212 75.539 56.4208 75.547 57.464C75.5549 58.5072 76.1261 59.5544 76.9274 60.2645C77.5898 60.8476 78.9385 61.8472 79.5017 60.6492C79.8072 59.9947 79.9976 59.2609 80.2355 58.5786C80.4934 57.8408 80.7512 57.1031 81.0051 56.3653L80.2792 56.4605C81.1638 58.2851 82.9963 60.0027 85.055 60.3676C85.8365 60.5064 86.8837 60.3002 86.9709 59.3482C87.0265 58.769 86.729 58.1383 86.5703 57.5949C86.364 56.9047 86.1617 56.2106 85.9555 55.5204C85.8127 55.0325 85.0471 55.2387 85.1899 55.7306C85.4834 56.7222 85.7809 57.7139 86.0705 58.7056C86.2014 59.1538 86.253 59.5425 85.7056 59.6139C85.3367 59.6615 84.9678 59.5426 84.6227 59.4196C83.0082 58.8365 81.7032 57.5949 80.9615 56.0598C80.8028 55.7306 80.3387 55.8575 80.2355 56.155C79.8825 57.1705 79.5295 58.182 79.1765 59.1974C79.0892 59.4434 79.0059 59.6893 78.9186 59.9352C78.8314 60.1812 78.8115 60.4588 78.4982 60.3676C78.1253 60.2605 77.7128 59.9075 77.4311 59.6536C76.2808 58.6064 75.7691 56.52 77.3121 55.5442C77.7445 55.2744 77.3439 54.5842 76.9115 54.8579L76.9155 54.8619Z" fill="#313131"/>
<path d="M93.0973 57.7797C92.2722 58.7714 91.7407 60.0923 92.0501 61.3894C92.3119 62.4881 93.2401 63.2815 94.3547 63.4243C95.4693 63.5671 96.3261 63.0157 96.7228 62.0201C97.0718 61.1474 96.929 59.6361 97.8612 59.1323L97.3178 58.9896C98.0437 60.2827 98.7696 61.5798 99.4994 62.8729C99.9913 63.7495 100.578 65.1696 101.828 64.4833C102.748 63.9796 103.26 62.7579 103.478 61.7821C103.74 60.6317 103.656 59.4298 103.224 58.335C103.038 57.867 102.272 58.0693 102.459 58.5453C102.8 59.41 102.927 60.3422 102.776 61.2624C102.641 62.0835 102.284 63.2259 101.554 63.7218C100.995 64.0986 100.761 63.4957 100.527 63.0752C100.253 62.5873 99.9794 62.0954 99.7017 61.6075C99.1385 60.6 98.5712 59.5925 98.008 58.5849C97.9009 58.3945 97.651 58.343 97.4645 58.4422C96.699 58.8547 96.461 59.6599 96.3023 60.4612C96.1436 61.2624 96.0365 62.3136 95.144 62.5873C94.3388 62.8332 93.3551 62.381 92.9862 61.6353C92.4388 60.5445 92.9346 59.2077 93.6645 58.335C93.9898 57.9463 93.4305 57.3831 93.1052 57.7758L93.0973 57.7797Z" fill="#313131"/>
<path d="M105.523 55.3068C105.694 57.0323 105.991 58.742 106.448 60.4159C106.745 61.5147 107.078 63.6725 108.709 63.137C109.942 62.7324 110.625 61.233 110.898 60.0708C111.224 58.6944 111.172 57.2584 111.085 55.8542L110.49 56.1954C111.668 56.9253 112.572 58.0438 113.024 59.3568C113.254 60.0153 113.318 60.6658 113.358 61.356C113.393 61.9748 113.663 62.4706 114.31 62.6015C115.42 62.8276 116.567 62.0422 117.209 61.2092C117.923 60.281 118.276 59.1148 118.332 57.9526C118.356 57.429 117.602 57.4608 117.538 57.9526C117.292 59.8249 117.047 61.7011 116.801 63.5734C116.721 64.1802 116.467 65.0251 117.007 65.4972C117.459 65.8978 118.121 65.7153 118.594 65.4535C121.065 64.0692 122.35 60.9911 121.874 58.2541C121.588 56.6198 120.708 55.1085 119.438 54.0494C119.05 53.7242 118.486 54.2835 118.879 54.6087C121.331 56.6635 121.906 60.2295 120.125 62.907C119.696 63.5535 119.137 64.1327 118.498 64.573C118.304 64.7078 117.856 65.0569 117.598 64.9339C117.316 64.799 117.542 63.9978 117.57 63.7677C117.824 61.828 118.078 59.8923 118.336 57.9526H117.542C117.495 58.9839 117.166 60.051 116.491 60.8483C116.174 61.2251 115.769 61.5424 115.301 61.709C115.083 61.7844 114.793 61.8796 114.563 61.836C114.107 61.7487 114.163 61.36 114.147 60.9831C114.04 58.7499 112.79 56.6793 110.898 55.5092C110.652 55.3584 110.283 55.5528 110.303 55.8503C110.371 56.9848 110.434 58.1391 110.26 59.2656C110.101 60.2969 109.712 61.598 108.796 62.2128C108.602 62.3437 108.292 62.5024 108.054 62.3834C107.769 62.2406 107.685 61.7408 107.598 61.4671C107.388 60.8086 107.201 60.1422 107.035 59.4679C106.702 58.0954 106.467 56.7031 106.329 55.2989C106.281 54.7952 105.484 54.7912 105.535 55.2989L105.523 55.3068Z" fill="#313131"/>
<path d="M109.781 47.1804C109.968 49.3343 111.289 51.3414 113.288 52.226C114.347 52.694 115.513 52.8447 116.659 52.6821C117.239 52.5988 117.798 52.4322 118.329 52.1863C118.563 52.0792 118.778 51.9245 119.031 51.865C119.115 51.8451 119.198 51.8293 119.285 51.8293C119.329 51.8293 119.373 51.8293 119.416 51.8293C119.523 51.8769 119.531 51.8491 119.44 51.75H120.206C119.488 49.9332 118.742 48.0253 117.314 46.6369C116.025 45.3835 114.204 44.6298 112.411 45.0622C111.915 45.1812 112.126 45.9468 112.621 45.8278C114.236 45.439 115.866 46.2403 116.961 47.4104C118.155 48.6877 118.809 50.3616 119.44 51.9602C119.571 52.2894 120.114 52.3806 120.206 51.9602C120.408 51.0042 119.273 50.9209 118.623 51.1629C118.091 51.3572 117.627 51.6587 117.068 51.7975C116.445 51.9562 115.791 51.9959 115.152 51.9245C112.721 51.6548 110.793 49.604 110.582 47.1804C110.539 46.6766 109.746 46.6726 109.789 47.1804H109.781Z" fill="#313131"/>
<path d="M120.909 44.4445C122.171 44.8015 123.448 45.1942 124.562 45.9002C125.871 46.7332 126.538 47.9431 126.716 49.4702C126.915 51.1838 126.934 52.9331 126.907 54.6546C126.895 55.4876 126.942 56.396 126.788 57.2131C126.724 57.5463 126.573 57.8597 126.22 57.5463C125.911 57.2686 125.701 56.8442 125.471 56.5031C124.309 54.7816 123.146 53.064 121.984 51.3425C121.698 50.922 121.012 51.3187 121.298 51.7431C122.531 53.5717 123.769 55.4004 125.003 57.2329C125.391 57.8081 125.907 58.6966 126.744 58.4626C127.399 58.2801 127.557 57.5463 127.605 56.9553C127.775 54.8252 127.728 52.6554 127.589 50.5253C127.474 48.7879 127.204 47.1101 125.852 45.8883C124.499 44.6666 122.781 44.151 121.115 43.675C120.624 43.5361 120.413 44.3017 120.905 44.4405L120.909 44.4445Z" fill="#313131"/>
<path d="M115.505 42.1557C118.17 43.5956 121.518 43.6194 124.16 42.1041C126.627 40.688 128.261 38.0899 128.567 35.2775C128.602 34.9642 128.21 34.8015 127.972 34.9364C125.762 36.1581 123.18 35.3013 120.808 35.3767C119.844 35.4084 118.868 35.5592 117.98 35.9439C117.559 36.1264 117.167 36.3644 116.817 36.6619C116.643 36.8126 116.484 36.9832 116.341 37.1617C116.25 37.2767 116.012 37.7765 115.877 37.7964L116.183 37.836L116.123 37.8003L116.306 38.0383L116.183 38.2604H115.782L115.83 38.2922C116.262 38.5699 116.659 37.8836 116.23 37.6059L116.183 37.5742C116.064 37.4989 115.901 37.5068 115.782 37.5742C115.409 37.7924 115.401 38.4469 115.877 38.5579C116.472 38.6968 116.691 37.9749 116.98 37.6179C117.734 36.6936 118.979 36.3208 120.126 36.2057C122.886 35.9241 125.786 37.0427 128.372 35.6147L127.777 35.2736C127.504 37.8003 125.973 40.1525 123.763 41.4179C121.367 42.7864 118.325 42.7745 115.909 41.4695C115.461 41.2275 115.06 41.9098 115.509 42.1557H115.505Z" fill="#313131"/>
<path d="M113.563 37.7219C116.617 36.7025 118.751 33.6125 118.565 30.3876C118.553 30.1655 118.394 29.9989 118.168 29.9909C115.689 29.8957 113.063 29.8561 110.742 30.8596C109.667 31.3237 108.553 32.0655 107.938 33.0889C107.375 34.029 107.446 35.457 108.577 35.9409C109.041 36.1392 109.445 35.457 108.977 35.2547C107.732 34.7231 108.664 33.2793 109.318 32.6883C110.084 31.9941 111.028 31.53 112.016 31.2404C114.003 30.6573 116.121 30.7049 118.172 30.7843L117.775 30.3876C117.938 33.2515 116.085 36.044 113.356 36.9564C112.876 37.119 113.083 37.8846 113.567 37.7219H113.563Z" fill="#313131"/>
<path d="M92.9048 41.4961C95.1539 40.7107 97.1611 39.2946 98.6406 37.4263C99.0055 36.9662 99.3387 36.4862 99.6362 35.9825C99.9099 35.5184 100.219 35.0067 100.366 34.4831C100.58 33.6977 100.338 32.472 99.2911 32.6624C98.7914 32.7536 99.0016 33.5192 99.5014 33.4279C99.6878 33.3922 99.6481 34.0428 99.6323 34.138C99.5648 34.5346 99.3229 34.9154 99.1364 35.2645C98.6723 36.1134 98.1011 36.9027 97.4427 37.6088C96.1377 39.013 94.5074 40.0959 92.6946 40.7305C92.2146 40.8971 92.4209 41.6667 92.9048 41.4961Z" fill="#313131"/>
<path d="M71.124 43.3786C68.7321 42.3274 67.2486 39.7332 67.554 37.143C67.6135 36.6353 66.8202 36.6392 66.7607 37.143C66.4275 39.9791 68.1094 42.9145 70.7234 44.0648C71.1875 44.2671 71.5921 43.5848 71.124 43.3786Z" fill="#313131"/>
<path d="M57.7615 41.2096C54.9888 39.0398 53.66 35.3072 54.497 31.8761C54.616 31.3802 53.8544 31.17 53.7314 31.6658C52.8349 35.3469 54.2114 39.4285 57.2022 41.7728C57.5989 42.0822 58.1661 41.5269 57.7615 41.2135V41.2096Z" fill="#313131"/>
<path d="M52.5516 15.1959C52.143 15.4973 51.8495 15.9218 51.7464 16.4216C51.6512 16.8738 51.6551 17.6195 52.0597 17.9289C52.9324 18.5953 54.0153 19.2855 55.1656 19.0792C56.1176 18.9047 56.7126 18.0876 56.8237 17.1633C56.9348 16.2391 56.5579 15.3744 55.8479 14.8191C54.9316 14.1011 53.6979 13.9623 52.5873 14.1963C52.3771 14.2399 52.2541 14.4859 52.3096 14.6842C52.3691 14.9024 52.5873 15.0055 52.7975 14.9619C53.4243 14.831 54.0827 14.8547 54.6857 15.0689C55.2093 15.2554 55.7051 15.6441 55.9074 16.136C56.3001 17.08 55.8796 18.3613 54.6896 18.3295C53.8606 18.3057 53.095 17.7306 52.4604 17.2506L52.6032 17.3934C52.3612 16.9055 52.508 16.2153 52.9522 15.8861C53.1228 15.7592 53.2101 15.541 53.095 15.3426C52.9959 15.1721 52.7261 15.0729 52.5516 15.1998V15.1959Z" fill="#313131"/>
<path d="M50.2498 8.32398C47.9888 8.04632 45.0376 8.1098 43.927 10.5255C43.5025 11.4497 43.5739 12.4771 44.2086 13.2823C44.8076 14.0399 45.8072 14.4802 46.7512 14.1312C47.2312 13.9527 47.0448 13.2783 46.541 13.3656C44.1848 13.7861 41.5946 14.9324 40.8211 17.4036C40.4998 18.431 40.5275 19.5932 41.0194 20.5611C41.5906 21.6876 42.7568 22.2469 43.9428 22.5087C45.6643 22.8895 47.4454 22.8578 49.159 22.473C49.4961 22.3977 49.5398 21.9137 49.2542 21.7471C48.1197 21.0926 46.783 22.1874 46.7354 23.3853C46.6798 24.8609 48.1118 25.9438 49.2462 26.6102C50.5671 27.3837 52.2292 27.8835 53.7246 27.3242C54.982 26.8562 55.9697 25.7772 56.0451 24.4008L55.2676 24.5079C56.0213 26.4635 58.1672 27.594 60.222 27.2885C62.2767 26.9831 63.6967 25.0156 63.669 22.9331C63.6531 21.7511 63.2049 20.5968 62.3322 19.7876L61.9474 20.45C65.089 20.9102 68.5083 19.141 68.9684 15.7892C69.1786 14.27 68.7383 12.6635 67.5999 11.5965C66.3345 10.4104 64.5654 10.0058 62.9113 9.69248C61.5706 9.43861 59.5952 9.31566 58.9328 10.815C58.7622 11.1998 59.2184 11.6441 59.5556 11.295C61.0034 9.78769 60.4956 7.25697 58.9526 6.00747C57.005 4.42875 54.1688 5.16259 52.3719 6.58661L52.8519 6.52313C51.6976 6.01937 49.9007 5.67032 49.0995 6.95948C48.556 7.82817 48.7663 9.23234 49.873 9.51398C50.3688 9.64091 50.579 8.87535 50.0832 8.74842C49.4565 8.58975 49.5041 7.68933 49.8452 7.27284C50.4521 6.53107 51.7254 6.88808 52.4553 7.20541C52.6377 7.28474 52.7845 7.2649 52.9352 7.14193C54.391 5.98367 56.767 5.33315 58.3854 6.55487C59.6151 7.48307 60.1426 9.53383 58.9962 10.7238L59.619 11.2038C60.1029 10.109 61.6063 10.2478 62.5821 10.4224C63.9308 10.6643 65.3746 10.9578 66.5289 11.7353C68.901 13.3378 68.6511 16.88 66.517 18.5659C65.3072 19.5218 63.669 19.8947 62.1537 19.6726C61.7967 19.621 61.4476 20.0375 61.7689 20.335C63.3437 21.7987 63.2445 24.734 61.4278 25.9795C59.6349 27.2092 56.8106 26.2969 56.0332 24.2818C55.8745 23.8733 55.2795 23.9208 55.2557 24.3889C55.2041 25.3964 54.4306 26.1977 53.5183 26.5468C52.4592 26.9553 51.2653 26.7094 50.2696 26.2374C49.3494 25.805 48.2982 25.1664 47.7825 24.258C47.5287 23.8138 47.4375 23.2941 47.727 22.8419C47.969 22.4651 48.4331 22.1676 48.8615 22.4175L48.9567 21.6916C47.2907 22.0644 45.5057 22.0922 43.8476 21.6519C42.5029 21.2949 41.5073 20.4342 41.4161 18.9903C41.2336 15.9955 44.2562 14.5596 46.7592 14.1153L46.5489 13.3497C45.8072 13.6234 45.0694 13.2069 44.6846 12.5564C44.2522 11.8186 44.4704 10.9459 44.9821 10.3073C46.2435 8.73255 48.4529 8.87932 50.2498 9.09748C50.7536 9.16095 50.7496 8.36365 50.2498 8.30415V8.32398Z" fill="#313131"/>
<path d="M69.9019 28.3027C69.1681 28.4416 68.8944 29.219 68.9975 29.8815C69.0451 30.2028 69.1919 30.5122 69.418 30.7502C69.6957 31.0437 70.1002 31.1786 70.4969 31.1786C71.3854 31.1786 72.2026 30.5122 72.5715 29.7387C72.9403 28.9652 72.9761 27.9021 72.2105 27.3468C71.2823 26.6724 70.1042 27.4777 69.41 28.1203C69.2514 28.267 69.2633 28.5328 69.41 28.6796C69.5687 28.8382 69.8146 28.8263 69.9693 28.6796C70.2272 28.4416 70.489 28.2353 70.8063 28.0687C70.9491 27.9933 71.0483 27.9537 71.2149 27.914C71.3259 27.8862 71.4727 27.8823 71.5798 27.914C71.6631 27.9378 71.6591 27.9378 71.7504 27.9933C71.79 28.0171 71.8059 28.037 71.8614 28.0885C71.9368 28.1599 71.8416 28.0409 71.8932 28.1282C71.913 28.1599 71.9328 28.1956 71.9527 28.2274C72.0082 28.3226 71.9408 28.1679 71.9725 28.275C71.9844 28.3107 71.9963 28.3503 72.0082 28.386C72.0677 28.628 72.0399 28.8938 71.9447 29.1833C71.9051 29.3063 71.8575 29.4054 71.7702 29.5482C71.675 29.7029 71.6076 29.7863 71.4767 29.9172C71.2625 30.1314 71.0205 30.2861 70.7349 30.3535C70.612 30.3852 70.5167 30.3971 70.3501 30.3773C70.4255 30.3852 70.2906 30.3654 70.2906 30.3614C70.251 30.3535 70.2073 30.3376 70.1677 30.3257C70.1002 30.3099 70.1637 30.3257 70.1796 30.3337C70.1439 30.3178 70.1121 30.298 70.0764 30.2781C70.0566 30.2662 69.9892 30.2067 70.0606 30.2702C70.0407 30.2503 70.0169 30.2305 69.9971 30.2107C69.9773 30.1909 69.89 30.0719 69.9455 30.1552C69.9138 30.1036 69.8821 30.056 69.8543 30.0044C69.8464 29.9886 69.8384 29.9687 69.8305 29.9489C69.8741 30.0441 69.8226 29.9251 69.8186 29.9053C69.7988 29.8418 69.7948 29.7744 69.771 29.7149C69.7512 29.6593 69.771 29.8101 69.771 29.7149C69.771 29.6752 69.7671 29.6355 69.7631 29.5959C69.7631 29.5602 69.7869 29.3856 69.7631 29.4967C69.775 29.4332 69.7988 29.3698 69.8107 29.3063C69.8265 29.219 69.767 29.3737 69.8107 29.2984C69.8226 29.2746 69.8345 29.2508 69.8503 29.227C69.8662 29.2032 69.8781 29.1833 69.894 29.1595C69.8265 29.2547 69.9059 29.1595 69.9178 29.1397C69.9535 29.0921 69.9178 29.1397 69.8979 29.1516C69.9257 29.1317 69.9614 29.1159 69.9892 29.0961C70.0527 29.0485 69.9138 29.108 69.9971 29.0961C70.0368 29.0881 70.0725 29.0762 70.1122 29.0683C70.3224 29.0286 70.4414 28.7748 70.3898 28.5804C70.3303 28.3583 70.1121 28.2631 69.9019 28.3027Z" fill="#313131"/>
<path d="M65.5531 31.4661C64.5932 31.3987 63.7721 32.0294 63.3833 32.8782C62.9708 33.7707 63.062 34.7663 63.6491 35.5557C65.0731 37.4637 67.941 37.2733 69.6903 35.9722L69.1469 35.8294C69.9323 37.063 71.15 37.9516 72.5502 38.3641C74.0258 38.8004 75.4618 38.6299 76.858 38.0349C77.3896 37.8088 77.81 37.8008 78.3733 37.8921C78.7818 37.9595 79.1865 38.015 79.599 37.9317C80.194 37.8127 80.7057 37.4399 81.0666 36.9639C81.8481 35.9325 81.9988 34.4688 81.4712 33.2947C80.7136 31.6089 79.0198 30.6093 77.4808 29.7366L77.3856 30.4626C80.0036 30.0976 82.4113 28.511 83.7719 26.2381C84.1011 25.6867 84.4066 25.0481 84.3788 24.3896C84.351 23.7311 83.9226 23.2274 83.403 22.8426C82.336 22.0533 81.0309 21.6209 79.718 21.5059C78.2186 21.375 76.7033 21.7121 75.3983 22.4578L75.9417 22.6007C74.9421 21.0219 73.3515 19.5741 71.507 19.0862C70.6542 18.8601 69.6943 18.9077 68.9961 19.4987C68.3853 20.0144 68.0521 20.8553 68.3456 21.6249L68.9287 21.1766C67.3579 20.3952 65.0731 20.7165 64.252 22.434C63.5539 23.8898 64.3433 25.9564 65.9974 26.2857L66.1044 25.5082C64.2362 25.3456 61.8363 25.3773 61.1184 27.4955C60.8764 28.2055 60.9438 29.0583 61.4714 29.6295C62.1735 30.3832 63.2802 30.2007 64.1013 30.7164L64.2996 29.9786C63.4468 29.935 62.6971 30.8711 63.0779 31.6843C63.4389 32.4538 64.5297 32.5728 65.1009 31.9778C65.4539 31.6089 64.8946 31.0456 64.5416 31.4185C64.3671 31.601 63.9625 31.6525 63.8157 31.3868C63.6372 31.0694 64.0061 30.7561 64.2996 30.7719C64.7082 30.7918 64.8153 30.2325 64.498 30.0341C63.8355 29.6177 63.0303 29.6772 62.3599 29.3162C61.757 28.9909 61.6737 28.3087 61.884 27.7057C62.4829 26.0001 64.6566 26.1746 66.1084 26.3015C66.5527 26.3412 66.6519 25.6113 66.2155 25.5241C65.0176 25.2861 64.4583 23.7787 64.9938 22.7315C65.6324 21.486 67.3896 21.2916 68.536 21.8628C68.8137 22.0017 69.25 21.7637 69.1191 21.4146C68.889 20.8077 69.254 20.1731 69.8212 19.9033C70.555 19.5543 71.4634 19.8359 72.1457 20.177C73.4269 20.8117 74.4979 21.7994 75.2634 23.0052C75.3785 23.1877 75.6125 23.2591 75.8069 23.1481C77.0603 22.4301 78.5161 22.1485 79.948 22.327C80.67 22.4142 81.3919 22.6245 82.0424 22.9458C82.693 23.2671 83.6251 23.7311 83.5894 24.5522C83.5577 25.294 83.0063 26.0556 82.5621 26.6228C82.1178 27.19 81.6101 27.6899 81.0428 28.1183C79.9084 28.9711 78.5835 29.5105 77.1793 29.7049C76.8303 29.7525 76.8104 30.2761 77.0841 30.4308C79.0635 31.5494 82.209 33.62 80.5787 36.2935C80.313 36.7259 79.9084 37.0868 79.3927 37.1741C78.6589 37.2971 77.9489 36.9123 77.2031 37.0829C76.5169 37.2415 75.914 37.6342 75.2119 37.7612C74.605 37.8722 73.9624 37.8643 73.3555 37.7493C71.9235 37.4795 70.6225 36.6743 69.8371 35.4367C69.73 35.2701 69.4721 35.163 69.2936 35.2939C67.945 36.2975 65.8506 36.6426 64.5376 35.3732C63.9982 34.8536 63.776 34.1396 64.0259 33.4177C64.256 32.7473 64.8232 32.2158 65.561 32.2674C66.0687 32.3031 66.0687 31.5097 65.561 31.474L65.5531 31.4661Z" fill="#313131"/>
<path d="M19.6548 9.59221C19.3573 9.22331 18.8258 9.15985 18.4014 9.31851C17.9373 9.48908 17.5882 9.83816 17.4137 10.2983C17.1083 11.0956 17.4811 12.0198 18.0801 12.5712C18.679 13.1225 19.639 13.3923 20.4085 12.9361C21.059 12.5514 21.3803 11.7778 21.3684 11.04C21.3526 10.1753 20.8964 9.36216 20.0634 9.0607C19.8611 8.9893 19.6271 9.144 19.5755 9.33837C19.516 9.5605 19.6509 9.75089 19.8532 9.82626C19.8651 9.83022 19.9642 9.87783 19.8849 9.83817C19.9166 9.85403 19.9444 9.86593 19.9722 9.88179C19.9999 9.89766 20.0277 9.91353 20.0555 9.93336C20.0674 9.9413 20.1507 10.0087 20.0793 9.94922C20.1308 9.98889 20.1784 10.0325 20.2221 10.0801C20.2459 10.1039 20.2657 10.1277 20.2855 10.1515C20.2221 10.0801 20.3093 10.1872 20.3212 10.2031C20.353 10.2547 20.3847 10.3062 20.4125 10.3578C20.4244 10.3816 20.4363 10.4054 20.4482 10.4332C20.4958 10.5284 20.4244 10.3578 20.4601 10.4609C20.5077 10.5997 20.5473 10.7346 20.5671 10.8814C20.5513 10.7822 20.5671 10.8933 20.5671 10.9091C20.5671 10.9409 20.5711 10.9766 20.5711 11.0083C20.5711 11.0757 20.5711 11.1432 20.5711 11.2106C20.5711 11.2423 20.5473 11.401 20.5632 11.3058C20.5513 11.3812 20.5354 11.4605 20.5156 11.5359C20.4997 11.5993 20.4759 11.6628 20.4521 11.7263C20.4839 11.639 20.4482 11.7382 20.4402 11.754C20.4244 11.7818 20.4125 11.8136 20.3966 11.8413C20.3649 11.8969 20.3291 11.9524 20.2935 12.0039C20.2538 12.0634 20.2855 12.0119 20.2935 12.0039C20.2657 12.0357 20.2379 12.0674 20.2062 12.0991C20.1824 12.1229 20.1586 12.1428 20.1348 12.1666C20.1229 12.1785 20.0396 12.238 20.115 12.1864C20.0594 12.2261 20.0079 12.2618 19.9484 12.2896C19.9365 12.2935 19.8373 12.3411 19.9206 12.3054C19.8849 12.3213 19.8492 12.3332 19.8135 12.3451C19.7778 12.357 19.7381 12.3649 19.7024 12.3768C19.6786 12.3808 19.6509 12.3887 19.6271 12.3927C19.6707 12.3887 19.6667 12.3887 19.6191 12.3927C19.5557 12.3927 19.4962 12.3966 19.4327 12.3927C19.4248 12.3927 19.3018 12.3768 19.3891 12.3927C19.3534 12.3847 19.3137 12.3808 19.278 12.3689C19.0876 12.3213 19.0519 12.3054 18.8853 12.2023C18.7425 12.115 18.7147 12.0952 18.5997 11.9801C18.4569 11.8413 18.4133 11.7858 18.322 11.6311C18.2824 11.5636 18.2467 11.4962 18.211 11.4248C18.1594 11.3138 18.2348 11.4922 18.1911 11.3772C18.1792 11.3415 18.1673 11.3058 18.1554 11.2701C18.1356 11.2106 18.1237 11.1471 18.1118 11.0837C18.088 10.9686 18.1118 11.1551 18.1078 11.04C18.1078 10.9885 18.0999 10.9409 18.1039 10.8893C18.1039 10.8536 18.1039 10.814 18.1118 10.7783C18.1158 10.7307 18.1158 10.7267 18.1118 10.7703C18.1158 10.7465 18.1197 10.7227 18.1277 10.695C18.1356 10.6593 18.1475 10.6196 18.1594 10.5839C18.1674 10.5601 18.1753 10.5363 18.1832 10.5125C18.1673 10.5482 18.1713 10.5442 18.1911 10.5006C18.2625 10.3538 18.3498 10.2546 18.445 10.1912C18.4767 10.1674 18.5124 10.1476 18.5481 10.1277C18.5719 10.1158 18.5957 10.0999 18.6195 10.092C18.5878 10.1039 18.5918 10.1 18.6354 10.0841C18.6711 10.0722 18.7108 10.0603 18.7504 10.0484C18.7742 10.0405 18.802 10.0365 18.8258 10.0325C18.7822 10.0365 18.7861 10.0405 18.8337 10.0325C18.8694 10.0325 18.9091 10.0325 18.9448 10.0325C18.8575 10.0206 18.9964 10.0524 19.0122 10.0603C18.9329 10.0246 19.036 10.0801 19.044 10.088C18.9845 10.0444 19.0876 10.1436 19.0995 10.1555C19.2344 10.3221 19.52 10.2943 19.6588 10.1555C19.8254 9.98889 19.7937 9.76278 19.6588 9.59618L19.6548 9.59221Z" fill="#313131"/>
<path d="M18.3957 3.45062C17.6024 2.38756 16.6465 1.32054 15.3097 0.979407C14.1514 0.685875 12.8861 0.979398 12.176 1.98693C11.5533 2.87546 11.4541 4.09718 11.7992 5.11265C12.2316 6.39387 13.2034 7.3776 14.2109 8.23836L14.5957 7.57594C12.9694 7.27448 11.1963 7.2824 9.72465 8.13523C8.51482 8.83732 7.60251 10.1701 7.57871 11.5942C7.52714 14.5295 10.9186 15.5925 13.3184 15.3506L13.0368 14.6723C11.117 16.4731 12.303 19.5473 14.0166 21.0149C16.0039 22.7166 18.9788 23.1212 21.0296 21.3005C22.0847 20.3604 22.7273 18.9483 22.5449 17.5282L21.9499 17.8694C23.2906 18.5596 24.7106 19.2775 26.2537 19.2974C27.4238 19.3132 28.6614 18.8412 29.4111 17.9209C30.2401 16.8975 30.2005 15.533 29.5658 14.4184C28.8161 13.1094 27.4397 12.3954 26.1386 11.7488L25.8332 12.4747C28.0426 13.1808 30.375 10.9754 30.0617 8.74214C29.7483 6.50891 27.1938 5.12057 25.0637 5.60451L25.5119 6.18762C26.6741 3.98613 25.4841 0.955599 23.1002 0.178137C20.5179 -0.666759 17.6778 1.62596 17.6976 4.26775C17.6976 4.77945 18.4949 4.77945 18.491 4.26775C18.4751 2.12576 20.7995 0.2535 22.8899 0.943697C24.7741 1.56646 25.7459 4.04562 24.8296 5.78698C24.667 6.09638 24.9367 6.4494 25.2779 6.37007C26.9161 5.9972 28.8954 6.99284 29.2564 8.7104C29.6174 10.428 27.765 12.2566 26.0474 11.7092C25.623 11.5743 25.3334 12.2328 25.742 12.4351C26.7971 12.9547 27.9593 13.5021 28.6694 14.4819C29.3794 15.4616 29.5261 16.6635 28.6892 17.556C26.9399 19.4164 24.2069 18.1391 22.3584 17.1911C22.1204 17.0681 21.7198 17.2109 21.7634 17.5322C21.938 18.9166 21.2478 20.2454 20.1133 21.0308C18.9788 21.8162 17.5508 21.8995 16.2656 21.4354C14.9805 20.9713 13.8658 20.0153 13.2827 18.8015C12.7353 17.6671 12.6243 16.1598 13.612 15.2355C13.846 15.0134 13.6794 14.5215 13.3303 14.5572C11.4422 14.7476 8.45929 14.1288 8.38789 11.733C8.35219 10.5351 9.12965 9.40457 10.1411 8.8175C11.4184 8.07574 12.9892 8.07573 14.4013 8.33753C14.7544 8.40496 15.1153 7.95674 14.7861 7.67511C13.4176 6.50495 11.7 4.65252 12.6798 2.70886C13.1598 1.76083 14.2109 1.48316 15.1907 1.76082C16.2815 2.07022 17.0748 2.97066 17.7293 3.84728C18.0308 4.25188 18.721 3.85521 18.4156 3.44665L18.3957 3.45062Z" fill="#313131"/>
<path d="M20.8889 19.3406C19.6513 20.4473 19.4808 22.3156 20.0361 23.8071C20.7025 25.6079 22.2614 26.8455 23.7291 27.984C24.1297 28.2934 24.6929 27.7341 24.2883 27.4247C22.9952 26.4211 21.5791 25.3501 20.8889 23.819C20.3138 22.5497 20.3574 20.8797 21.4482 19.9039C21.829 19.5628 21.2658 19.0035 20.8889 19.3446V19.3406Z" fill="#313131"/>
<path d="M32.933 29.5377C34.7259 27.3521 37.804 25.6147 40.6997 26.3843C43.5953 27.1538 44.8527 30.6167 47.1931 32.3779L47.3914 31.6401C44.5751 31.652 41.9531 32.8935 39.1527 32.9808C37.8873 33.0205 36.614 32.8023 35.5549 32.0804C34.6188 31.4417 33.9167 30.4501 33.8651 29.2958C33.8413 28.7881 33.048 28.7841 33.0718 29.2958C33.1908 31.9217 35.6739 33.5203 38.0817 33.7463C41.2629 34.0438 44.2339 32.4453 47.3914 32.4334C47.8158 32.4334 47.8872 31.9177 47.5897 31.6956C45.5588 30.1645 44.5949 27.5782 42.3815 26.2454C40.2871 24.984 37.7009 25.3053 35.5986 26.3723C34.357 27.003 33.2503 27.9035 32.3697 28.9745C32.0484 29.3672 32.6077 29.9304 32.929 29.5338L32.933 29.5377Z" fill="#313131"/>
<path d="M26.2189 28.9688C25.2788 29.3933 24.779 30.3849 24.7235 31.3845C24.6561 32.5943 25.3185 33.6971 26.0523 34.6015C27.7382 36.6721 29.9515 38.3619 32.2998 39.6074C32.5021 39.7145 32.8393 39.6351 32.8829 39.3694C33.3033 36.7792 33.7754 33.8359 32.4386 31.4202C31.3914 29.5281 29.2018 28.0922 26.9964 28.7031C26.5045 28.838 26.7147 29.6035 27.2066 29.4686C29.1701 28.9252 31.0582 30.373 31.8833 32.0747C32.9384 34.2445 32.4823 36.8783 32.1134 39.1592L32.6965 38.9211C30.6695 37.8502 28.8329 36.4618 27.2661 34.7839C26.5283 33.9946 25.7628 33.1021 25.5525 32.0113C25.374 31.087 25.7231 30.0557 26.6156 29.6511C27.0797 29.4409 26.6751 28.7546 26.215 28.9649L26.2189 28.9688Z" fill="#313131"/>
<path d="M29.2947 25.1096C31.4367 25.2802 33.6421 24.4273 35.0781 22.8208C36.514 21.2143 37.1209 18.9732 36.748 16.8431C36.7084 16.621 36.4545 16.5257 36.2601 16.5654C34.253 16.974 32.1388 17.4222 30.4886 18.7153C29.0408 19.8498 28.0809 21.6031 28.3387 23.4674C28.4062 23.9712 29.1717 23.7569 29.1043 23.2571C28.8782 21.611 29.9531 20.0283 31.2582 19.1279C32.7972 18.0688 34.6774 17.6959 36.4743 17.331L35.9864 17.0533C36.3156 18.9295 35.7365 20.9486 34.4355 22.3488C33.1344 23.749 31.2026 24.467 29.2947 24.3163C28.7869 24.2766 28.7869 25.0699 29.2947 25.1096Z" fill="#313131"/>
<path d="M30.4655 13.9038C34.6701 14.947 39.3349 12.1704 40.3979 7.96575C40.4614 7.71188 40.275 7.46991 40.0171 7.46198C37.7046 7.40248 35.273 7.35489 33.135 8.36638C31.4412 9.17161 29.9855 10.6908 29.7078 12.5988C29.6364 13.0986 30.398 13.3128 30.4734 12.809C30.7312 11.0359 32.0759 9.69916 33.6665 8.9931C35.6419 8.1125 37.9069 8.19977 40.0211 8.25531L39.6403 7.75156C38.6844 11.5357 34.4757 14.0783 30.6836 13.1382C30.1878 13.0153 29.9776 13.7808 30.4734 13.9038H30.4655Z" fill="#313131"/>
<path d="M14.3968 23.4061C12.5999 24.2034 11.2116 25.8972 10.8348 27.8369C10.4421 29.8757 11.1363 32.0217 12.6198 33.4655C12.7467 33.5925 12.945 33.6163 13.0997 33.529C14.7261 32.6207 16.5309 31.6052 17.4234 29.8916C18.189 28.42 18.2365 26.52 17.0624 25.2546C16.7133 24.8778 16.1541 25.441 16.5031 25.8139C17.5265 26.9166 17.3004 28.6501 16.5388 29.8361C15.6463 31.2284 14.1033 32.0614 12.6991 32.8468L13.1791 32.9102C11.8741 31.6369 11.2315 29.7171 11.6281 27.9162C12.0248 26.1154 13.2069 24.7984 14.7975 24.0963C15.2616 23.8901 14.8609 23.2078 14.3968 23.4101V23.4061Z" fill="#313131"/>
<path d="M68.8273 7.82617C66.8003 9.80156 67.673 13.0106 69.5294 14.7519C71.8935 16.9732 75.2572 17.4413 77.9387 19.1311C78.2163 19.3056 78.6407 19.0121 78.5217 18.6829C78.0418 17.3699 77.8078 15.9895 77.8752 14.5893C77.9347 13.3001 78.375 12.0149 78.1965 10.7218C77.8673 8.35769 75.4476 7.8103 73.4444 7.60006C72.9367 7.5485 72.9407 8.34183 73.4444 8.39339C74.3885 8.49256 75.4 8.62345 76.233 9.10738C77.2604 9.70238 77.5182 10.7416 77.423 11.8642C77.3278 12.9868 77.0462 14.1331 77.0739 15.3033C77.1017 16.529 77.3357 17.7428 77.7562 18.8931L78.3393 18.4449C75.9395 16.9336 73.024 16.4298 70.7352 14.7281C69.7118 13.9665 68.859 12.9431 68.5655 11.6778C68.2957 10.5116 68.5099 9.23828 69.3866 8.38148C69.7515 8.02448 69.1922 7.4652 68.8273 7.8222V7.82617Z" fill="#313131"/>
<path d="M93.948 18.4519C93.7933 19.2611 94.063 20.1218 94.6739 20.6891C95.2847 21.2563 96.1534 21.4229 96.9309 21.0857C97.7084 20.7486 98.2478 20.0266 98.2359 19.1976C98.224 18.3686 97.6211 17.5713 96.8674 17.2103C95.8203 16.7105 94.6382 16.9485 93.6227 17.4087C93.4284 17.4959 93.3808 17.7815 93.4799 17.9521C93.5989 18.1544 93.825 18.1822 94.0234 18.0949C94.6937 17.7895 95.4831 17.5991 96.209 17.8014C96.7643 17.9561 97.272 18.3884 97.4148 18.9636C97.5418 19.4793 97.2522 19.9791 96.8199 20.2528C96.3597 20.5423 95.8123 20.5503 95.3641 20.229C94.8881 19.8878 94.6104 19.2413 94.7175 18.6621C94.7572 18.4519 94.658 18.2337 94.4399 18.1742C94.2455 18.1227 93.9916 18.2417 93.952 18.4519H93.948Z" fill="#313131"/>
<path d="M89.33 11.5804C88.4097 11.033 87.3863 10.4777 86.2796 10.7078C85.3792 10.8942 84.6414 11.6121 84.6612 12.5681C84.681 13.5836 85.4704 14.4126 86.2439 14.9679C87.18 15.6423 88.2788 16.0746 89.4133 16.2571L89.6235 15.4915C86.9222 15.0552 84.0702 15.8128 82.0194 17.6573C81.0992 18.4864 80.5597 19.712 81.3808 20.8068C82.1622 21.8461 83.5902 22.2785 84.7842 22.6117C86.5533 23.1075 88.4057 23.286 90.2383 23.1591L89.9567 22.4808C87.898 24.4085 88.3938 27.7524 90.2502 29.6207C91.3093 30.6877 92.7254 31.366 94.1732 31.731C95.6211 32.0959 97.3069 32.2784 98.6595 31.5287C99.905 30.8385 100.631 29.1923 99.8852 27.8913L99.3418 28.4347C100.77 29.1011 102.313 29.7635 103.923 29.6842C105.193 29.6207 106.494 29.1011 107.263 28.0499C108.116 26.8798 108.068 25.301 107.525 24.0079C106.942 22.6156 105.815 21.5565 104.697 20.5887L104.312 21.2511C105.954 21.6636 108.314 21.969 109.155 20.0452C109.909 18.3237 107.973 16.6656 106.72 15.8089C105.97 15.2972 105.137 14.9005 104.272 14.6347C103.32 14.3412 102.229 14.4007 101.321 13.9842C100.413 13.5677 99.7305 12.6712 98.9848 12.0287C98.3025 11.4416 97.5568 10.914 96.696 10.6165C95.149 10.085 93.2093 10.5967 92.5509 12.1913L93.2133 12.0167C91.9479 10.8505 90.151 10.4261 88.5049 10.9339C88.017 11.0846 88.2272 11.8501 88.7151 11.6994C90.0916 11.2789 91.5909 11.6002 92.654 12.58C92.892 12.7982 93.2054 12.6792 93.3164 12.4055C93.8043 11.2155 95.4029 11.0132 96.4858 11.3821C98.0367 11.9136 99.0125 13.2861 100.266 14.2539C101.519 15.2218 103.225 15.0433 104.661 15.6065C106.037 16.15 107.6 17.1694 108.314 18.5101C108.778 19.3788 108.366 20.2118 107.505 20.5966C106.565 21.021 105.466 20.7196 104.522 20.4816C104.161 20.3903 103.824 20.8743 104.137 21.144C105.085 21.9611 106.033 22.8259 106.628 23.9484C107.223 25.071 107.382 26.4633 106.66 27.5263C106.034 28.4466 104.855 28.871 103.78 28.8908C102.36 28.9186 101.008 28.3355 99.7424 27.7445C99.3973 27.5858 98.9887 27.919 99.199 28.2879C99.548 28.8988 99.4013 29.6207 99.0086 30.1761C98.5366 30.8385 97.7393 31.1439 96.9539 31.2193C95.3989 31.366 93.6814 30.9138 92.3208 30.1681C90.9602 29.4224 89.9012 28.3077 89.5402 26.8084C89.2189 25.4676 89.4966 23.996 90.5239 23.0321C90.7659 22.806 90.5874 22.33 90.2423 22.3538C88.5049 22.4728 86.7675 22.3181 85.0856 21.858C84.0464 21.5724 81.7656 21.0171 81.7537 19.601C81.7457 18.8394 82.4954 18.2364 83.0508 17.8199C83.6457 17.3717 84.3122 16.9988 85.0063 16.7291C86.4026 16.1817 87.9337 16.0072 89.4172 16.2452C89.917 16.3245 90.1312 15.5629 89.6275 15.4796C88.1876 15.2456 86.2241 14.5157 85.5854 13.0679C85.2483 12.2984 85.6965 11.6082 86.4938 11.4614C87.3744 11.2988 88.2114 11.8263 88.9333 12.2547C89.3736 12.5165 89.7742 11.8303 89.3339 11.5685L89.33 11.5804Z" fill="#313131"/>
<path d="M71.0869 9.7247C71.5709 11.2122 72.5586 12.4934 73.8755 13.3423C74.054 13.4573 74.3118 13.378 74.4189 13.1995C74.53 13.0091 74.4586 12.7711 74.2761 12.6561C73.1377 11.9262 72.273 10.7997 71.8525 9.51446C71.7851 9.31216 71.5788 9.17731 71.3646 9.23681C71.1663 9.29234 71.0195 9.51844 71.0869 9.7247Z" fill="#313131"/>
<path d="M34.5088 29.9697C36.2542 30.5608 38.0788 30.89 39.9233 30.9574C40.435 30.9773 40.435 30.184 39.9233 30.1641C38.1502 30.1007 36.4009 29.7714 34.7191 29.2042C34.2351 29.0415 34.0249 29.8071 34.5088 29.9697Z" fill="#313131"/>
<path d="M105.573 37.7601C104.752 38.0695 104.462 38.9898 104.748 39.7831C105.061 40.6558 105.866 41.3896 106.481 42.06C107.179 42.8137 107.929 43.5276 108.774 44.1147C109.492 44.6105 110.535 45.2968 111.451 45.0151C112.308 44.7494 112.915 43.6942 113.232 42.9207C113.581 42.0719 113.708 41.1437 113.581 40.2353C113.339 38.486 112.134 36.943 110.511 36.2528C109.115 35.6578 106.818 35.9672 106.648 37.8117C106.6 38.3194 107.393 38.3155 107.441 37.8117C107.544 36.6891 109.186 36.6177 109.988 36.8954C111.233 37.3238 112.253 38.4226 112.645 39.6681C113.074 41.0366 112.768 42.6153 111.848 43.718C111.614 43.9997 111.34 44.313 110.936 44.2853C110.515 44.2575 110.091 43.9957 109.734 43.7894C109.059 43.4007 108.456 42.9088 107.893 42.3773C107.282 41.7982 106.723 41.1675 106.176 40.5328C105.898 40.2115 105.585 39.8704 105.466 39.4539C105.374 39.1405 105.422 38.6606 105.779 38.5297C106.251 38.3512 106.049 37.5856 105.569 37.7641L105.573 37.7601Z" fill="#313131"/>
<path d="M106.928 38.4274C108.162 38.5306 109.324 39.4786 109.685 40.6884C109.832 41.1763 110.597 40.9701 110.45 40.4782C109.982 38.9153 108.55 37.7729 106.928 37.6341C106.714 37.6143 106.531 37.8285 106.531 38.0308C106.531 38.2608 106.714 38.4076 106.928 38.4274Z" fill="#313131"/>
<path d="M110.574 35.6306C111.724 35.0118 112.879 34.393 114.029 33.7742C114.477 33.5323 114.08 32.846 113.628 33.088C112.478 33.7068 111.324 34.3256 110.173 34.9444C109.725 35.1864 110.122 35.8726 110.574 35.6306Z" fill="#313131"/>
<path d="M107.795 25.5008C110.242 22.7083 114.61 23.9855 117.775 22.9145L117.287 22.4266C116.886 24.3028 116.331 26.2782 114.998 27.7221C113.816 28.9993 111.845 29.8205 110.151 29.0946C109.687 28.8962 109.282 29.5785 109.75 29.7808C111.646 30.59 113.773 29.9553 115.248 28.5948C116.906 27.0676 117.596 24.7788 118.053 22.6408C118.112 22.3631 117.87 22.0498 117.565 22.1529C114.221 23.2834 109.838 21.9705 107.236 24.9454C106.902 25.3262 107.458 25.8895 107.795 25.5047V25.5008Z" fill="#313131"/>
<path d="M109.575 20.2647C112.481 21.1851 115.932 19.8525 117.378 17.1439C117.547 16.8306 117.687 16.5021 117.597 16.1419C117.494 15.7384 117.107 15.503 116.796 15.2686C116.081 14.7279 115.344 14.2164 114.548 13.8033C113.112 13.0585 111.433 12.691 109.896 13.3521C108.475 13.9648 107.324 15.3566 107.577 16.9695C107.658 17.4736 108.437 17.3403 108.357 16.8362C108.178 15.6888 108.983 14.7033 109.955 14.2012C111.174 13.5719 112.506 13.7568 113.729 14.2876C114.408 14.584 115.037 14.9803 115.642 15.409C115.911 15.5992 116.172 15.7936 116.434 15.9936C116.545 16.0771 116.755 16.1919 116.809 16.3277C116.864 16.4636 116.743 16.655 116.679 16.7797C116.084 17.8801 115.089 18.7304 113.955 19.24C112.668 19.8157 111.197 19.9504 109.843 19.5216C109.359 19.3682 109.085 20.1122 109.572 20.2679L109.575 20.2647Z" fill="#313131"/>
<path d="M99.2919 11.4552C98.9573 9.77526 99.7335 7.92092 101.214 7.03392C102.695 6.14693 104.571 6.31156 105.926 7.30667L105.777 6.76541C105.11 8.21301 105.108 9.79774 104.73 11.3209C104.414 12.5917 103.548 14.1263 102.076 14.1859C101.565 14.2086 101.565 14.9995 102.076 14.9769C103.666 14.9116 104.743 13.6097 105.278 12.2211C105.905 10.5884 105.728 8.75126 106.468 7.15217C106.566 6.94176 106.507 6.74825 106.319 6.6109C104.725 5.43919 102.403 5.32804 100.723 6.39744C99.0433 7.46684 98.1271 9.64662 98.5262 11.6491C98.6246 12.1511 99.3931 11.9488 99.2947 11.4468L99.2919 11.4552Z" fill="#313131"/>
<path d="M119.972 27.2437C121.285 30.7383 123.939 34.0703 127.945 34.3043C128.838 34.3559 129.829 34.2448 130.642 33.8561C131.578 33.4079 131.329 32.3686 131.249 31.5118C131.071 29.5721 130.686 27.6126 129.389 26.0854C128.092 24.5583 126.14 23.6777 124.153 23.6896C123.641 23.6896 123.641 24.4869 124.153 24.4829C125.668 24.475 127.152 25.0422 128.27 26.0696C129.524 27.212 130.079 28.7748 130.329 30.417C130.392 30.8375 130.436 31.2619 130.472 31.6823C130.504 32.0671 130.714 32.8644 130.361 33.1104C130.087 33.3008 129.631 33.3722 129.31 33.4317C128.885 33.511 128.453 33.5348 128.02 33.5149C126.386 33.4396 124.827 32.6939 123.637 31.5951C122.293 30.3535 121.376 28.7312 120.738 27.0335C120.559 26.5614 119.794 26.7637 119.972 27.2437Z" fill="#313131"/>
<path d="M121.101 24.3763C123.846 25.8162 126.131 28.0137 127.67 30.7031C127.923 31.1473 128.61 30.7467 128.356 30.3024C126.753 27.502 124.361 25.1894 121.505 23.69C121.053 23.452 120.653 24.1383 121.105 24.3763H121.101Z" fill="#313131"/>
</svg>
