<svg width="1177" height="306" viewBox="0 0 1177 306" fill="none" xmlns="http://www.w3.org/2000/svg">
<g clip-path="url(#clip0_1510_109465)">
<path d="M913.683 76.0007L963.243 65.0007L1012.8 54.0007L1062.61 42.9207L1112.17 31.9207L1161.74 20.9207L1167.93 19.5507C1168.72 19.3707 1168.38 18.1707 1167.6 18.3407L1118.04 29.3407L1068.47 40.3407L1018.66 51.4107L969.103 62.4107L919.543 73.4107L913.343 74.7907C912.563 74.9707 912.893 76.1707 913.683 76.0007Z" fill="#313131"/>
<path d="M878.09 158.24L952.81 178.59L1027.16 198.83L1101.88 219.18L1176.24 239.41L1250.96 259.75L1260.16 262.26C1260.31 262.287 1260.47 262.255 1260.61 262.171C1260.74 262.086 1260.83 261.956 1260.87 261.805C1260.92 261.654 1260.9 261.493 1260.83 261.353C1260.76 261.214 1260.64 261.106 1260.49 261.05L1185.77 240.71L1111.42 220.47L1036.7 200.12L962.34 179.88L887.62 159.53L878.42 157.03C878.261 156.986 878.091 157.008 877.948 157.089C877.804 157.171 877.699 157.306 877.655 157.465C877.611 157.624 877.633 157.794 877.714 157.938C877.796 158.081 877.931 158.186 878.09 158.23V158.24Z" fill="#313131"/>
<path d="M857.347 180.909L923.107 229.629L988.477 278.049L1025.28 305.309C1025.93 305.789 1026.55 304.709 1025.91 304.229L960.237 255.579L894.867 207.159L857.977 179.829C857.327 179.349 856.707 180.429 857.347 180.909Z" fill="#313131"/>
<path d="M934.58 122.088L1016.02 130.236L1096.96 138.325L1142.53 142.881C1143.34 142.96 1143.31 141.715 1142.52 141.631L1061.2 133.497L980.251 125.408L934.568 120.838C933.764 120.759 933.785 122.004 934.58 122.088Z" fill="#313131"/>
<path d="M760.767 148.461C732.18 155.274 703.563 161.978 674.917 168.571C646.13 175.204 617.317 181.718 588.477 188.111C559.81 194.471 531.087 200.724 502.307 206.871C473.527 213.018 444.76 219.044 416.007 224.951C383.491 231.64 400.943 228.173 368.367 234.561C367.577 234.721 367.907 235.921 368.697 235.771C397.55 230.111 376.373 234.338 405.167 228.451C434.087 222.531 463.003 216.518 491.917 210.411C520.67 204.298 549.397 198.071 578.097 191.731C606.797 185.391 635.463 178.941 664.097 172.381C692.897 165.781 721.667 159.071 750.407 152.251L761.077 149.711C761.857 149.531 761.527 148.321 760.737 148.511L760.767 148.461Z" fill="#313131"/>
<path d="M734.03 65.4101C719.03 61.7101 704.087 57.8101 689.2 53.7101C673.914 49.5301 658.657 45.2234 643.43 40.7901C628.204 36.3568 612.964 31.8968 597.71 27.4101C582.81 22.9701 567.92 18.5268 553.04 14.0801C538.847 9.82675 524.64 5.63675 510.42 1.51008L505.24 0.0300891C505.081 -0.0136716 504.911 0.00756995 504.768 0.0891483C504.624 0.170727 504.519 0.305957 504.475 0.465087C504.432 0.624217 504.453 0.794209 504.534 0.937674C504.616 1.08114 504.751 1.18633 504.91 1.23009C519.03 5.27009 533.124 9.39342 547.19 13.6001C562.024 18.0001 576.847 22.4201 591.66 26.8601C606.86 31.4001 622.074 35.8968 637.3 40.3501C652.527 44.8034 667.8 49.1368 683.12 53.3501C698.08 57.4768 713.08 61.4401 728.12 65.2401L733.69 66.6301C734.47 66.8201 734.8 65.6301 734.02 65.4201L734.03 65.4101Z" fill="#313131"/>
<path d="M630.811 109.493C639.699 110.441 667.527 111 676.371 111.339C683.718 111.645 691.068 111.858 698.404 112.483C702.287 112.806 706.164 113.264 710.021 113.906C710.811 114.037 710.933 112.791 710.143 112.66C695.446 110.221 661.451 110.446 646.615 109.551C641.379 109.227 636.154 108.795 630.939 108.255C630.775 108.238 630.611 108.287 630.483 108.391C630.355 108.495 630.273 108.646 630.256 108.81C630.239 108.974 630.288 109.138 630.392 109.266C630.496 109.394 630.647 109.476 630.811 109.493Z" fill="#313131"/>
<path d="M773.688 174.99C756.054 183.117 738.388 191.173 720.688 199.16C702.988 207.147 685.274 215.06 667.548 222.9C649.801 230.747 632.018 238.52 614.198 246.22C596.378 253.92 578.618 261.517 560.918 269.01C542.918 276.617 524.894 284.153 506.848 291.62L500.128 294.41C499.388 294.71 499.718 295.92 500.458 295.61C518.458 288.177 536.458 280.673 554.458 273.1C572.218 265.6 589.954 258.037 607.668 250.41C625.568 242.69 643.441 234.9 661.288 227.04C679.134 219.18 696.864 211.283 714.478 203.35C732.258 195.35 750.004 187.273 767.718 179.12L774.328 176.12C775.058 175.78 774.418 174.7 773.698 175.04L773.688 174.99Z" fill="#313131"/>
<path d="M795.545 188.409L737.745 249.459L721.455 266.669C720.905 267.259 721.785 268.139 722.335 267.559L780.135 206.559L796.435 189.349C796.985 188.759 796.105 187.879 795.545 188.459V188.409Z" fill="#313131"/>
<path d="M828.73 196.41C830.42 212.083 833.16 227.625 836.93 242.93C837.12 243.71 838.33 243.38 838.14 242.6C834.389 227.404 831.663 211.972 829.98 196.41C829.9 195.61 828.65 195.6 828.73 196.41Z" fill="#313131"/>
<path d="M732.245 1.07007C738.545 7.41007 745.045 13.4101 751.695 19.2501C757.205 24.1201 762.775 28.9201 768.075 34.0301C770.885 36.7301 773.605 39.5301 776.195 42.4601C776.725 43.0601 777.605 42.1701 777.075 41.5701C767.205 30.4101 755.425 21.1301 744.475 11.0801C740.615 7.52673 736.831 3.89673 733.125 0.190063C733.008 0.0733683 732.85 0.00781247 732.685 0.0078125C732.52 0.00781253 732.361 0.0733683 732.245 0.190063C732.128 0.306759 732.063 0.465034 732.062 0.630066C732.062 0.795098 732.128 0.953373 732.245 1.07007Z" fill="#313131"/>
<path d="M847.947 35.0495C856.545 25.7035 864.586 15.8599 872.027 5.56946C872.487 4.91946 871.407 4.28945 870.947 4.93945C863.575 15.1452 855.601 24.9025 847.067 34.1595C846.527 34.7595 847.407 35.6495 847.947 35.0495Z" fill="#313131"/>
<path d="M821.857 162.421C851.437 162.421 875.417 138.441 875.417 108.861C875.417 79.2804 851.437 55.3008 821.857 55.3008C792.277 55.3008 768.297 79.2804 768.297 108.861C768.297 138.441 792.277 162.421 821.857 162.421Z" stroke="#313131" stroke-width="2" stroke-miterlimit="10"/>
<path d="M77.2344 95.1983C73.2344 93.9183 72.5344 88.6183 74.2344 85.2883C76.4544 80.8483 81.6644 78.7683 86.0144 77.0483C95.7414 73.2005 105.828 70.333 116.124 68.4883C136.801 64.7896 157.996 65.1019 178.554 69.4083C190.139 71.8101 201.419 75.4997 212.184 80.4083C212.904 80.7483 213.544 79.6683 212.814 79.3283C192.58 70.0876 170.665 65.098 148.424 64.6683C126.199 64.1173 104.102 68.2041 83.5444 76.6683C79.0944 78.5283 73.8344 81.2783 72.4544 86.3283C71.4044 90.1883 72.7844 95.0383 76.9044 96.3783C77.6644 96.6183 77.9944 95.3783 77.2344 95.1683V95.1983Z" fill="#313131"/>
<path d="M204.244 65.5291C221.197 62.1957 238.28 59.6324 255.494 57.8391C272.574 56.0791 289.714 55.0791 306.914 54.8391C324.114 54.5991 341.274 55.1557 358.394 56.5091C372.234 57.5891 386.264 58.8091 399.624 62.8291C411.254 66.3291 422.774 72.2391 429.864 82.4491C430.708 83.6783 431.489 84.95 432.204 86.2591C432.584 86.9591 433.664 86.3291 433.284 85.6291C427.374 74.7991 416.974 67.7991 405.644 63.5391C393.174 58.8491 379.824 57.1891 366.644 55.9591C349.21 54.3457 331.734 53.5391 314.214 53.5391C296.794 53.5391 279.4 54.3357 262.034 55.9291C244.667 57.5224 227.444 59.8991 210.364 63.0591L203.914 64.2891C203.134 64.4491 203.464 65.6491 204.254 65.4991L204.244 65.5291Z" fill="#313131"/>
<path d="M432.858 76.5097C459.465 75.363 486.091 75.4997 512.738 76.9197C525.158 77.5897 537.678 78.2697 549.978 80.1997C555.796 81.0735 561.541 82.3737 567.168 84.0897C572.658 85.7897 578.448 87.8697 583.238 91.0897C585.507 92.4729 587.345 94.4605 588.548 96.8297C589.778 99.6597 588.768 102.32 586.798 104.5C583.19 108.346 579.139 111.749 574.728 114.64C566.738 119.89 557.901 123.723 548.608 125.97C538.815 128.354 528.872 130.077 518.848 131.13C509.676 132.058 500.456 132.432 491.238 132.25C471.538 132.18 451.688 130.86 432.018 132.49C430.018 132.65 428.018 132.86 426.018 133.12C425.228 133.23 425.218 134.48 426.018 134.37C435.255 133.306 444.552 132.862 453.848 133.04C464.518 133.04 475.188 133.35 485.848 133.46C495.518 133.56 505.228 133.59 514.848 132.77C519.658 132.37 524.438 131.65 529.218 130.94C534.378 130.17 539.538 129.32 544.638 128.19C554.161 126.247 563.313 122.797 571.748 117.97C576.168 115.315 580.315 112.23 584.128 108.76C587.678 105.53 591.848 101.65 589.648 96.4297C587.648 91.6397 582.458 88.9697 578.018 86.9197C572.569 84.4419 566.893 82.4994 561.068 81.1197C549.268 78.2597 537.068 77.2497 525.068 76.4197C497.664 74.5317 470.183 74.0177 442.728 74.8797C439.418 74.9797 436.118 75.1097 432.808 75.2497C432.008 75.2497 431.998 76.5297 432.808 76.4997L432.858 76.5097Z" fill="#313131"/>
<path d="M57.6412 90.9395C44.1574 93.5331 31.1215 98.0704 18.9412 104.409C13.6012 107.189 7.70124 110.149 3.63124 114.719C0.471239 118.259 -1.50876 123.439 1.46124 127.719C3.87124 131.189 9.46124 133.829 12.7212 129.949C13.2412 129.329 12.3612 128.449 11.8312 129.059C8.83124 132.559 3.83123 129.559 2.07123 126.359C-0.478766 121.809 3.00124 116.769 6.38124 113.779C10.6712 109.969 16.0912 107.259 21.1812 104.689C26.6241 101.938 32.243 99.5492 38.0012 97.5395C44.527 95.2583 51.2117 93.4601 58.0012 92.1595C58.7912 92.0095 58.4512 90.7995 57.6612 90.9595L57.6412 90.9395Z" fill="#313131"/>
<path d="M32.5491 133.959C83.7091 131.489 134.949 131.959 186.149 133.109C237.349 134.259 288.749 136.049 340.079 136.169C368.749 136.239 397.429 135.769 426.079 134.379C426.879 134.379 426.879 133.099 426.079 133.129C374.909 135.609 323.669 135.129 272.479 133.989C221.289 132.849 169.859 131.049 118.549 130.929C89.8791 130.859 61.1991 131.329 32.5491 132.709C31.7491 132.709 31.7391 133.999 32.5491 133.959Z" fill="#313131"/>
<path d="M176.84 103.279C187.947 92.9057 201.756 85.8764 216.68 82.9994C220.924 82.1838 225.229 81.7189 229.55 81.6094C229.702 81.5901 229.842 81.516 229.943 81.4009C230.044 81.2858 230.1 81.1377 230.1 80.9844C230.1 80.831 230.044 80.6829 229.943 80.5678C229.842 80.4528 229.702 80.3787 229.55 80.3594C214.067 80.7919 199.023 85.6009 186.16 94.2294C182.545 96.677 179.134 99.4125 175.96 102.409C175.37 102.959 176.26 103.839 176.84 103.289V103.279Z" fill="#313131"/>
<path d="M197.781 174.16C221.941 164.47 247.991 161.63 273.841 161.58C300.241 161.58 326.551 164.17 352.921 165.14C367.634 165.817 382.374 165.603 397.061 164.5C397.861 164.43 397.871 163.18 397.061 163.25C370.581 165.46 344.001 163.57 317.541 161.98C291.541 160.42 265.311 158.98 239.391 162.36C225.02 164.104 210.927 167.662 197.451 172.95C196.711 173.25 197.031 174.46 197.781 174.16Z" fill="#313131"/>
</g>
<defs>
<clipPath id="clip0_1510_109465">
<rect width="1260.94" height="305.43" fill="white"/>
</clipPath>
</defs>
</svg>
