<svg width="736" height="227" viewBox="0 0 736 227" fill="none" xmlns="http://www.w3.org/2000/svg">
<path d="M370.992 171C370.992 171 347.992 199.549 295.492 191.5C242.992 183.451 208.985 101.765 220.48 92.4238C240.164 76.3115 267.529 134.022 157.25 161.357C34.9676 191.653 1.99219 97.4727 1.99219 97.4727" stroke="#313131" stroke-miterlimit="10"/>
<path d="M1.15824 111.484L1.19623 96.8345L12.4089 105.372" stroke="#313131" stroke-miterlimit="10"/>
<g clip-path="url(#clip0_3002_26838)">
<path d="M567.739 39.5359C570.86 44.1134 575.293 47.5208 580.121 50.1455C585.503 53.0707 591.334 55.2527 597.213 56.9366C603.092 58.6206 609.635 59.8381 615.98 60.3598C621.749 60.8342 627.707 60.9844 633.428 59.9962C638.793 59.0633 644.103 56.8338 647.224 52.1773C647.722 51.4342 646.521 50.7464 646.031 51.4816C643.337 55.4978 638.785 57.4979 634.186 58.4545C628.9 59.5534 623.337 59.4586 617.972 59.1344C605.929 58.3913 593.784 55.395 582.935 50.0585C577.522 47.3943 572.362 43.8999 568.917 38.8481C568.419 38.1128 567.218 38.8086 567.723 39.5438L567.739 39.5359Z" fill="#313131"/>
<path d="M592.431 44.9364L592.36 45.0076L593.032 44.8257L592.921 44.7862L593.332 45.1024L593.253 44.9918L593.324 45.5214L593.34 45.3949L593.024 45.8061C593.23 45.6717 595.023 46.4227 595.268 46.4939C596.011 46.7231 596.746 46.9445 597.489 47.1738C599.093 47.6639 600.689 48.1541 602.293 48.6442C605.493 49.6246 608.701 50.597 611.902 51.5773C612.755 51.8382 613.119 50.5021 612.273 50.2412C608.022 48.9447 603.771 47.6481 599.519 46.3436C598.469 46.0274 597.425 45.7033 596.375 45.387C595.324 45.0708 594.344 44.6597 593.316 44.4621C592.107 44.2328 591.388 45.6717 592.669 46.1539C592.89 46.233 593.182 46.1381 593.34 45.9721L593.411 45.9009C594.028 45.2606 593.056 44.2802 592.431 44.9206V44.9364Z" fill="#313131"/>
<path d="M661.329 52.4151C660.974 54.4785 660.61 56.5815 660.776 58.6844C660.855 59.6885 661.037 60.6846 661.392 61.6333C661.787 62.6848 662.396 63.6572 662.649 64.7561C663.131 66.8749 662.435 69.0727 661.321 70.8752C660.744 71.8081 660.049 72.6619 659.314 73.4762C658.959 73.8636 658.603 74.2431 658.232 74.6147C658.066 74.7807 657.908 74.9467 657.742 75.1127C657.615 75.2392 657.497 75.3578 657.37 75.4843C657.046 75.7373 657.086 76.0851 657.489 76.5358C658.263 76.093 657.568 74.8993 656.793 75.342C656.169 75.6978 656.161 76.6465 656.841 76.9706C657.789 77.4291 658.658 76.1721 659.219 75.6029C661.06 73.7292 662.815 71.6816 663.684 69.1517C664.095 67.958 664.284 66.6535 664.158 65.3886C664.032 64.1236 663.471 62.9615 662.949 61.7756C661.685 58.9058 662.167 55.783 662.672 52.8025C662.823 51.9328 661.487 51.5613 661.337 52.4309L661.329 52.4151Z" fill="#313131"/>
<path d="M654.873 75.5469C659.045 81.919 662.925 88.4809 666.481 95.2166C667.374 96.9164 668.251 98.624 669.112 100.34C669.895 101.913 670.59 103.541 671.491 105.051C672.976 107.55 675.671 109.811 678.761 108.83C679.606 108.562 679.243 107.226 678.389 107.494C674.936 108.593 672.834 104.822 671.594 102.277C670.053 99.1142 668.464 95.9756 666.797 92.8765C663.478 86.71 659.891 80.7015 656.058 74.8433C655.576 74.1002 654.375 74.7959 654.865 75.539L654.873 75.5469Z" fill="#313131"/>
<path d="M654.777 84.5605C651.086 98.2059 647.396 111.843 643.714 125.489C643.485 126.351 644.812 126.714 645.049 125.861C648.74 112.215 652.43 98.5775 656.112 84.9321C656.341 84.0703 655.014 83.7066 654.777 84.5605Z" fill="#313131"/>
<path d="M639.904 138.509C637.233 147.664 634.562 156.811 631.891 165.966C630.611 170.346 629.37 174.742 628.051 179.106C627.008 182.537 625.854 185.96 624.195 189.146C622.346 192.696 619.856 195.874 616.388 197.945C615.621 198.404 616.316 199.598 617.083 199.139C623.373 195.368 626.486 188.435 628.667 181.731C631.567 172.837 633.969 163.761 636.593 154.78C638.141 149.475 639.69 144.178 641.231 138.873C641.484 138.019 640.149 137.648 639.896 138.502L639.904 138.509Z" fill="#313131"/>
<path d="M583.785 35.2683C578.57 31.8214 573.355 28.3745 568.148 24.9275C567.879 24.7536 567.531 24.8405 567.31 25.0382C565.018 27.1016 562.711 29.1808 560.672 31.4973C558.634 33.8137 557.148 36.1617 555.805 38.8101C554.462 41.4586 552.936 43.8303 550.297 45.3957C547.824 46.8662 545.011 47.5619 542.206 48.0837C539.4 48.6055 536.817 49.2933 534.809 51.3962C532.802 53.4992 531.506 56.2899 530.1 58.8119C526.821 64.7175 523.612 70.6548 520.475 76.6395C514.201 88.5931 508.196 100.697 502.483 112.935C499.622 119.054 496.841 125.205 494.13 131.387C491.42 137.57 488.662 143.357 487.074 149.697C486.308 152.741 485.865 155.895 485.968 159.042C486.063 161.682 486.56 164.442 488.654 166.26C490.748 168.078 493.743 168.916 496.367 169.707C499.48 170.64 502.672 171.328 505.889 171.77C507.469 171.984 509.057 172.142 510.653 172.245C511.538 172.3 511.538 170.917 510.653 170.861C504.45 170.466 497.995 169.28 492.258 166.821C490.993 166.284 489.737 165.588 488.868 164.497C487.935 163.335 487.58 161.841 487.438 160.386C487.129 157.239 487.493 154.03 488.196 150.962C489.626 144.709 492.384 138.819 494.944 132.961C497.505 127.102 500.27 120.967 503.044 115.014C508.551 103.171 514.32 91.4471 520.357 79.8572C523.36 74.0938 526.426 68.3621 529.555 62.662C531.04 59.9503 532.455 57.1675 534.122 54.5586C534.881 53.3727 535.758 52.2184 536.896 51.3725C538.033 50.5266 539.393 50.0839 540.768 49.7755C543.454 49.1589 546.133 48.7873 548.701 47.7121C551.079 46.7239 553.237 45.2771 554.801 43.2137C556.524 40.9447 557.48 38.2014 559.045 35.8296C560.712 33.3077 562.806 31.102 564.995 29.0227C566.077 27.995 567.184 26.9988 568.29 26.0027L567.452 26.1134L583.09 36.4542C583.833 36.9444 584.528 35.7506 583.785 35.2604V35.2683Z" fill="#313131"/>
<path d="M612.3 200.238H610.048C609.684 200.238 609.337 200.555 609.361 200.926C609.384 201.298 609.661 201.614 610.048 201.614H612.3C612.664 201.614 613.011 201.298 612.987 200.926C612.964 200.555 612.687 200.238 612.3 200.238Z" fill="#313131"/>
<path d="M605.067 199.075C593.309 197.328 582.159 192.885 570.97 189.066C559.781 185.248 547.912 181.39 536.297 177.809C529.746 175.793 523.187 173.824 516.605 171.919C515.752 171.674 515.38 173.002 516.234 173.255C527.905 176.638 539.529 180.196 551.089 183.928C562.578 187.635 573.941 191.683 585.391 195.486C591.705 197.581 598.105 199.431 604.696 200.403C605.565 200.53 605.944 199.202 605.067 199.067V199.075Z" fill="#313131"/>
<path d="M688.593 107.408C681.742 124.879 674.425 142.256 664.555 158.274C659.458 166.551 654.085 174.662 648.822 182.829C643.505 191.091 638.202 199.352 632.876 207.606C627.551 215.86 621.205 224.698 610.885 225.394C610 225.457 609.993 226.841 610.885 226.778C619.672 226.177 626.207 219.702 631.012 212.879C633.785 208.942 636.306 204.823 638.914 200.775C641.687 196.467 644.469 192.15 647.242 187.841C652.679 179.398 658.163 170.97 663.544 162.495C668.925 154.02 673.279 146.027 677.38 137.371C681.971 127.686 686.009 117.748 689.928 107.771C690.252 106.941 688.917 106.585 688.593 107.4V107.408Z" fill="#313131"/>
<path d="M486.641 142.685C483.496 148.488 483.536 155.216 483.67 161.635C483.836 169.256 484.01 176.87 484.176 184.491C484.192 185.376 485.583 185.384 485.559 184.491C485.393 177.139 485.235 169.778 485.069 162.426C484.927 156.014 484.682 149.199 487.827 143.381C488.253 142.598 487.06 141.902 486.634 142.685H486.641Z" fill="#313131"/>
<path d="M491.654 190.743C505.743 195.32 519.833 199.898 533.922 204.475C548.011 209.053 561.973 213.591 575.999 218.152C583.917 220.722 591.827 223.299 599.744 225.868C600.59 226.145 600.953 224.809 600.116 224.532C586.066 219.963 572.017 215.401 557.959 210.832C543.902 206.262 529.907 201.716 515.882 197.154C507.932 194.569 499.975 191.984 492.026 189.399C491.18 189.122 490.817 190.458 491.654 190.735V190.743Z" fill="#313131"/>
<path d="M604.074 226.651L606.326 226.983C606.516 227.015 606.682 227.015 606.856 226.912C606.998 226.825 607.132 226.667 607.172 226.501C607.211 226.327 607.204 226.122 607.101 225.971C607.014 225.829 606.864 225.679 606.69 225.655L604.438 225.323C604.248 225.292 604.082 225.292 603.908 225.394C603.766 225.481 603.632 225.639 603.592 225.805C603.553 225.979 603.561 226.185 603.663 226.335C603.75 226.477 603.901 226.628 604.074 226.651Z" fill="#313131"/>
<path d="M662.041 51.8935C661.037 51.3401 660.224 50.5495 659.702 49.5218C659.307 48.7312 659.117 47.8378 658.635 47.0789C657.316 44.9759 655.079 45.7586 653.128 46.3594C649.469 47.4821 644.412 48.3438 642.839 52.3679C642.515 53.198 643.851 53.5537 644.175 52.7394C644.831 51.0555 646.474 50.091 648.07 49.4427C649.935 48.6837 651.919 48.1778 653.839 47.5927C654.716 47.3239 656.051 46.6836 656.928 47.2291C657.632 47.6639 657.861 48.66 658.145 49.3794C658.777 50.9764 659.828 52.2651 661.346 53.0952C662.128 53.5221 662.823 52.3283 662.041 51.9014V51.8935Z" fill="#313131"/>
<path d="M533.942 162.203C532.322 160.06 530.22 158.408 528.363 156.479C526.506 154.55 524.775 152.273 523.29 149.949C520.366 145.387 518.138 140.43 515.925 135.489C515.562 134.675 514.369 135.378 514.732 136.185C516.945 141.118 519.173 146.075 522.097 150.644C523.495 152.834 525.06 154.937 526.822 156.85C528.726 158.93 531.042 160.645 532.748 162.898C533.278 163.602 534.479 162.906 533.942 162.203Z" fill="#313131"/>
<path d="M512.599 113.059C512.48 110.371 512.923 107.715 513.895 105.201C514.029 104.853 513.744 104.442 513.413 104.347C513.025 104.236 512.694 104.482 512.559 104.829C511.548 107.438 511.089 110.253 511.216 113.051C511.255 113.937 512.638 113.945 512.599 113.051V113.059Z" fill="#313131"/>
<path d="M522.457 86.0367C525.033 80.3761 528.952 75.3717 533.875 71.5611C534.571 71.0235 533.875 69.8218 533.18 70.3673C528.059 74.3203 523.942 79.4432 521.264 85.3331C520.9 86.1395 522.086 86.8431 522.457 86.0288V86.0367Z" fill="#313131"/>
<path d="M537.199 69.4846C544.912 64.662 553.232 60.891 561.948 58.2662C562.802 58.0132 562.438 56.6772 561.577 56.9301C552.758 59.5786 544.311 63.405 536.504 68.2829C535.753 68.7573 536.441 69.951 537.199 69.4767V69.4846Z" fill="#313131"/>
<path d="M579.792 57.4891C582.557 57.323 585.315 57.6314 587.978 58.4061C588.831 58.6591 589.203 57.323 588.349 57.0701C585.576 56.2637 582.676 55.9316 579.8 56.1055C578.915 56.1609 578.907 57.5444 579.8 57.4891H579.792Z" fill="#313131"/>
<path d="M598.787 61.9323C599.68 61.9323 599.68 60.5488 598.787 60.5488C597.894 60.5488 597.894 61.9323 598.787 61.9323Z" fill="#313131"/>
<path d="M614.376 69.0093C623.329 75.5632 630.773 84.4257 634.89 94.7981C639.307 105.93 639.789 118.365 635.585 129.631C631.563 140.399 623.843 149.451 614.677 156.234C605.51 163.017 594.013 168.67 582.453 171.018C570.892 173.366 558.328 172.56 546.997 168.654C545.622 168.18 544.263 167.658 542.919 167.097C542.098 166.757 541.742 168.093 542.548 168.433C553.856 173.153 566.38 174.742 578.517 173.082C590.71 171.413 602.46 166.251 612.614 159.381C622.768 152.511 630.662 144.099 635.53 133.363C640.397 122.627 641.18 109.835 637.576 98.2451C634.155 87.2322 627.146 77.5713 618.28 70.2901C617.237 69.4362 616.17 68.614 615.08 67.8155C614.36 67.2858 613.673 68.4875 614.384 69.0093H614.376Z" fill="#313131"/>
<path d="M610.781 133.189C621.772 120.808 623.258 101.463 615.048 87.2086C606.743 72.7805 589.43 64.5189 573.002 66.0131C563.756 66.8511 554.511 70.2111 546.704 75.1997C539.197 79.9985 532.789 86.6315 528.949 94.7271C525.108 102.823 523.718 112.333 525.93 121.14C528.261 130.39 534.527 138.217 541.228 144.763C544.618 148.068 548.395 151.088 552.773 152.969C557.419 154.969 562.54 155.507 567.565 155.404C577.032 155.215 586.443 152.542 594.613 147.767C596.636 146.589 598.572 145.277 600.421 143.846C601.117 143.308 600.421 142.107 599.726 142.652C592.432 148.265 583.78 151.973 574.693 153.404C569.952 154.147 564.989 154.329 560.24 153.618C555.491 152.906 551.121 151.009 547.234 148.131C543.591 145.427 540.375 142.099 537.412 138.683C534.448 135.268 531.714 131.497 529.707 127.378C525.74 119.227 525.345 109.898 527.921 101.265C533.05 84.1017 548.877 72.7726 565.7 68.6537C574.1 66.5982 582.737 66.8037 590.939 69.5866C598.485 72.148 605.368 76.7334 610.425 82.9158C620.539 95.2884 621.741 113.938 613.309 127.528C612.282 129.189 611.113 130.746 609.817 132.209C609.224 132.873 610.204 133.853 610.796 133.189H610.781Z" fill="#313131"/>
<path d="M590.025 122.5C592.143 130.13 600.922 131.315 607.291 133.426C608.152 133.711 609.124 134.051 609.661 134.834C610.167 135.569 610.207 136.541 609.954 137.371C609.393 139.221 607.378 140.051 605.584 140.051C603.648 140.051 601.823 139.15 600.195 138.178C598.567 137.205 597.097 136.106 595.722 134.849C594.189 133.45 592.799 131.893 591.598 130.201C590.333 128.414 588.761 126.177 589.172 123.868C589.33 122.998 587.994 122.627 587.836 123.497C587.449 125.655 588.31 127.615 589.433 129.426C590.555 131.236 591.748 132.778 593.146 134.256C595.88 137.15 599.555 140.154 603.482 141.15C606.872 142.012 611.36 140.573 611.479 136.494C611.534 134.596 610.388 133.205 608.705 132.478C606.674 131.608 604.438 131.165 602.321 130.549C597.848 129.244 592.728 127.062 591.353 122.129C591.116 121.275 589.78 121.639 590.017 122.5H590.025Z" fill="#313131"/>
<path d="M601.186 141.665C602.284 143.309 603.098 145.12 603.588 147.041C603.809 147.902 605.145 147.539 604.923 146.669C604.402 144.645 603.541 142.7 602.379 140.961C602.174 140.653 601.771 140.518 601.431 140.716C601.123 140.898 600.972 141.348 601.186 141.665Z" fill="#313131"/>
<path d="M597.302 149.134C601.466 150.683 606.389 149.236 609.597 146.311C612.584 143.584 613.967 138.864 611.446 135.354C610.932 134.634 609.731 135.33 610.253 136.049C612.481 139.156 611.122 143.141 608.459 145.473C605.583 147.987 601.308 149.149 597.665 147.79C596.827 147.481 596.472 148.817 597.294 149.126L597.302 149.134Z" fill="#313131"/>
<path d="M557.109 93.8725C562 90.4019 567.69 87.6348 573.798 87.5716C579.906 87.5083 585.319 90.0698 588.669 95.1216C592.02 100.173 593.395 106.466 591.925 112.333C590.597 117.614 587.01 122.286 582.032 124.579C575.829 127.441 568.551 126.421 562.316 124.223C561.479 123.93 561.115 125.267 561.945 125.559C567.887 127.654 574.651 128.642 580.752 126.563C586.33 124.666 590.613 120.191 592.636 114.689C594.801 108.791 594.003 102.102 591.135 96.5842C589.681 93.7935 587.69 91.232 585.09 89.4294C582.632 87.7218 579.724 86.7415 576.777 86.362C569.412 85.4133 562.301 88.4966 556.406 92.6787C555.687 93.1926 556.374 94.3864 557.101 93.8725H557.109Z" fill="#313131"/>
<path d="M556.133 93.2476C552.53 96.9396 549.796 101.612 549.306 106.83C548.816 112.048 550.602 116.965 554.505 120.254C558.116 123.29 562.85 124.681 567.496 124.982C572.142 125.282 577.389 124.46 581.261 121.535C585.907 118.032 587.259 112.237 588.08 106.782C588.215 105.913 586.879 105.533 586.745 106.411C586.058 110.941 585.125 115.906 581.759 119.274C578.59 122.444 573.96 123.59 569.598 123.645C565.236 123.701 560.772 122.768 557.089 120.436C553.043 117.866 550.712 113.573 550.618 108.783C550.507 103.209 553.304 98.1255 557.113 94.2279C557.737 93.5875 556.757 92.6072 556.133 93.2476Z" fill="#313131"/>
<path d="M571.029 89.9677C574.617 89.9282 578.323 90.5053 581.388 92.4976C584.028 94.2131 586.066 97.0434 586.303 100.245C586.367 101.131 587.749 101.139 587.686 100.245C587.418 96.6877 585.355 93.5965 582.479 91.5726C579.176 89.2404 574.988 88.5447 571.029 88.5921C570.136 88.6 570.136 89.9835 571.029 89.9756V89.9677Z" fill="#313131"/>
<path d="M581.75 129.259C578.155 131.647 574.457 136.122 576.219 140.723C577.784 144.826 582.864 146.834 586.642 144.391C588.657 143.087 589.984 140.897 590.079 138.485C590.118 137.592 588.736 137.6 588.696 138.485C588.609 140.739 587.1 142.802 585.037 143.679C582.975 144.557 580.541 143.948 578.929 142.383C577.207 140.707 576.78 138.319 577.578 136.09C578.424 133.71 580.383 131.813 582.446 130.445C583.181 129.955 582.493 128.753 581.75 129.251V129.259Z" fill="#313131"/>
<path d="M569.181 135.277C569.37 135.261 569.56 135.261 569.758 135.277C569.615 135.245 569.9 135.285 569.758 135.277C569.805 135.285 569.852 135.293 569.9 135.301C569.987 135.317 570.074 135.34 570.153 135.364C570.248 135.396 570.334 135.427 570.421 135.459C570.5 135.491 570.295 135.396 570.413 135.459C570.453 135.483 570.5 135.498 570.54 135.522C570.627 135.57 570.706 135.617 570.793 135.664C570.872 135.712 570.951 135.799 571.03 135.83L570.967 135.783C570.967 135.783 571.014 135.823 571.038 135.846C571.077 135.878 571.109 135.91 571.148 135.941C571.212 136.004 571.275 136.06 571.338 136.131C571.393 136.186 571.472 136.257 571.512 136.329C571.433 136.178 571.488 136.305 571.512 136.344C571.536 136.384 571.567 136.423 571.591 136.463C571.638 136.542 571.686 136.629 571.733 136.708C571.757 136.748 571.773 136.795 571.796 136.835C571.867 136.985 571.749 136.692 571.796 136.842C571.86 137.024 571.915 137.206 571.946 137.396C572.01 137.752 572.468 137.989 572.8 137.878C573.187 137.752 573.345 137.412 573.282 137.024C572.974 135.166 571.054 133.696 569.181 133.886C568.825 133.925 568.47 134.178 568.493 134.573C568.509 134.913 568.801 135.301 569.181 135.261V135.277Z" fill="#313131"/>
<path d="M563.485 135.908C561.636 137.805 560.309 140.469 560.822 143.181C561.273 145.545 563.24 147.561 565.674 147.727C566.559 147.79 566.559 146.407 565.674 146.343C563.801 146.217 562.395 144.454 562.126 142.683C561.802 140.509 562.987 138.39 564.457 136.888C565.081 136.248 564.102 135.267 563.477 135.908H563.485Z" fill="#313131"/>
<path d="M553.758 133.529C554.643 133.988 555.299 134.676 555.757 135.577C556.168 136.391 556.35 137.427 556.2 138.289C556.136 138.66 556.294 139.032 556.682 139.143C557.013 139.237 557.472 139.032 557.535 138.66C557.962 136.162 556.729 133.514 554.461 132.336C554.129 132.162 553.71 132.249 553.513 132.581C553.331 132.889 553.426 133.355 553.758 133.529Z" fill="#313131"/>
<path d="M547.604 134.296C545.968 135.774 545.202 138.035 545.565 140.202C545.905 142.233 547.335 144.06 549.2 144.921C550.006 145.293 550.71 144.099 549.896 143.728C548.363 143.016 547.241 141.641 546.925 139.972C546.608 138.304 547.304 136.438 548.584 135.276C549.248 134.675 548.268 133.703 547.604 134.296Z" fill="#313131"/>
<path d="M542.963 122.721C546.583 123.986 548.882 128.153 548.036 131.892C547.839 132.762 549.174 133.125 549.372 132.264C550.391 127.757 547.689 122.911 543.335 121.393C542.489 121.101 542.134 122.437 542.963 122.729V122.721Z" fill="#313131"/>
<path d="M537.949 123.299C535.444 125.307 534.456 129.007 535.839 131.932C537.222 134.857 540.691 136.304 543.63 135.308C544.468 135.023 544.112 133.687 543.259 133.972C540.872 134.778 538.083 133.513 537.024 131.236C535.91 128.825 536.914 125.884 538.913 124.279C539.608 123.726 538.62 122.745 537.933 123.299H537.949Z" fill="#313131"/>
<path d="M538.112 110.222C541.708 110.862 544.141 114.942 542.964 118.412C542.68 119.258 544.015 119.622 544.299 118.784C545.706 114.649 542.79 109.661 538.484 108.894C537.614 108.736 537.243 110.072 538.112 110.23V110.222Z" fill="#313131"/>
<path d="M533.438 109.858C530.499 111.321 528.824 114.871 529.606 118.073C530.388 121.274 533.683 123.686 537.002 123.52C537.887 123.48 537.895 122.097 537.002 122.136C534.268 122.271 531.597 120.397 530.933 117.701C530.27 115.005 531.747 112.23 534.126 111.052C534.924 110.657 534.221 109.463 533.43 109.858H533.438Z" fill="#313131"/>
<path d="M535.981 95.3271C534.693 96.0307 533.413 96.8529 532.489 98.0151C531.643 99.0745 531.169 100.347 531.082 101.691C530.916 104.348 532.52 106.791 535.104 107.518C536.471 107.905 537.957 107.755 539.189 107.028C539.956 106.577 539.261 105.375 538.494 105.834C536.226 107.17 533.255 105.739 532.615 103.272C532.283 101.992 532.489 100.584 533.168 99.4461C533.966 98.1021 535.349 97.2482 536.685 96.5209C537.467 96.094 536.771 94.9002 535.989 95.3271H535.981Z" fill="#313131"/>
<path d="M549.464 82.6853C546.335 81.8631 542.755 82.6616 540.78 85.3654C538.994 87.8083 538.986 91.3659 541.333 93.453C542.589 94.5757 544.225 95.0974 545.892 94.797C546.77 94.6389 546.398 93.3028 545.521 93.4609C544.091 93.7218 542.621 92.9945 541.736 91.8798C540.796 90.7018 540.654 89.1444 541.096 87.7371C542.155 84.3851 545.932 83.1913 549.093 84.0214C549.954 84.2507 550.325 82.9146 549.464 82.6853Z" fill="#313131"/>
<path d="M565.845 78.3289C565.924 75.2219 562.81 72.7316 559.815 72.9688C556.56 73.2297 554.087 76.0916 553.454 79.1669C553.273 80.0366 554.608 80.4082 554.79 79.5385C555.28 77.1351 557.089 74.7081 559.665 74.376C561.965 74.0835 564.525 75.9097 564.462 78.3368C564.438 79.2302 565.821 79.2302 565.845 78.3368V78.3289Z" fill="#313131"/>
<path d="M554.91 84.3221C556.009 85.7926 558.008 86.5041 559.77 85.8796C560.11 85.761 560.371 85.4052 560.252 85.0257C560.141 84.6858 559.77 84.417 559.399 84.5435C559.233 84.5988 559.067 84.6463 558.901 84.6779C558.901 84.6779 558.719 84.7095 558.822 84.6937C558.924 84.6779 558.743 84.6937 558.743 84.6937C558.656 84.6937 558.569 84.7095 558.482 84.7095C558.395 84.7095 558.308 84.7095 558.221 84.7095C558.174 84.7095 558.126 84.7095 558.079 84.7016C558.063 84.7016 557.937 84.6858 558.024 84.7016C558.126 84.7174 557.96 84.6937 557.945 84.6858C557.905 84.6858 557.866 84.67 557.834 84.6621C557.739 84.6383 557.644 84.6146 557.557 84.5909C557.471 84.5672 557.392 84.5356 557.312 84.5119C557.297 84.5119 557.186 84.4644 557.257 84.496C557.344 84.5277 557.194 84.4723 557.178 84.4644C557.02 84.3933 556.87 84.3063 556.728 84.2114C556.688 84.1877 556.649 84.1561 556.609 84.1324C556.586 84.1166 556.483 84.0296 556.585 84.1166C556.522 84.0612 556.451 84.0059 556.388 83.9426C556.325 83.8794 556.262 83.824 556.206 83.7608C556.183 83.7292 556.159 83.7055 556.127 83.6738C556.111 83.658 556.001 83.5078 556.096 83.6343C555.882 83.3418 555.487 83.1679 555.147 83.3892C554.863 83.5711 554.665 84.0217 554.902 84.3379L554.91 84.3221Z" fill="#313131"/>
<path d="M575.81 70.2504C572.42 69.6417 569.085 72.2585 568.848 75.6975C568.738 77.3736 569.37 79.0417 570.421 80.3224C571.551 81.6901 573.179 82.4807 574.925 82.6467C576.932 82.8444 578.939 82.1487 580.48 80.8679C581.167 80.2987 580.18 79.3263 579.5 79.8876C577.375 81.6506 573.953 81.8562 571.891 79.8797C569.963 78.0297 569.56 74.8832 571.535 72.9147C572.539 71.9106 574.008 71.3177 575.431 71.5786C576.3 71.7367 576.671 70.4006 575.802 70.2425L575.81 70.2504Z" fill="#313131"/>
<path d="M580.51 72.5201L581.474 74.125C581.561 74.2752 581.719 74.3938 581.885 74.4412C582.051 74.4887 582.273 74.465 582.415 74.3701C582.723 74.1724 582.865 73.7534 582.66 73.4214L581.696 71.8165C581.609 71.6663 581.451 71.5477 581.285 71.5003C581.119 71.4528 580.898 71.4766 580.755 71.5714C580.447 71.7691 580.305 72.1881 580.51 72.5201Z" fill="#313131"/>
<path d="M589.899 73.8721C587.307 74.5599 584.454 75.8801 583.396 78.5365C582.542 80.6631 583.103 83.5804 585.316 84.6398C586.114 85.0193 586.817 83.8334 586.011 83.446C584.344 82.6475 584.036 80.4181 584.755 78.8527C585.719 76.7498 588.176 75.7615 590.262 75.2081C591.124 74.9789 590.76 73.6428 589.891 73.8721H589.899Z" fill="#313131"/>
<path d="M595.294 77.3576C595.326 77.4366 595.333 77.4445 595.31 77.3813C595.326 77.4208 595.341 77.4682 595.357 77.5078C595.389 77.5868 595.412 77.658 595.436 77.737C595.484 77.9031 595.531 78.0691 595.563 78.243C595.578 78.3142 595.586 78.3774 595.594 78.4486C595.578 78.3221 595.61 78.583 595.61 78.6067C595.626 78.7648 595.626 78.9308 595.626 79.0889C595.626 79.247 595.61 79.4131 595.594 79.5712C595.61 79.4447 595.571 79.7056 595.571 79.7293C595.555 79.8005 595.547 79.8637 595.531 79.9349C595.452 80.2827 595.341 80.5831 595.231 80.8124C595.073 81.1365 595.136 81.5793 595.476 81.7611C595.784 81.9271 596.25 81.856 596.424 81.516C597.175 79.9744 597.19 78.2272 596.495 76.6697C596.345 76.3377 595.839 76.2349 595.547 76.4247C595.207 76.646 595.144 77.0176 595.302 77.3734L595.294 77.3576Z" fill="#313131"/>
<path d="M604.101 84.2531C601.098 83.5415 597.558 83.9764 595.48 86.4825C593.639 88.7041 593.323 92.0798 595.638 94.1037C596.8 95.1236 598.372 95.6217 599.889 95.1868C600.743 94.9418 600.379 93.6057 599.518 93.8507C598.222 94.2144 596.871 93.5899 596.073 92.5542C595.219 91.4553 595.172 89.9927 595.694 88.7278C597.005 85.5813 600.719 84.8697 603.73 85.5813C604.599 85.7868 604.962 84.4507 604.101 84.2452V84.2531Z" fill="#313131"/>
<path d="M606.136 87.9515C606.239 89.6117 606.144 91.2798 605.836 92.9163C605.765 93.28 605.939 93.6595 606.318 93.7702C606.658 93.865 607.1 93.6595 607.171 93.2879C607.503 91.5328 607.63 89.7382 607.519 87.9515C607.495 87.5799 607.219 87.2637 606.832 87.2637C606.476 87.2637 606.12 87.5799 606.144 87.9515H606.136Z" fill="#313131"/>
<path d="M606.191 94.7363C602.738 94.8549 599.87 97.9777 599.996 101.425C600.123 104.872 603.023 108.018 606.555 108.492C608.641 108.777 610.782 108.263 612.544 107.117C613.287 106.635 612.592 105.433 611.849 105.923C608.57 108.058 603.939 107.465 602.035 103.82C601.221 102.263 601.142 100.381 602.003 98.8236C602.865 97.2662 604.429 96.1831 606.199 96.1277C607.084 96.0961 607.092 94.7126 606.199 94.7442L606.191 94.7363Z" fill="#313131"/>
<path d="M610.214 96.7981C610.357 96.9325 610.491 97.0748 610.617 97.225C610.681 97.2962 610.736 97.3673 610.799 97.4385C610.807 97.4543 610.902 97.565 610.839 97.4859C610.87 97.5254 610.894 97.5571 610.918 97.5966C611.147 97.9128 611.36 98.2449 611.542 98.5927C611.629 98.7587 611.708 98.9248 611.779 99.0908C611.826 99.2015 611.779 99.0908 611.803 99.1461C611.818 99.1857 611.834 99.2331 611.85 99.2726C611.882 99.3596 611.913 99.4466 611.945 99.5335C612.079 99.913 612.174 100.308 612.245 100.704C612.308 101.059 612.759 101.297 613.099 101.186C613.478 101.059 613.652 100.719 613.581 100.332C613.272 98.6323 612.411 97.0353 611.186 95.8257C610.926 95.5727 610.459 95.549 610.206 95.8257C609.954 96.1024 609.93 96.5293 610.206 96.806L610.214 96.7981Z" fill="#313131"/>
<path d="M605.591 105.338C605.56 105.093 605.544 104.855 605.56 104.61C605.56 104.547 605.56 104.484 605.575 104.413C605.575 104.381 605.575 104.349 605.583 104.318C605.591 104.239 605.583 104.254 605.583 104.357C605.583 104.247 605.623 104.128 605.647 104.025C605.67 103.915 605.702 103.804 605.733 103.693C605.765 103.582 605.797 103.424 605.86 103.322C605.82 103.409 605.82 103.424 605.844 103.353L605.868 103.306C605.892 103.25 605.923 103.187 605.955 103.132C606.018 103.013 606.081 102.903 606.152 102.792C606.342 102.484 606.223 102.017 605.907 101.843C605.568 101.661 605.165 101.764 604.959 102.088C604.359 103.037 604.082 104.215 604.224 105.33C604.248 105.519 604.287 105.678 604.43 105.82C604.548 105.938 604.746 106.033 604.92 106.025C605.251 106.01 605.662 105.717 605.607 105.338H605.591Z" fill="#313131"/>
<path d="M599.878 89.6358C599.925 89.5804 599.98 89.533 600.028 89.4856C599.901 89.5963 600.075 89.4698 600.107 89.446C600.178 89.4144 600.17 89.4144 600.083 89.446C600.115 89.4302 600.146 89.4223 600.186 89.4065C600.233 89.3907 600.288 89.3828 600.344 89.367C600.423 89.3512 600.415 89.3512 600.32 89.367C600.36 89.367 600.391 89.367 600.431 89.3591C600.502 89.3591 600.573 89.3591 600.652 89.3591C600.786 89.3591 600.541 89.3196 600.707 89.367C600.77 89.3828 600.834 89.3986 600.889 89.4144C600.921 89.4223 600.96 89.4381 600.992 89.454C600.913 89.4223 600.905 89.4144 600.976 89.454C601.039 89.4935 601.102 89.5251 601.158 89.5646C601.292 89.6437 601.079 89.4777 601.181 89.5884C601.229 89.6437 601.284 89.6911 601.324 89.7465C601.213 89.6121 601.339 89.8018 601.363 89.8334C601.395 89.9046 601.395 89.8967 601.363 89.8176C601.371 89.8492 601.387 89.873 601.395 89.9046C601.403 89.9441 601.418 89.9757 601.418 90.0153C601.418 89.952 601.418 89.9678 601.418 90.0548C601.418 90.1497 601.418 90.2524 601.418 90.3552C601.434 90.2603 601.371 90.5133 601.363 90.5371C601.363 90.5291 601.284 90.7505 601.324 90.6556C601.245 90.8454 601.126 91.0351 601.008 91.2011C600.834 91.4462 600.51 91.7387 600.241 91.968C599.609 92.5056 598.961 93.0037 598.503 93.7152C598.297 94.0314 598.439 94.4821 598.748 94.6639C599.079 94.8615 599.49 94.7271 599.696 94.4188C599.862 94.1579 600.099 93.9128 600.367 93.6678C600.636 93.4227 600.921 93.2013 601.189 92.972C601.806 92.4503 602.343 91.8494 602.635 91.0826C602.896 90.4027 602.888 89.5567 602.454 88.9559C602.074 88.4262 601.497 88.0942 600.85 88.0072C600.138 87.9123 599.388 88.11 598.906 88.6634C598.661 88.948 598.629 89.367 598.906 89.6437C599.158 89.8967 599.633 89.9283 599.885 89.6437L599.878 89.6358Z" fill="#313131"/>
<path d="M589.445 80.5979L590.639 80.677L590.038 80.337C590.07 80.3924 590.109 80.4556 590.133 80.5188C590.085 80.4003 590.141 80.5821 590.149 80.6058C590.204 80.7639 590.157 80.5268 590.164 80.6928C590.164 80.7639 590.164 80.8272 590.164 80.8983C590.164 80.7718 590.149 80.9616 590.149 80.9853C590.149 80.9853 590.078 81.1908 590.125 81.0723C590.101 81.1355 590.062 81.1908 590.03 81.2462C589.951 81.3727 590.085 81.2225 589.967 81.3173C589.951 81.3331 589.801 81.4438 589.896 81.3806C589.84 81.4201 589.777 81.4517 589.722 81.4834C589.825 81.4359 589.651 81.4992 589.635 81.5071C589.603 81.5071 589.422 81.5466 589.548 81.5308C589.477 81.5308 589.414 81.5308 589.343 81.5308C589.216 81.5308 589.358 81.5387 589.287 81.5308C589.216 81.5229 589.153 81.4992 589.09 81.4754C589.042 81.4596 589.05 81.4596 589.098 81.4754C589.058 81.4517 589.019 81.4359 588.979 81.4122L588.45 82.6771C588.45 82.6771 588.529 82.7009 588.568 82.7167C588.473 82.685 588.545 82.7088 588.592 82.7404C588.624 82.7641 588.663 82.7799 588.695 82.8036C588.624 82.7325 588.782 82.859 588.695 82.8036C588.734 82.8432 588.884 83.0171 588.805 82.9143C588.853 82.9776 588.892 83.0566 588.932 83.1199C588.995 83.2305 588.932 83.0803 588.948 83.1515C588.963 83.191 588.971 83.2305 588.987 83.2701C589.003 83.3096 589.003 83.3491 589.019 83.3887C589.019 83.2859 589.042 83.4914 589.019 83.3887C589.019 83.4361 589.019 83.4914 589.019 83.5389C589.019 83.6021 589.019 83.61 589.019 83.5389C589.019 83.5784 589.003 83.6179 588.995 83.6575C588.995 83.6733 588.94 83.8314 588.971 83.7444C589.003 83.6733 588.948 83.784 588.94 83.7998C588.916 83.8314 588.9 83.8709 588.876 83.9025C588.821 83.9895 588.94 83.8314 588.876 83.9025C588.837 83.9342 588.805 83.9737 588.766 84.0053C588.711 84.0448 588.726 84.0448 588.766 84.0053C588.734 84.029 588.695 84.0527 588.663 84.0686C588.631 84.0844 588.592 84.1081 588.552 84.1239C588.663 84.0607 588.552 84.1239 588.521 84.1318C588.442 84.1555 588.363 84.1792 588.284 84.1951C588.205 84.2109 588.387 84.1951 588.252 84.1951C588.213 84.1951 588.173 84.1951 588.134 84.1951C588.063 84.1951 588.07 84.1951 588.134 84.1951C588.094 84.1951 588.055 84.1792 588.015 84.1713C588.015 84.1713 587.841 84.116 587.928 84.1476C588.015 84.1792 587.849 84.1081 587.849 84.1002C587.525 83.9183 587.099 84.0211 586.901 84.3453C586.703 84.6694 586.822 85.1121 587.146 85.294C588.244 85.8948 589.746 85.4284 590.236 84.2504C590.725 83.0724 590.006 81.6731 588.805 81.3173C588.047 81.0881 587.604 82.1791 588.276 82.5823C589.311 83.1989 590.805 82.8432 591.318 81.7047C591.571 81.1434 591.611 80.5109 591.373 79.9338C591.31 79.7678 591.231 79.6018 591.105 79.4674C590.923 79.2855 590.678 79.2697 590.433 79.2539L589.422 79.1828C589.05 79.159 588.734 79.5148 588.734 79.8706C588.734 80.2659 589.05 80.5347 589.422 80.5584L589.445 80.5979Z" fill="#313131"/>
<path d="M573.979 79.6575L577.716 76.6374L576.634 75.7994C575.686 77.4596 575.124 79.2938 574.935 81.1991C574.895 81.5707 575.275 81.8869 575.622 81.8869C576.025 81.8869 576.278 81.5707 576.31 81.1991C576.468 79.5626 576.997 77.9419 577.819 76.503C577.985 76.2026 577.914 75.8152 577.637 75.6097C577.345 75.3883 577.005 75.4436 576.729 75.665L572.991 78.685C572.699 78.9222 572.746 79.4203 572.991 79.6654C573.275 79.95 573.678 79.9025 573.971 79.6654L573.979 79.6575Z" fill="#313131"/>
<path d="M559.225 81.0266L558.514 82.7738C558.324 83.2481 558.901 83.8016 559.367 83.6276C559.414 83.6118 559.557 83.5802 559.43 83.5881C559.493 83.5881 559.604 83.6118 559.493 83.5881C559.541 83.596 559.659 83.6592 559.565 83.6039C559.588 83.6197 559.731 83.7067 559.636 83.6355C559.691 83.6751 559.731 83.7225 559.778 83.7778C559.699 83.6909 559.817 83.8332 559.825 83.8569C559.841 83.8806 559.912 84.0387 559.873 83.936C559.881 83.9676 559.928 84.1652 559.92 84.102C559.92 84.0387 559.92 84.2443 559.92 84.2759C559.92 84.3233 559.92 84.3312 559.92 84.2917C559.92 84.3312 559.904 84.3708 559.896 84.4103C559.865 84.5447 559.81 84.7186 559.77 84.8214C559.652 85.0902 559.454 85.3985 559.28 85.6673C559.075 85.9836 559.217 86.4342 559.525 86.616C559.857 86.8137 560.268 86.6793 560.473 86.3709C560.987 85.5804 561.532 84.5763 561.216 83.6039C560.932 82.7185 559.968 81.9358 559.004 82.2994L559.857 83.1533L560.568 81.4061C560.71 81.0582 560.418 80.6471 560.086 80.5523C559.691 80.4416 559.375 80.6867 559.233 81.0345L559.225 81.0266Z" fill="#313131"/>
<path d="M560.501 81.2487H562.753C563.117 81.2487 563.464 80.9324 563.441 80.5609C563.417 80.1893 563.14 79.873 562.753 79.873H560.501C560.138 79.873 559.79 80.1893 559.814 80.5609C559.837 80.9324 560.114 81.2487 560.501 81.2487Z" fill="#313131"/>
<path d="M549.237 88.9805C546.139 88.9884 543.634 92.2219 544.361 95.2261C544.448 95.5897 544.859 95.8032 545.214 95.7083C545.586 95.6055 545.783 95.2182 545.696 94.8545C545.57 94.3406 545.586 93.8188 545.72 93.2891C545.799 92.9887 545.886 92.7595 545.989 92.5539C546.06 92.4116 546.139 92.2772 546.218 92.1507C546.265 92.0795 546.313 92.0084 546.36 91.9452C546.368 91.9293 546.487 91.7712 546.423 91.8582C546.811 91.368 547.174 91.0518 547.688 90.7672C548.154 90.5063 548.707 90.364 549.237 90.364C550.129 90.364 550.129 88.9805 549.237 88.9805Z" fill="#313131"/>
<path d="M546.984 92.5125H547.624C547.719 92.5125 547.806 92.4967 547.893 92.4493C547.98 92.4176 548.051 92.3702 548.114 92.307C548.186 92.2437 548.233 92.1726 548.257 92.0856C548.296 92.0065 548.32 91.9117 548.32 91.8168L548.296 91.635C548.265 91.5164 548.201 91.4136 548.114 91.3266L547.972 91.216C547.862 91.1527 547.751 91.1211 547.624 91.1211H546.984C546.89 91.1211 546.803 91.1369 546.716 91.1843C546.629 91.216 546.558 91.2634 546.495 91.3266C546.423 91.3899 546.376 91.461 546.352 91.548C546.313 91.6271 546.289 91.7219 546.289 91.8168L546.313 91.9986C546.344 92.1172 546.408 92.22 546.495 92.307L546.637 92.4176C546.747 92.4809 546.858 92.5125 546.984 92.5125Z" fill="#313131"/>
<path d="M538.446 103.414C538.635 103.367 538.817 103.312 539.007 103.272C539.101 103.248 539.188 103.233 539.283 103.217C539.338 103.209 539.394 103.201 539.441 103.193C539.441 103.193 539.291 103.209 539.37 103.201C539.402 103.201 539.433 103.201 539.465 103.193C539.655 103.177 539.844 103.177 540.034 103.193C539.899 103.169 540.168 103.201 540.034 103.193C540.081 103.201 540.121 103.209 540.168 103.217C540.216 103.225 540.255 103.24 540.295 103.256C540.326 103.264 540.476 103.327 540.381 103.288C540.287 103.248 540.413 103.304 540.437 103.319C540.461 103.335 540.492 103.351 540.516 103.367L540.555 103.391C540.555 103.391 540.429 103.288 540.476 103.327C540.5 103.351 540.532 103.375 540.555 103.399C540.579 103.422 540.603 103.454 540.626 103.478L540.658 103.509C540.658 103.525 540.563 103.375 540.595 103.43C540.626 103.486 540.666 103.541 540.698 103.596C540.698 103.604 540.745 103.675 540.737 103.675C540.737 103.667 540.666 103.493 540.713 103.62C540.737 103.683 540.753 103.746 540.769 103.81C540.769 103.841 540.792 103.96 540.769 103.818C540.745 103.675 540.769 103.794 540.769 103.825C540.769 103.889 540.769 103.952 540.769 104.015C540.769 104.118 540.808 103.825 540.769 103.96C540.761 103.999 540.753 104.031 540.737 104.071C540.705 104.197 540.808 103.936 540.761 104.015C540.745 104.039 540.729 104.071 540.713 104.094C540.658 104.205 540.816 103.991 540.745 104.055C540.721 104.078 540.698 104.102 540.674 104.118C540.642 104.158 540.753 104.055 540.761 104.055C540.761 104.055 540.721 104.086 540.713 104.086C540.682 104.11 540.642 104.126 540.611 104.142C540.461 104.205 540.334 104.403 540.295 104.553C540.247 104.719 540.271 104.94 540.366 105.082C540.46 105.225 540.603 105.359 540.777 105.399C540.966 105.446 541.132 105.407 541.306 105.328C542.088 104.98 542.302 103.952 542.017 103.209C541.851 102.774 541.598 102.41 541.211 102.149C540.792 101.865 540.231 101.762 539.741 101.77C539.18 101.778 538.619 101.912 538.074 102.062C537.726 102.157 537.474 102.561 537.592 102.916C537.711 103.272 538.066 103.501 538.446 103.399V103.414Z" fill="#313131"/>
<path d="M540.287 117.243L540.248 115.346C540.248 115.029 540.034 114.768 539.742 114.682C539.031 114.46 538.264 114.666 537.688 115.108C537.111 115.551 536.708 116.231 536.629 116.982C536.581 117.401 536.684 117.812 536.874 118.176C537.04 118.5 537.514 118.619 537.822 118.421C538.154 118.208 538.249 117.82 538.067 117.472C538.035 117.409 538.012 117.283 538.067 117.496C538.059 117.464 538.043 117.433 538.035 117.393C538.012 117.322 537.996 117.251 537.988 117.18L538.012 117.362C537.996 117.227 537.996 117.093 538.012 116.95L537.988 117.132C538.004 117.037 538.019 116.935 538.051 116.848C538.051 116.84 538.098 116.705 538.098 116.705C538.098 116.705 538.019 116.871 538.067 116.784C538.083 116.761 538.091 116.729 538.106 116.705C538.154 116.618 538.201 116.539 538.256 116.46C538.256 116.452 538.288 116.405 538.304 116.397C538.296 116.397 538.177 116.547 538.264 116.452C538.296 116.413 538.328 116.373 538.367 116.342C538.43 116.271 538.509 116.215 538.58 116.144C538.407 116.302 538.533 116.184 538.58 116.144C538.62 116.12 538.667 116.089 538.707 116.065L538.841 116.002C538.841 116.002 538.667 116.065 538.754 116.033C538.786 116.026 538.81 116.01 538.841 116.002C538.936 115.97 539.031 115.946 539.126 115.939L538.944 115.962C539.07 115.946 539.197 115.946 539.323 115.962L539.141 115.939C539.221 115.954 539.3 115.97 539.379 115.994L538.873 115.33L538.912 117.227C538.92 117.591 539.228 117.939 539.6 117.915C539.971 117.891 540.303 117.615 540.287 117.227V117.243Z" fill="#313131"/>
<path d="M537.476 117.535C535.991 117.852 535.027 119.52 535.414 120.967C535.509 121.314 535.912 121.567 536.267 121.449C536.623 121.33 536.852 120.975 536.749 120.595C536.734 120.54 536.694 120.445 536.702 120.389L536.718 120.508C536.718 120.508 536.718 120.461 536.718 120.437C536.718 120.405 536.718 120.382 536.718 120.35C536.718 120.287 536.718 120.223 536.718 120.16C536.718 120.129 536.726 120.089 536.726 120.057C536.726 120.263 536.71 120.168 536.726 120.105C536.749 119.978 536.781 119.852 536.828 119.725C536.868 119.615 536.813 119.749 536.805 119.781C536.805 119.749 536.836 119.718 536.852 119.686C536.884 119.623 536.915 119.567 536.955 119.504C536.986 119.449 537.026 119.401 537.058 119.346C537.097 119.291 536.939 119.488 537.034 119.378C537.05 119.354 537.073 119.33 537.089 119.314C537.137 119.267 537.184 119.212 537.231 119.164C537.255 119.14 537.287 119.117 537.31 119.093C537.397 119.014 537.176 119.188 537.279 119.117C537.382 119.046 537.492 118.982 537.603 118.927C537.713 118.872 537.437 118.982 537.563 118.943C537.595 118.935 537.626 118.919 537.658 118.911C537.721 118.887 537.792 118.872 537.856 118.856C538.211 118.785 538.448 118.342 538.338 118.002C538.219 117.63 537.864 117.441 537.484 117.52L537.476 117.535Z" fill="#313131"/>
<path d="M543.598 127.584C542.508 127.814 541.765 128.81 541.639 129.877C541.512 130.944 542.271 131.956 543.267 132.359C543.78 132.565 544.397 132.597 544.926 132.415C545.266 132.296 545.527 131.933 545.408 131.561C545.297 131.221 544.926 130.952 544.555 131.079C544.499 131.102 544.436 131.118 544.381 131.134C544.349 131.134 544.318 131.15 544.294 131.15C544.404 131.134 544.42 131.134 544.341 131.15C544.231 131.15 544.128 131.15 544.025 131.15C543.946 131.142 543.962 131.15 544.073 131.15C544.041 131.15 544.009 131.142 543.986 131.134C543.938 131.126 543.899 131.11 543.851 131.102C543.828 131.102 543.685 131.063 543.677 131.039C543.772 131.079 543.788 131.087 543.717 131.055L543.677 131.031C543.622 131.008 543.567 130.976 543.519 130.944C543.496 130.928 543.464 130.913 543.44 130.897C543.377 130.849 543.393 130.865 543.472 130.921C543.401 130.913 543.282 130.747 543.243 130.699C543.219 130.676 543.203 130.652 543.188 130.628C543.251 130.707 543.259 130.715 543.211 130.66C543.188 130.62 543.164 130.581 543.14 130.541C543.124 130.517 543.109 130.486 543.101 130.462C543.069 130.391 543.077 130.407 543.116 130.502C543.093 130.494 543.069 130.375 543.061 130.351C543.045 130.296 543.037 130.249 543.022 130.193C543.006 130.114 543.014 130.13 543.022 130.241C543.022 130.209 543.022 130.177 543.022 130.146C543.022 130.098 543.022 130.051 543.022 130.004C543.022 129.972 543.022 129.94 543.022 129.909C543.006 130.019 543.006 130.035 543.022 129.956C543.045 129.845 543.077 129.751 543.109 129.64C543.132 129.569 543.132 129.584 543.093 129.679C543.109 129.648 543.116 129.624 543.132 129.592C543.156 129.545 543.18 129.498 543.211 129.45C543.227 129.426 543.274 129.324 543.298 129.316C543.235 129.395 543.227 129.403 543.274 129.347C543.298 129.324 543.314 129.3 543.338 129.276C543.369 129.245 543.401 129.205 543.433 129.173C543.456 129.15 543.48 129.134 543.504 129.11C543.559 129.063 543.551 129.071 543.472 129.134C543.496 129.071 543.693 128.999 543.749 128.968C543.82 128.936 543.804 128.944 543.709 128.984C543.741 128.976 543.764 128.96 543.796 128.952C543.859 128.936 543.915 128.92 543.978 128.905C544.333 128.833 544.57 128.391 544.46 128.051C544.341 127.679 543.986 127.489 543.606 127.569L543.598 127.584Z" fill="#313131"/>
<path d="M543.968 128.42C544.078 128.571 544.181 128.721 544.26 128.887C544.284 128.926 544.3 128.974 544.323 129.021C544.284 128.934 544.308 128.982 544.323 129.045C544.355 129.124 544.379 129.211 544.402 129.298C544.426 129.393 544.442 129.488 544.466 129.582C544.497 129.717 544.466 129.519 544.466 129.598C544.466 129.646 544.474 129.693 544.481 129.741C544.497 129.922 544.497 130.112 544.481 130.294C544.481 130.31 544.466 130.436 544.481 130.349C544.489 130.254 544.474 130.413 544.466 130.428C544.45 130.523 544.426 130.618 544.402 130.713C544.379 130.8 544.355 130.879 544.323 130.966C544.308 131.013 544.292 131.061 544.268 131.1C544.308 131.013 544.284 131.069 544.252 131.124C544.173 131.29 544.078 131.448 543.968 131.598C544.023 131.519 543.992 131.575 543.952 131.622C543.92 131.662 543.889 131.693 543.857 131.733C543.794 131.804 543.723 131.875 543.644 131.938C543.375 132.183 543.383 132.674 543.644 132.919C543.936 133.188 544.331 133.18 544.624 132.919C546.046 131.654 546.315 129.243 545.153 127.717C544.932 127.432 544.545 127.25 544.205 127.472C543.92 127.653 543.723 128.112 543.96 128.42H543.968Z" fill="#313131"/>
<path d="M555.103 136.368C553.791 136.866 552.859 137.973 552.48 139.317C552.1 140.661 552.337 142.092 553.199 143.207C553.428 143.499 553.933 143.444 554.178 143.207C554.471 142.914 554.408 142.527 554.178 142.226C554.25 142.321 554.131 142.147 554.123 142.147C554.084 142.092 554.052 142.037 554.02 141.973C553.989 141.91 553.957 141.855 553.926 141.792C553.87 141.681 553.926 141.807 553.902 141.744C553.807 141.507 553.744 141.254 553.704 141.001C553.728 141.135 553.704 140.922 553.704 140.914C553.704 140.843 553.696 140.78 553.696 140.708C553.696 140.582 553.696 140.463 553.696 140.337C553.696 140.282 553.704 140.226 553.712 140.171C553.696 140.305 553.72 140.116 553.728 140.084C553.752 139.949 553.783 139.815 553.823 139.681C553.854 139.562 553.894 139.444 553.941 139.325C553.957 139.293 553.965 139.262 553.981 139.23C553.957 139.277 553.957 139.285 553.981 139.238C554.005 139.183 554.028 139.135 554.052 139.088C554.115 138.969 554.178 138.851 554.257 138.732C554.297 138.677 554.329 138.621 554.376 138.566C554.455 138.455 554.336 138.605 554.431 138.495C554.51 138.4 554.597 138.313 554.684 138.226C554.724 138.186 554.763 138.147 554.811 138.115C554.826 138.1 554.969 137.989 554.882 138.052C554.992 137.973 555.103 137.902 555.221 137.831C555.277 137.799 555.34 137.767 555.403 137.736C555.53 137.673 555.34 137.76 555.49 137.696C555.838 137.562 556.075 137.23 555.972 136.842C555.877 136.51 555.474 136.226 555.119 136.36L555.103 136.368Z" fill="#313131"/>
<path d="M556.224 142.913L557.481 141.917C557.607 141.814 557.686 141.585 557.686 141.427C557.686 141.261 557.607 141.055 557.481 140.936C557.354 140.818 557.173 140.723 556.991 140.731L556.809 140.755C556.691 140.786 556.588 140.85 556.501 140.936L555.245 141.933C555.118 142.035 555.039 142.265 555.039 142.423C555.039 142.589 555.118 142.794 555.245 142.913C555.371 143.032 555.553 143.126 555.734 143.118L555.916 143.095C556.035 143.063 556.137 143 556.224 142.913Z" fill="#313131"/>
<path d="M567.793 143.943L569.832 141.12C570.045 140.828 569.895 140.337 569.587 140.171C569.231 139.982 568.868 140.108 568.639 140.417L566.6 143.239C566.387 143.531 566.537 144.022 566.845 144.188C567.2 144.377 567.564 144.251 567.793 143.943Z" fill="#313131"/>
<path d="M569.139 146.881L572.355 141.735C572.553 141.418 572.426 140.976 572.11 140.786C571.779 140.588 571.36 140.715 571.162 141.031L567.946 146.178C567.749 146.494 567.875 146.937 568.191 147.126C568.523 147.324 568.942 147.198 569.139 146.881Z" fill="#313131"/>
<path d="M568.044 144.939L571.26 146.227C571.599 146.362 572.034 146.077 572.113 145.745C572.208 145.342 571.995 145.041 571.631 144.891L568.415 143.602C568.075 143.468 567.641 143.753 567.562 144.085C567.467 144.488 567.68 144.788 568.044 144.939Z" fill="#313131"/>
<path d="M568.692 141.71L571.908 142.999C572.248 143.133 572.682 142.848 572.761 142.516C572.856 142.113 572.643 141.813 572.279 141.663L569.063 140.374C568.724 140.24 568.289 140.524 568.21 140.856C568.115 141.259 568.329 141.56 568.692 141.71Z" fill="#313131"/>
<path d="M584.353 142.216C584.693 140.611 585.199 139.038 585.87 137.544C586.02 137.204 585.965 136.801 585.625 136.595C585.333 136.421 584.835 136.5 584.677 136.84C583.95 138.445 583.389 140.113 583.018 141.845C582.939 142.208 583.128 142.596 583.5 142.699C583.847 142.793 584.274 142.58 584.353 142.216Z" fill="#313131"/>
<path d="M582.38 139.307L583.66 142.525C583.794 142.857 584.126 143.133 584.514 143.007C584.838 142.904 585.138 142.517 584.996 142.153L583.715 138.935C583.581 138.603 583.249 138.327 582.862 138.453C582.538 138.556 582.238 138.943 582.38 139.307Z" fill="#313131"/>
<path d="M581.925 141.759L586.769 140.209C587.124 140.099 587.354 139.727 587.251 139.356C587.156 139.008 586.761 138.755 586.397 138.873L581.554 140.423C581.198 140.534 580.969 140.905 581.072 141.277C581.166 141.625 581.561 141.878 581.925 141.759Z" fill="#313131"/>
<path d="M523.385 69.991C520.588 69.3032 518.676 67.0816 517.174 64.7415C515.389 61.9508 513.887 58.9624 512.291 56.0609C510.561 52.9223 508.664 49.8074 507.455 46.4158C506.38 43.4037 506.088 40.2414 505.677 37.0869C505.243 33.7744 504.618 30.4618 502.753 27.6237L502.643 28.4617C506.001 24.4139 509.352 20.3661 512.71 16.3183C515.246 13.2588 518.17 8.68129 522.548 8.33344C523.433 8.26228 523.433 6.87877 522.548 6.94992C518.028 7.30568 515.159 11.2112 512.489 14.4288C508.877 18.777 505.274 23.1331 501.663 27.4813C501.473 27.7106 501.379 28.0506 501.552 28.3194C505.179 33.8139 503.978 40.9371 506.175 46.9455C507.408 50.3292 509.265 53.4441 510.995 56.5827C512.726 59.7213 514.188 62.686 516.052 65.5558C517.735 68.1489 519.908 70.5444 523.006 71.3112C523.867 71.5247 524.239 70.1886 523.377 69.9752L523.385 69.991Z" fill="#313131"/>
<path d="M527.497 6.1102C541.997 4.13375 556.687 3.50918 571.305 4.24443C575.43 4.44998 579.539 4.76621 583.648 5.18522C584.533 5.27218 584.525 3.88866 583.648 3.8017C568.958 2.29959 554.134 2.15729 539.421 3.40641C535.312 3.75427 531.211 4.22071 527.126 4.77412C526.249 4.8927 526.62 6.22879 527.497 6.1102Z" fill="#313131"/>
<path d="M586.934 4.47421C601.442 6.03957 615.887 8.18204 629.889 12.3959C643.891 16.6097 657.087 22.3256 670.394 28.0019C683.606 33.6388 696.818 39.3231 709.596 45.9007C715.198 48.7864 721.14 51.6483 725.866 55.8858C728.118 57.9097 730.038 60.2735 731.318 63.0327C732.78 66.2029 733.475 69.7447 734.044 73.1679C734.66 76.8521 734.874 80.6152 734.107 84.2993C733.388 87.7621 732.013 91.043 730.488 94.2132C727.762 99.8896 724.19 105.922 717.995 108.27C716.581 108.807 715.119 109.092 713.61 109.116C712.725 109.132 712.717 110.515 713.61 110.499C720.05 110.396 725.17 105.914 728.505 100.751C730.354 97.8895 731.847 94.7746 733.175 91.6439C734.502 88.5131 735.585 85.1057 735.893 81.6272C736.225 77.9035 735.688 74.1641 734.961 70.5195C734.281 67.1279 733.412 63.7205 731.666 60.7084C728.576 55.3877 723.297 51.8222 718.058 48.8654C705.194 41.5921 691.603 35.6232 678.043 29.7887C664.357 23.8988 650.671 17.8272 636.542 13.0678C622.264 8.2611 607.574 5.50988 592.639 3.73106C590.735 3.5018 588.831 3.28834 586.926 3.08279C586.041 2.98792 586.049 4.37144 586.926 4.46631L586.934 4.47421Z" fill="#313131"/>
<path d="M661.653 51.5201C664.64 50.9983 667.698 52.5004 669.176 55.1331C670.654 57.7657 670.59 61.1415 670.432 64.1378C670.385 65.0312 671.768 65.0233 671.815 64.1378C671.989 60.7146 672.013 56.8882 670.053 53.9156C668.093 50.943 664.672 49.599 661.29 50.1919C660.413 50.3422 660.784 51.6782 661.661 51.528L661.653 51.5201Z" fill="#313131"/>
<path d="M669.733 67.0634C670.863 68.4785 672.483 65.0948 670.27 65.1976C669.219 65.245 668.682 66.4072 668.279 67.2057C667.67 68.3916 667.173 69.6407 666.793 70.9135C665.284 75.9495 665.529 81.4678 667.173 86.4406C670.483 96.4572 679.16 103.683 688.626 107.684C694.734 110.261 701.238 111.644 707.788 112.506C708.665 112.625 708.658 111.241 707.788 111.123C698.377 109.881 688.863 107.431 680.977 101.944C673.929 97.0344 668.358 89.6266 667.346 80.9144C667.054 78.432 667.109 75.8942 667.591 73.4434C667.813 72.297 668.129 71.1665 668.524 70.0755C668.761 69.4351 669.022 68.8027 669.33 68.186C669.425 67.9963 669.519 67.8065 669.622 67.6168C669.725 67.4271 669.828 67.2373 669.93 67.0555C670.199 66.7946 670.246 66.4704 670.057 66.0989L670.586 66.0277L670.713 66.0831C670.159 65.3873 669.18 66.3756 669.733 67.0634Z" fill="#313131"/>
<path d="M671.345 64.4559C671.179 68.4563 673.297 71.9348 675.857 74.8363C678.631 77.9749 681.91 80.7419 685.158 83.3746C691.661 88.6478 698.82 93.2331 706.714 96.103C711.115 97.6999 715.714 98.704 720.384 99.0044C721.269 99.0597 721.269 97.6762 720.384 97.6209C704.312 96.5852 689.891 86.8057 678.702 75.8245C675.612 72.7887 672.53 69.0492 672.728 64.4717C672.767 63.5784 671.385 63.5863 671.345 64.4717V64.4559Z" fill="#313131"/>
<path d="M676.963 61.5232C679.239 59.7365 682.115 58.7878 684.999 58.8036C685.892 58.8036 685.892 57.428 684.999 57.4201C681.72 57.4043 678.559 58.5269 675.983 60.5429C675.691 60.7722 675.738 61.2781 675.983 61.5232C676.276 61.8157 676.663 61.7525 676.963 61.5232Z" fill="#313131"/>
<path d="M695.302 56.1394C696.195 56.1394 696.195 54.7559 695.302 54.7559C694.41 54.7559 694.41 56.1394 695.302 56.1394Z" fill="#313131"/>
<path d="M537.354 19.3053C540.214 21.4952 543.083 23.6851 545.943 25.875C546.243 26.1043 546.717 25.9224 546.891 25.6299C547.097 25.2742 546.939 24.9105 546.646 24.6812C543.786 22.4913 540.917 20.3014 538.057 18.1115C537.757 17.8822 537.283 18.0641 537.109 18.3566C536.903 18.7123 537.061 19.076 537.354 19.3053Z" fill="#313131"/>
<path d="M540.058 17.3285C547.146 15.4311 554.511 16.5063 561.638 17.5894C562.508 17.7238 562.887 16.3877 562.01 16.2533C554.629 15.1227 547.036 14.0238 539.695 15.9924C538.834 16.2216 539.197 17.5577 540.066 17.3285H540.058Z" fill="#313131"/>
<path d="M587.872 18.6176C591.491 19.0445 595.062 19.8193 598.539 20.9024C599.393 21.1712 599.756 19.8351 598.911 19.5663C595.307 18.4437 591.617 17.6768 587.872 17.2262C586.987 17.1234 586.995 18.5069 587.872 18.6097V18.6176Z" fill="#313131"/>
<path d="M511.597 55.8851C515.16 56.0274 518.503 54.7862 521.774 53.5292C524.785 52.3749 527.788 51.1733 530.743 49.8925C536.732 47.2836 542.588 44.3031 547.977 40.6032C550.987 38.5397 553.84 36.255 556.479 33.733C557.127 33.1163 556.147 32.136 555.499 32.7527C546.278 41.5598 534.583 47.0859 522.825 51.6555C519.23 53.0469 515.524 54.6597 511.589 54.5016C510.696 54.47 510.704 55.8535 511.589 55.8851H511.597Z" fill="#313131"/>
<path d="M558.792 30.7685C558.294 30.2625 557.788 29.7566 557.29 29.2506C557.274 29.2348 557.109 29.053 557.109 29.053C557.093 29.053 557.061 29.2111 557.061 29.1874C557.061 29.1794 557.148 29.0925 557.172 29.0767C557.377 28.8948 557.693 28.7051 557.946 28.5312C559.163 27.6694 560.388 26.8077 561.605 25.946C561.913 25.7325 562.055 25.3451 561.85 24.9973C561.676 24.6968 561.21 24.5308 560.901 24.7522C559.463 25.772 558.017 26.784 556.579 27.8117C556.263 28.041 555.955 28.2703 555.813 28.6498C555.647 29.0846 555.757 29.5273 556.026 29.891C556.271 30.223 556.579 30.4997 556.871 30.7922L557.82 31.7567C558.444 32.3892 559.424 31.4089 558.8 30.7764L558.792 30.7685Z" fill="#313131"/>
<path d="M577.718 31.2032C596.367 35.5593 615.015 39.9233 633.672 44.2794C638.911 45.5048 644.15 46.7303 649.381 47.9478C650.25 48.1533 650.613 46.8172 649.752 46.6117C631.104 42.2556 612.455 37.8915 593.799 33.5354L578.09 29.8671C577.22 29.6616 576.857 30.9977 577.718 31.2032Z" fill="#313131"/>
<path d="M661.814 23.0756H661.878C661.759 22.6487 661.648 22.2218 661.53 21.787L662.012 21.7474L662.328 22.1585C662.383 22.3878 662.375 22.0953 662.423 21.9688C662.47 21.8423 662.557 21.7237 662.636 21.6209C662.826 21.3759 663.087 21.194 663.355 21.0517C664.003 20.7197 664.754 20.7118 665.465 20.8145C667.124 21.0517 668.792 21.6368 670.404 22.0953C671.668 22.4511 672.656 22.9966 673.059 24.3168C673.43 25.5185 673.359 26.8151 673.256 28.0484C673.185 28.9338 674.568 28.9338 674.639 28.0484C674.773 26.3407 674.821 24.4275 673.944 22.8938C672.901 21.0833 670.775 20.7592 668.926 20.2532C666.943 19.7077 664.627 18.8144 662.652 19.85C661.901 20.2453 661.269 20.9173 661.032 21.7395C660.906 22.1743 660.89 22.6566 661.301 22.9333C661.554 23.1072 661.949 23.1468 662.217 22.9728C662.802 22.6013 662.557 21.7158 661.87 21.6842H661.806C660.914 21.6447 660.921 23.0282 661.806 23.0677L661.814 23.0756Z" fill="#313131"/>
<path d="M583.86 3.22568C584.555 1.3599 586.902 1.14645 588.561 1.55755C590.023 1.92122 592.394 2.80667 592.552 4.60129C592.631 5.47884 594.014 5.48675 593.935 4.60129C593.706 2.0319 590.987 0.695815 588.751 0.181936C586.317 -0.379378 583.48 0.316335 582.524 2.85411C582.208 3.69212 583.552 4.04789 583.86 3.22568Z" fill="#313131"/>
<path d="M650.253 58.1297C649.487 60.1378 648.697 62.2486 648.807 64.4385C648.902 66.249 649.582 68.091 651.036 69.2295C651.731 69.775 652.711 68.8026 652.015 68.2491C648.934 65.83 650.435 61.5055 651.589 58.4934C651.905 57.6632 650.569 57.2996 650.253 58.1218V58.1297Z" fill="#313131"/>
<path d="M589.192 45.4497L587.288 48.7148C587.098 49.031 587.209 49.4738 587.533 49.6635C590.006 51.0549 592.756 51.8534 595.585 52.0273C596.47 52.0827 596.47 50.6992 595.585 50.6438C593.001 50.4857 590.488 49.7346 588.236 48.4697L588.481 49.4184L590.386 46.1533C590.836 45.3864 589.643 44.6828 589.192 45.4576V45.4497Z" fill="#313131"/>
<path d="M604.419 54.3904L611.159 56.0664C612.021 56.2798 612.392 54.9438 611.531 54.7303C609.287 54.169 607.035 53.6156 604.791 53.0543C603.929 52.8408 603.558 54.1769 604.419 54.3904Z" fill="#313131"/>
<path d="M501.779 27.8352C498.856 27.2185 495.884 28.9499 495.118 31.8671C494.755 33.2348 494.857 34.903 495.758 36.0414C496.738 37.2826 498.374 37.3459 499.812 37.0929C501.511 36.8004 503.146 36.0809 504.537 35.0611C504.837 34.8397 504.987 34.4603 504.782 34.1124C504.608 33.8199 504.142 33.638 503.834 33.8673C502.838 34.6026 501.74 35.1639 500.554 35.5038C499.567 35.7884 498.223 36.1205 497.275 35.5671C496.327 35.0137 496.208 33.6776 496.343 32.721C496.501 31.6458 497.062 30.618 497.923 29.9618C498.903 29.2108 500.199 28.9183 501.408 29.1713C502.277 29.3531 502.649 28.017 501.779 27.8352Z" fill="#313131"/>
<path d="M498.412 32.0027C499.305 32.0027 499.305 30.6191 498.412 30.6191C497.519 30.6191 497.519 32.0027 498.412 32.0027Z" fill="#313131"/>
<path d="M500.911 34.1898L500.279 33.2174C500.184 33.0672 500.041 32.9486 499.868 32.9012C499.773 32.8696 499.686 32.8696 499.591 32.8854C499.496 32.8854 499.417 32.917 499.33 32.9644C499.18 33.0593 499.054 33.2016 499.014 33.3755C498.975 33.5495 498.983 33.755 499.085 33.9052L499.717 34.8777C499.812 35.0279 499.955 35.1465 500.128 35.1939C500.223 35.2255 500.31 35.2255 500.405 35.2097C500.5 35.2097 500.579 35.1781 500.666 35.1306C500.816 35.0358 500.942 34.8935 500.982 34.7195C501.021 34.5456 501.013 34.3401 500.911 34.1898Z" fill="#313131"/>
<path d="M501.352 30.3421V30.018C501.352 29.9231 501.336 29.8361 501.288 29.7492C501.257 29.6622 501.209 29.5911 501.146 29.5278C501.083 29.4567 501.012 29.4092 500.925 29.3855C500.846 29.346 500.751 29.3223 500.656 29.3223L500.475 29.346C500.356 29.3776 500.253 29.4409 500.166 29.5278L500.056 29.6701C499.993 29.7808 499.961 29.8915 499.961 30.018V30.3421C499.961 30.437 499.977 30.524 500.024 30.6109C500.056 30.6979 500.103 30.769 500.166 30.8323C500.23 30.9034 500.301 30.9509 500.388 30.9746C500.467 31.0141 500.561 31.0378 500.656 31.0378L500.838 31.0141C500.957 30.9825 501.059 30.9192 501.146 30.8323L501.257 30.69C501.32 30.5793 501.352 30.4686 501.352 30.3421Z" fill="#313131"/>
<path d="M500.67 31.03C501.563 31.03 501.563 29.6465 500.67 29.6465C499.777 29.6465 499.777 31.03 500.67 31.03Z" fill="#313131"/>
<path d="M502.592 33.9304C503.484 33.9304 503.484 32.5469 502.592 32.5469C501.699 32.5469 501.699 33.9304 502.592 33.9304Z" fill="#313131"/>
<path d="M494.983 34.5869C492.439 34.0651 490.59 36.6977 489.041 38.2789C487.01 40.3502 484.972 42.4136 482.957 44.4929C479.875 47.671 476.145 52.873 479.503 57.2133C482.158 60.6445 487.405 60.2096 490.653 57.9802C494.082 55.6243 496.951 49.94 492.415 47.1018C488.622 44.73 483.162 46.5563 481.289 50.525C480.91 51.3235 482.103 52.0271 482.482 51.2207C483.826 48.3746 487.247 46.7935 490.297 47.6631C492.265 48.2244 493.695 49.774 493.348 51.9006C493.031 53.8455 491.649 55.5689 490.084 56.6916C487.429 58.581 482.964 59.2926 480.649 56.4386C477.749 52.8572 481.202 48.3193 483.699 45.7183C485.438 43.9157 487.2 42.1369 488.954 40.3423C489.8 39.4806 490.645 38.6188 491.491 37.7492C492.289 36.9349 493.34 35.6462 494.62 35.9071C495.489 36.089 495.86 34.7529 494.991 34.5711L494.983 34.5869Z" fill="#313131"/>
<path d="M477.242 58.1878C477.606 59.9587 478.728 61.5398 480.324 62.4016C482.086 63.3503 484.267 63.4926 486.227 63.3819C488.186 63.2712 490.122 62.7494 491.584 61.4292C492.951 60.1879 493.67 58.4329 493.41 56.5987C493.283 55.7212 491.956 56.0927 492.074 56.9703C492.28 58.417 491.442 59.8243 490.32 60.686C489.016 61.6822 487.309 61.9905 485.713 62.0221C484.117 62.0537 482.426 61.9668 481.019 61.2078C479.716 60.5042 478.87 59.263 478.57 57.8241C478.388 56.9545 477.061 57.3181 477.234 58.1957L477.242 58.1878Z" fill="#313131"/>
<path d="M477.466 60.1614C476.692 64.3436 479.963 67.6245 483.693 68.8024C485.629 69.4191 487.841 69.6484 489.738 68.7945C491.389 68.0435 492.638 66.3358 492.503 64.478C492.44 63.5925 491.057 63.5846 491.121 64.478C491.231 65.9801 490.141 67.2292 488.766 67.7035C487.178 68.249 485.4 67.9249 483.851 67.4031C480.982 66.4386 478.193 63.8376 478.802 60.533C478.96 59.6633 477.632 59.2917 477.466 60.1614Z" fill="#313131"/>
<path d="M477.558 63.427C476.176 64.0832 475.654 65.7197 475.891 67.1506C476.176 68.8741 477.558 70.1469 478.815 71.23C480.316 72.5187 481.881 73.7757 483.603 74.756C485.049 75.5703 487.001 76.5981 488.668 75.8707C490.47 75.0881 490.533 72.9219 490.344 71.2458C490.241 70.3683 488.858 70.3604 488.961 71.2458C489.127 72.6531 489.206 74.9616 487.159 74.7165C486.219 74.6058 485.318 74.1236 484.504 73.6729C483.69 73.2223 482.892 72.6926 482.134 72.1392C481.375 71.5858 480.616 70.9533 479.882 70.3288C479.202 69.7437 478.483 69.1508 477.954 68.4235C477.14 67.3166 476.721 65.356 478.254 64.6287C479.06 64.2492 478.357 63.0554 477.558 63.4349V63.427Z" fill="#313131"/>
<path d="M476.28 67.9573C474.912 68.7558 474.272 70.337 474.359 71.8786C474.462 73.6812 475.505 75.1991 476.675 76.5035C477.37 77.2783 478.105 78.0215 478.824 78.7725C479.543 79.5236 480.183 80.243 480.973 80.8517C482.356 81.9348 484.087 82.3301 485.699 81.5C487.453 80.5988 488.219 78.4405 487.556 76.6063C487.255 75.7762 485.912 76.132 486.22 76.9779C486.836 78.6539 485.786 80.5039 483.929 80.5829C482.072 80.662 480.752 78.7804 479.63 77.6104C478.342 76.2664 476.785 74.9145 476.05 73.1594C475.497 71.8154 475.608 69.9496 476.975 69.1511C477.741 68.7005 477.046 67.5067 476.28 67.9573Z" fill="#313131"/>
<path d="M473.669 72.4004C472.223 73.1752 471.741 74.9698 472.096 76.4956C472.563 78.48 474.285 80.0058 475.605 81.4526C476.363 82.2827 477.114 83.1286 477.881 83.9508C478.513 84.6228 479.279 85.2237 480.251 85.1841C482.345 85.1051 483.238 83.0733 483.783 81.3498C484.052 80.496 482.717 80.1323 482.448 80.9782C482.116 82.0297 481.405 84.2038 479.88 83.7532C479.2 83.5555 478.679 82.7571 478.22 82.259C477.628 81.6107 477.035 80.9545 476.442 80.3062C475.431 79.1915 474.151 78.061 473.598 76.6221C473.195 75.5786 473.297 74.1634 474.38 73.5863C475.162 73.1673 474.467 71.9735 473.685 72.3925L473.669 72.4004Z" fill="#313131"/>
<path d="M472.161 77.1282C470.691 76.6064 468.992 77.31 468.194 78.6224C467.182 80.2826 468.107 82.1484 469.174 83.5082C470.501 85.2 471.979 86.797 473.401 88.4098C473.994 89.0818 474.689 89.7538 475.598 89.9515C476.412 90.1254 477.257 89.9198 477.929 89.4455C479.889 88.0778 479.873 85.6586 479.652 83.5082C479.565 82.6307 478.182 82.6227 478.269 83.5082C478.435 85.1605 478.711 87.7536 476.76 88.5126C475.961 88.8288 475.29 88.3782 474.737 87.8169C474.002 87.0658 473.338 86.2278 472.651 85.4293C471.963 84.6308 471.212 83.7928 470.509 82.9548C469.964 82.3065 469.379 81.5634 469.19 80.7174C468.85 79.2074 470.343 77.9425 471.789 78.4485C472.627 78.7489 472.99 77.4128 472.161 77.1124V77.1282Z" fill="#313131"/>
<path d="M475.075 89.0099C475.185 89.9665 475.351 91.0417 474.996 91.9667C474.758 92.5992 474.087 93.2396 473.36 93.1526C472.57 93.0577 472.238 91.856 471.906 91.2631C471.424 90.4093 470.871 89.595 470.27 88.8281C469.093 87.326 467.702 86.0848 466.177 84.9543C465.687 84.5906 464.763 83.9107 465.26 83.2229C465.853 82.4007 467.133 82.7802 467.931 82.9857C468.793 83.2071 469.164 81.871 468.303 81.6496C467.354 81.4124 466.311 81.1753 465.363 81.531C464.573 81.8235 463.901 82.4639 463.767 83.3257C463.482 85.2072 465.719 86.235 466.888 87.2548C468.374 88.5593 469.646 90.093 470.634 91.8086C471.092 92.5992 471.408 93.5637 472.167 94.125C472.815 94.6073 473.66 94.6547 474.403 94.3859C476.655 93.5479 476.718 91.0496 476.473 89.0258C476.37 88.1561 474.988 88.1403 475.09 89.0258L475.075 89.0099Z" fill="#313131"/>
<path d="M464.168 84.2691C463.315 85.1624 462.509 86.0874 461.742 87.0598L462.414 86.878C460.494 86.3246 459.008 88.554 459.514 90.2854C460.13 92.3804 462.382 93.0999 464.05 94.1355C465.172 94.8391 465.669 95.6693 465.906 96.9737C466.088 97.9461 466.294 98.9502 467.021 99.6854C467.708 100.365 468.704 100.579 469.541 100.041C470.3 99.551 470.648 98.5628 470.158 97.7643C469.691 97.0133 468.49 97.7011 468.965 98.46C469.115 98.7051 468.751 98.9739 468.522 98.9818C468.222 98.9818 467.961 98.6814 467.811 98.46C467.392 97.8434 467.345 97.0607 467.202 96.3571C466.918 94.9103 466.167 93.8746 464.942 93.0603C463.82 92.3251 462.477 91.8982 461.513 90.9337C461.055 90.4672 460.683 89.8664 460.857 89.1944C460.991 88.6489 461.45 88.048 462.066 88.222C462.28 88.2852 462.596 88.2299 462.738 88.0401C463.496 87.0677 464.31 86.1348 465.164 85.2494C465.78 84.609 464.8 83.6287 464.184 84.2691H464.168Z" fill="#313131"/>
<path d="M469.462 97.7155C471.343 97.5653 472.963 96.332 473.626 94.569C473.753 94.229 473.484 93.7942 473.144 93.7152C472.749 93.6282 472.433 93.8338 472.291 94.1974C472.291 94.2132 472.228 94.3239 472.236 94.3397C472.22 94.3002 472.291 94.2211 472.236 94.3397C472.196 94.4267 472.157 94.5058 472.109 94.5848C472.022 94.7429 471.92 94.8852 471.817 95.0275C471.769 95.0987 471.896 94.9248 471.817 95.0275C471.785 95.0671 471.754 95.1066 471.714 95.1461C471.659 95.2094 471.604 95.2726 471.54 95.328C471.477 95.3912 471.406 95.4544 471.335 95.5177C471.303 95.5493 471.272 95.573 471.24 95.5968C471.208 95.6205 471.114 95.7312 471.216 95.6126C471.106 95.7312 470.908 95.826 470.766 95.9051C470.687 95.9525 470.6 95.992 470.521 96.0316C470.481 96.0474 470.442 96.0632 470.402 96.0869C470.323 96.1264 470.529 96.0395 470.402 96.0869C470.229 96.1502 470.055 96.2134 469.873 96.2529C469.794 96.2688 469.707 96.2925 469.628 96.3004C469.604 96.3004 469.581 96.3083 469.549 96.3162C469.494 96.3162 469.517 96.3162 469.604 96.3083C469.565 96.3241 469.494 96.3162 469.454 96.3241C469.091 96.3557 468.743 96.6245 468.767 97.0119C468.783 97.3598 469.075 97.7313 469.454 97.6997L469.462 97.7155Z" fill="#313131"/>
<path d="M463.238 89.9444C465.427 91.4939 467.402 93.3281 469.133 95.3836C469.37 95.6682 469.86 95.6287 470.113 95.3836C470.397 95.099 470.358 94.6958 470.113 94.4033C468.311 92.2608 466.233 90.3634 463.941 88.7506C463.633 88.5372 463.175 88.6953 462.993 88.9957C462.788 89.3436 462.938 89.723 463.238 89.9444Z" fill="#313131"/>
<path d="M458.847 88.3463C457.283 89.4531 456.366 91.0738 456.224 92.987L456.911 92.2992C454.153 92.3466 451.917 94.1887 449.784 95.7303C447.437 97.4143 445.145 99.1773 442.901 100.996C438.326 104.711 433.972 108.696 429.871 112.933C425.77 117.171 421.732 121.487 418.927 126.674C418.247 127.939 417.512 129.117 416.485 130.129C415.458 131.141 414.407 131.947 413.467 132.967C411.878 134.674 410.622 136.667 409.713 138.817C407.635 143.727 407.414 149.387 409.334 154.384C409.65 155.206 410.985 154.85 410.669 154.012C408.986 149.64 409.002 144.794 410.574 140.39C411.357 138.2 412.534 136.129 414.067 134.374C415.742 132.453 417.899 131.054 419.274 128.872C419.954 127.796 420.491 126.634 421.139 125.543C421.906 124.247 422.791 123.029 423.731 121.851C425.517 119.63 427.437 117.519 429.389 115.447C433.182 111.408 437.212 107.589 441.439 104.008C443.826 101.984 446.267 100.039 448.78 98.1811C450.005 97.272 451.238 96.3786 452.494 95.5169C453.837 94.5998 455.252 93.7222 456.927 93.6906C457.322 93.6906 457.591 93.3823 457.614 93.0028C457.717 91.6114 458.413 90.3702 459.55 89.5559C460.269 89.042 459.582 87.8482 458.855 88.3621L458.847 88.3463Z" fill="#313131"/>
<path d="M466.349 100.245C463.449 103.486 460.201 106.403 456.637 108.894C453.073 111.384 449.391 113.234 446.333 116.254C443.109 119.44 440.367 123.124 437.499 126.626C434.48 130.31 431.462 133.995 428.435 137.679C426.902 139.552 425.124 141.379 423.9 143.474C422.92 145.15 422.343 147.189 423.504 148.929C423.994 149.664 425.195 148.976 424.698 148.233C423.473 146.415 424.935 144.201 426.08 142.731C427.432 140.999 428.862 139.331 430.253 137.639C433.113 134.145 435.974 130.658 438.842 127.164C441.552 123.859 444.16 120.389 447.186 117.361C450.213 114.333 453.792 112.554 457.19 110.19C460.904 107.613 464.302 104.601 467.32 101.225C467.913 100.561 466.941 99.5805 466.341 100.245H466.349Z" fill="#313131"/>
<path d="M423.518 128.255C424.956 127.441 426.829 127.931 428.014 128.99C429.413 130.247 430.053 132.073 430.432 133.868C430.614 134.738 431.949 134.374 431.767 133.497C431.317 131.386 430.463 129.164 428.717 127.781C427.066 126.468 424.719 125.978 422.814 127.053C422.04 127.488 422.735 128.682 423.51 128.247L423.518 128.255Z" fill="#313131"/>
<path d="M425.76 124.667C427.135 124.042 428.873 124.24 430.066 125.149C431.26 126.058 431.876 127.64 431.702 129.15C431.663 129.521 432.05 129.837 432.39 129.837C432.8 129.837 433.038 129.521 433.077 129.15C433.298 127.165 432.374 125.157 430.786 123.979C429.197 122.801 426.89 122.635 425.049 123.473C424.709 123.631 424.622 124.122 424.804 124.422C425.009 124.77 425.412 124.825 425.752 124.667H425.76Z" fill="#313131"/>
<path d="M429.87 119.101C432.43 120.184 434.485 122.184 435.646 124.714C435.804 125.054 436.294 125.141 436.594 124.959C436.942 124.754 436.997 124.351 436.839 124.011C435.599 121.299 433.315 119.062 430.573 117.899C430.233 117.757 429.83 117.797 429.625 118.145C429.459 118.437 429.53 118.943 429.87 119.093V119.101Z" fill="#313131"/>
<path d="M433.245 115.947C435.323 116.255 437.172 117.441 438.262 119.228C438.721 119.987 439.922 119.291 439.455 118.532C438.199 116.461 436.018 114.966 433.616 114.611C433.245 114.555 432.873 114.706 432.763 115.093C432.676 115.417 432.873 115.891 433.245 115.947Z" fill="#313131"/>
<path d="M436.199 112.159C439.312 111.408 442.773 114.04 442.892 117.242C442.923 118.128 444.306 118.136 444.275 117.242C444.125 113.123 439.842 109.858 435.835 110.823C434.974 111.028 435.338 112.364 436.207 112.159H436.199Z" fill="#313131"/>
<path d="M438.744 108.801C441.612 108.192 444.852 110.453 445.2 113.394C445.247 113.766 445.484 114.082 445.887 114.082C446.227 114.082 446.622 113.766 446.575 113.394C446.116 109.536 442.189 106.658 438.365 107.473C437.495 107.654 437.859 108.99 438.736 108.809L438.744 108.801Z" fill="#313131"/>
<path d="M443.383 105.765C443.549 105.757 443.707 105.749 443.873 105.765C443.944 105.765 444.015 105.772 444.078 105.78C444.291 105.796 443.96 105.749 444.173 105.796C444.473 105.859 444.758 105.931 445.042 106.041C445.184 106.097 445.011 106.018 445.137 106.081C445.208 106.12 445.287 106.152 445.358 106.191C445.493 106.263 445.627 106.342 445.753 106.421C446.014 106.587 446.133 106.682 446.386 106.919C446.836 107.354 447.089 107.717 447.381 108.302C447.444 108.429 447.365 108.255 447.421 108.397C447.444 108.46 447.468 108.524 447.492 108.595C447.547 108.745 447.587 108.903 447.626 109.061C447.689 109.338 447.705 109.496 447.697 109.852C447.697 110.223 448.021 110.54 448.385 110.54C448.748 110.54 449.072 110.223 449.072 109.852C449.104 106.887 446.354 104.215 443.383 104.389C443.011 104.413 442.695 104.689 442.695 105.077C442.695 105.432 443.011 105.788 443.383 105.765Z" fill="#313131"/>
<path d="M445.481 102.507C447.473 102.175 449.448 103.44 450.594 104.981C451.969 106.824 452.53 109.124 453.083 111.314C453.304 112.176 454.632 111.812 454.419 110.942C453.786 108.436 453.099 105.843 451.424 103.804C449.899 101.946 447.536 100.768 445.118 101.171C444.241 101.313 444.612 102.649 445.489 102.507H445.481Z" fill="#313131"/>
<path d="M448.217 99.1242C452.31 100.879 455.297 104.65 456.056 109.038C456.206 109.916 457.541 109.544 457.391 108.666C456.585 103.97 453.298 99.7962 448.92 97.9225C448.573 97.7723 448.185 97.8197 447.972 98.1676C447.798 98.4601 447.877 98.966 448.217 99.1163V99.1242Z" fill="#313131"/>
<path d="M452.26 95.6674C454.48 94.9005 456.29 96.8295 457.143 98.6558C458.186 100.877 458.74 103.431 459.182 105.834C459.34 106.712 460.676 106.34 460.518 105.463C460.249 104 459.909 102.553 459.49 101.13C459.111 99.8337 458.692 98.5135 458.028 97.3276C456.843 95.2088 454.409 93.4537 451.897 94.3234C451.059 94.6159 451.422 95.952 452.268 95.6595L452.26 95.6674Z" fill="#313131"/>
<path d="M456.175 93.8336C458.799 96.0472 461.193 98.5375 463.271 101.273C463.5 101.573 463.864 101.724 464.22 101.518C464.512 101.344 464.694 100.87 464.464 100.569C462.315 97.7311 459.873 95.138 457.155 92.8453C456.871 92.6082 456.46 92.5686 456.175 92.8453C455.93 93.0904 455.891 93.5806 456.175 93.8257V93.8336Z" fill="#313131"/>
<path d="M418.305 129.56C420.77 129.236 423.306 130.042 425.037 131.845C426.767 133.647 427.494 136.232 427.036 138.644C426.87 139.513 428.206 139.885 428.372 139.015C428.917 136.153 428.111 133.133 426.127 130.983C424.144 128.832 421.157 127.805 418.312 128.176C417.941 128.224 417.625 128.461 417.625 128.864C417.625 129.196 417.949 129.607 418.312 129.552L418.305 129.56Z" fill="#313131"/>
<path d="M418.404 130.848C419.336 130.413 420.355 130.927 421.106 131.488C422.007 132.152 422.726 133.046 423.405 133.923C424.788 135.71 426.021 137.781 426.053 140.106C426.06 140.999 427.443 140.999 427.435 140.106C427.404 137.275 425.887 134.833 424.18 132.69C422.671 130.801 420.332 128.437 417.708 129.654C416.902 130.026 417.605 131.22 418.404 130.848Z" fill="#313131"/>
<path d="M414.727 134.896C418.907 134.406 421.775 138.05 423.98 141.039C424.201 141.339 424.572 141.489 424.928 141.284C425.228 141.118 425.394 140.636 425.173 140.335C422.684 136.975 419.412 132.951 414.719 133.505C414.347 133.552 414.031 133.789 414.031 134.192C414.031 134.532 414.355 134.928 414.719 134.88L414.727 134.896Z" fill="#313131"/>
<path d="M412.023 138.642C413.39 137.18 415.84 138.041 417.381 138.745C419.38 139.654 421.15 140.959 422.612 142.587C423.212 143.251 424.184 142.271 423.592 141.607C421.877 139.702 419.759 138.223 417.396 137.251C415.405 136.437 412.711 135.891 411.051 137.662C410.443 138.31 411.423 139.291 412.031 138.642H412.023Z" fill="#313131"/>
<path d="M410.077 143.428C414.257 142.51 419.354 142.273 422.302 145.981C422.855 146.677 423.827 145.697 423.281 145.001C420.026 140.906 414.336 141.072 409.714 142.091C408.845 142.281 409.216 143.617 410.085 143.428H410.077Z" fill="#313131"/>
<path d="M409.492 150.187C410.551 147.649 412.834 145.696 415.434 144.866C417.781 144.123 421.487 144.052 422.791 146.59C423.202 147.38 424.395 146.685 423.984 145.894C422.419 142.85 418.168 142.613 415.26 143.475C412.068 144.416 409.437 146.748 408.149 149.815C407.809 150.638 409.144 150.993 409.484 150.187H409.492Z" fill="#313131"/>
<path d="M423.219 148.139C422.066 147.633 420.928 147.807 419.782 148.266C418.636 148.724 417.459 149.317 416.313 149.855C415.08 150.424 413.824 150.961 412.615 151.586C411.659 152.076 410.782 152.709 410.221 153.642C409.186 155.349 409.32 157.61 410.276 159.31C411.335 161.207 413.247 162.409 415.246 163.129C415.8 163.326 416.163 162.749 416.1 162.275C415.333 157.049 418.462 151.681 423.259 149.594C424.073 149.238 423.37 148.044 422.564 148.4C417.151 150.764 413.919 156.843 414.772 162.646L415.626 161.792C413.998 161.207 412.425 160.227 411.532 158.701C410.742 157.349 410.616 155.499 411.532 154.179C412.062 153.412 412.915 152.977 413.729 152.582C414.662 152.132 415.61 151.713 416.542 151.278C417.475 150.843 418.47 150.384 419.442 149.934C420.351 149.515 421.536 148.89 422.54 149.333C423.346 149.689 424.049 148.495 423.235 148.139H423.219Z" fill="#313131"/>
<path d="M422.847 148.098C424.23 149.332 425.842 150.028 427.683 150.209L426.996 149.522C427.027 151.205 426.221 152.629 425.415 154.044C424.673 155.34 423.993 156.645 423.472 158.052C422.389 160.993 422.002 164.163 422.278 167.286L423.321 166.685C421.836 165.91 420.208 165.681 418.628 165.191C417.047 164.701 415.064 163.444 415.522 161.554C415.728 160.692 414.4 160.321 414.187 161.183C413.736 163.064 414.851 164.709 416.392 165.705C418.272 166.922 420.659 166.859 422.626 167.879C423.053 168.1 423.717 167.839 423.669 167.278C423.377 164.013 423.835 160.724 425.099 157.688C426.221 154.992 428.45 152.589 428.394 149.522C428.387 149.118 428.078 148.865 427.707 148.834C426.253 148.691 424.933 148.099 423.843 147.126C423.179 146.533 422.199 147.506 422.863 148.106L422.847 148.098Z" fill="#313131"/>
<path d="M424.951 168.189C426.855 167.382 429.771 169.596 431.177 167.208C431.809 166.125 431.383 164.663 431.335 163.493C431.28 162.101 431.343 160.694 431.549 159.318C431.754 157.943 432.062 156.646 432.497 155.365C432.734 154.654 433.018 153.974 433.311 153.286C433.508 152.82 433.635 152.353 433.358 151.879C432.845 151.017 431.478 150.511 430.553 150.258C429.415 149.95 428.246 149.95 427.1 150.203C426.231 150.393 426.602 151.721 427.471 151.539C428.459 151.325 429.478 151.365 430.442 151.673C430.924 151.824 431.383 152.045 431.802 152.322C432.173 152.567 432.102 152.511 431.999 152.867C431.936 153.088 431.786 153.373 431.691 153.587C430.869 155.603 430.348 157.729 430.095 159.888C429.968 160.986 429.921 162.093 429.945 163.2C429.96 163.706 429.992 164.204 430.031 164.702C430.079 165.24 430.284 166.03 429.984 166.52C429.518 167.279 428.254 167.003 427.558 166.853C426.563 166.639 425.559 166.457 424.587 166.868C423.781 167.208 424.137 168.544 424.958 168.204L424.951 168.189Z" fill="#313131"/>
<path d="M434.295 152.708C435.228 152.233 436.31 151.625 437.401 151.791C438.404 151.941 438.95 152.597 438.91 153.601C438.807 155.925 438.444 158.274 438.199 160.59C438.08 161.744 437.962 162.906 437.843 164.061C437.733 165.128 437.567 165.982 436.524 166.488C434.596 167.421 432.312 167.318 430.368 166.527C429.546 166.187 429.183 167.531 429.997 167.863C432.32 168.812 435.338 168.859 437.535 167.515C438.586 166.875 438.997 165.895 439.155 164.709C439.345 163.238 439.463 161.752 439.613 160.274C439.764 158.795 439.929 157.222 440.08 155.696C440.206 154.479 440.585 153 439.922 151.87C438.515 149.506 435.496 150.55 433.6 151.522C432.81 151.925 433.505 153.119 434.295 152.716V152.708Z" fill="#313131"/>
<path d="M496.059 126.904C495.221 125.663 493.53 125.75 492.472 126.691C490.939 128.058 491.673 130.32 492.369 131.916L493.451 131.078C492.724 130.169 491.8 129.205 490.575 129.118C489.516 129.047 488.631 129.695 488.244 130.659C487.233 133.181 489.54 134.952 491.476 136.02L492.005 134.755C490.338 134.083 488.9 132.209 486.909 133.142C484.917 134.075 485.787 136.367 487.067 137.458C487.762 138.051 488.671 138.431 489.248 139.158C489.959 140.052 489.35 140.905 488.536 141.435C488.165 141.68 487.762 141.878 487.359 142.052C487.09 142.162 486.822 142.281 486.569 142.123C486.355 141.996 486.182 141.696 486.031 141.506C485.225 140.502 484.419 139.49 483.614 138.478C483.234 138.004 482.563 137.395 482.468 136.763C482.389 136.209 482.847 135.822 483.329 135.648C484.562 135.213 485.723 136.375 486.506 137.174C487.13 137.806 488.11 136.834 487.485 136.194C486 134.676 483.463 133.118 481.654 135.142C480.872 136.012 480.966 137.166 481.583 138.091C482.381 139.301 483.4 140.407 484.309 141.546C484.988 142.4 485.739 143.775 487.027 143.601C488.054 143.459 489.224 142.755 489.982 142.068C490.741 141.38 491.16 140.376 490.891 139.356C490.622 138.336 489.69 137.609 488.829 137.016C488.26 136.628 487.667 136.249 487.312 135.632C486.956 135.016 487.13 134.351 487.928 134.288C488.631 134.233 489.24 134.636 489.793 135.008C490.401 135.419 490.97 135.798 491.65 136.075C492.385 136.375 492.859 135.182 492.179 134.81C490.978 134.146 489.145 133.181 489.421 131.529C489.524 130.92 489.927 130.399 490.591 130.493C491.389 130.612 492.013 131.45 492.479 132.035C493.009 132.699 493.846 131.853 493.562 131.197C493.167 130.28 492.551 128.833 493.206 127.9C493.515 127.465 494.471 127.007 494.858 127.584C495.356 128.319 496.549 127.624 496.051 126.888L496.059 126.904Z" fill="#313131"/>
<path d="M482 137.165C480.151 137.086 478.018 137.196 476.911 138.936C475.924 140.493 476.714 142.035 478.057 143.023C478.776 143.553 479.55 143.979 480.135 144.667C480.791 145.434 481.202 146.375 481.439 147.347C482.008 149.687 481.376 152.107 480.617 154.328C480.499 154.668 480.752 155.103 481.099 155.182C482.324 155.451 483.422 155.174 484.394 154.391C485.09 153.838 484.102 152.866 483.415 153.411C482.853 153.862 482.166 153.996 481.471 153.846L481.953 154.7C483.138 151.261 483.786 147.158 481.407 144.051C480.925 143.426 480.356 142.928 479.709 142.485C479.1 142.066 478.294 141.663 477.962 140.959C477.551 140.082 478.286 139.212 479.053 138.856C479.961 138.437 481.028 138.509 482 138.548C482.893 138.588 482.885 137.204 482 137.165Z" fill="#313131"/>
<path d="M480.394 154.543C479.557 155.262 478.735 155.997 477.882 156.701C477.724 156.835 477.518 157.12 477.329 157.009C477.163 156.914 477.171 156.432 477.163 156.306C477.131 155.839 477.163 155.373 477.218 154.914C477.431 152.985 477.866 151.167 477.115 149.301C476.491 147.736 475.377 146.447 474.302 145.174C473.741 144.51 472.761 143.712 473.567 142.866C474.286 142.115 475.59 142.352 476.507 142.47C477.423 142.589 477.376 141.198 476.507 141.087C475.321 140.937 474.018 140.826 472.99 141.553C472.169 142.13 471.623 143.158 471.916 144.17C472.208 145.182 473.227 146.036 473.883 146.819C474.634 147.72 475.385 148.677 475.827 149.775C476.815 152.258 475.274 154.804 475.922 157.318C476.191 158.369 477.139 158.82 478.103 158.266C478.632 157.958 479.083 157.491 479.549 157.088L481.374 155.523C482.054 154.946 481.066 153.965 480.394 154.543Z" fill="#313131"/>
<path d="M472.182 143.07C471.258 142.058 469.733 142.533 468.998 143.537C467.915 145.023 468.998 146.802 469.685 148.201C471.511 151.917 471.163 156.265 470.428 160.202C470.341 160.677 470.626 161.032 471.092 161.08C472.846 161.254 474.624 160.511 475.778 159.182C476.339 158.534 476.726 157.807 476.955 156.985C477.153 156.281 476.75 155.498 475.928 155.577C475.051 155.656 475.043 157.04 475.928 156.961L475.691 156.819L475.762 156.289C475.304 157.293 475.043 158.147 474.111 158.858C473.226 159.53 472.182 159.807 471.084 159.704L471.748 160.582C472.325 157.498 472.657 154.328 472.088 151.221C471.819 149.727 471.29 148.344 470.602 147C470.254 146.32 469.662 145.347 469.986 144.565C470.16 144.146 470.8 143.624 471.195 144.051C471.795 144.707 472.775 143.727 472.175 143.07H472.182Z" fill="#313131"/>
<path d="M470.868 159.8C470.165 159.618 469.572 159.831 469.027 160.282C468.537 160.685 468.126 161.413 467.533 161.658C466.048 162.274 466.601 159.468 466.696 158.851C466.877 157.721 466.854 156.598 466.68 155.467C466.49 154.242 466.135 153.056 465.7 151.894C465.265 150.732 464.697 149.672 464.444 148.494C464.191 147.317 464.499 146.059 465.645 145.459C466.68 144.913 467.968 145.293 468.647 146.226C469.169 146.937 470.362 146.249 469.841 145.53C468.355 143.474 465.352 143.221 463.748 145.301C461.781 147.854 464.064 151.088 464.847 153.649C465.36 155.341 465.605 157.056 465.313 158.812C465.1 160.061 464.815 161.428 465.779 162.464C466.49 163.223 467.518 163.31 468.379 162.765C468.924 162.417 469.817 160.954 470.504 161.136C471.366 161.365 471.737 160.029 470.876 159.8H470.868Z" fill="#313131"/>
<path d="M463.624 147.341C461.578 146.155 459.697 148.195 459.508 150.156C459.381 151.484 459.689 152.844 459.855 154.156C460.021 155.469 460.163 156.852 460.045 158.204C459.863 160.275 457.896 163.098 460.013 164.79C460.859 165.462 461.831 165.272 462.637 164.655C463.743 163.809 464.802 162.876 465.853 161.959C466.524 161.374 465.545 160.402 464.873 160.979C464.146 161.611 463.419 162.228 462.676 162.845C462.052 163.359 461.104 164.434 460.535 163.295C460.1 162.441 460.677 161.374 460.954 160.552C461.23 159.73 461.388 158.813 461.443 157.911C461.554 155.998 461.206 154.101 460.969 152.211C460.867 151.35 460.732 150.401 461.017 149.563C461.27 148.82 462.123 148.085 462.921 148.543C463.719 149.002 464.391 147.792 463.616 147.349L463.624 147.341Z" fill="#313131"/>
<path d="M459.168 163.019C457.809 164.055 455.004 165.794 453.7 163.691C452.705 162.086 453.922 159.691 454.348 158.078C454.941 155.84 455.036 153.627 454.973 151.326C454.957 150.67 455.067 150.283 455.715 150.006C456.261 149.769 456.853 149.547 457.438 149.453C458.204 149.318 460.061 149.785 459.413 150.955C458.979 151.737 460.172 152.433 460.607 151.65C461.618 149.824 459.801 148.022 457.991 148.014C456.861 148.014 455.407 148.441 454.483 149.089C453.558 149.737 453.566 150.82 453.613 151.84C453.748 154.552 453.195 157.011 452.452 159.588C451.93 161.406 451.535 163.699 453.116 165.122C455.186 166.988 457.999 165.62 459.856 164.205C460.559 163.675 459.864 162.473 459.161 163.011L459.168 163.019Z" fill="#313131"/>
<path d="M454.978 150.937C453.919 149.395 451.888 148.747 450.134 149.443C448.079 150.249 447.503 152.518 447.368 154.51C447.171 157.348 447.179 160.218 447.092 163.064C447.06 164.171 446.815 165.539 447.416 166.551C447.913 167.389 448.933 167.839 449.881 167.887C451.967 167.998 453.856 166.321 454.006 164.25C454.069 163.365 452.686 163.365 452.623 164.25C452.512 165.823 450.142 167.373 448.806 166.076C448.372 165.657 448.419 165.072 448.435 164.519C448.451 163.871 448.474 163.23 448.49 162.582C448.53 161.238 448.569 159.894 448.617 158.55C448.656 157.325 448.672 156.099 448.735 154.882C448.783 153.894 448.885 152.85 449.352 151.957C450.237 150.288 452.686 150.028 453.792 151.64C454.29 152.368 455.491 151.68 454.986 150.945L454.978 150.937Z" fill="#313131"/>
<path d="M446.262 163.784C446.396 164.63 445.882 165.499 445.227 166.005C444.405 166.638 443.306 166.772 442.303 166.685C441.41 166.606 440.383 166.361 439.743 165.689C439.237 165.16 439.118 164.266 439.727 163.776C440.019 163.539 439.972 163.041 439.727 162.796C439.442 162.511 439.039 162.559 438.747 162.796C437.973 163.42 437.767 164.551 438.052 165.476C438.376 166.511 439.237 167.199 440.209 167.602C442.192 168.417 444.895 168.322 446.483 166.725C447.36 165.839 447.779 164.646 447.589 163.412C447.534 163.041 447.068 162.835 446.736 162.93C446.341 163.041 446.199 163.412 446.254 163.784H446.262Z" fill="#313131"/>
<path d="M440.75 153.482C441.256 152.067 442.757 150.913 444.298 151.102C445.649 151.268 446.898 152.699 446.613 154.091C446.542 154.454 446.716 154.834 447.095 154.945C447.435 155.039 447.87 154.826 447.949 154.462C448.383 152.304 446.748 150.09 444.582 149.766C442.291 149.418 440.173 151.023 439.415 153.126C439.288 153.474 439.557 153.885 439.897 153.98C440.284 154.083 440.624 153.854 440.75 153.498V153.482Z" fill="#313131"/>
<path d="M659.915 78.3461C661.322 78.2671 662.594 77.5477 663.392 76.3855C663.597 76.0851 663.455 75.6028 663.147 75.4368C662.791 75.2471 662.42 75.3657 662.199 75.6819C662.175 75.7135 662.159 75.7451 662.136 75.7688C662.12 75.7847 662.064 75.8716 662.12 75.7847C662.183 75.6977 662.104 75.8005 662.088 75.8163C662.072 75.84 662.049 75.8637 662.033 75.8874C661.946 75.9902 661.851 76.0851 661.748 76.172C661.701 76.2195 661.646 76.259 661.598 76.3064C661.519 76.3697 661.559 76.3223 661.614 76.2906C661.59 76.3064 661.567 76.3302 661.543 76.346C661.432 76.425 661.306 76.5041 661.187 76.5752C661.132 76.6069 661.069 76.6385 661.014 76.6701C660.99 76.6859 660.958 76.6938 660.935 76.7096C660.911 76.7175 660.792 76.7729 660.895 76.7255C660.99 76.6859 660.895 76.7255 660.871 76.7255C660.84 76.7413 660.8 76.7492 660.769 76.765C660.705 76.7887 660.642 76.8045 660.579 76.8282C660.453 76.8678 660.318 76.8994 660.192 76.9231C660.16 76.9231 660.136 76.931 660.105 76.9389C660.018 76.9547 660.263 76.9231 660.136 76.9389C660.065 76.9389 659.986 76.9547 659.915 76.9547C659.552 76.9784 659.204 77.2551 659.228 77.6425C659.244 77.9983 659.536 78.3541 659.915 78.3303V78.3461Z" fill="#313131"/>
<path d="M665.224 87.4788L665.548 87.1546C665.619 87.0914 665.667 87.0202 665.691 86.9333C665.73 86.8542 665.754 86.7593 665.754 86.6645C665.754 86.5696 665.738 86.4826 665.691 86.3957C665.659 86.3087 665.612 86.2375 665.548 86.1743L665.406 86.0636C665.295 86.0004 665.185 85.9688 665.058 85.9688L664.877 85.9925C664.758 86.0241 664.655 86.0873 664.569 86.1743L664.245 86.4984C664.173 86.5617 664.126 86.6328 664.102 86.7198C664.063 86.7989 664.039 86.8937 664.039 86.9886C664.039 87.0835 664.055 87.1704 664.102 87.2574C664.134 87.3444 664.181 87.4155 664.245 87.4788L664.387 87.5894C664.497 87.6527 664.608 87.6843 664.734 87.6843L664.916 87.6606C665.035 87.629 665.137 87.5657 665.224 87.4788Z" fill="#313131"/>
<path d="M667.631 93.7937C668.524 93.7937 668.524 92.4102 667.631 92.4102C666.738 92.4102 666.738 93.7937 667.631 93.7937Z" fill="#313131"/>
</g>
<defs>
<clipPath id="clip0_3002_26838">
<rect width="328" height="227" fill="white" transform="translate(408)"/>
</clipPath>
</defs>
</svg>
