<svg width="266" height="6" viewBox="0 0 266 6" fill="none" xmlns="http://www.w3.org/2000/svg"
    preserveAspectRatio="none">
    <path
        d="M0.758235 0.923395C55.1827 0.923395 109.607 1 164.032 1C179.533 1 194.866 1 210.368 1C211.211 1 211.211 0.0808083 210.368 0.0808083C155.944 0.0808083 101.519 0.0042031 47.0948 0.0042031C31.5931 0.0042031 16.2599 0.0042031 0.758235 0.0042031C-0.252745 -0.0723974 -0.252745 0.923395 0.758235 0.923395Z"
        fill="#313131" />
    <path
        d="M128.481 4.64258C164.048 4.23477 199.724 4.33673 235.401 4.74454C245.5 4.84649 255.489 5.05039 265.588 5.15234C266.137 5.15234 266.137 3.92893 265.588 3.92893C230.022 3.31722 194.345 3.01135 158.779 3.21525C148.679 3.21525 138.69 3.31722 128.591 3.41917C127.822 3.31722 127.822 4.64258 128.481 4.64258Z"
        fill="#313131" />
</svg>