<svg xmlns="http://www.w3.org/2000/svg" width="588" height="11" viewBox="0 0 588 11" fill="none"
    preserveAspectRatio="none">
    <path
        d="M587.94 1.53998C583.988 8.20717 575.078 11.9615 566.887 10.1491C561.426 8.91921 557.618 4.84121 552.301 3.35242C547.127 1.92836 542.241 4.12918 537.858 6.39473C533.834 8.40136 529.595 10.8611 524.853 10.9906C519.751 11.1848 515.584 8.33663 511.273 6.39473C505.309 3.67607 500.207 4.51756 494.387 6.91257C489.861 8.78975 485.334 10.7964 480.16 10.2138C475.059 9.63124 470.46 7.30096 465.718 5.61797C459.539 3.48188 454.365 3.67607 448.33 6.07108C443.3 8.01298 438.558 10.0196 432.881 9.50178C427.78 9.04867 422.965 7.23623 418.151 5.61797C412.978 3.87026 407.445 2.05782 401.769 2.89931C396.308 3.67607 391.997 6.9773 387.183 9.11339C382.728 11.0553 378.345 11.3142 373.603 9.95489C368.573 8.46609 363.831 5.61797 358.442 5.22959C352.622 4.84121 348.526 9.04867 342.921 9.24286C337.892 9.43705 333.365 6.91257 328.91 5.29432C323.09 3.15823 318.204 3.54661 312.599 5.87689C308.216 7.6246 303.546 10.0196 298.588 9.11339C293.271 8.14244 289.607 3.99972 283.858 3.93499C278.901 3.87026 274.23 5.74743 269.632 7.17149C265.751 8.33663 261.512 9.56651 257.417 8.66028C252.531 7.6246 250.303 3.22296 245.848 1.73417C242.256 0.569029 239.453 3.02878 236.723 4.71176C234.567 6.07109 232.196 7.10677 229.681 7.75407C224.795 9.04867 219.478 8.9192 214.664 7.36568C209.203 5.55324 204.317 1.34579 198.21 1.47525C192.462 1.60471 188.15 5.81216 182.69 6.91257C171.84 9.04867 162.643 -0.466652 151.721 2.05782C146.691 3.22296 142.38 6.20054 137.35 7.23623C135.41 7.62461 133.47 7.68934 131.53 7.23623C128.656 6.52419 126.572 4.64702 123.986 3.48188C114.932 -0.660844 106.957 8.98393 98.0469 8.98393C93.0172 8.98393 90.4305 5.22959 86.1912 3.67607C80.443 1.53998 75.4851 6.26528 70.0961 7.10677C65.1383 7.88353 60.899 5.29432 56.3723 3.99972C53.3544 3.0935 50.5522 2.96405 47.6062 4.06446C45.0195 5.03541 42.7921 6.52419 40.2054 7.55988C38.1935 8.33664 36.0379 8.78975 33.8105 8.40137C31.4393 7.94826 29.4993 6.65365 27.2719 5.94162C23.6792 4.77648 21.1644 6.20054 17.8591 7.17149C15.488 7.88352 12.9731 8.01299 10.4583 7.62461C6.21899 6.91258 2.5545 4.71176 0.111511 1.47525C-0.247742 0.957413 0.327026 -0.337192 0.901855 0.439569C4.20709 4.90594 10.5302 7.30096 16.3502 6.00636C18.6495 5.48852 20.7333 4.19391 23.1763 3.93499C25.7629 3.61134 28.0623 4.64703 30.3615 5.68271C33.0201 6.84785 35.535 7.49514 38.4091 6.71838C41.0676 6.00635 43.295 4.45283 45.8099 3.35242C50.4084 1.28106 54.5041 1.86363 59.1745 3.54661C61.6893 4.45283 64.2042 5.55325 67.0065 5.81217C70.0243 6.07109 72.6829 5.10013 75.3414 3.99972C79.5807 2.25201 83.6045 0.698493 87.9875 3.09351C90.1431 4.25865 91.8676 5.94162 94.1668 6.84784C96.6099 7.88352 99.1966 7.75407 101.711 7.10677C106.023 6.00636 109.759 3.61134 113.926 2.18728C118.094 0.763217 121.974 0.827945 125.854 2.96404C128.153 4.25864 130.165 5.74743 132.967 6.07108C135.77 6.39473 138.5 5.61797 141.087 4.64702C145.613 2.96404 149.997 0.374843 155.026 0.180653C160.056 -0.0782675 164.87 1.92836 169.469 3.54661C175.073 5.48852 180.462 6.78312 186.21 4.38811C190.737 2.51093 194.905 -0.401918 200.15 0.180653C205.682 0.827953 209.994 4.32338 215.095 6.00636C220.7 7.88353 227.095 7.6246 232.555 5.42378C236.651 3.80553 240.675 -0.984488 245.633 0.180653C250.231 1.28106 252.531 5.8769 257.201 7.10677C266.398 9.56651 275.308 2.12255 284.505 2.51093C289.822 2.70512 293.271 6.26527 298.085 7.55988C303.618 9.04867 308.863 5.94163 313.749 4.06446C318.204 2.38147 322.443 1.86363 327.114 3.22296C332.072 4.64702 336.742 7.62461 342.059 7.94826C347.736 8.27191 351.975 3.99972 357.651 3.93499C362.609 3.93499 367.064 6.20054 371.519 7.81879C376.98 9.82542 381.866 10.2785 387.255 7.94826C391.853 5.94163 395.949 2.83459 401.122 1.7989C411.325 -0.142998 420.666 6.07108 430.294 7.88353C436.402 9.04867 441.504 7.6246 447.036 5.42378C451.85 3.48188 456.521 2.12255 461.838 3.22296C466.939 4.25864 471.538 6.78311 476.496 8.20718C482.388 9.89016 487.346 8.78974 492.806 6.52419C497.261 4.71175 501.932 2.64039 506.89 3.67607C511.991 4.71175 515.943 8.01298 520.829 9.43704C531.032 12.2852 538.361 2.76985 547.989 1.99309C553.235 1.60471 557.258 4.51756 561.426 6.84784C565.953 9.43704 570.911 10.408 576.228 9.17813C581.114 8.07772 585.281 5.22959 587.724 1.21633C587.724 0.439567 588.155 1.21633 587.94 1.53998Z"
        fill="#E6E3D6" />
</svg>