<svg xmlns="http://www.w3.org/2000/svg" width="269" height="5" viewBox="0 0 269 5" fill="none"
    preserveAspectRatio="none">
    <path
        d="M0.0276121 0.69999C1.83554 3.73053 5.9116 5.43705 9.65895 4.61322C12.1572 4.05419 13.8994 2.20055 16.3319 1.52383C18.6986 0.876527 20.9339 1.8769 22.939 2.9067C24.7798 3.8188 26.7192 4.93687 28.8888 4.99571C31.2226 5.08398 33.1292 3.78938 35.1015 2.9067C37.8298 1.67094 40.1637 2.05344 42.8262 3.14208C44.8972 3.99534 46.9681 4.90745 49.3348 4.64264C51.6687 4.37784 53.7724 3.31862 55.942 2.55362C58.7689 1.58267 61.1357 1.67094 63.8969 2.75958C66.1979 3.64227 68.3674 4.55437 70.9642 4.31899C73.2981 4.11303 75.5005 3.28919 77.7029 2.55362C80.0696 1.75921 82.6007 0.935374 85.1976 1.31787C87.6958 1.67094 89.6681 3.1715 91.8705 4.14245C93.9085 5.02513 95.9137 5.14283 98.0832 4.52495C100.384 3.84822 102.554 2.55362 105.019 2.37709C107.682 2.20055 109.555 4.11303 112.119 4.2013C114.42 4.28957 116.491 3.14208 118.529 2.40651C121.192 1.43556 123.427 1.61209 125.991 2.67131C127.996 3.46573 130.133 4.55437 132.401 4.14245C134.833 3.70111 136.51 1.81805 139.14 1.78863C141.408 1.75921 143.544 2.61247 145.648 3.25977C147.423 3.78938 149.363 4.34841 151.236 3.93649C153.472 3.46573 154.491 1.46498 156.529 0.788259C158.172 0.25865 159.454 1.37672 160.703 2.14171C161.689 2.75959 162.774 3.23035 163.925 3.52458C166.16 4.11303 168.592 4.05418 170.795 3.34804C173.293 2.5242 175.528 0.611724 178.322 0.67057C180.952 0.729415 182.924 2.64189 185.423 3.14208C190.386 4.11303 194.594 -0.212114 199.59 0.935373C201.891 1.46498 203.864 2.81843 206.165 3.28919C207.052 3.46573 207.94 3.49515 208.827 3.28919C210.142 2.96554 211.095 2.11228 212.279 1.58267C216.42 -0.300384 220.069 4.08361 224.145 4.08361C226.446 4.08361 227.63 2.37709 229.569 1.67094C232.199 0.699991 234.467 2.84785 236.932 3.23035C239.2 3.58342 241.14 2.40651 243.211 1.81806C244.591 1.40614 245.873 1.34729 247.221 1.84748C248.404 2.28882 249.423 2.96554 250.607 3.43631C251.527 3.78938 252.513 3.99534 253.532 3.8188C254.617 3.61284 255.505 3.02439 256.524 2.70074C258.167 2.17113 259.318 2.81843 260.83 3.25977C261.915 3.58342 263.065 3.64227 264.216 3.46573C266.155 3.14208 267.831 2.14171 268.949 0.67057C269.113 0.435188 268.85 -0.153269 268.587 0.199804C267.075 2.22997 264.183 3.31862 261.52 2.73016C260.468 2.49478 259.515 1.90632 258.397 1.78863C257.214 1.64152 256.162 2.11228 255.11 2.58305C253.894 3.11266 252.743 3.40688 251.429 3.05381C250.212 2.73016 249.193 2.02401 248.043 1.52383C245.939 0.5823 244.065 0.847106 241.929 1.6121C240.778 2.02402 239.628 2.5242 238.346 2.64189C236.965 2.75958 235.749 2.31824 234.533 1.81806C232.593 1.02364 230.752 0.317497 228.747 1.40614C227.761 1.93575 226.972 2.70074 225.92 3.11265C224.803 3.58342 223.619 3.52458 222.469 3.23035C220.496 2.73016 218.787 1.64152 216.881 0.994218C214.974 0.346917 213.199 0.376339 211.424 1.34729C210.372 1.93574 209.452 2.61247 208.17 2.75958C206.888 2.9067 205.639 2.55362 204.455 2.11228C202.384 1.34729 200.379 0.170383 198.078 0.0821149C195.777 -0.0355761 193.575 0.876528 191.471 1.6121C188.907 2.49478 186.442 3.08324 183.812 1.99459C181.741 1.14133 179.834 -0.18269 177.435 0.0821149C174.904 0.376342 172.931 1.96517 170.598 2.73016C168.034 3.58342 165.108 3.46573 162.61 2.46536C160.736 1.72979 158.895 -0.447495 156.627 0.0821149C154.523 0.582302 153.472 2.67132 151.335 3.23035C147.127 4.34841 143.051 0.964795 138.844 1.14133C136.411 1.2296 134.833 2.84785 132.631 3.43631C130.1 4.11303 127.7 2.70074 125.465 1.84748C123.427 1.08249 121.488 0.847106 119.351 1.46498C117.083 2.11228 114.946 3.46573 112.514 3.61285C109.917 3.75996 107.977 1.81805 105.381 1.78863C103.113 1.78863 101.074 2.81843 99.0365 3.554C96.5382 4.4661 94.303 4.67206 91.8376 3.61285C89.7338 2.70074 87.8602 1.28845 85.4934 0.817684C80.8257 -0.0649989 76.5524 2.75958 72.1476 3.58342C69.3535 4.11303 67.0196 3.46573 64.4885 2.46536C62.2862 1.58267 60.1495 0.964796 57.717 1.46498C55.3831 1.93575 53.2794 3.08323 51.0112 3.73053C48.3158 4.49553 46.0477 3.99534 43.5494 2.96554C41.5114 2.1417 39.3747 1.20018 37.1066 1.67094C34.7727 2.14171 32.9648 3.64226 30.7296 4.28957C26.0618 5.58417 22.7089 1.25902 18.3041 0.905948C15.9045 0.729412 14.0637 2.05344 12.1572 3.11265C10.0863 4.28957 7.81815 4.73091 5.38566 4.17188C3.1504 3.67169 1.24386 2.37709 0.126226 0.552876C0.126226 0.199803 -0.0710023 0.552876 0.0276121 0.69999Z"
        fill="#313131" />
</svg>