<svg width="243" height="6" viewBox="0 0 243 6" fill="none" xmlns="http://www.w3.org/2000/svg"
    preserveAspectRatio="none">
    <path
        d="M0.499501 0.923395C36.3526 0.923395 72.2056 1 108.059 1C118.271 1 128.372 1 138.584 1C139.139 1 139.139 0.0808083 138.584 0.0808083C102.731 0.0808083 66.8776 0.0042031 31.0246 0.0042031C20.8125 0.0042031 10.7115 0.0042031 0.499501 0.0042031C-0.1665 -0.0723974 -0.1665 0.923395 0.499501 0.923395Z"
        fill="#E6E3D6" />
    <path
        d="M117.45 4.80545C149.85 4.40545 182.35 4.50545 214.85 4.90545C224.05 5.00545 233.15 5.20545 242.35 5.30545C242.85 5.30545 242.85 4.10547 242.35 4.10547C209.95 3.50547 177.45 3.20545 145.05 3.40545C135.85 3.40545 126.75 3.50547 117.55 3.60547C116.85 3.50547 116.85 4.80545 117.45 4.80545Z"
        fill="#E6E3D6" />
</svg>