<svg width="255" height="40" viewBox="0 0 255 40" fill="none" xmlns="http://www.w3.org/2000/svg">
<g clip-path="url(#clip0_1676_30093)">
<path d="M14.893 14.6894C16.0166 9.95054 17.4754 5.31138 19.2694 0.780946L18.2365 0.916859C20.2027 5.13016 21.9061 9.46126 23.3378 13.883C23.4102 14.1004 23.6277 14.3269 23.8814 14.2998C28.8377 13.8286 33.8121 13.6474 38.7865 13.7561L38.3879 12.7866C36.5666 14.6984 34.5914 16.4562 32.4439 17.9875C31.4291 18.7124 30.3871 19.392 29.3089 20.0172C28.4843 20.4974 27.4604 20.9323 26.9621 21.8022C26.4638 22.672 26.7537 23.6053 27.0346 24.4751C27.4604 25.7889 27.9044 27.0937 28.3575 28.3985C29.3089 31.1439 30.3146 33.8712 31.3566 36.5804L32.1902 35.9371C29.9159 34.5327 27.6326 33.1192 25.3583 31.7147C24.2167 31.008 23.084 30.3103 21.9424 29.6036C21.1178 29.0962 20.1574 28.2444 19.1244 28.4981C18.1731 28.7247 17.2942 29.667 16.5421 30.2469C15.5907 30.9808 14.6484 31.7329 13.7151 32.503C11.7308 34.1431 9.81894 35.8556 7.9524 37.6315L8.89473 38.1842C9.89142 32.9651 11.3049 27.8458 13.1262 22.8532C13.2349 22.5452 12.9993 22.2643 12.7275 22.1555C8.48699 20.5065 4.49115 18.2956 0.821495 15.5955L0.685582 16.6284C5.2885 15.6136 9.98203 15.3418 14.6756 15.8039C15.4004 15.8764 15.3914 14.7437 14.6756 14.6713C9.89142 14.2092 5.0801 14.5082 0.386573 15.5411C-0.138957 15.6589 -0.111775 16.3113 0.25066 16.574C4.00186 19.3285 8.08831 21.5575 12.4285 23.2519L12.0298 22.5542C10.2086 27.5467 8.79506 32.6661 7.79836 37.8852C7.69869 38.4289 8.31483 38.8456 8.74069 38.4379C10.3535 36.9066 12.0026 35.4116 13.697 33.98C14.5487 33.2642 15.4095 32.5574 16.2793 31.8688C17.0948 31.2255 18.0009 30.2831 18.9523 29.8301C20.0124 29.3317 21.6071 30.7452 22.4951 31.2889C23.5099 31.9141 24.5157 32.5393 25.5305 33.1645C27.5511 34.4149 29.5807 35.6653 31.6013 36.9247C31.9909 37.1694 32.6161 36.7526 32.4349 36.2814C31.5197 33.9075 30.6408 31.5245 29.7982 29.1324C29.3904 27.9636 28.9917 26.8038 28.5931 25.6258C28.1672 24.3573 27.2158 22.6539 28.6293 21.7206C30.4505 20.5065 32.3533 19.4916 34.1021 18.1506C35.8508 16.8096 37.5996 15.2421 39.1671 13.584C39.5114 13.2306 39.2577 12.6235 38.7684 12.6144C33.794 12.5057 28.8196 12.6869 23.8633 13.1581L24.4069 13.5749C22.9391 9.06258 21.1994 4.64088 19.1879 0.336963C18.9614 -0.152323 18.309 0.0741982 18.1549 0.472876C16.3609 5.00331 14.9021 9.64248 13.7785 14.3813C13.6064 15.0881 14.7027 15.3961 14.8749 14.6803L14.893 14.6894Z" fill="#E6E3D6"/>
</g>
<g clip-path="url(#clip1_1676_30093)">
<path d="M230.541 14.6894C231.665 9.95054 233.124 5.31138 234.918 0.780946L233.885 0.916859C235.851 5.13016 237.555 9.46126 238.986 13.883C239.059 14.1004 239.276 14.3269 239.53 14.2998C244.486 13.8286 249.461 13.6474 254.435 13.7561L254.036 12.7866C252.215 14.6984 250.24 16.4562 248.092 17.9875C247.078 18.7124 246.036 19.392 244.957 20.0172C244.133 20.4974 243.109 20.9323 242.611 21.8022C242.112 22.672 242.402 23.6053 242.683 24.4751C243.109 25.7889 243.553 27.0937 244.006 28.3985C244.957 31.1439 245.963 33.8712 247.005 36.5804L247.839 35.9371C245.564 34.5327 243.281 33.1192 241.007 31.7147C239.865 31.008 238.732 30.3103 237.591 29.6036C236.766 29.0962 235.806 28.2444 234.773 28.4981C233.821 28.7247 232.943 29.667 232.191 30.2469C231.239 30.9808 230.297 31.7329 229.364 32.503C227.379 34.1431 225.467 35.8556 223.601 37.6315L224.543 38.1842C225.54 32.9651 226.953 27.8458 228.775 22.8532C228.883 22.5452 228.648 22.2643 228.376 22.1555C224.135 20.5065 220.14 18.2956 216.47 15.5955L216.334 16.6284C220.937 15.6136 225.63 15.3418 230.324 15.8039C231.049 15.8764 231.04 14.7437 230.324 14.6713C225.54 14.2092 220.729 14.5082 216.035 15.5411C215.509 15.6589 215.537 16.3113 215.899 16.574C219.65 19.3285 223.737 21.5575 228.077 23.2519L227.678 22.5542C225.857 27.5467 224.443 32.6661 223.447 37.8852C223.347 38.4289 223.963 38.8456 224.389 38.4379C226.002 36.9066 227.651 35.4116 229.345 33.98C230.197 33.2642 231.058 32.5574 231.928 31.8688C232.743 31.2255 233.649 30.2831 234.601 29.8301C235.661 29.3317 237.256 30.7452 238.144 31.2889C239.158 31.9141 240.164 32.5393 241.179 33.1645C243.199 34.4149 245.229 35.6653 247.25 36.9247C247.639 37.1694 248.265 36.7526 248.083 36.2814C247.168 33.9075 246.289 31.5245 245.447 29.1324C245.039 27.9636 244.64 26.8038 244.241 25.6258C243.816 24.3573 242.864 22.6539 244.278 21.7206C246.099 20.5065 248.002 19.4916 249.75 18.1506C251.499 16.8096 253.248 15.2421 254.816 13.584C255.16 13.2306 254.906 12.6235 254.417 12.6144C249.442 12.5057 244.468 12.6869 239.512 13.1581L240.055 13.5749C238.588 9.06258 236.848 4.64088 234.836 0.336963C234.61 -0.152323 233.957 0.0741982 233.803 0.472876C232.009 5.00331 230.551 9.64248 229.427 14.3813C229.255 15.0881 230.351 15.3961 230.523 14.6803L230.541 14.6894Z" fill="#E6E3D6"/>
</g>
<path d="M78.2619 14.8576C83.1221 14.5462 87.9851 14.5846 92.8421 14.9754L92.4101 14.0274C88.9559 17.1397 85.3123 20.0352 81.5025 22.6973C81.3158 22.8302 81.1627 23.1044 81.2629 23.3391C83.1629 27.941 84.7908 32.6449 86.1415 37.4337L86.9521 36.7689C84.5912 35.5864 82.3326 34.2115 80.2403 32.6057C79.2504 31.8473 78.2958 31.0495 77.3826 30.2013C76.6823 29.5532 75.9669 28.7013 74.9894 28.4791C74.0118 28.2569 73.2041 28.8071 72.4545 29.33C71.3226 30.1215 70.2047 30.9276 69.0895 31.7424C66.7423 33.4551 64.4283 35.2144 62.1422 37.0031L63.0012 37.6121C63.6791 35.0266 64.3631 32.4297 65.0411 29.8441C65.3831 28.5457 65.7191 27.2586 66.0611 25.9601C66.3052 25.0233 66.8388 23.8557 66.2941 22.9421C65.7993 22.0986 64.6411 21.5337 63.8667 20.9841C62.8866 20.2889 61.8919 19.6077 60.8824 18.9404C58.7338 17.5224 56.5371 16.1949 54.293 14.9293L54.04 15.9921C59.3224 15.419 64.6313 15.2736 69.9382 15.5553C70.2646 15.5692 70.4643 15.2618 70.4888 14.97C70.8257 10.4327 71.7714 5.96497 73.2804 1.66612L72.2529 1.83822C74.5694 5.94316 76.2019 10.352 77.1325 14.9755C77.2752 15.6899 78.3556 15.35 78.2156 14.6443C77.2585 9.93417 75.5656 5.42061 73.2052 1.23432C72.9389 0.766204 72.323 0.982975 72.1777 1.40641C70.6406 5.79913 69.704 10.3588 69.3529 15.0047L69.9035 14.4194C64.5966 14.1378 59.2877 14.2831 54.0053 14.8562C53.4563 14.9199 53.2379 15.631 53.7523 15.919C55.6883 17.0135 57.6002 18.1533 59.4648 19.355C60.3984 19.9601 61.3259 20.5766 62.2388 21.2071C63.0925 21.7988 64.2586 22.3897 64.9701 23.167C65.7566 24.0351 64.8713 25.9734 64.6111 26.9815C64.3099 28.1348 64.0062 29.2794 63.7051 30.4327C63.1002 32.7306 62.498 35.0372 61.8845 37.3377C61.7645 37.7819 62.3459 38.2579 62.7435 37.9468C64.746 36.3774 66.7678 34.8401 68.8089 33.3347C69.8074 32.603 70.7999 31.8826 71.8098 31.1569C72.8983 30.3787 74.2491 28.9707 75.5549 30.0495C77.2486 31.4361 78.7755 32.9589 80.5692 34.2391C82.363 35.5192 84.3734 36.7332 86.4175 37.7473C86.8561 37.9732 87.3624 37.5531 87.228 37.0825C85.8773 32.2937 84.2493 27.5898 82.3494 22.9879L82.1098 23.6297C85.9956 20.9064 89.7153 17.9498 93.2428 14.7676C93.6445 14.4079 93.2371 13.8503 92.8108 13.8195C87.9538 13.4288 83.0908 13.3904 78.2306 13.7017C77.5044 13.7438 77.5304 14.8823 78.2652 14.8376L78.2619 14.8576Z" fill="#E6E3D6"/>
<path d="M135.009 23.2518C136.938 27.7235 138.539 32.3156 139.806 37.0207L140.553 36.2947C136.46 34.0899 132.507 31.6337 128.718 28.9425C128.53 28.8114 128.22 28.7596 128.033 28.9329C124.339 32.2712 120.458 35.3877 116.403 38.2716L117.302 38.8111C117.621 36.1899 118.155 33.6003 118.963 31.0896C119.344 29.9021 119.773 28.7346 120.265 27.5892C120.639 26.7116 121.201 25.7512 121.081 24.7559C120.961 23.7606 120.171 23.1853 119.426 22.6554C118.3 21.856 117.164 21.0748 116.022 20.2989C113.619 18.6653 111.183 17.0786 108.729 15.5282L108.445 16.542C111.108 16.31 113.783 16.0798 116.446 15.8478C117.784 15.7327 119.109 15.6158 120.447 15.5007C121.411 15.4152 122.69 15.5246 123.367 14.7042C123.995 13.9543 124.137 12.6735 124.394 11.7592C124.719 10.6024 125.025 9.43634 125.314 8.26121C125.926 5.76066 126.436 3.24526 126.872 0.706053L125.786 0.825608C128.104 5.60674 130.028 10.5569 131.55 15.6488C131.647 15.9609 132.003 16.0454 132.286 15.9703C136.672 14.7601 141.197 14.1465 145.753 14.1203L145.245 13.2107C142.16 16.7738 138.558 19.7953 134.518 22.228C133.893 22.6029 134.577 23.5058 135.194 23.1364C139.307 20.6495 142.987 17.5359 146.135 13.9041C146.486 13.4957 146.074 12.9887 145.627 12.9945C140.973 13.0259 136.364 13.679 131.871 14.9124L132.608 15.2338C131.086 10.1418 129.162 5.1917 126.844 0.410571C126.599 -0.0849835 125.856 -0.0512509 125.758 0.530129C125.379 2.72159 124.95 4.90563 124.446 7.06586C124.19 8.14868 123.922 9.22965 123.636 10.3015C123.366 11.3045 123.202 12.6015 122.71 13.5331C122.157 14.566 120.034 14.3848 118.997 14.4792C117.81 14.5839 116.63 14.6832 115.442 14.7879C113.075 14.9919 110.7 15.2014 108.327 15.3981C107.869 15.4346 107.616 16.1423 108.043 16.412C110.195 17.7693 112.323 19.1556 114.428 20.5708C115.453 21.2647 116.466 21.9568 117.489 22.6634C118.588 23.4264 120.369 24.2243 119.792 25.8171C119.057 27.8787 118.137 29.8291 117.535 31.9491C116.934 34.0692 116.467 36.3709 116.201 38.637C116.136 39.1261 116.702 39.4614 117.1 39.1765C121.154 36.2925 125.035 33.176 128.729 29.8378L128.044 29.8282C131.917 32.5704 135.953 35.0777 140.137 37.328C140.611 37.5852 140.999 37.0138 140.884 36.6021C139.617 31.897 138.016 27.3049 136.087 22.8332C135.803 22.1635 134.739 22.5713 135.029 23.2482L135.009 23.2518Z" fill="#E6E3D6"/>
<path d="M180.377 29.12C176.508 32.0786 172.443 34.7479 168.188 37.1209L169.073 37.6693C170.217 33.1625 171.638 28.7309 173.327 24.401C173.409 24.1868 173.384 23.8738 173.17 23.7343C169.034 20.9631 165.067 17.9558 161.284 14.7241L160.98 15.7271C163.6 15.399 166.241 15.2877 168.873 15.4607C170.118 15.5415 171.355 15.6746 172.585 15.8728C173.527 16.0226 174.595 16.3337 175.532 15.9754C176.468 15.6172 176.834 14.7111 177.167 13.8598C177.668 12.5729 178.15 11.2816 178.625 9.98462C179.625 7.25667 180.572 4.50836 181.48 1.75114L180.427 1.72185C181.3 4.24843 182.173 6.78775 183.046 9.31433C183.483 10.584 183.918 11.8409 184.355 13.1106C184.673 14.0252 184.877 15.2925 185.838 15.7496C186.718 16.1762 187.995 16.0026 188.944 16.0294C190.145 16.0631 191.351 16.077 192.561 16.0711C195.135 16.0567 197.699 15.9404 200.268 15.7462L199.888 14.7219C195.814 18.1327 191.48 21.2026 186.911 23.9162C186.632 24.086 186.636 24.4525 186.778 24.7087C189.018 28.6689 190.714 32.9092 191.847 37.322L192.606 36.6082C188.399 34.4815 184.593 31.7222 181.251 28.3945C180.735 27.8798 180.025 28.7625 180.534 29.2716C183.946 32.6566 187.861 35.4694 192.149 37.6393C192.631 37.8807 193.022 37.3583 192.908 36.9255C191.746 32.4189 189.992 28.1072 187.703 24.0489L187.571 24.8415C192.14 22.1278 196.474 19.058 200.548 15.6472C200.969 15.2893 200.756 14.5767 200.168 14.623C197.95 14.7882 195.727 14.9025 193.509 14.9389C192.397 14.9543 191.283 14.9569 190.174 14.9398C189.135 14.9219 187.837 15.0783 186.814 14.8271C185.678 14.5422 185.337 12.4386 184.994 11.4558C184.603 10.3296 184.22 9.20904 183.83 8.08278C183.056 5.83601 182.276 3.58351 181.508 1.32972C181.361 0.893752 180.613 0.820911 180.456 1.30043C179.662 3.71777 178.835 6.11919 177.974 8.5047C177.55 9.66781 177.125 10.8182 176.688 11.9826C176.215 13.2343 175.874 15.1554 174.189 14.9837C172.011 14.7715 169.895 14.3533 167.692 14.2852C165.49 14.2172 163.144 14.3245 160.881 14.6166C160.39 14.6724 160.203 15.303 160.576 15.6196C164.359 18.8514 168.326 21.8586 172.462 24.6298L172.305 23.9631C170.586 28.386 169.135 32.9108 167.97 37.5163C167.836 38.0385 168.484 38.2759 168.856 38.0647C173.111 35.6917 177.177 33.0223 181.045 30.0637C181.626 29.6254 180.971 28.6931 180.385 29.1384L180.377 29.12Z" fill="#E6E3D6"/>
<defs>
<clipPath id="clip0_1676_30093">
<rect width="39.3513" height="38.5359" fill="white" transform="translate(0 0.0644531)"/>
</clipPath>
<clipPath id="clip1_1676_30093">
<rect width="39.3513" height="38.5359" fill="white" transform="translate(215.648 0.0644531)"/>
</clipPath>
</defs>
</svg>
