<svg width="527" height="11" viewBox="0 0 527 11" fill="none" xmlns="http://www.w3.org/2000/svg" preserveAspectRation="none">
<path d="M0.054095 1.53998C3.59603 8.20717 11.5815 11.9615 18.9229 10.1491C23.8172 8.91921 27.2304 4.84121 31.9959 3.35242C36.6326 1.92836 41.0117 4.12918 44.94 6.39473C48.5463 8.40136 52.3459 10.8611 56.5962 10.9906C61.1685 11.1848 64.9036 8.33663 68.7675 6.39473C74.1126 3.67607 78.6849 4.51756 83.9012 6.91257C87.9584 8.78975 92.0155 10.7964 96.6522 10.2138C101.225 9.63124 105.346 7.30096 109.596 5.61797C115.135 3.48188 119.771 3.67607 125.181 6.07108C129.689 8.01298 133.939 10.0196 139.027 9.50178C143.599 9.04867 147.914 7.23623 152.228 5.61797C156.865 3.87026 161.824 2.05782 166.911 2.89931C171.806 3.67607 175.669 6.9773 179.984 9.11339C183.977 11.0553 187.905 11.3142 192.156 9.95489C196.663 8.46609 200.914 5.61797 205.744 5.22959C210.96 4.84121 214.631 9.04867 219.654 9.24286C224.162 9.43705 228.219 6.91257 232.212 5.29432C237.428 3.15823 241.807 3.54661 246.83 5.87689C250.758 7.6246 254.944 10.0196 259.388 9.11339C264.153 8.14244 267.438 3.99972 272.59 3.93499C277.033 3.87026 281.219 5.74743 285.34 7.17149C288.818 8.33663 292.618 9.56651 296.288 8.66028C300.667 7.6246 302.664 3.22296 306.656 1.73417C309.876 0.569029 312.388 3.02878 314.835 4.71176C316.767 6.07109 318.892 7.10677 321.146 7.75407C325.525 9.04867 330.291 8.9192 334.605 7.36568C339.5 5.55324 343.879 1.34579 349.353 1.47525C354.505 1.60471 358.369 5.81216 363.263 6.91257C372.987 9.04867 381.23 -0.466652 391.019 2.05782C395.527 3.22296 399.391 6.20054 403.898 7.23623C405.637 7.62461 407.376 7.68934 409.115 7.23623C411.691 6.52419 413.558 4.64702 415.877 3.48188C423.991 -0.660844 431.139 8.98393 439.125 8.98393C443.633 8.98393 445.951 5.22959 449.75 3.67607C454.902 1.53998 459.346 6.26528 464.176 7.10677C468.619 7.88353 472.419 5.29432 476.476 3.99972C479.181 3.0935 481.692 2.96405 484.333 4.06446C486.651 5.03541 488.647 6.52419 490.966 7.55988C492.769 8.33664 494.701 8.78975 496.697 8.40137C498.822 7.94826 500.561 6.65365 502.557 5.94162C505.777 4.77648 508.031 6.20054 510.994 7.17149C513.119 7.88352 515.373 8.01299 517.627 7.62461C521.426 6.91258 524.711 4.71176 526.9 1.47525C527.222 0.957413 526.707 -0.337192 526.192 0.439569C523.229 4.90594 517.562 7.30096 512.346 6.00636C510.285 5.48852 508.418 4.19391 506.228 3.93499C503.91 3.61134 501.849 4.64703 499.788 5.68271C497.405 6.84785 495.152 7.49514 492.576 6.71838C490.193 6.00635 488.196 4.45283 485.943 3.35242C481.821 1.28106 478.15 1.86363 473.964 3.54661C471.71 4.45283 469.456 5.55325 466.945 5.81217C464.24 6.07109 461.857 5.10013 459.475 3.99972C455.675 2.25201 452.069 0.698493 448.14 3.09351C446.208 4.25865 444.663 5.94162 442.602 6.84784C440.413 7.88352 438.094 7.75407 435.84 7.10677C431.976 6.00636 428.628 3.61134 424.893 2.18728C421.157 0.763217 417.68 0.827945 414.202 2.96404C412.142 4.25864 410.338 5.74743 407.827 6.07108C405.315 6.39473 402.868 5.61797 400.55 4.64702C396.493 2.96404 392.564 0.374843 388.056 0.180653C383.549 -0.0782675 379.234 1.92836 375.112 3.54661C370.089 5.48852 365.259 6.78312 360.107 4.38811C356.05 2.51093 352.315 -0.401918 347.614 0.180653C342.655 0.827953 338.791 4.32338 334.219 6.00636C329.196 7.88353 323.465 7.6246 318.57 5.42378C314.899 3.80553 311.293 -0.984488 306.85 0.180653C302.728 1.28106 300.667 5.8769 296.481 7.10677C288.238 9.56651 280.253 2.12255 272.01 2.51093C267.244 2.70512 264.153 6.26527 259.839 7.55988C254.88 9.04867 250.179 5.94163 245.8 4.06446C241.807 2.38147 238.007 1.86363 233.821 3.22296C229.378 4.64702 225.192 7.62461 220.427 7.94826C215.339 8.27191 211.54 3.99972 206.452 3.93499C202.009 3.93499 198.016 6.20054 194.023 7.81879C189.129 9.82542 184.75 10.2785 179.92 7.94826C175.798 5.94163 172.128 2.83459 167.491 1.7989C158.346 -0.142998 149.974 6.07108 141.345 7.88353C135.871 9.04867 131.299 7.6246 126.34 5.42378C122.025 3.48188 117.839 2.12255 113.074 3.22296C108.502 4.25864 104.38 6.78311 99.9365 8.20718C94.6558 9.89016 90.2123 8.78974 85.318 6.52419C81.3253 4.71175 77.1394 2.64039 72.6959 3.67607C68.1236 4.71175 64.5816 8.01298 60.2025 9.43704C51.0579 12.2852 44.4892 2.76985 35.8598 1.99309C31.1587 1.60471 27.5524 4.51756 23.8172 6.84784C19.7601 9.43704 15.3166 10.408 10.5511 9.17813C6.17197 8.07772 2.43685 5.22959 0.247291 1.21633C0.247291 0.439567 -0.139101 1.21633 0.054095 1.53998Z" fill="#E6E3D6"/>
</svg>
