<svg width="375" height="328" viewBox="0 0 375 328" fill="none" xmlns="http://www.w3.org/2000/svg">
    <path
        d="M327.703 0.799465C325.203 12.6995 326.503 25.5995 331.803 36.5995C334.403 41.9995 338.003 46.9995 342.503 50.9995C347.503 55.4995 353.503 58.6995 359.803 61.0995C367.003 63.8995 374.503 65.5995 382.103 67.1995C382.703 67.2995 382.803 66.0995 382.303 65.9995C369.703 62.8995 356.503 59.8995 345.903 51.9995C336.103 44.6995 330.103 33.4995 328.003 21.5995C326.803 14.7995 326.903 7.79947 328.103 0.899471C328.103 0.699471 327.803 0.499465 327.703 0.799465Z"
        fill="#E6E3D6" />
    <path
        d="M337.405 10.6986C335.605 19.0986 337.505 27.9986 342.205 35.1986C347.005 42.5986 354.905 47.4986 363.505 48.8986C368.505 49.6986 373.605 49.3986 378.305 47.7986C378.705 47.6986 378.605 46.6986 378.105 46.8986C370.005 49.1986 361.105 48.2986 353.605 44.2986C346.105 40.2986 340.605 33.1986 338.405 24.9986C337.105 20.3986 336.905 15.4986 337.705 10.7986C337.805 10.4986 337.505 10.2986 337.405 10.6986Z"
        fill="#E6E3D6" />
    <path
        d="M-3.79844 63.1992C-2.79844 63.7992 -2.49844 63.7992 -1.39844 63.7992C-0.598438 63.7992 0.201562 63.7992 1.00156 63.7992C2.90156 63.7992 4.90156 63.6992 6.80156 63.5992C10.4016 63.3992 14.0016 62.8992 17.6016 62.2992C24.2016 61.0992 31.0016 59.4992 37.0016 56.3992C47.8016 50.6992 53.7016 39.5992 56.1016 27.8992C57.7016 19.9992 57.8016 11.8992 57.8016 3.89922C57.8016 3.29922 57.2016 3.29922 57.1016 3.89922C56.6016 16.8992 56.5016 30.4992 49.8016 42.0992C46.8016 47.2992 42.7016 51.6992 37.4016 54.5992C31.7016 57.6992 25.3016 59.3992 18.9016 60.6992C15.1016 61.3992 11.3016 61.9992 7.40156 62.2992C5.50156 62.4992 3.50156 62.4992 1.60156 62.5992C0.601562 62.5992 -0.298437 62.5992 -1.29844 62.5992C-1.69844 62.5992 -2.09844 62.5992 -2.49844 62.5992C-3.09844 62.5992 -3.39844 62.7992 -3.89844 63.0992C-3.79844 63.0992 -3.79844 63.1992 -3.79844 63.1992Z"
        fill="#E6E3D6" />
    <path
        d="M5.30262 48.1977C12.8026 48.9977 20.8026 46.3977 27.0026 42.0977C33.4026 37.6977 38.1026 31.0977 40.3026 23.5977C41.5026 19.4977 42.0026 15.0977 41.7026 10.7977C41.6026 10.1977 41.0026 10.1977 41.0026 10.7977C41.4026 18.2977 39.4026 25.8977 35.2026 32.1977C31.1026 38.4977 24.8026 43.0977 17.8026 45.5977C13.7026 46.9977 9.60262 47.4977 5.30262 47.5977C5.00262 47.5977 5.10262 48.0977 5.30262 48.1977Z"
        fill="#E6E3D6" />
    <path
        d="M-1.50064 276.799C9.19936 272.899 20.9994 275.599 30.3994 281.399C40.2994 287.499 47.3994 297.099 52.8994 307.199C56.1994 313.199 58.9994 319.499 61.7994 325.699C62.1994 326.499 62.6994 325.599 62.4994 324.999C53.3994 303.999 41.0994 279.299 16.2994 274.599C10.1994 273.399 3.99936 273.799 -1.70064 276.099C-1.90064 276.299 -1.80064 276.899 -1.50064 276.799Z"
        fill="#E6E3D6" />
    <path
        d="M1.20301 289.698C8.40301 287.898 15.803 289.598 22.203 293.098C28.903 296.798 34.203 302.598 38.803 308.698C41.303 312.098 43.703 315.698 46.003 319.198C46.403 319.798 46.703 318.798 46.503 318.398C38.503 305.798 28.803 291.598 13.003 288.698C9.00301 287.998 5.00301 288.098 1.10301 289.198C0.803014 289.198 0.903014 289.698 1.20301 289.698Z"
        fill="#E6E3D6" />
    <path
        d="M323.002 327.199C322.302 323.299 323.102 319.599 324.102 315.799C324.902 312.799 325.902 309.799 327.102 306.899C329.402 301.099 332.402 295.599 336.102 290.499C343.502 280.199 353.802 272.099 365.802 267.899C372.602 265.499 379.802 264.599 387.002 264.799C387.502 264.799 387.502 263.599 387.002 263.599C373.902 262.299 360.402 267.099 349.902 274.799C339.502 282.399 331.702 293.299 326.802 305.099C325.402 308.499 324.202 311.999 323.302 315.499C322.302 319.299 321.302 323.499 322.502 327.399C322.602 327.999 323.002 327.599 323.002 327.199Z"
        fill="#E6E3D6" />
    <path
        d="M337.102 322.398C336.602 314.198 338.302 305.898 342.502 298.798C346.502 292.098 352.502 286.698 359.602 283.298C363.602 281.398 367.902 280.198 372.302 279.698C372.802 279.598 372.802 278.398 372.302 278.498C355.602 280.198 341.702 292.498 337.702 308.698C336.602 313.198 336.202 317.898 336.802 322.498C336.702 322.798 337.102 322.698 337.102 322.398Z"
        fill="#E6E3D6" />
</svg>