<svg width="722" height="496" viewBox="0 0 722 496" fill="none" xmlns="http://www.w3.org/2000/svg">
    <path
        d="M654.703 2.79946C652.203 14.6995 653.503 27.5995 658.803 38.5995C661.403 43.9995 665.003 48.9995 669.503 52.9995C674.503 57.4995 680.503 60.6995 686.803 63.0995C694.003 65.8995 701.503 67.5995 709.103 69.1995C709.703 69.2995 709.803 68.0995 709.303 67.9995C696.703 64.8995 683.503 61.8995 672.903 53.9995C663.103 46.6995 657.103 35.4995 655.003 23.5995C653.803 16.7995 653.903 9.79947 655.103 2.89947C655.103 2.69947 654.803 2.49946 654.703 2.79946Z"
        fill="#E6E3D6" />
    <path
        d="M664.405 12.6986C662.605 21.0986 664.505 29.9986 669.205 37.1986C674.005 44.5986 681.905 49.4986 690.505 50.8986C695.505 51.6986 700.605 51.3986 705.305 49.7986C705.705 49.6986 705.605 48.6986 705.105 48.8986C697.005 51.1986 688.105 50.2986 680.605 46.2986C673.105 42.2986 667.605 35.1986 665.405 26.9986C664.105 22.3986 663.905 17.4986 664.705 12.7986C664.805 12.4986 664.505 12.2986 664.405 12.6986Z"
        fill="#E6E3D6" />
    <path
        d="M0.201563 60.1992C1.20156 60.7992 1.50156 60.7992 2.60156 60.7992C3.40156 60.7992 4.20156 60.7992 5.00156 60.7992C6.90156 60.7992 8.90156 60.6992 10.8016 60.5992C14.4016 60.3992 18.0016 59.8992 21.6016 59.2992C28.2016 58.0992 35.0016 56.4992 41.0016 53.3992C51.8016 47.6992 57.7016 36.5992 60.1016 24.8992C61.7016 16.9992 61.8016 8.89922 61.8016 0.899219C61.8016 0.299219 61.2016 0.299219 61.1016 0.899219C60.6016 13.8992 60.5016 27.4992 53.8016 39.0992C50.8016 44.2992 46.7016 48.6992 41.4016 51.5992C35.7016 54.6992 29.3016 56.3992 22.9016 57.6992C19.1016 58.3992 15.3016 58.9992 11.4016 59.2992C9.50156 59.4992 7.50156 59.4992 5.60156 59.5992C4.60156 59.5992 3.70156 59.5992 2.70156 59.5992C2.30156 59.5992 1.90156 59.5992 1.50156 59.5992C0.901562 59.5992 0.601562 59.7992 0.101562 60.0992C0.201563 60.0992 0.201563 60.1992 0.201563 60.1992Z"
        fill="#E6E3D6" />
    <path
        d="M9.30262 45.1977C16.8026 45.9977 24.8026 43.3977 31.0026 39.0977C37.4026 34.6977 42.1026 28.0977 44.3026 20.5977C45.5026 16.4977 46.0026 12.0977 45.7026 7.79766C45.6026 7.19766 45.0026 7.19766 45.0026 7.79766C45.4026 15.2977 43.4026 22.8977 39.2026 29.1977C35.1026 35.4977 28.8026 40.0977 21.8026 42.5977C17.7026 43.9977 13.6026 44.4977 9.30262 44.5977C9.00262 44.5977 9.10262 45.0977 9.30262 45.1977Z"
        fill="#E6E3D6" />
    <path
        d="M2.49936 444.799C13.1994 440.899 24.9994 443.599 34.3994 449.399C44.2994 455.499 51.3994 465.099 56.8994 475.199C60.1994 481.199 62.9994 487.499 65.7994 493.699C66.1994 494.499 66.6994 493.599 66.4994 492.999C57.3994 471.999 45.0994 447.299 20.2994 442.599C14.1994 441.399 7.99936 441.799 2.29936 444.099C2.09936 444.299 2.19936 444.899 2.49936 444.799Z"
        fill="#E6E3D6" />
    <path
        d="M5.20301 457.698C12.403 455.898 19.803 457.598 26.203 461.098C32.903 464.798 38.203 470.598 42.803 476.698C45.303 480.098 47.703 483.698 50.003 487.198C50.403 487.798 50.703 486.798 50.503 486.398C42.503 473.798 32.803 459.598 17.003 456.698C13.003 455.998 9.00301 456.098 5.10301 457.198C4.80301 457.198 4.90301 457.698 5.20301 457.698Z"
        fill="#E6E3D6" />
    <path
        d="M657.002 495.199C656.302 491.299 657.102 487.599 658.102 483.799C658.902 480.799 659.902 477.799 661.102 474.899C663.402 469.099 666.402 463.599 670.102 458.499C677.502 448.199 687.802 440.099 699.802 435.899C706.602 433.499 713.802 432.599 721.002 432.799C721.502 432.799 721.502 431.599 721.002 431.599C707.902 430.299 694.402 435.099 683.902 442.799C673.502 450.399 665.702 461.299 660.802 473.099C659.402 476.499 658.202 479.999 657.302 483.499C656.302 487.299 655.302 491.499 656.502 495.399C656.602 495.999 657.002 495.599 657.002 495.199Z"
        fill="#E6E3D6" />
    <path
        d="M671.102 490.398C670.602 482.198 672.302 473.898 676.502 466.798C680.502 460.098 686.502 454.698 693.602 451.298C697.602 449.398 701.902 448.198 706.302 447.698C706.802 447.598 706.802 446.398 706.302 446.498C689.602 448.198 675.702 460.498 671.702 476.698C670.602 481.198 670.202 485.898 670.802 490.498C670.702 490.798 671.102 490.698 671.102 490.398Z"
        fill="#E6E3D6" />
</svg>