<svg width="658" height="347" viewBox="0 0 658 347" fill="none" xmlns="http://www.w3.org/2000/svg">
<g clip-path="url(#clip0_1574_10975)">
<path d="M1.92016 272.08C0.790159 271 1.19013 269.01 3.02013 267.81C4.68013 266.72 6.88013 266.37 8.64013 265.36C11.6401 263.62 13.8302 260.89 14.3502 258.31C14.5556 256.995 14.3822 255.65 13.8502 254.43C13.631 254.001 13.5536 253.513 13.6291 253.037C13.7045 252.561 13.929 252.121 14.2701 251.78C15.2101 250.94 16.5402 251.22 17.5502 251.28C18.3427 251.344 19.1396 251.233 19.8845 250.955C20.6293 250.677 21.3038 250.238 21.8602 249.67C23.3502 248.34 25.6001 247.67 27.2501 248.43C28.7001 249.11 28.7001 250.8 30.0001 251.64C31.4743 252.389 33.1425 252.668 34.7801 252.44C36.9881 252.222 39.1751 251.827 41.3201 251.26C43.3575 250.793 45.3619 250.191 47.3201 249.46C49.034 248.835 50.6502 247.97 52.1201 246.89C53.3326 245.943 54.2997 244.719 54.9401 243.32C55.8801 241.43 59.4801 241.2 61.4401 241.05C63.4001 240.9 65.6302 240.76 67.7302 240.59C72.3946 240.311 77.0274 239.642 81.5801 238.59C83.7793 238.04 85.9298 237.311 88.0101 236.41C89.9401 235.57 92.1901 234.53 93.4701 233.04C93.9401 232.48 93.0302 232.04 92.5502 232.56C91.2302 234.1 88.7201 235.15 86.7101 235.96C84.7077 236.765 82.6446 237.411 80.5402 237.89C76.2062 238.827 71.8065 239.429 67.3801 239.69C65.1501 239.86 62.9301 239.97 60.6901 240.19C58.7872 240.273 56.9233 240.757 55.2201 241.61C54.5802 241.979 54.0754 242.543 53.7801 243.22C53.3948 244.1 52.8527 244.904 52.1802 245.59C50.7011 246.91 48.979 247.929 47.1102 248.59C44.8081 249.46 42.4407 250.145 40.0301 250.64C37.8094 251.252 35.5135 251.548 33.2101 251.52C32.2684 251.514 31.3523 251.213 30.5901 250.66C30.0476 250.04 29.5902 249.351 29.2302 248.61C28.7878 248.083 28.2193 247.677 27.5776 247.428C26.936 247.18 26.242 247.098 25.5601 247.19C23.9988 247.274 22.5071 247.864 21.3101 248.87C20.3101 249.68 19.7001 250.36 18.3101 250.37C17.4058 250.29 16.4971 250.27 15.5901 250.31C14.8893 250.377 14.2215 250.64 13.6641 251.07C13.1067 251.5 12.6823 252.079 12.4401 252.74C11.9401 254.36 13.1102 255.6 13.1802 257.1C13.3502 260.45 10.0601 264.16 5.62011 265.75C3.55011 266.49 1.62011 267.22 0.62011 268.91C0.185111 269.476 -0.0336752 270.179 0.00298376 270.892C0.0396427 271.605 0.329355 272.281 0.820122 272.8C1.26012 273.23 2.36016 272.54 1.92016 272.11V272.08Z" fill="#313131"/>
<path d="M1.80976 272.92C2.60976 272.92 2.91976 271.92 2.11976 271.92C1.31976 271.92 1.00976 272.92 1.80976 272.92Z" fill="#313131"/>
<path d="M1.23971 273.081C4.52971 275.321 8.18967 277.421 11.0097 280.031C13.8297 282.641 15.3297 286.031 17.1297 289.111C18.0397 290.681 18.8697 292.311 19.8997 293.831C20.262 294.39 20.7969 294.816 21.4232 295.043C22.0495 295.27 22.733 295.287 23.3697 295.091C24.877 294.642 26.2126 293.745 27.1997 292.521C28.6024 290.931 29.7985 289.17 30.7597 287.281C31.5341 285.4 32.4121 283.564 33.3897 281.781C34.4922 280.135 35.8971 278.713 37.5297 277.591C41.2599 274.985 45.7567 273.707 50.2997 273.961C52.4978 274.222 54.6429 274.819 56.6597 275.731C58.2677 276.431 60.0656 276.565 61.7597 276.111C63.6997 275.511 65.2797 274.041 66.7597 272.921C68.6697 271.491 70.5397 270.041 72.4797 268.631C73.4737 267.777 74.6854 267.216 75.9797 267.011C76.9895 267.022 77.9658 267.374 78.7497 268.011C80.0748 268.937 81.6945 269.343 83.2997 269.151C86.8997 268.741 90.8797 265.851 94.2997 266.771C95.0197 266.961 95.5497 266.021 94.8397 265.841C91.9497 265.071 88.7697 266.661 85.8397 267.601C84.0597 268.171 82.2097 268.541 80.6997 267.851C79.3997 267.251 78.4697 266.201 76.7897 266.071C75.0596 266.074 73.383 266.671 72.0397 267.761C70.0997 269.111 68.2697 270.581 66.3897 271.981C64.7597 273.201 62.6997 275.251 60.3897 275.431C58.0797 275.611 56.3397 274.431 54.5197 273.781C47.5197 271.451 37.9797 274.401 33.1597 280.211C32.0549 281.609 31.1682 283.167 30.5297 284.831C29.7127 286.842 28.6586 288.749 27.3897 290.511C26.5097 291.701 24.2397 294.871 22.0497 294.161C21.1297 293.871 20.7997 292.931 20.4197 292.291L18.9297 289.751C16.9297 286.351 15.3497 282.601 12.3997 279.751C9.44968 276.901 5.54971 274.671 2.04971 272.291C1.51971 271.931 0.629692 272.771 1.15969 273.131L1.23971 273.081Z" fill="#313131"/>
<path d="M94.26 266.82C98.36 269.43 104.41 268.76 109.87 268.47C112.58 268.32 115.87 268.14 117.6 269.79C119.66 271.79 117.04 274.48 114.73 276.13C113.32 277.13 110.73 278.69 111.38 280.26C111.67 280.95 112.73 281.1 113.56 281.26C115.02 281.61 116.5 281.93 118 282.26C123.746 283.314 129.569 283.892 135.41 283.99C140.82 284.09 148.02 284.37 152.09 280.44C152.62 279.92 151.61 279.44 151.09 279.96C147.31 283.61 140.09 283.13 135.09 283.02C129.367 282.901 123.664 282.305 118.04 281.24C116.7 280.98 115.37 280.7 114.04 280.38C113.45 280.24 112.53 280.19 112.54 279.59C112.55 278.99 113.43 278.28 113.99 277.85C115.8 276.46 117.81 275.27 118.88 273.47C119.81 271.9 119.8 270.18 118.47 269.02C117.14 267.86 115.05 267.48 112.96 267.44C106.85 267.33 99.79 269.03 95.04 266.01C94.47 265.65 93.66 266.49 94.22 266.84L94.26 266.82Z" fill="#313131"/>
<path d="M152.33 280.261C158.75 275.561 165.113 270.864 171.42 266.171C177.11 261.901 182.74 257.401 189.47 254.271C192.752 252.701 196.24 251.604 199.83 251.011C203.713 250.456 207.667 250.646 211.48 251.571C214.58 252.251 218.2 252.941 220.48 254.791C222.96 256.791 222.64 259.791 222.31 262.541C221.88 265.991 221.05 269.541 221.22 273.011C221.226 274.433 221.661 275.821 222.467 276.993C223.273 278.165 224.414 279.066 225.74 279.581C226.44 279.851 227.14 279.021 226.45 278.741C222.9 277.341 222.3 274.101 222.5 271.211C222.73 267.961 223.34 264.701 223.67 261.451C223.91 259.011 223.82 256.451 221.88 254.521C219.94 252.591 216.78 251.801 213.88 251.101C210.253 250.089 206.494 249.63 202.73 249.741C199.158 249.992 195.644 250.771 192.3 252.051C185.24 254.671 179.3 258.981 173.65 263.261C166.363 268.694 159.006 274.134 151.58 279.581C150.95 280.041 151.73 280.711 152.35 280.261H152.33Z" fill="#313131"/>
<path d="M225.54 279.611C232.033 284.091 238.787 288.401 245.8 292.541C247.392 293.549 249.065 294.425 250.8 295.161C252.595 295.822 254.473 296.233 256.38 296.381C261.04 296.831 265.78 296.571 270.48 296.711C275.658 296.78 280.779 297.797 285.59 299.711C286.31 300.011 286.98 299.171 286.26 298.881C282.571 297.366 278.679 296.402 274.71 296.021C270.11 295.571 265.44 295.801 260.81 295.681C258.478 295.686 256.151 295.472 253.86 295.041C251.903 294.588 250.032 293.822 248.32 292.771C244.73 290.721 241.24 288.581 237.8 286.421C233.953 283.981 230.187 281.488 226.5 278.941C225.93 278.541 224.98 279.231 225.56 279.631L225.54 279.611Z" fill="#313131"/>
<path d="M285.9 299.979L318.21 300.309L317.59 299.969C318.93 303.429 322.09 306.459 324.67 309.469C326.1 311.129 327.52 312.799 328.98 314.469C330.019 315.759 331.287 316.847 332.72 317.679C336.44 319.679 340.57 318.159 343.65 316.299C345.4 315.049 347.328 314.068 349.37 313.389C351.928 312.868 354.583 313.09 357.02 314.029C359.359 314.842 361.605 315.902 363.72 317.189C365.72 318.419 367.58 319.939 367.94 321.889C368.05 322.499 369.36 322.499 369.25 321.889C368.7 318.889 365.45 316.829 362.25 315.189C358.57 313.319 353.92 311.409 349.4 312.379C344.88 313.349 342.61 316.699 338.18 317.539C332.8 318.539 329.91 313.729 327.58 311.049C325.95 309.149 324.31 307.249 322.69 305.349C321.108 303.696 319.813 301.789 318.86 299.709C318.797 299.599 318.705 299.507 318.594 299.446C318.483 299.384 318.357 299.354 318.23 299.359L285.95 299.029C285.13 299.029 285.1 299.979 285.95 300.029L285.9 299.979Z" fill="#313131"/>
<path d="M369.31 322.511C371.79 320.391 374.31 318.131 375.02 315.281C375.8 312.151 374.63 308.971 374.25 305.821C373.952 302.617 374.614 299.398 376.15 296.571C377.556 293.627 379.371 290.897 381.54 288.461C383.91 285.881 387.93 284.861 391.33 283.261C394.427 281.804 397.366 280.031 400.1 277.971C401.393 276.983 402.629 275.921 403.8 274.791C404.279 274.273 404.808 273.804 405.38 273.391C405.882 273.09 406.451 272.919 407.036 272.893C407.621 272.866 408.203 272.986 408.73 273.241C410.471 273.85 412.11 274.719 413.59 275.821C414.833 276.833 415.996 277.94 417.07 279.131C418.063 280.241 419.366 281.028 420.81 281.391C422.81 281.801 424.48 280.911 426.32 280.601C430.95 279.831 435.7 282.381 439.44 284.471C440.12 284.851 440.93 284.171 440.24 283.791C437.04 282.001 433.52 280.101 429.63 279.621C427.852 279.406 426.048 279.556 424.33 280.061C422.33 280.621 420.64 280.761 418.93 279.401C417.66 278.401 416.77 277.131 415.56 276.071C414.218 274.903 412.72 273.927 411.11 273.171C409.672 272.333 408.033 271.905 406.37 271.931C405.037 272.209 403.84 272.936 402.98 273.991C400.398 276.486 397.52 278.656 394.41 280.451C392.834 281.361 391.212 282.189 389.55 282.931C387.76 283.721 385.86 284.371 384.12 285.221C380.81 286.871 379.06 289.511 377.33 292.141C375.462 294.77 374.074 297.708 373.23 300.821C372.38 304.491 373.56 308.011 373.92 311.691C374.195 313.681 373.756 315.704 372.68 317.401C371.441 319.07 369.981 320.564 368.34 321.841C367.8 322.301 368.77 322.981 369.34 322.511H369.31Z" fill="#313131"/>
<path d="M440.03 285.181L455.9 288.271L463.9 289.811C466.3 290.136 468.623 290.888 470.76 292.031C472.512 293.211 474.108 294.609 475.51 296.191C477.123 297.858 478.703 299.544 480.25 301.251C483.35 304.661 486.35 308.131 489.36 311.591C489.84 312.131 490.88 311.641 490.36 311.101C485.5 305.521 480.71 299.891 475.36 294.561C473.195 292.216 470.427 290.51 467.36 289.631C463.28 288.511 458.93 287.911 454.78 287.101L440.16 284.251C439.35 284.101 439.16 285.021 439.95 285.181H440.03Z" fill="#313131"/>
<path d="M489.93 311.64C491.29 309.74 495.03 310.08 497.61 309.72C500.19 309.36 501.69 308.33 502.5 306.66C503.31 304.99 503.38 303.27 504.32 301.74C505.51 299.81 508.19 298.81 510.95 298.32C514.07 297.77 517.43 297.82 520.61 297.39C522.143 297.182 523.66 296.868 525.15 296.45C526.45 296.08 528.8 294.71 530.23 295.45C532.35 296.56 533.05 298.58 533.77 300.21C534.431 302.05 535.587 303.673 537.11 304.9C542.55 308.9 549.92 307.18 555.11 305.64C555.83 305.43 555.27 304.51 554.54 304.72C551.54 305.61 548.41 306.57 544.9 306.42C541.9 306.3 538.58 305.28 536.8 303.21C535.34 301.51 534.93 299.55 533.91 297.75C533.14 296.4 531.58 294.51 529.43 294.2C528.337 294.186 527.259 294.455 526.3 294.98C524.694 295.539 523.045 295.967 521.37 296.26C518.07 296.83 514.54 296.79 511.2 297.26C508.706 297.49 506.32 298.384 504.29 299.85C502.73 301.17 502.29 302.95 501.81 304.66C501.577 305.708 501.074 306.677 500.35 307.47C499.28 308.47 497.53 308.78 495.75 308.92C493.03 309.14 490.03 309.27 488.68 311.15C488.31 311.67 489.52 312.15 489.89 311.63L489.93 311.64Z" fill="#313131"/>
<path d="M555.34 305.69L579.09 307.14C580.99 307.26 582.88 307.35 584.78 307.49C585.552 307.481 586.307 307.721 586.932 308.175C587.557 308.629 588.019 309.273 588.25 310.01C588.53 310.891 588.978 311.709 589.57 312.42C590.4 313.24 591.57 313.27 592.79 313.36C595.9 313.61 599.19 313.79 601.91 313.01C603.024 312.671 604.074 312.15 605.02 311.47C605.696 310.923 606.533 310.611 607.403 310.582C608.273 310.553 609.128 310.809 609.84 311.31C612.61 312.84 614.69 315.96 611.02 316.74C608.63 317.25 605.92 317.09 604.61 318.74C603.3 320.39 603.78 322.74 604.17 324.74C604.63 327.08 605.17 329.74 607.49 331.85C612.06 335.96 619.49 336.34 625.59 338.16C629.17 339.24 632.12 341.05 635.32 342.68C638.325 344.219 641.519 345.359 644.82 346.07C647.82 346.71 651.68 347.26 654.37 346.57C656.61 345.99 657.48 344.48 657.37 342.76C657.17 340.36 655.52 337.85 654.12 335.5C652.25 332.35 650.28 329.23 648.35 326.09C646.61 322.97 644.581 320.02 642.29 317.28C639.944 314.715 637.251 312.49 634.29 310.67C633.57 310.23 632.87 310.91 633.59 311.35C636.371 313.06 638.904 315.142 641.12 317.54C643.098 319.873 644.853 322.388 646.36 325.05C648.03 327.77 649.71 330.49 651.36 333.21C652.985 335.576 654.381 338.09 655.53 340.72C656.29 342.72 656.38 345.14 653.35 345.72C650.32 346.3 646.06 345.53 642.8 344.63C636.21 342.79 631.28 338.69 624.7 336.95C618.7 335.35 609.89 334.58 607.03 329.5C606.381 328.241 605.923 326.893 605.67 325.5C605.341 324.246 605.167 322.957 605.15 321.66C605.108 321.101 605.211 320.54 605.449 320.032C605.687 319.524 606.053 319.086 606.51 318.76C607.706 318.236 608.993 317.947 610.3 317.91C612.53 317.63 614.63 316.91 614.41 315.02C614.2 313.32 612.31 311.56 610.25 310.51C609.277 309.91 608.144 309.622 607.003 309.686C605.862 309.751 604.768 310.164 603.87 310.87C601.7 312.33 599 312.73 595.74 312.64C594.82 312.64 593.89 312.55 592.96 312.48C591.83 312.4 590.74 312.36 590.22 311.42C589.786 310.405 589.285 309.419 588.72 308.47C587.02 306.16 583.41 306.47 580.66 306.34L555.15 304.74C554.31 304.69 554.55 305.64 555.39 305.69H555.34Z" fill="#313131"/>
<path d="M635.03 310.84C632.9 306.41 630.84 301.91 631.52 297.61C631.931 295.7 632.135 293.752 632.13 291.8C631.909 289.888 631.825 287.963 631.88 286.04C632.012 285.016 632.345 284.029 632.86 283.135C633.375 282.241 634.061 281.457 634.88 280.83C636.444 279.475 637.924 278.026 639.31 276.49C640.74 274.87 642.05 273.18 643.31 271.49C644.509 270.028 645.373 268.321 645.84 266.49C646.65 262.24 643.92 257.49 640.84 253.24C640.41 252.65 639.32 252.91 639.75 253.5C642.66 257.5 645.3 261.93 644.65 265.94C644.3 268.08 642.95 269.89 641.65 271.64C640.35 273.39 639.18 274.85 637.8 276.37C635.21 279.21 631.27 281.46 630.68 285.25C630.514 287.109 630.558 288.98 630.81 290.83C630.92 292.763 630.775 294.703 630.38 296.6C629.49 301.29 631.38 306.01 633.77 310.89C634.06 311.49 635.36 311.49 635.07 310.89L635.03 310.84Z" fill="#313131"/>
<path d="M579.6 197.449C579.14 199.149 581.45 200.969 582.9 202.379C584.558 204.039 586.377 205.53 588.33 206.829C590.63 208.126 593.064 209.169 595.59 209.939C598.209 210.976 600.615 212.484 602.69 214.389C611.69 222.129 620.19 230.389 628.34 238.699C630.6 240.989 632.85 243.299 635.04 245.629C637.23 247.959 639.52 250.629 640.27 253.319C640.44 253.929 641.67 253.919 641.5 253.319C640.31 249.029 635.83 244.999 632.21 241.319C628.21 237.173 624.1 233.079 619.88 229.039C615.66 224.999 611.453 221.076 607.26 217.269C605.31 215.509 603.4 213.699 601.26 212.089C599.219 210.591 596.945 209.439 594.53 208.679C591.65 207.784 588.962 206.364 586.6 204.489C585.5 203.599 584.49 202.649 583.5 201.689C582.51 200.729 580.5 199.109 580.76 197.979C580.91 197.419 579.76 196.979 579.62 197.499L579.6 197.449Z" fill="#313131"/>
<path d="M581.03 197.6C588.86 194.45 593.15 187.45 592.15 179.54C591.87 177.54 590.58 174.78 592.98 173.87C595.05 173.08 598.07 173.6 600.47 173.48C605.29 173.24 610.61 172.1 613.22 169.13C613.861 168.422 614.263 167.53 614.369 166.58C614.475 165.631 614.279 164.672 613.81 163.84C612.62 161.45 609.81 159.27 609.34 156.84L608.78 157.18C611.534 157.725 614.348 157.909 617.15 157.73C619.15 157.59 621.86 157.45 623.02 156.26C623.259 155.94 623.431 155.575 623.524 155.186C623.617 154.797 623.629 154.394 623.56 154C623.484 152.81 623.347 151.626 623.15 150.45C622.79 148.11 622.06 145.76 621.56 143.45C621.295 142.592 621.259 141.68 621.453 140.803C621.648 139.927 622.067 139.116 622.67 138.45C623.67 137.45 624.83 136.58 625.36 135.29C625.97 133.76 625.13 132.08 623.76 130.42C623.02 129.601 622.351 128.721 621.76 127.79C621.113 126.683 620.885 125.381 621.12 124.12C621.79 120.12 626.05 117.03 622.99 112.01C622.63 111.41 621.73 111.66 622.09 112.26C624.74 116.62 620.97 119.73 620.09 123.1C619.653 124.718 619.872 126.443 620.7 127.9C621.7 129.77 624.14 131.57 624.4 133.52C624.6 135.05 623.4 136.07 622.4 136.99C621.277 137.866 620.499 139.108 620.2 140.5C619.97 142.16 620.56 144.02 621.03 145.81C621.617 148.023 622.022 150.281 622.24 152.56C622.34 153.72 622.67 155.2 621.57 155.84C620.377 156.347 619.104 156.634 617.81 156.69C614.76 157.017 611.678 156.879 608.67 156.28C608.39 156.22 608.06 156.35 608.11 156.61C608.5 158.61 610.04 160.28 611.41 162.09C613.02 164.19 613.69 166.18 612.55 167.94C611.55 169.54 609.55 170.53 607.55 171.22C604.882 172.1 602.098 172.572 599.29 172.62C597.07 172.62 594.57 172.33 592.59 172.93C590.61 173.53 590.13 174.93 590.44 176.76C590.875 178.73 591.086 180.743 591.07 182.76C590.95 184.633 590.493 186.47 589.72 188.18C587.789 192.202 584.373 195.318 580.19 196.87C579.58 197.12 580.42 197.94 581.02 197.69L581.03 197.6Z" fill="#313131"/>
<path d="M525.83 32.6597C529.72 34.4697 532.72 32.7897 535.83 32.0697C536.7 31.8697 538.04 31.5697 538.83 32.7997C539.38 33.6597 539.67 34.6697 540.15 35.5597C541.181 37.4276 542.474 39.1383 543.99 40.6397C545.46 42.1297 547.39 43.6397 548.14 45.5597C548.464 46.4414 548.509 47.4014 548.27 48.3097C548.11 49.2197 547.95 50.1497 547.84 51.0897C547.427 54.8172 547.542 58.5842 548.18 62.2797C548.685 64.319 549.049 66.3905 549.27 68.4797C549.291 70.1681 548.811 71.8248 547.89 73.2397C546.32 75.7497 543.32 77.4497 542.77 80.6197C542.593 82.3139 542.732 84.0263 543.18 85.6697C543.582 87.7035 544.255 89.6743 545.18 91.5297C546.255 93.4633 547.565 95.2569 549.08 96.8697C550.437 98.467 551.911 99.9611 553.49 101.34C555.163 102.695 557.197 103.529 559.34 103.74C561.625 104.021 563.933 104.075 566.23 103.9C568.008 103.867 569.732 103.28 571.16 102.22C571.722 101.748 572.153 101.138 572.41 100.45C572.67 99.7297 572.49 98.4497 573.41 98.1897C574 98.0397 573.41 97.1197 572.83 97.2697C571.43 97.6197 571.72 99.1697 571.26 100.2C570.6 101.66 568.96 102.46 567.19 102.78C565.072 103.072 562.928 103.122 560.8 102.93C558.589 102.963 556.418 102.333 554.57 101.12C552.827 99.7051 551.229 98.1206 549.8 96.3897C548.21 94.7093 546.863 92.8142 545.8 90.7597C544.9 88.8068 544.268 86.7415 543.92 84.6197C543.56 82.6197 543.5 80.7597 544.42 79.2197C545.257 78.0028 546.215 76.8737 547.28 75.8497C548.28 74.7592 549.079 73.4996 549.64 72.1297C550.22 70.5928 550.379 68.9287 550.1 67.3097C549.8 65.3097 549.24 63.3097 548.96 61.3097C548.399 57.5505 548.399 53.7289 548.96 49.9697C549.2 48.4597 549.69 46.9697 548.89 45.2397C548.007 43.6401 546.845 42.211 545.46 41.0197C543.613 39.3019 542.045 37.3083 540.81 35.1097C540.02 33.6197 539.58 31.4897 537.6 30.9997C535.62 30.5097 533.9 31.4997 532.38 31.9997C530.297 32.7771 527.996 32.727 525.95 31.8597C525.34 31.5697 525.11 32.3897 525.73 32.6797L525.83 32.6597Z" fill="#313131"/>
<path d="M573.85 98.4504C577.642 98.7905 581.314 99.9543 584.61 101.86C586.01 102.64 587.53 103.58 589.04 103.65C590.55 103.72 591.75 102.96 593.18 102.8C596.413 102.544 599.655 103.159 602.57 104.58C604.135 105.314 605.611 106.223 606.97 107.29C608.36 108.501 609.856 109.586 611.44 110.53C614.92 112.39 618.57 112.32 621.79 112.19C622.45 112.19 622.07 111.19 621.41 111.24C618.35 111.36 614.85 111.49 611.54 109.65C609.887 108.579 608.304 107.403 606.8 106.13C605.55 105.204 604.21 104.406 602.8 103.75C600.062 102.439 597.066 101.756 594.03 101.75C592.732 101.788 591.446 102.01 590.21 102.41C589.28 102.744 588.257 102.712 587.35 102.32C586.493 101.938 585.661 101.5 584.86 101.01C581.392 99.0248 577.532 97.8201 573.55 97.4804C572.88 97.4304 573.2 98.3804 573.87 98.4304L573.85 98.4504Z" fill="#313131"/>
<path d="M498.69 25.0996C499.33 27.6096 501.34 29.6096 503.42 31.3496C505.749 33.1546 507.795 35.2984 509.49 37.7096C510.909 39.9623 512.188 42.3 513.32 44.7096C514.38 46.8196 515.44 49.4096 517.58 50.9496C519.51 52.3296 521.27 52.1396 522.58 51.0696C523.131 50.4584 523.815 49.9827 524.58 49.6796C525.76 49.3996 526.92 50.4096 528.02 51.0896C528.852 51.686 529.862 51.9846 530.885 51.9375C531.908 51.8903 532.885 51.5001 533.66 50.8296C534.97 49.8296 536.25 48.4296 535.76 46.4196C535.18 44.0196 532.61 42.3096 530.76 40.6496C528.247 38.4573 526.348 35.6485 525.25 32.4996C525.05 31.8896 524.11 31.8896 524.32 32.4996C525.067 34.6985 526.194 36.7495 527.65 38.5596C529.21 40.5596 531.18 41.8996 532.98 43.6296C533.852 44.3584 534.494 45.3239 534.83 46.4096C534.917 46.9199 534.871 47.4441 534.696 47.9312C534.52 48.4184 534.222 48.8519 533.83 49.1896C533.162 49.9267 532.329 50.4955 531.4 50.8496C530.13 51.2896 529.04 50.7796 527.73 49.9196C526.21 48.9196 524.79 48.2896 523.45 48.9896C522.11 49.6896 521.07 51.7696 518.77 50.6996C516.47 49.6296 515.18 46.5296 514.13 44.4396C513.08 42.3496 511.98 40.1296 510.66 38.0496C509.294 35.8553 507.609 33.8769 505.66 32.1796C503.29 30.1796 500.36 28.1796 499.6 25.1196C499.44 24.5096 498.52 24.5096 498.67 25.1196L498.69 25.0996Z" fill="#313131"/>
<path d="M481.44 42.9507C481.945 41.758 482.734 40.7073 483.74 39.8907C484.626 39.0697 485.399 38.1349 486.04 37.1107C487.305 34.9516 487.968 32.493 487.96 29.9907C487.96 26.9907 486.65 23.8207 486.72 20.8307C486.828 17.9384 487.815 15.1478 489.55 12.8307C491.243 10.5803 493.145 8.49443 495.23 6.60072C497.127 4.59257 499.352 2.92204 501.81 1.66071C503.95 0.660713 507.15 0.380713 508.92 3.66071C509.737 5.2318 510.407 6.87556 510.92 8.57072C511.503 10.1078 511.645 11.7772 511.33 13.3907C510.879 14.8295 510.136 16.1595 509.146 17.297C508.156 18.4346 506.942 19.3551 505.58 20.0007C503.15 21.2607 500.41 22.1207 498.74 24.3407C498.42 24.7607 499.26 25.4307 499.57 25.0107C501.24 22.8007 504.1 22.0107 506.51 20.7007C508.909 19.4354 510.809 17.3944 511.9 14.9107C513.08 12.1107 512.06 8.91071 510.68 5.54071C510.187 4.0587 509.39 2.69615 508.34 1.54071C507.461 0.68271 506.32 0.144006 505.1 0.0107116C502.32 -0.289288 500.03 1.24071 498.1 2.62071C495.792 4.42974 493.647 6.43741 491.69 8.62071C489.569 10.644 487.869 13.0673 486.69 15.7507C485.602 18.6294 485.441 21.7761 486.23 24.7507C487.1 28.5707 487.17 32.0907 485.76 35.2507C485.09 36.6901 484.15 37.9871 482.99 39.0707C481.871 39.9752 480.995 41.1436 480.44 42.4707C480.26 43.0007 481.2 43.4707 481.37 42.9507H481.44Z" fill="#313131"/>
<path d="M480.47 42.8103C480.55 45.3503 483.54 46.8103 485.74 47.5103C489.052 48.56 492.517 49.0435 495.99 48.9403L495.38 48.3403C495.3 49.5803 495.21 50.8203 495.12 52.0703C495.132 52.2289 495.202 52.3775 495.316 52.488C495.43 52.5986 495.581 52.6635 495.74 52.6703C497.28 52.6308 498.82 52.7346 500.34 52.9803C501.069 53.0128 501.788 53.1613 502.47 53.4203C502.831 53.6471 503.117 53.9741 503.295 54.3613C503.473 54.7485 503.533 55.1791 503.47 55.6003C503.493 56.7005 503.123 57.7728 502.426 58.625C501.73 59.4771 500.753 60.0533 499.67 60.2503C498.531 60.3717 497.406 60.5993 496.31 60.9303C495.384 61.3127 494.567 61.9172 493.93 62.6903C493.1 63.6903 491.83 65.9303 493.69 67.2703C494.69 68.0003 495.92 68.4203 496.94 69.2703C498.2 70.2703 498.87 71.5203 498.43 72.7803C497.7 74.7803 495.03 75.7003 492.76 75.8403C490.3 75.9495 487.852 75.4515 485.63 74.3903C484.569 73.8898 483.564 73.2798 482.63 72.5703C481.734 71.7604 480.755 71.0466 479.71 70.4403C476.71 69.0503 477 72.5703 477.07 74.3003C477.014 76.9108 477.959 79.4437 479.71 81.3803C480.2 81.8703 480.96 81.3803 480.47 80.8903C478.3 78.6803 478.04 75.8903 478.07 73.3603C478.004 72.7527 478.034 72.1384 478.16 71.5403C478.52 70.5903 479.71 71.3803 480.38 71.8703C481.38 72.6003 482.28 73.4403 483.38 74.1103C487.52 76.7003 492.73 77.6403 496.53 76.0103C498.19 75.3003 499.83 73.9303 499.66 71.9103C499.48 69.7103 497.21 68.2203 495.25 67.1603C494.62 66.8203 493.75 66.4803 493.83 65.7103C493.915 65.1141 494.122 64.5419 494.44 64.0303C495.051 63 496.002 62.2149 497.13 61.8103C498.28 61.3803 499.64 61.4403 500.82 61.0803C501.734 60.766 502.541 60.2012 503.15 59.4503C503.814 58.6775 504.241 57.7296 504.38 56.7203C504.61 55.6099 504.447 54.4543 503.92 53.4503C503.18 52.3103 501.44 52.2203 500.37 52.0503C498.768 51.7848 497.144 51.6709 495.52 51.7103L496.14 52.3103C496.22 51.0703 496.3 49.8203 496.39 48.5803C496.378 48.4218 496.308 48.2732 496.194 48.1626C496.08 48.0521 495.929 47.9872 495.77 47.9803C493.008 48.0712 490.247 47.7682 487.57 47.0803C485.72 46.6103 481.57 45.5703 481.46 43.0803C481.46 42.4803 480.46 42.2303 480.46 42.8303L480.47 42.8103Z" fill="#313131"/>
<path d="M398.98 93.2593C398.77 93.2704 398.568 93.3381 398.394 93.4551C398.22 93.5722 398.08 93.7343 397.991 93.9241C397.902 94.1139 397.866 94.3243 397.887 94.5331C397.907 94.7418 397.985 94.9409 398.11 95.1093C398.82 96.3393 400.76 96.1593 401.91 96.1893C406.2 96.3393 410.53 96.5893 414.81 96.6193C416.242 96.7726 417.677 96.3599 418.81 95.4693C419.81 94.4693 420.12 92.8793 420.95 91.7093C422.932 89.192 425.787 87.511 428.95 86.9993C432.78 86.2293 436.95 86.7793 440.95 87.7593C444.49 88.6193 448.44 90.5093 451.95 89.9793C455.46 89.4493 456.36 86.1793 457.4 83.4593C458.02 81.9091 458.44 80.286 458.65 78.6293C458.8 77.2793 458.4 75.4393 459.11 74.2993C459.41 73.8093 459.66 73.9993 460.19 74.2993C460.633 74.5534 461.055 74.8445 461.45 75.1693C462.18 75.7593 462.85 76.4193 463.53 77.0593C464.843 78.3564 466.377 79.4094 468.06 80.1693C471.63 81.6793 475.4 81.6893 478.93 81.6393C479.57 81.6393 479.36 80.6393 478.72 80.6893C475.542 80.8932 472.353 80.5551 469.29 79.6893C467.723 79.1536 466.276 78.3181 465.03 77.2293C463.85 76.2293 462.8 75.0393 461.53 74.1193C460.62 73.4593 459.34 72.5093 458.53 73.2893C457.891 74.1095 457.597 75.146 457.71 76.1793C457.614 79.3444 456.848 82.4532 455.46 85.2993C454.78 86.8193 454.17 88.3493 452.35 88.8793C450.575 89.2478 448.733 89.1303 447.02 88.5393C443.423 87.3935 439.746 86.5145 436.02 85.9093C429.89 85.1693 423.29 86.4193 420.02 91.1493C419.18 92.3393 418.88 94.2293 417.62 95.0693C416.15 96.0693 413.62 95.6393 411.85 95.5793L405 95.3493L401.78 95.2393C401.2 95.2393 400.62 95.2393 400.05 95.1593C399.877 95.1488 399.706 95.1186 399.54 95.0693C399.12 94.9893 398.92 94.8093 398.94 94.5193C398.925 94.4916 398.917 94.4609 398.916 94.4296C398.915 94.3982 398.92 94.367 398.933 94.3383C398.945 94.3095 398.964 94.2839 398.988 94.2633C399.011 94.2427 399.039 94.2277 399.07 94.2193C399.202 94.2048 399.324 94.1381 399.407 94.034C399.491 93.9299 399.529 93.7969 399.515 93.6643C399.5 93.5317 399.433 93.4103 399.329 93.3269C399.225 93.2434 399.092 93.2048 398.96 93.2193L398.98 93.2593Z" fill="#313131"/>
<path d="M348.34 40.4491C349.042 43.5836 349.513 46.7655 349.75 49.9691C349.94 52.6491 349.7 55.4391 350.43 58.0791C351.16 60.7191 353.43 62.6491 355.35 64.6391C356.46 65.7991 357.58 66.9491 358.7 68.1091C359.697 69.2379 360.78 70.2877 361.94 71.2491C364.14 72.9091 366.79 73.1691 369.38 73.6291C371.97 74.0891 374.95 74.8991 377.12 76.7591C378.06 77.5691 378.8 78.6591 379.98 79.1591C381.095 79.5798 382.325 79.5798 383.44 79.1591C385.935 78.2248 388.29 76.9529 390.44 75.3791C395.59 71.8991 401.23 67.4391 408.36 68.8391L407.98 68.4991C409.162 71.1433 410.207 73.8469 411.11 76.5991C411.623 77.9709 412.038 79.3779 412.35 80.8091C412.61 82.2591 411.43 83.2291 410.55 84.1491C407.065 87.7601 402.924 90.6753 398.35 92.7391C397.78 92.9991 398.35 93.8291 398.95 93.5691C403.874 91.3297 408.296 88.1188 411.95 84.1291C412.76 83.4478 413.267 82.4734 413.36 81.4191C413.209 80.0467 412.872 78.7011 412.36 77.4191C411.374 74.301 410.209 71.2426 408.87 68.2591C408.835 68.1775 408.782 68.1052 408.714 68.0479C408.646 67.9906 408.566 67.9499 408.48 67.9291C402.85 66.8191 397.85 69.1991 393.61 71.9991C391.38 73.4591 389.25 75.0491 386.93 76.3991C385.751 77.1124 384.509 77.7149 383.22 78.1991C382.583 78.4481 381.903 78.5671 381.22 78.5491C380.304 78.4211 379.471 77.9492 378.89 77.2291C377.21 75.497 375.118 74.2203 372.81 73.5191C370.19 72.6991 367.44 72.6591 364.81 71.7791C362 70.8291 360.07 68.2591 358.1 66.2191L354.9 62.8891C353.747 61.8511 352.738 60.664 351.9 59.3591C350.43 56.5991 350.9 53.1391 350.69 50.1891C350.452 46.8229 349.958 43.4798 349.21 40.1891C349.07 39.5891 348.21 39.8391 348.31 40.4491H348.34Z" fill="#313131"/>
<path d="M310.94 2.27057C310.72 6.87057 314.84 9.49057 318.15 11.4606C320.26 12.5912 322.105 14.1595 323.56 16.0606C324.869 17.9472 325.818 20.0592 326.36 22.2906C326.988 24.9309 327.3 27.6366 327.29 30.3506C327.29 32.7206 326.96 35.2506 327.54 37.5906C328.12 39.9306 330.15 41.3406 331.99 42.8206L334.99 45.2106C335.97 46.0626 336.998 46.8572 338.07 47.5906C338.462 47.8831 338.922 48.0714 339.406 48.1378C339.89 48.2043 340.384 48.1467 340.84 47.9706C341.84 47.4906 342.32 46.1506 342.92 45.3006C343.751 44.1132 344.646 42.9716 345.6 41.8806C346.003 41.3597 346.473 40.8955 347 40.5006C347.266 40.2991 347.568 40.1499 347.89 40.0606C348.309 40.0256 348.731 40.0256 349.15 40.0606C349.251 40.0574 349.349 40.0217 349.428 39.9586C349.507 39.8955 349.564 39.8085 349.59 39.7106V39.6106C349.608 39.5275 349.604 39.4411 349.577 39.3603C349.551 39.2795 349.503 39.2071 349.44 39.1506C349.337 39.0361 349.206 38.95 349.06 38.9006C349.001 38.8842 348.939 38.8801 348.878 38.8886C348.817 38.897 348.759 38.9178 348.707 38.9497C348.654 38.9815 348.609 39.0237 348.573 39.0738C348.538 39.1238 348.513 39.1806 348.5 39.2406V39.3106C348.43 39.9106 349.36 40.1706 349.42 39.5606V39.4906L348.86 39.8306H348.8L348.65 39.3606V39.4506L349.09 39.1006C348.67 39.1006 348.27 39.0006 347.85 39.1006C347.446 39.175 347.059 39.3242 346.71 39.5406C345.833 40.139 345.066 40.8831 344.44 41.7406C343.7 42.6206 343 43.5306 342.33 44.4606C341.66 45.3906 340.93 47.2606 339.77 47.2506C338.61 47.2406 337.41 45.9606 336.53 45.2506L333.38 42.7506C331.5 41.2506 329.06 39.8306 328.38 37.3506C327.7 34.8706 328.21 32.3506 328.15 29.9906C328.132 27.5188 327.857 25.0556 327.33 22.6406C326.556 18.7167 324.481 15.1688 321.44 12.5706C317.99 9.84057 311.52 7.91057 311.77 2.28057C311.78 2.21654 311.775 2.15119 311.757 2.08897C311.739 2.02676 311.708 1.96914 311.666 1.92007C311.624 1.871 311.571 1.83163 311.513 1.80464C311.454 1.77765 311.39 1.76367 311.325 1.76367C311.26 1.76367 311.196 1.77765 311.137 1.80464C311.079 1.83163 311.026 1.871 310.984 1.92007C310.942 1.96914 310.911 2.02676 310.893 2.08897C310.875 2.15119 310.87 2.21654 310.88 2.28057L310.94 2.27057Z" fill="#313131"/>
<path d="M273.21 32.5306L273.15 32.4506C273.08 32.3752 272.986 32.3261 272.884 32.3116C272.782 32.297 272.678 32.3178 272.59 32.3706C272.487 32.412 272.396 32.4801 272.327 32.5679C272.259 32.6557 272.215 32.7602 272.2 32.8706C272.172 32.9692 272.176 33.0739 272.21 33.1704C272.244 33.267 272.307 33.3508 272.39 33.4106C272.91 33.8106 273.72 33.4106 274.29 33.2206L277.88 32.2206C280.1 31.5806 282.32 30.9506 284.53 30.3006C288.857 29.0924 293.11 27.6366 297.27 25.9406C298.17 25.5606 299.07 25.1606 299.95 24.7406C300.714 24.4801 301.402 24.0333 301.95 23.4406C302.95 22.0106 301.68 20.4406 300.81 19.3806C299.68 17.9706 298.72 16.5006 299.63 14.6506C300.453 13.3376 301.355 12.0754 302.33 10.8706C302.818 10.1443 303.158 9.32864 303.33 8.47055C303.49 7.53055 303.43 6.35056 304.08 5.60056C304.73 4.85056 306.51 4.40055 307.57 4.08055C308.729 3.73118 309.908 3.45069 311.1 3.24056C311.67 3.13056 311.43 2.24056 310.86 2.31056C308.855 2.65873 306.892 3.21162 305 3.96056C304.316 4.20385 303.722 4.64636 303.292 5.23101C302.862 5.81565 302.618 6.5156 302.59 7.24056C302.523 8.11105 302.306 8.96349 301.95 9.76055C301.547 10.4719 301.074 11.1418 300.54 11.7606C299.585 12.7717 298.871 13.9852 298.45 15.3106C298.332 15.9723 298.36 16.6519 298.533 17.3015C298.706 17.9511 299.019 18.555 299.45 19.0706C299.95 19.7606 300.57 20.3806 301.02 21.0706C301.47 21.7606 301.67 22.4706 301.02 23.0706C300.626 23.3642 300.196 23.6062 299.74 23.7906C295.738 25.6486 291.603 27.2062 287.37 28.4506C284.98 29.1906 282.57 29.8806 280.16 30.5706L276.58 31.5706L274.79 32.0806C274.52 32.1606 273.1 32.7406 272.89 32.5806L273.08 33.1206L273.01 33.2006L272.45 33.1306L272.51 33.2006C272.9 33.6506 273.6 32.9706 273.21 32.5206V32.5306Z" fill="#313131"/>
<path d="M206.35 54.4494C209.87 50.7894 213.51 46.9694 218.01 44.6994C220.405 43.6287 222.901 42.798 225.46 42.2194C227.972 41.4825 230.425 40.56 232.8 39.4594C235.309 38.2587 237.89 37.2166 240.53 36.3394C242.926 35.7558 245.267 34.9697 247.53 33.9894C249.449 33.1026 251.059 31.6605 252.15 29.8494C252.618 28.7455 253.423 27.8179 254.45 27.1994C255.559 26.6658 256.779 26.4019 258.01 26.4294C263.47 26.3694 268.01 29.9394 272.08 33.1694C272.54 33.5294 273.08 32.6994 272.59 32.3394C268.88 29.3394 264.86 26.3394 260.03 25.6094C258 25.2273 255.901 25.4932 254.03 26.3694C251.92 27.4694 251.46 29.8394 249.78 31.3694C247.71 33.2894 245.01 34.0894 242.43 34.8094C239.854 35.5255 237.334 36.4279 234.89 37.5094C232.315 38.7359 229.678 39.8274 226.99 40.7794C224.43 41.6094 221.8 42.0994 219.26 43.1194C213.96 45.2594 209.76 49.5994 205.77 53.7594C205.31 54.2294 205.89 54.9194 206.35 54.4394V54.4494Z" fill="#313131"/>
<path d="M145.82 102.55C149.82 98.0204 155.98 97.1704 161.26 95.9704C166.78 94.7104 172.01 92.3704 177.2 89.9704C181.724 87.994 186.058 85.6109 190.15 82.8504C194.184 79.9817 197.438 76.153 199.62 71.7104C201.03 68.8804 202.28 66.0004 203.62 63.1404C204.25 61.8561 204.762 60.5173 205.15 59.1404C205.328 58.4614 205.419 57.7624 205.42 57.0604C205.309 56.2084 205.427 55.3422 205.76 54.5504C206.08 53.9804 205.32 53.4904 205 54.0604C204.552 54.9288 204.361 55.9072 204.45 56.8804C204.408 58.4683 204.029 60.0292 203.34 61.4604C202.23 64.0104 201.03 66.5404 199.86 69.0804C198.769 71.6374 197.397 74.0656 195.77 76.3204C194.247 78.2451 192.483 79.9659 190.52 81.4404C186.401 84.3689 181.987 86.859 177.35 88.8704C171.96 91.3804 166.57 93.8104 160.83 95.0904C155.36 96.3104 149.19 97.3604 145.1 102.03C144.64 102.56 145.42 103.03 145.88 102.51L145.82 102.55Z" fill="#313131"/>
<path d="M121.87 147.509C119.055 145.662 116.554 143.376 114.46 140.739L114.17 141.499C117.83 139.629 121.73 139.499 125.5 139.149C127.211 139.102 128.902 138.764 130.5 138.149C131.863 137.469 133.002 136.41 133.78 135.099C135.78 131.879 136.19 128.329 137.17 124.969C137.725 123.044 138.593 121.223 139.74 119.579C140.844 118.112 141.799 116.537 142.59 114.879C144.29 111.009 144.59 107.019 144.96 103.129C145.01 102.519 143.96 102.519 143.96 103.129C143.818 106.52 143.25 109.88 142.27 113.129C141.618 114.979 140.705 116.727 139.56 118.319C138.487 119.723 137.587 121.251 136.88 122.869C135.58 126.119 135.32 129.449 133.97 132.689C133.375 134.447 132.241 135.973 130.73 137.049C129.06 138.049 126.99 138.169 125.2 138.329C121.42 138.689 117.52 138.879 113.86 140.759C113.51 140.929 113.38 141.279 113.57 141.519C115.721 144.181 118.279 146.486 121.15 148.349C121.66 148.679 122.39 147.849 121.89 147.509H121.87Z" fill="#313131"/>
<path d="M95.1499 193.279C94.1499 189.529 88.7799 179.449 82.1499 185.829C80.8199 187.089 80.2999 188.829 78.5999 189.829C76.9489 190.668 75.1099 191.067 73.2599 190.989C69.8299 190.989 64.1199 190.359 65.3399 186.429C66.1699 183.759 70.4499 183.179 72.7799 181.759C73.296 181.479 73.7517 181.1 74.1206 180.644C74.4896 180.187 74.7647 179.662 74.9299 179.099C75.1699 178.189 75.0899 177.359 76.2999 176.789C77.5353 176.296 78.7972 175.872 80.0799 175.519C83.6399 174.339 88.0799 173.389 90.3399 170.339C91.4374 168.692 92.375 166.944 93.1399 165.119C93.9899 163.379 94.6999 161.199 96.2499 159.699C98.0199 157.989 100.91 157.349 103.17 156.699C105.72 155.999 108.28 155.389 110.8 154.589C114.87 153.299 118.86 151.469 121.87 148.489C122.39 147.979 121.56 147.489 121.05 148.009C117.94 151.089 113.65 152.819 109.47 154.009C107.22 154.669 104.94 155.209 102.68 155.849C100.71 156.306 98.8077 157.015 97.0199 157.959C95.4751 158.904 94.2571 160.3 93.5299 161.959C92.5299 163.879 91.6499 165.819 90.6799 167.749C89.7908 169.79 88.1768 171.429 86.1499 172.349C84.0084 173.23 81.8221 173.998 79.5999 174.649C78.0899 175.149 75.4299 175.589 74.4699 176.959C73.5099 178.329 74.1299 179.609 72.5799 180.729C70.2799 182.379 67.0599 182.579 65.1299 184.729C62.7899 187.329 64.5299 190.139 67.0699 191.089C68.7908 191.626 70.5876 191.879 72.3899 191.839C73.9871 191.953 75.5924 191.821 77.1499 191.449C78.8299 190.963 80.285 189.901 81.2599 188.449C82.4399 186.729 84.4199 184.249 86.9699 184.809C88.9699 185.239 90.4299 187.159 91.4499 188.509C92.63 190.088 93.4833 191.886 93.9599 193.799C94.1099 194.369 95.2199 193.879 95.0699 193.309L95.1499 193.279Z" fill="#313131"/>
<path d="M94.3402 193.449C93.2502 193.809 92.1702 194.209 91.1102 194.659C90.1858 194.969 89.3077 195.403 88.5002 195.949C87.1602 197.079 88.9402 198.109 89.6402 198.719L93.8802 202.419C95.1256 203.327 96.1509 204.502 96.8802 205.859C98.2302 209.039 93.9802 210.989 90.5602 211.809C86.0102 212.909 81.3902 213.719 76.8002 214.659C76.3402 214.759 76.1102 215.209 76.3402 215.469C78.9102 218.359 84.1702 218.009 88.4602 218.469C89.1571 218.501 89.839 218.682 90.4602 218.999C90.7122 219.201 90.9178 219.454 91.0628 219.743C91.2077 220.031 91.2888 220.347 91.3002 220.669C91.5302 221.939 91.7402 223.209 91.9502 224.479C92.4102 227.079 92.8736 229.676 93.3402 232.269C93.4402 232.859 94.6602 232.599 94.5502 232.009C94.0702 229.349 93.5502 226.699 93.1302 224.009C92.9002 222.709 92.7202 221.399 92.4502 220.109C92.4078 219.641 92.2407 219.193 91.9664 218.812C91.692 218.43 91.3204 218.129 90.8902 217.939C88.9502 217.129 86.0902 217.299 83.8902 217.089C81.3202 216.849 78.7902 216.369 77.3302 214.729L76.8702 215.539C81.5502 214.539 86.3102 213.779 90.9602 212.609C93.7202 211.919 96.9602 210.679 98.0202 208.209C99.3102 205.149 96.2403 202.929 94.2403 201.209C92.7203 199.899 91.2402 198.599 89.7102 197.269C89.2202 196.819 89.0902 196.679 89.8402 196.179C90.3466 195.897 90.875 195.656 91.4202 195.459C92.4902 195.009 93.5702 194.609 94.6602 194.249C95.3902 193.999 95.0102 193.169 94.2802 193.419L94.3402 193.449Z" fill="#313131"/>
<path d="M346.15 220.071C346.47 227.841 338.86 234.17 329.15 234.22C319.44 234.27 311.55 228.01 311.52 220.22C311.49 212.43 319.11 206.111 328.52 206.071C337.93 206.031 345.83 212.301 346.15 220.071Z" stroke="#313131" stroke-miterlimit="10"/>
<path d="M325.15 225.171C325.15 225.171 326.81 223.881 326.43 222.891C326.141 222.223 325.715 221.624 325.18 221.131C325.18 221.131 323.51 222.421 323.95 223.601C324.154 224.248 324.579 224.804 325.15 225.171Z" fill="#313131"/>
<path d="M326.97 222.63C326.97 222.63 328.63 221.34 328.25 220.36C327.953 219.691 327.525 219.089 326.99 218.59C326.99 218.59 325.34 219.89 325.77 221.06C325.974 221.707 326.399 222.262 326.97 222.63Z" fill="#313131"/>
<path d="M328.7 219.95C328.7 219.95 330.36 218.66 329.97 217.67C329.678 217.005 329.252 216.406 328.72 215.91C328.72 215.91 327.07 217.2 327.51 218.38C327.709 219.028 328.131 219.584 328.7 219.95Z" fill="#313131"/>
<path d="M326.07 225.631C326.07 225.631 326.54 223.791 327.77 223.531C328.599 223.383 329.445 223.363 330.28 223.471C330.28 223.471 329.81 225.311 328.35 225.621C327.605 225.827 326.818 225.83 326.07 225.631Z" fill="#313131"/>
<path d="M327.75 223.03C327.75 223.03 328.22 221.19 329.45 220.94C330.271 220.787 331.111 220.764 331.94 220.87C331.94 220.87 331.48 222.71 330.03 223.02C329.285 223.227 328.497 223.23 327.75 223.03Z" fill="#313131"/>
<path d="M329.62 220.45C329.62 220.45 330.08 218.62 331.3 218.36C332.122 218.213 332.962 218.193 333.79 218.3C333.79 218.3 333.34 220.14 331.89 220.45C331.148 220.658 330.363 220.658 329.62 220.45Z" fill="#313131"/>
<path d="M330.57 217.92C330.432 217.539 330.386 217.132 330.435 216.731C330.483 216.33 330.626 215.946 330.85 215.61C331.44 214.988 332.236 214.6 333.09 214.52C333.243 214.929 333.29 215.37 333.225 215.802C333.16 216.235 332.987 216.643 332.72 216.99C332.133 217.539 331.373 217.868 330.57 217.92Z" fill="#313131"/>
<path d="M305.25 172.75C305.25 180.52 297.72 186.86 288.51 186.9C279.3 186.94 272.1 180.66 272.43 172.9C272.76 165.14 280.25 158.78 289.16 158.75C298.07 158.72 305.28 164.97 305.25 172.75Z" stroke="#313131" stroke-miterlimit="10"/>
<path d="M285.15 177.829C285.15 177.829 286.79 176.539 286.47 175.549C286.229 174.89 285.851 174.29 285.36 173.789C285.36 173.789 283.73 175.079 284.09 176.259C284.241 176.894 284.618 177.452 285.15 177.829Z" fill="#313131"/>
<path d="M286.96 175.3C286.96 175.3 288.59 174.01 288.27 173.02C288.026 172.358 287.644 171.754 287.15 171.25C287.15 171.25 285.53 172.54 285.89 173.72C286.046 174.358 286.426 174.919 286.96 175.3Z" fill="#313131"/>
<path d="M288.72 172.62C288.72 172.62 290.35 171.33 290.03 170.34C289.784 169.681 289.406 169.079 288.92 168.57C288.92 168.57 287.3 169.86 287.66 171.04C287.813 171.677 288.189 172.237 288.72 172.62Z" fill="#313131"/>
<path d="M285.98 178.291C285.98 178.291 286.51 176.461 287.69 176.201C288.471 176.047 289.273 176.027 290.06 176.141C290.06 176.141 289.54 177.971 288.14 178.291C287.436 178.499 286.685 178.499 285.98 178.291Z" fill="#313131"/>
<path d="M287.69 175.689C287.69 175.689 288.21 173.859 289.38 173.599C290.161 173.446 290.963 173.425 291.75 173.539C291.75 173.539 291.24 175.379 289.84 175.689C289.139 175.898 288.392 175.898 287.69 175.689Z" fill="#313131"/>
<path d="M289.57 173.07C289.57 173.07 290.09 171.23 291.26 170.98C292.035 170.827 292.829 170.806 293.61 170.92C293.61 170.92 293.11 172.75 291.72 173.07C291.019 173.278 290.272 173.278 289.57 173.07Z" fill="#313131"/>
<path d="M290.58 170.589C290.468 170.199 290.443 169.789 290.507 169.388C290.571 168.987 290.722 168.605 290.95 168.269C291.518 167.657 292.289 167.272 293.12 167.189C293.247 167.606 293.271 168.047 293.191 168.476C293.111 168.904 292.929 169.307 292.66 169.649C292.097 170.194 291.362 170.527 290.58 170.589Z" fill="#313131"/>
<path d="M273.52 121.32C273.18 129.1 265.88 135.43 257.22 135.46C248.56 135.49 242.04 129.2 242.68 121.46C243.32 113.72 250.62 107.34 258.98 107.32C267.34 107.3 273.86 113.54 273.52 121.32Z" stroke="#313131" stroke-miterlimit="10"/>
<path d="M254.4 126.38C254.4 126.38 255.99 125.09 255.74 124.1C255.538 123.448 255.197 122.847 254.74 122.34C254.74 122.34 253.15 123.63 253.44 124.81C253.556 125.433 253.898 125.992 254.4 126.38Z" fill="#313131"/>
<path d="M256.24 123.851C256.24 123.851 257.82 122.561 257.56 121.571C257.357 120.916 257.016 120.313 256.56 119.801C256.56 119.801 254.98 121.091 255.27 122.271C255.385 122.9 255.731 123.463 256.24 123.851Z" fill="#313131"/>
<path d="M258 121.169C258 121.169 259.58 119.879 259.32 118.889C259.117 118.235 258.776 117.631 258.32 117.119C258.32 117.119 256.74 118.409 257.04 119.589C257.155 120.216 257.496 120.779 258 121.169Z" fill="#313131"/>
<path d="M255.15 126.84C255.15 126.84 255.72 125.01 256.84 124.75C257.575 124.602 258.329 124.581 259.07 124.69C259.07 124.69 258.51 126.53 257.18 126.85C256.519 127.054 255.81 127.05 255.15 126.84Z" fill="#313131"/>
<path d="M256.9 124.24C256.9 124.24 257.47 122.41 258.58 122.15C259.315 122.002 260.069 121.982 260.81 122.09C260.81 122.09 260.25 123.93 258.93 124.25C258.269 124.454 257.56 124.451 256.9 124.24Z" fill="#313131"/>
<path d="M258.78 121.621C258.78 121.621 259.34 119.781 260.45 119.531C261.181 119.383 261.932 119.363 262.67 119.471C262.67 119.471 262.12 121.311 260.8 121.621C260.143 121.83 259.437 121.83 258.78 121.621Z" fill="#313131"/>
<path d="M259.83 119.14C259.743 118.744 259.737 118.334 259.812 117.935C259.888 117.536 260.044 117.157 260.27 116.82C260.806 116.216 261.547 115.831 262.35 115.74C262.452 116.164 262.458 116.605 262.366 117.031C262.274 117.457 262.088 117.856 261.82 118.2C261.289 118.739 260.584 119.072 259.83 119.14Z" fill="#313131"/>
<path d="M458.05 155.129C459.43 162.879 453.23 169.189 444.2 169.219C435.17 169.249 426.97 162.999 425.88 155.219C424.79 147.439 431 141.159 439.73 141.129C448.46 141.099 456.67 147.379 458.05 155.129Z" stroke="#313131" stroke-miterlimit="10"/>
<path d="M439.229 160.19C439.229 160.19 440.599 158.9 440.109 157.92C439.749 157.253 439.272 156.657 438.7 156.16C438.7 156.16 437.33 157.44 437.9 158.62C438.179 159.263 438.641 159.809 439.229 160.19Z" fill="#313131"/>
<path d="M440.58 157.661C440.58 157.661 441.94 156.381 441.45 155.391C441.086 154.726 440.609 154.131 440.04 153.631C440.04 153.631 438.68 154.921 439.25 156.091C439.525 156.736 439.989 157.284 440.58 157.661Z" fill="#313131"/>
<path d="M441.82 154.991C441.82 154.991 443.18 153.711 442.68 152.721C442.317 152.056 441.839 151.461 441.27 150.961C441.27 150.961 439.92 152.251 440.49 153.421C440.765 154.066 441.229 154.614 441.82 154.991Z" fill="#313131"/>
<path d="M440.15 160.64C440.15 160.64 440.33 158.82 441.44 158.56C442.202 158.412 442.982 158.392 443.75 158.5C443.75 158.5 443.58 160.33 442.27 160.65C441.577 160.848 440.842 160.844 440.15 160.64Z" fill="#313131"/>
<path d="M441.36 158.05C441.36 158.05 441.54 156.23 442.64 155.97C443.402 155.822 444.182 155.802 444.95 155.91C444.95 155.91 444.78 157.74 443.47 158.06C442.78 158.258 442.048 158.254 441.36 158.05Z" fill="#313131"/>
<path d="M442.729 155.45C442.729 155.45 442.9 153.63 444.01 153.37C444.768 153.223 445.545 153.203 446.31 153.31C446.31 153.31 446.139 155.14 444.839 155.46C444.15 155.657 443.418 155.654 442.729 155.45Z" fill="#313131"/>
<path d="M443.27 152.97C443.096 152.611 443.001 152.22 442.99 151.822C442.98 151.423 443.055 151.027 443.21 150.66C443.438 150.355 443.727 150.101 444.06 149.915C444.392 149.729 444.76 149.615 445.14 149.58C445.14 149.58 445.88 151.13 445.14 152.04C444.906 152.312 444.62 152.535 444.299 152.695C443.978 152.854 443.628 152.948 443.27 152.97Z" fill="#313131"/>
<path d="M146.36 248.771L119.81 248.911C110.19 248.961 103.81 242.831 105.44 235.211C107.12 227.601 116.04 221.391 125.37 221.341L151.14 221.221C160.47 221.221 167.07 227.301 165.9 234.911C164.72 242.511 155.97 248.721 146.36 248.771Z" stroke="#313131" stroke-miterlimit="10"/>
<path d="M142.52 240.04C142.52 240.04 144.52 238.74 144.28 237.75C144.125 237.093 143.809 236.485 143.36 235.98C143.36 235.98 141.36 237.28 141.62 238.46C141.652 238.772 141.749 239.073 141.904 239.345C142.059 239.617 142.269 239.854 142.52 240.04Z" fill="#313131"/>
<path d="M144.88 237.499C144.88 237.499 146.82 236.199 146.62 235.209C146.465 234.552 146.149 233.944 145.7 233.439C145.7 233.439 143.76 234.739 143.97 235.919C144.003 236.232 144.101 236.534 144.258 236.806C144.415 237.078 144.626 237.314 144.88 237.499Z" fill="#313131"/>
<path d="M147.15 234.8C147.15 234.8 149.08 233.51 148.89 232.52C148.732 231.862 148.412 231.253 147.96 230.75C147.96 230.75 146.03 232.04 146.24 233.23C146.274 233.541 146.373 233.841 146.529 234.111C146.686 234.381 146.897 234.616 147.15 234.8Z" fill="#313131"/>
<path d="M143.38 240.501C143.38 240.501 144.21 238.661 145.52 238.401C146.358 238.246 147.215 238.226 148.06 238.341C147.835 238.845 147.509 239.297 147.101 239.668C146.693 240.04 146.213 240.323 145.69 240.501C144.935 240.714 144.135 240.714 143.38 240.501Z" fill="#313131"/>
<path d="M145.6 237.889C145.6 237.889 146.43 236.049 147.73 235.789C148.568 235.635 149.425 235.615 150.27 235.729C150.045 236.233 149.718 236.685 149.31 237.057C148.903 237.429 148.422 237.712 147.9 237.889C147.148 238.102 146.351 238.102 145.6 237.889Z" fill="#313131"/>
<path d="M148.01 235.26C148.01 235.26 148.84 233.42 150.13 233.16C150.965 233.006 151.819 232.986 152.66 233.1C152.437 233.602 152.114 234.053 151.71 234.425C151.305 234.796 150.829 235.081 150.31 235.26C149.558 235.473 148.762 235.473 148.01 235.26Z" fill="#313131"/>
<path d="M149.46 232.77C149.405 232.35 149.443 231.923 149.573 231.52C149.703 231.117 149.92 230.748 150.21 230.44C150.9 229.822 151.769 229.44 152.69 229.35C152.757 229.802 152.713 230.263 152.564 230.695C152.414 231.127 152.162 231.516 151.83 231.83C151.153 232.374 150.327 232.702 149.46 232.77Z" fill="#313131"/>
<path d="M118.52 232C118.151 231.614 117.925 231.113 117.878 230.581C117.83 230.049 117.965 229.516 118.26 229.07C118.293 229.005 118.33 228.942 118.37 228.88C118.37 228.83 118.49 228.76 118.55 228.76C118.581 228.766 118.609 228.779 118.634 228.798C118.658 228.817 118.677 228.842 118.69 228.87C118.69 228.98 118.74 229.1 118.78 229.21C118.917 229.626 119.147 230.004 119.452 230.318C119.757 230.631 120.129 230.872 120.54 231.02C120.664 231.056 120.796 231.056 120.92 231.02C122.964 230.296 125.196 230.296 127.24 231.02C127.374 231.06 127.516 231.06 127.65 231.02C128.735 230.643 129.667 229.919 130.3 228.96C130.369 228.876 130.446 228.799 130.53 228.73C130.53 228.81 130.67 228.88 130.68 228.97C130.77 229.55 130.688 230.142 130.444 230.676C130.201 231.209 129.806 231.659 129.31 231.97L129.21 232.07C129.52 232.07 129.82 232.07 130.1 232.15C130.571 232.195 131.022 232.361 131.41 232.63C132.15 233.19 131.93 234.05 130.92 234.54C130.165 234.884 129.339 235.042 128.51 235C127.9 235 127.9 235 127.61 235.46L125.75 238.45C125.682 238.535 125.646 238.642 125.65 238.75C125.78 239.38 125.03 240.21 123.95 240.26C122.87 240.31 121.63 240.26 120.49 240.26C119.49 240.26 119.04 239.53 119.39 238.78C119.42 238.689 119.42 238.591 119.39 238.5C119.16 237.37 118.92 236.24 118.7 235.1C118.7 234.94 118.58 234.9 118.37 234.92C117.652 234.992 116.928 234.917 116.24 234.7C115.65 234.48 115.18 234.17 115.3 233.55C115.393 233.24 115.571 232.962 115.812 232.747C116.054 232.531 116.351 232.387 116.67 232.33C117.29 232.22 117.91 232.13 118.52 232ZM126.23 231.48L126.15 231.53L124.15 233.45C123.67 233.9 123.36 233.91 123.06 233.45L121.77 231.54C120.901 231.716 120.106 232.152 119.49 232.79C119.453 232.841 119.402 232.878 119.343 232.898C119.283 232.918 119.22 232.919 119.16 232.9C118.386 232.748 117.584 232.821 116.85 233.11C116.703 233.148 116.567 233.221 116.455 233.324C116.343 233.427 116.259 233.556 116.21 233.7H116.56C117.41 233.76 118.26 233.83 119.12 233.88C119.34 233.88 119.43 233.98 119.46 234.15C119.67 235.24 119.9 236.33 120.13 237.43C120.13 237.65 120.23 237.88 120.26 238.03C121.864 237.901 123.476 237.901 125.08 238.03L125.23 237.79C125.91 236.68 126.58 235.57 127.23 234.45C127.6 233.85 127.6 233.85 128.39 233.79L130.88 233.61C130.88 233.3 130.7 233.13 130.42 233.02C129.722 232.752 128.962 232.69 128.23 232.84C128.14 232.84 127.99 232.84 127.97 232.76C127.789 232.431 127.541 232.144 127.241 231.918C126.941 231.693 126.596 231.533 126.23 231.45V231.48ZM124.62 239.1C124.69 238.75 124.4 238.49 123.97 238.49C123.772 238.486 123.578 238.546 123.418 238.661C123.257 238.777 123.139 238.942 123.08 239.13C123.02 239.45 123.32 239.72 123.73 239.72C123.926 239.73 124.119 239.674 124.28 239.562C124.441 239.45 124.561 239.287 124.62 239.1ZM121.74 239.1C121.81 238.77 121.53 238.51 121.12 238.5C120.922 238.486 120.725 238.538 120.56 238.649C120.395 238.759 120.272 238.922 120.21 239.11C120.13 239.45 120.42 239.73 120.85 239.73C121.046 239.738 121.238 239.681 121.399 239.57C121.56 239.458 121.679 239.297 121.74 239.11V239.1Z" fill="#313131"/>
<path d="M120.23 240.689H124.09C124.064 240.795 124.014 240.892 123.942 240.974C123.871 241.056 123.781 241.12 123.68 241.159C123.173 241.409 122.615 241.539 122.05 241.539C121.485 241.539 120.927 241.409 120.42 241.159C120.301 241.041 120.2 240.907 120.12 240.759L120.23 240.689Z" fill="#313131"/>
<path d="M125.45 234.191C125.82 234.191 126.07 234.441 126.01 234.731C125.955 234.897 125.847 235.042 125.703 235.143C125.559 235.243 125.386 235.295 125.21 235.291C124.84 235.291 124.58 235.041 124.64 234.741C124.697 234.573 124.807 234.429 124.953 234.329C125.099 234.23 125.274 234.181 125.45 234.191Z" fill="#313131"/>
<path d="M121.44 234.209C121.82 234.209 122.08 234.439 122.02 234.739C121.974 234.911 121.871 235.061 121.727 235.165C121.583 235.269 121.407 235.32 121.23 235.309C120.86 235.309 120.6 235.069 120.66 234.769C120.712 234.604 120.816 234.46 120.957 234.359C121.097 234.258 121.267 234.206 121.44 234.209Z" fill="#313131"/>
<path d="M193.43 154.621C192.36 162.451 184.15 168.771 175.15 168.801C166.15 168.831 159.93 162.541 161.3 154.741C162.67 146.941 170.84 140.591 179.56 140.561C188.28 140.531 194.5 146.831 193.43 154.621Z" stroke="#313131" stroke-miterlimit="10"/>
<path d="M183.06 154.63C183.26 154.87 183.43 155.07 183.58 155.29C184.2 156.15 183.95 156.92 182.86 157.43C181.015 158.37 179.004 158.941 176.94 159.11C174.937 159.215 172.929 159.135 170.94 158.87C168.94 158.58 168.37 157.04 169.36 155.05C169.936 153.9 170.783 152.908 171.829 152.159C172.874 151.409 174.086 150.926 175.36 150.75C176.181 150.588 177.027 150.6 177.843 150.784C178.66 150.968 179.428 151.321 180.1 151.82C179.51 152.01 179.01 152.13 178.55 152.33C177.902 152.579 177.334 153.002 176.911 153.552C176.487 154.103 176.224 154.76 176.15 155.45C176.03 156.97 176.93 157.85 178.45 157.45C179.561 157.062 180.627 156.556 181.63 155.94C182.15 155.554 182.63 155.115 183.06 154.63Z" fill="#313131"/>
<path d="M180.59 152.289C181.122 152.398 181.66 152.478 182.2 152.529C183.09 152.589 184.03 152.669 184.65 151.599C184.65 151.529 184.78 151.439 184.83 151.439C185.05 151.439 185.39 151.389 185.45 151.499C185.648 151.904 185.786 152.335 185.86 152.779C185.86 152.869 185.51 153.199 185.34 153.209C184.285 153.374 183.309 153.867 182.55 154.619C181.55 155.319 180.6 155.999 179.61 156.669C179.439 156.755 179.258 156.818 179.07 156.859C177.87 157.229 177.07 157.089 176.71 156.449C176.553 155.973 176.522 155.464 176.622 154.973C176.722 154.482 176.949 154.025 177.28 153.649C177.697 153.191 178.21 152.831 178.782 152.596C179.355 152.361 179.972 152.256 180.59 152.289Z" fill="#313131"/>
<path d="M179.76 151.109C180.328 151.171 180.899 151.205 181.47 151.209C181.785 151.238 182.101 151.172 182.379 151.021C182.656 150.87 182.883 150.639 183.03 150.359C183.147 150.28 183.282 150.229 183.422 150.21C183.563 150.19 183.706 150.204 183.84 150.249C184.077 150.53 184.211 150.883 184.22 151.249C184.191 151.386 184.132 151.514 184.047 151.625C183.962 151.735 183.854 151.826 183.73 151.889C183.117 152.114 182.458 152.184 181.812 152.095C181.165 152.007 180.55 151.761 180.02 151.379C179.95 151.309 179.86 151.269 179.79 151.209C179.72 151.149 179.77 151.159 179.76 151.109Z" fill="#313131"/>
<path d="M573.01 267.13L545.87 267.28C536.04 267.34 526.66 261.28 524.87 253.71C523.13 246.17 529.45 240.01 538.99 239.96L565.35 239.83C574.89 239.78 584.45 245.83 586.69 253.38C588.98 260.92 582.84 267.08 573.01 267.13Z" stroke="#313131" stroke-miterlimit="10"/>
<path d="M565.57 258.45C565.57 258.45 566.98 257.16 566.33 256.18C565.844 255.506 565.253 254.915 564.58 254.43C564.58 254.43 563.18 255.72 563.93 256.89C564.324 257.549 564.891 258.089 565.57 258.45Z" fill="#313131"/>
<path d="M566.82 255.959C566.82 255.959 568.22 254.669 567.57 253.689C567.084 253.016 566.494 252.425 565.82 251.939C565.82 251.939 564.43 253.219 565.18 254.389C565.577 255.05 566.143 255.592 566.82 255.959Z" fill="#313131"/>
<path d="M567.95 253.29C567.95 253.29 569.34 252 568.69 251.02C568.205 250.346 567.614 249.755 566.94 249.27C566.94 249.27 565.55 250.55 566.3 251.72C566.702 252.379 567.271 252.921 567.95 253.29Z" fill="#313131"/>
<path d="M566.65 258.93C566.65 258.93 566.65 257.11 567.89 256.85C568.742 256.698 569.612 256.678 570.47 256.79C570.47 256.79 570.47 258.61 569.02 258.93C568.243 259.131 567.428 259.131 566.65 258.93Z" fill="#313131"/>
<path d="M567.74 256.34C567.74 256.34 567.74 254.52 568.97 254.26C569.819 254.114 570.685 254.093 571.54 254.2C571.54 254.2 571.54 256.02 570.1 256.34C569.326 256.541 568.514 256.541 567.74 256.34Z" fill="#313131"/>
<path d="M569.01 253.741C569.01 253.741 569.01 251.911 570.23 251.651C571.079 251.504 571.945 251.484 572.8 251.591C572.8 251.591 572.8 253.421 571.37 253.731C570.596 253.931 569.785 253.935 569.01 253.741Z" fill="#313131"/>
<path d="M569.37 251.271C569.37 251.271 568.52 249.931 569.08 248.961C569.321 248.653 569.623 248.399 569.967 248.213C570.311 248.027 570.69 247.914 571.08 247.881C571.08 247.881 572.08 249.431 571.32 250.331C570.815 250.883 570.116 251.22 569.37 251.271Z" fill="#313131"/>
<path d="M552.46 253.53C552.79 253.78 553.07 253.98 553.33 254.19C554.39 255.04 554.44 255.8 553.44 256.32C551.61 257.298 549.591 257.867 547.52 257.99C545.228 258.108 542.93 258.031 540.65 257.76C538.27 257.48 536.98 255.96 537.25 253.98C537.58 251.47 539.44 250.21 542.12 249.71C544.11 249.43 546.136 249.799 547.9 250.76C547.383 250.899 546.876 251.069 546.38 251.27C546.092 251.383 545.83 251.551 545.608 251.766C545.385 251.98 545.207 252.237 545.085 252.52C544.962 252.804 544.897 253.109 544.892 253.418C544.888 253.727 544.945 254.034 545.06 254.32C545.155 254.673 545.319 255.002 545.542 255.29C545.765 255.579 546.044 255.82 546.361 255.999C546.679 256.179 547.028 256.294 547.39 256.337C547.753 256.38 548.12 256.35 548.47 256.25C549.508 255.888 550.491 255.383 551.39 254.75C551.804 254.398 552.164 253.987 552.46 253.53Z" fill="#313131"/>
<path d="M548.7 251.219C549.13 251.279 549.88 251.419 550.61 251.459C551.61 251.509 552.72 251.589 552.96 250.519C552.96 250.459 553.03 250.359 553.09 250.359C553.34 250.359 553.7 250.359 553.82 250.429C554.201 250.813 554.537 251.239 554.82 251.699C554.82 251.789 554.6 252.109 554.42 252.119C553.923 252.17 553.442 252.321 553.005 252.563C552.569 252.806 552.186 253.134 551.88 253.529C551.1 254.219 550.29 254.899 549.47 255.529C549.308 255.627 549.128 255.691 548.94 255.719C548.481 255.923 547.973 255.995 547.475 255.926C546.977 255.857 546.507 255.651 546.12 255.329C545.765 254.972 545.523 254.517 545.426 254.022C545.328 253.528 545.378 253.015 545.57 252.549C546.03 251.719 547.06 251.229 548.7 251.219Z" fill="#313131"/>
<path d="M547.27 250.061C547.95 250.061 548.6 250.171 549.27 250.151C549.94 250.131 550.56 250.021 550.66 249.301C550.66 249.181 551.33 249.071 551.52 249.191C551.884 249.445 552.177 249.79 552.37 250.191C552.4 250.312 552.389 250.44 552.338 250.554C552.287 250.668 552.2 250.762 552.089 250.821C551.363 251.031 550.601 251.095 549.849 251.009C549.098 250.924 548.37 250.689 547.71 250.321L547.38 250.151C547.38 250.151 547.3 250.101 547.27 250.061Z" fill="#313131"/>
<path d="M383.55 188.51L358.68 188.62C349.68 188.62 342.14 182.55 341.85 174.97C341.56 167.39 348.39 161.23 357.11 161.19L381.2 161.1C389.92 161.1 397.63 167.18 398.42 174.74C399.21 182.31 392.55 188.45 383.55 188.51Z" stroke="#313131" stroke-miterlimit="10"/>
<path d="M378.47 179.819C378.47 179.819 379.97 178.529 379.55 177.539C379.227 176.876 378.783 176.279 378.24 175.779C378.24 175.779 376.74 177.069 377.24 178.249C377.471 178.891 377.902 179.441 378.47 179.819Z" fill="#313131"/>
<path d="M380.04 177.29C380.04 177.29 381.54 176 381.11 175.01C380.789 174.348 380.349 173.751 379.81 173.25C379.81 173.25 378.31 174.54 378.81 175.72C379.042 176.361 379.473 176.912 380.04 177.29Z" fill="#313131"/>
<path d="M381.52 174.61C381.52 174.61 383.01 173.32 382.58 172.34C382.26 171.675 381.815 171.077 381.27 170.58C381.27 170.58 379.79 171.87 380.27 173.04C380.503 173.686 380.942 174.238 381.52 174.61Z" fill="#313131"/>
<path d="M379.38 180.281C379.38 180.281 379.71 178.441 380.86 178.191C381.644 178.038 382.449 178.017 383.24 178.131C383.24 178.131 382.92 179.961 381.55 180.281C380.84 180.481 380.089 180.481 379.38 180.281Z" fill="#313131"/>
<path d="M380.81 177.679C380.81 177.679 381.14 175.849 382.29 175.599C383.067 175.446 383.865 175.426 384.65 175.539C384.65 175.539 384.34 177.369 382.97 177.679C382.264 177.884 381.515 177.884 380.81 177.679Z" fill="#313131"/>
<path d="M382.42 175.07C382.42 175.07 382.74 173.23 383.88 172.98C384.657 172.827 385.456 172.806 386.24 172.92C386.24 172.92 385.93 174.75 384.57 175.07C383.867 175.269 383.123 175.269 382.42 175.07Z" fill="#313131"/>
<path d="M383.15 172.589C382.999 172.219 382.931 171.82 382.952 171.421C382.973 171.022 383.081 170.632 383.27 170.279C383.787 169.66 384.527 169.269 385.33 169.189C385.33 169.189 385.96 170.749 385.13 171.659C384.61 172.208 383.903 172.54 383.15 172.589Z" fill="#313131"/>
<path d="M351.67 169.521L365.31 169.461" stroke="#313131" stroke-width="0.25" stroke-miterlimit="10"/>
<path d="M353.85 169.51L353.98 172.05" stroke="#313131" stroke-width="0.25" stroke-miterlimit="10"/>
<path d="M351.89 173.849L356.26 173.829L353.93 171.939L351.89 173.849Z" fill="#313131"/>
<path d="M356.55 179.021L352.15 179.031L351.91 174.151L356.28 174.131L356.55 179.021Z" fill="#313131"/>
<path d="M356.62 180.319L352.22 180.339L352.16 179.209L356.56 179.189L356.62 180.319Z" fill="#313131"/>
<path d="M356.9 173.83L361.27 173.81L358.94 171.92L356.9 173.83Z" fill="#313131"/>
<path d="M358.83 169.49L358.98 172.03" stroke="#313131" stroke-width="0.25" stroke-miterlimit="10"/>
<path d="M361.59 178.999L357.2 179.009L356.92 174.129L361.29 174.109L361.59 178.999Z" fill="#313131"/>
<path d="M361.67 180.3L357.27 180.32L357.21 179.19L361.6 179.17L361.67 180.3Z" fill="#313131"/>
<path d="M363.94 169.471L364.11 172.011" stroke="#313131" stroke-width="0.25" stroke-miterlimit="10"/>
<path d="M362.04 173.81L366.41 173.79L364.06 171.9L362.04 173.81Z" fill="#313131"/>
<path d="M366.76 178.97L362.36 178.99L362.06 174.11L366.43 174.09L366.76 178.97Z" fill="#313131"/>
<path d="M366.84 180.28L362.44 180.3L362.37 179.17L366.77 179.15L366.84 180.28Z" fill="#313131"/>
<path d="M362.08 282.19L312.59 282.47C302.59 282.53 294.59 276.47 294.74 268.85C294.86 261.26 302.8 255.07 312.48 255.02L360.56 254.76C370.25 254.71 378.56 260.76 379.11 268.38C379.67 275.95 372.05 282.13 362.08 282.19Z" stroke="#313131" stroke-miterlimit="10"/>
<path d="M357.78 273.45C357.78 273.45 359.499 272.16 359.059 271.17C358.723 270.496 358.254 269.897 357.68 269.41C357.68 269.41 355.97 270.71 356.47 271.88C356.715 272.537 357.177 273.091 357.78 273.45Z" fill="#313131"/>
<path d="M359.62 270.96C359.62 270.96 361.33 269.66 360.89 268.68C360.559 268.005 360.093 267.406 359.52 266.92C359.52 266.92 357.81 268.21 358.31 269.39C358.56 270.044 359.021 270.597 359.62 270.96Z" fill="#313131"/>
<path d="M361.36 268.28C361.36 268.28 363.06 266.98 362.63 266C362.294 265.326 361.824 264.728 361.25 264.24C361.25 264.24 359.55 265.53 360.05 266.71C360.3 267.365 360.761 267.917 361.36 268.28Z" fill="#313131"/>
<path d="M358.77 273.951C358.77 273.951 359.21 272.111 360.5 271.861C361.368 271.707 362.254 271.683 363.13 271.791C363.13 271.791 362.7 273.621 361.13 273.941C360.356 274.138 359.545 274.141 358.77 273.951Z" fill="#313131"/>
<path d="M360.46 271.349C360.46 271.349 360.89 269.509 362.18 269.259C363.045 269.105 363.928 269.082 364.8 269.189C364.8 269.189 364.38 271.029 362.86 271.339C362.074 271.545 361.248 271.549 360.46 271.349Z" fill="#313131"/>
<path d="M362.34 268.73C362.34 268.73 362.77 266.89 364.05 266.64C364.915 266.486 365.798 266.463 366.67 266.57C366.67 266.57 366.25 268.4 364.73 268.72C363.947 268.926 363.125 268.929 362.34 268.73Z" fill="#313131"/>
<path d="M363.27 266.25C363.113 265.875 363.051 265.467 363.089 265.062C363.128 264.657 363.265 264.268 363.49 263.93C364.109 263.303 364.932 262.92 365.81 262.85C365.985 263.249 366.049 263.689 365.994 264.122C365.939 264.555 365.769 264.966 365.5 265.31C364.883 265.865 364.098 266.196 363.27 266.25Z" fill="#313131"/>
<path d="M305.97 265.651C305.525 265.327 305.197 264.866 305.038 264.339C304.879 263.812 304.898 263.247 305.09 262.731C305.105 262.664 305.128 262.6 305.16 262.541C305.16 262.541 305.26 262.421 305.32 262.421C305.38 262.421 305.45 262.481 305.49 262.531C305.53 262.581 305.59 262.761 305.65 262.871C306.141 263.722 306.928 264.362 307.86 264.671C307.991 264.711 308.13 264.711 308.26 264.671C310.389 263.956 312.692 263.956 314.82 264.671C314.96 264.716 315.11 264.716 315.25 264.671C315.752 264.499 316.215 264.229 316.611 263.878C317.008 263.526 317.33 263.098 317.56 262.621C317.614 262.537 317.678 262.46 317.75 262.391C317.82 262.471 317.93 262.541 317.96 262.631C318.184 263.147 318.228 263.723 318.084 264.267C317.941 264.811 317.619 265.291 317.17 265.631C317.136 265.659 317.105 265.693 317.08 265.731C317.41 265.731 317.72 265.731 318.08 265.811C318.596 265.864 319.094 266.027 319.54 266.291C320.42 266.851 320.38 267.701 319.43 268.191C318.676 268.538 317.849 268.696 317.02 268.651C316.39 268.651 316.39 268.651 316.19 269.111C315.76 270.111 315.33 271.161 314.91 272.181C314.872 272.277 314.872 272.384 314.91 272.481C315.18 273.111 314.57 273.941 313.46 273.981C312.35 274.021 311.06 274.031 309.87 273.981C308.87 273.981 308.21 273.261 308.42 272.511C308.45 272.42 308.45 272.322 308.42 272.231L306.99 268.851C306.92 268.681 306.82 268.641 306.6 268.661C305.84 268.734 305.072 268.659 304.34 268.441C303.68 268.231 303.13 267.911 303.12 267.311C303.11 266.711 303.6 266.311 304.29 266.091C304.98 265.871 305.36 265.781 305.97 265.651ZM313.87 265.121L313.8 265.171L312.15 267.031C311.74 267.481 311.42 267.491 311.02 267.031C310.43 266.401 309.86 265.771 309.27 265.121C308.447 265.275 307.706 265.719 307.18 266.371C307.1 266.491 307.01 266.501 306.85 266.481C306.063 266.324 305.247 266.396 304.5 266.691C304.2 266.821 303.97 266.981 303.95 267.281H304.32L307.02 267.461C307.108 267.453 307.195 267.474 307.269 267.521C307.343 267.568 307.4 267.638 307.43 267.721C307.88 268.811 308.35 269.901 308.82 270.991L309.09 271.591C310.754 271.456 312.426 271.456 314.09 271.591C314.09 271.591 314.15 271.451 314.19 271.351L315.59 268.021C315.84 267.431 315.84 267.421 316.65 267.361L319.2 267.181C319.2 266.871 318.91 266.711 318.59 266.591C317.849 266.33 317.053 266.268 316.28 266.411C316.229 266.42 316.176 266.417 316.126 266.403C316.076 266.39 316.03 266.365 315.99 266.331C315.445 265.694 314.696 265.266 313.87 265.121ZM313.82 272.711C313.791 272.525 313.689 272.357 313.538 272.245C313.386 272.133 313.197 272.085 313.01 272.111C312.823 272.093 312.636 272.149 312.489 272.267C312.341 272.384 312.245 272.554 312.22 272.741C312.257 272.921 312.359 273.081 312.506 273.19C312.654 273.299 312.837 273.349 313.02 273.331C313.208 273.353 313.398 273.301 313.548 273.185C313.697 273.069 313.795 272.898 313.82 272.711ZM310.82 272.711C310.795 272.528 310.7 272.363 310.553 272.25C310.407 272.138 310.223 272.088 310.04 272.111C309.59 272.111 309.23 272.371 309.23 272.711C309.23 273.051 309.58 273.331 310.02 273.331C310.207 273.354 310.395 273.305 310.545 273.193C310.696 273.081 310.798 272.916 310.83 272.731L310.82 272.711Z" fill="#313131"/>
<path d="M309.59 274.301H313.59C313.59 274.511 313.45 274.651 313.26 274.771C312.731 275.017 312.154 275.145 311.57 275.145C310.986 275.145 310.409 275.017 309.88 274.771C309.738 274.65 309.607 274.516 309.49 274.371L309.59 274.301Z" fill="#313131"/>
<path d="M313.63 267.83C313.794 267.813 313.958 267.857 314.089 267.956C314.221 268.054 314.311 268.199 314.34 268.36C314.298 268.518 314.205 268.657 314.076 268.756C313.947 268.856 313.788 268.91 313.625 268.91C313.462 268.91 313.304 268.856 313.174 268.756C313.045 268.657 312.952 268.518 312.91 268.36C312.937 268.196 313.028 268.048 313.162 267.949C313.297 267.85 313.465 267.807 313.63 267.83Z" fill="#313131"/>
<path d="M309.48 267.851C309.644 267.83 309.809 267.872 309.943 267.969C310.077 268.065 310.169 268.209 310.2 268.371C310.2 268.691 309.9 268.941 309.49 268.941C309.326 268.961 309.161 268.915 309.03 268.814C308.899 268.713 308.813 268.565 308.79 268.401C308.78 268.101 309.09 267.861 309.48 267.851Z" fill="#313131"/>
<path d="M330.01 263.23L345.14 263.15" stroke="#313131" stroke-width="0.25" stroke-miterlimit="10"/>
<path d="M332.42 263.221L332.48 265.761" stroke="#313131" stroke-width="0.25" stroke-miterlimit="10"/>
<path d="M330.1 267.57L334.95 267.54L332.44 265.65L330.1 267.57Z" fill="#313131"/>
<path d="M335.09 272.73L330.22 272.75L330.11 267.86L334.96 267.84L335.09 272.73Z" fill="#313131"/>
<path d="M335.13 274.03L330.25 274.06L330.22 272.93L335.1 272.9L335.13 274.03Z" fill="#313131"/>
<path d="M335.67 267.539L340.51 267.509L337.98 265.619L335.67 267.539Z" fill="#313131"/>
<path d="M337.95 263.189L338.03 265.729" stroke="#313131" stroke-width="0.25" stroke-miterlimit="10"/>
<path d="M340.68 272.691L335.81 272.721L335.67 267.831L340.52 267.811L340.68 272.691Z" fill="#313131"/>
<path d="M340.73 273.999L335.85 274.029L335.82 272.899L340.69 272.869L340.73 273.999Z" fill="#313131"/>
<path d="M343.62 263.16L343.71 265.7" stroke="#313131" stroke-width="0.25" stroke-miterlimit="10"/>
<path d="M341.36 267.5L346.2 267.48L343.67 265.59L341.36 267.5Z" fill="#313131"/>
<path d="M346.41 272.66L341.54 272.69L341.37 267.8L346.21 267.77L346.41 272.66Z" fill="#313131"/>
<path d="M346.46 273.97L341.58 274L341.54 272.87L346.42 272.84L346.46 273.97Z" fill="#313131"/>
<path d="M300.57 85.4499L278.64 85.4999C270.7 85.4999 264.64 79.3799 265.06 71.7899C265.328 68.075 266.983 64.5968 269.697 62.0459C272.411 59.495 275.985 58.0579 279.71 58.0199H300.86C304.529 57.9931 308.06 59.4184 310.683 61.9849C313.306 64.5513 314.807 68.0508 314.86 71.7199C314.89 79.2699 308.5 85.4499 300.57 85.4499Z" stroke="#313131" stroke-miterlimit="10"/>
<path d="M295.91 76.7294C295.91 76.7294 297.34 75.4394 297.05 74.4594C296.841 73.8072 296.501 73.2047 296.05 72.6895C296.05 72.6895 294.62 73.9794 294.95 75.1494C295.076 75.772 295.415 76.331 295.91 76.7294Z" fill="#313131"/>
<path d="M297.51 74.2001C297.51 74.2001 298.94 72.9101 298.65 71.9301C298.436 71.28 298.097 70.6785 297.65 70.1602C297.65 70.1602 296.23 71.4501 296.55 72.6201C296.68 73.2409 297.019 73.7984 297.51 74.2001Z" fill="#313131"/>
<path d="M299.05 71.5205C299.05 71.5205 300.47 70.2405 300.18 69.2505C299.966 68.6003 299.627 67.9988 299.18 67.4805C299.18 67.4805 297.76 68.7705 298.09 69.9505C298.218 70.5694 298.557 71.1246 299.05 71.5205Z" fill="#313131"/>
<path d="M296.67 77.1893C296.67 77.1893 297.12 75.3592 298.16 75.0992C298.847 74.952 299.556 74.9351 300.25 75.0493C300.25 75.0493 299.81 76.8793 298.58 77.1993C297.959 77.4041 297.288 77.4006 296.67 77.1893Z" fill="#313131"/>
<path d="M298.15 74.5994C298.15 74.5994 298.59 72.7594 299.63 72.5094C300.314 72.3622 301.02 72.3452 301.71 72.4594C301.71 72.4594 301.28 74.2894 300.05 74.5994C299.434 74.8052 298.767 74.8052 298.15 74.5994Z" fill="#313131"/>
<path d="M299.8 71.9802C299.8 71.9802 300.24 70.1502 301.27 69.8902C301.954 69.7431 302.659 69.7261 303.35 69.8402C303.35 69.8402 302.92 71.6702 301.69 71.9902C301.075 72.1906 300.412 72.1871 299.8 71.9802Z" fill="#313131"/>
<path d="M300.67 69.4994C300.465 68.7153 300.576 67.8821 300.98 67.1794C301.208 66.8826 301.494 66.6349 301.821 66.4511C302.147 66.2672 302.507 66.151 302.88 66.1094C302.995 66.5234 303.019 66.9573 302.952 67.3818C302.885 67.8062 302.727 68.2112 302.49 68.5694C302.028 69.1059 301.375 69.4398 300.67 69.4994Z" fill="#313131"/>
<path d="M274.01 66.3501L286 66.3301" stroke="#313131" stroke-width="0.25" stroke-miterlimit="10"/>
<path d="M275.92 66.3398L275.81 68.8898" stroke="#313131" stroke-width="0.25" stroke-miterlimit="10"/>
<path d="M273.81 70.6893L277.66 70.6793L275.78 68.7793L273.81 70.6893Z" fill="#313131"/>
<path d="M277.44 75.8705L273.57 75.8805L273.8 70.9805H277.64L277.44 75.8705Z" fill="#313131"/>
<path d="M277.39 77.1808L273.51 77.1908L273.56 76.0608L277.44 76.0508L277.39 77.1808Z" fill="#313131"/>
<path d="M278.22 70.6795L282.07 70.6695L280.18 68.7695L278.22 70.6795Z" fill="#313131"/>
<path d="M280.31 66.3398L280.21 68.8798" stroke="#313131" stroke-width="0.25" stroke-miterlimit="10"/>
<path d="M281.88 75.8607L278.01 75.8707L278.21 70.9807L282.06 70.9707L281.88 75.8607Z" fill="#313131"/>
<path d="M281.84 77.1691L277.96 77.1791L278 76.0491L281.88 76.0391L281.84 77.1691Z" fill="#313131"/>
<path d="M284.8 66.3301L284.72 68.8701" stroke="#313131" stroke-width="0.25" stroke-miterlimit="10"/>
<path d="M282.74 70.6698L286.58 70.6598L284.68 68.7598L282.74 70.6698Z" fill="#313131"/>
<path d="M286.43 75.8609H282.56L282.73 70.9709L286.57 70.9609L286.43 75.8609Z" fill="#313131"/>
<path d="M286.39 77.1593L282.51 77.1693L282.55 76.0393L286.42 76.0293L286.39 77.1593Z" fill="#313131"/>
<path d="M420.65 129.86L335.65 130.12C327.26 130.12 320.36 124.03 320.25 116.45C320.14 108.87 326.63 102.71 334.75 102.69L416.84 102.48C424.95 102.48 432.49 108.56 433.67 116.12C434.9 123.68 429.05 129.83 420.65 129.86Z" stroke="#313131" stroke-miterlimit="10"/>
<path d="M393.92 121.229C393.92 121.229 395.28 119.939 394.85 118.959C394.542 118.297 394.111 117.7 393.58 117.199C393.58 117.199 392.23 118.479 392.72 119.659C392.949 120.294 393.368 120.842 393.92 121.229Z" fill="#313131"/>
<path d="M395.31 118.7C395.31 118.7 396.66 117.42 396.23 116.43C395.915 115.772 395.485 115.176 394.96 114.67C394.96 114.67 393.61 115.96 394.11 117.13C394.334 117.767 394.754 118.316 395.31 118.7Z" fill="#313131"/>
<path d="M396.6 116.03C396.6 116.03 397.95 114.75 397.52 113.76C397.207 113.101 396.777 112.505 396.25 112C396.25 112 394.91 113.28 395.4 114.46C395.628 115.095 396.047 115.643 396.6 116.03Z" fill="#313131"/>
<path d="M394.78 121.691C394.78 121.691 395.03 119.861 396.1 119.601C396.828 119.454 397.576 119.437 398.31 119.551C398.31 119.551 398.07 121.381 396.8 121.691C396.142 121.895 395.438 121.895 394.78 121.691Z" fill="#313131"/>
<path d="M396.04 119.101C396.04 119.101 396.28 117.271 397.35 117.011C398.075 116.864 398.82 116.847 399.55 116.961C399.55 116.961 399.31 118.791 398.05 119.101C397.395 119.299 396.695 119.299 396.04 119.101Z" fill="#313131"/>
<path d="M397.45 116.451C397.45 116.451 397.69 114.631 398.75 114.371C399.478 114.241 400.223 114.241 400.95 114.371C400.95 114.371 400.72 116.191 399.46 116.511C398.799 116.693 398.099 116.672 397.45 116.451Z" fill="#313131"/>
<path d="M398.07 114.009C397.91 113.645 397.828 113.252 397.828 112.854C397.828 112.457 397.91 112.063 398.07 111.699C398.29 111.398 398.571 111.146 398.895 110.96C399.219 110.774 399.578 110.658 399.95 110.619C399.95 110.619 400.59 112.169 399.85 113.079C399.63 113.344 399.359 113.563 399.053 113.723C398.748 113.883 398.413 113.98 398.07 114.009Z" fill="#313131"/>
<path d="M330.33 113.291C329.932 112.931 329.642 112.466 329.496 111.95C329.349 111.433 329.35 110.886 329.5 110.371C329.49 110.308 329.49 110.243 329.5 110.181C329.5 110.181 329.58 110.061 329.63 110.061C329.68 110.061 329.75 110.121 329.77 110.171C329.79 110.221 329.87 110.401 329.93 110.511C330.32 111.326 330.996 111.97 331.83 112.321C331.94 112.36 332.06 112.36 332.17 112.321C333.934 111.606 335.906 111.606 337.67 112.321C337.786 112.366 337.914 112.366 338.03 112.321C338.462 112.132 338.852 111.857 339.175 111.513C339.498 111.169 339.748 110.764 339.91 110.321C339.948 110.237 339.999 110.159 340.06 110.091C340.12 110.171 340.22 110.241 340.25 110.331C340.458 110.832 340.514 111.384 340.411 111.918C340.308 112.451 340.05 112.942 339.67 113.331C339.67 113.331 339.67 113.381 339.6 113.421C339.88 113.421 340.14 113.421 340.4 113.501C340.847 113.56 341.273 113.728 341.64 113.991C341.814 114.081 341.96 114.217 342.062 114.385C342.164 114.552 342.218 114.744 342.218 114.941C342.218 115.137 342.164 115.329 342.062 115.496C341.96 115.664 341.814 115.8 341.64 115.891C341.03 116.228 340.336 116.384 339.64 116.341C339.1 116.341 339.1 116.341 338.95 116.801C338.62 117.801 338.29 118.801 337.95 119.861C337.921 119.958 337.921 120.063 337.95 120.161C338.003 120.339 338.012 120.527 337.977 120.71C337.943 120.893 337.865 121.064 337.75 121.211C337.636 121.358 337.488 121.475 337.32 121.553C337.151 121.631 336.966 121.668 336.78 121.661C335.78 121.661 334.78 121.661 333.78 121.661C333.594 121.666 333.409 121.631 333.238 121.556C333.068 121.481 332.916 121.369 332.795 121.228C332.673 121.087 332.584 120.921 332.535 120.742C332.486 120.562 332.477 120.374 332.51 120.191C332.535 120.099 332.535 120.002 332.51 119.911C332.07 118.781 331.63 117.661 331.2 116.521C331.191 116.487 331.175 116.455 331.153 116.427C331.131 116.4 331.104 116.377 331.074 116.36C331.043 116.343 331.009 116.333 330.974 116.329C330.939 116.326 330.903 116.33 330.87 116.341C330.225 116.408 329.573 116.333 328.96 116.121C328.4 115.901 327.96 115.581 327.96 114.971C327.957 114.692 328.048 114.421 328.219 114.201C328.389 113.982 328.63 113.826 328.9 113.761C329.368 113.579 329.846 113.422 330.33 113.291ZM336.94 112.781L336.88 112.841C336.43 113.451 335.98 114.071 335.54 114.691C335.21 115.141 334.94 115.151 334.59 114.691L333.06 112.781C332.345 112.956 331.728 113.405 331.34 114.031C331.28 114.151 331.21 114.161 331.07 114.131C330.399 113.968 329.693 114.043 329.07 114.341C328.946 114.38 328.837 114.457 328.758 114.561C328.679 114.664 328.634 114.79 328.63 114.921H328.94L331.21 115.101C331.29 115.096 331.368 115.12 331.432 115.167C331.496 115.215 331.541 115.283 331.56 115.361C331.98 116.461 332.4 117.541 332.83 118.631L333.07 119.241C334.47 119.106 335.88 119.106 337.28 119.241C337.28 119.241 337.33 119.101 337.36 119.001L338.43 115.681C338.62 115.081 338.62 115.081 339.3 115.021L341.44 114.851C341.418 114.712 341.356 114.582 341.262 114.477C341.168 114.373 341.046 114.297 340.91 114.261C340.295 113.997 339.613 113.934 338.96 114.081C338.916 114.085 338.871 114.079 338.83 114.064C338.788 114.048 338.75 114.023 338.72 113.991C338.282 113.396 337.654 112.969 336.94 112.781ZM337.13 120.371C337.124 120.285 337.101 120.202 337.062 120.125C337.023 120.049 336.97 119.981 336.905 119.925C336.84 119.869 336.764 119.827 336.683 119.8C336.601 119.774 336.515 119.764 336.43 119.771C336.347 119.766 336.263 119.779 336.185 119.809C336.107 119.838 336.036 119.884 335.976 119.942C335.916 120 335.868 120.07 335.836 120.147C335.804 120.224 335.789 120.307 335.79 120.391C335.81 120.558 335.892 120.713 336.019 120.824C336.147 120.935 336.311 120.994 336.48 120.991C336.566 120.999 336.653 120.989 336.734 120.962C336.816 120.934 336.891 120.89 336.954 120.831C337.018 120.773 337.068 120.701 337.102 120.622C337.135 120.542 337.152 120.457 337.15 120.371H337.13ZM334.62 120.371C334.605 120.202 334.526 120.045 334.4 119.932C334.274 119.818 334.11 119.757 333.94 119.761C333.856 119.755 333.772 119.767 333.693 119.795C333.614 119.823 333.541 119.867 333.479 119.924C333.417 119.981 333.368 120.05 333.334 120.127C333.299 120.204 333.281 120.286 333.28 120.371C333.29 120.544 333.369 120.706 333.498 120.822C333.627 120.938 333.797 120.999 333.97 120.991C334.053 120.993 334.135 120.98 334.213 120.95C334.29 120.921 334.361 120.877 334.421 120.82C334.482 120.764 334.53 120.696 334.565 120.62C334.599 120.545 334.617 120.463 334.62 120.381V120.371Z" fill="#313131"/>
<path d="M333.62 121.939H336.99C336.996 122.034 336.974 122.129 336.928 122.212C336.882 122.296 336.813 122.364 336.73 122.409C336.298 122.658 335.808 122.788 335.31 122.788C334.811 122.788 334.322 122.658 333.89 122.409C333.758 122.293 333.644 122.158 333.55 122.009L333.62 121.939Z" fill="#313131"/>
<path d="M336.83 115.451C336.98 115.448 337.126 115.502 337.237 115.602C337.348 115.702 337.418 115.841 337.43 115.991C337.431 116.066 337.415 116.141 337.385 116.21C337.355 116.279 337.31 116.34 337.255 116.391C337.199 116.442 337.134 116.481 337.062 116.505C336.991 116.529 336.915 116.538 336.84 116.531C336.691 116.531 336.547 116.477 336.436 116.377C336.325 116.277 336.255 116.139 336.24 115.991C336.241 115.916 336.258 115.842 336.289 115.774C336.319 115.705 336.364 115.644 336.419 115.594C336.474 115.543 336.539 115.504 336.61 115.48C336.68 115.455 336.756 115.445 336.83 115.451Z" fill="#313131"/>
<path d="M333.34 115.5C333.489 115.489 333.637 115.537 333.752 115.634C333.866 115.732 333.937 115.87 333.95 116.02C333.954 116.095 333.942 116.171 333.915 116.242C333.888 116.312 333.846 116.376 333.792 116.429C333.738 116.482 333.673 116.523 333.602 116.549C333.531 116.575 333.455 116.585 333.38 116.58C333.23 116.585 333.083 116.534 332.97 116.435C332.856 116.337 332.785 116.199 332.77 116.05C332.768 115.975 332.782 115.901 332.81 115.833C332.839 115.764 332.881 115.702 332.935 115.65C332.988 115.599 333.052 115.559 333.121 115.533C333.191 115.507 333.265 115.495 333.34 115.5Z" fill="#313131"/>
<path d="M362.25 114.121C361.79 113.761 360.18 113.771 360.17 113.421C360.16 113.071 361.7 112.761 361.78 112.201C361.86 111.641 360.78 110.861 360.11 111.051C359.44 111.241 359.43 112.671 359.18 112.651C358.93 112.631 358.96 112.211 358.81 111.711C358.789 111.573 358.739 111.442 358.665 111.324C358.59 111.207 358.492 111.106 358.376 111.029C358.26 110.952 358.129 110.9 357.992 110.876C357.855 110.852 357.715 110.857 357.58 110.891C356.89 111.001 356.66 111.731 356.81 111.961C356.96 112.191 358.03 113.091 358.32 113.401C358.61 113.711 358.32 113.841 358.13 113.991C357.605 113.558 356.984 113.257 356.32 113.111C355.18 112.981 354.43 114.251 354.43 114.251L354.36 114.381L355.9 115.381C355.929 115.4 355.955 115.425 355.974 115.454C355.994 115.483 356.007 115.516 356.014 115.551C356.021 115.586 356.02 115.621 356.012 115.655C356.005 115.69 355.99 115.722 355.97 115.751C355.923 115.809 355.854 115.847 355.78 115.857C355.705 115.866 355.63 115.846 355.57 115.801L354.1 114.801C353.98 115.001 353.84 115.261 353.69 115.541L355.13 116.541C355.16 116.561 355.185 116.587 355.205 116.617C355.225 116.647 355.238 116.681 355.245 116.716C355.251 116.752 355.251 116.788 355.243 116.823C355.235 116.858 355.22 116.891 355.2 116.921C355.151 116.977 355.083 117.014 355.009 117.023C354.935 117.032 354.861 117.014 354.8 116.971L353.44 116.041C352.33 118.151 350.82 121.401 351.88 121.751C353.46 122.261 358.62 118.911 359.53 117.941C360.44 116.971 360.4 116.141 359.86 115.491C359.582 115.185 359.285 114.898 358.97 114.631C359.03 114.441 359.15 114.211 359.4 114.201C359.83 114.201 360.48 115.321 361.31 115.501C362.14 115.681 362.71 114.451 362.25 114.121Z" fill="#313131"/>
<path d="M369.87 110.889L382.57 110.859" stroke="#313131" stroke-width="0.25" stroke-miterlimit="10"/>
<path d="M371.89 110.891L372.1 113.431" stroke="#313131" stroke-width="0.25" stroke-miterlimit="10"/>
<path d="M370.2 115.22L374.27 115.21L372.05 113.32L370.2 115.22Z" fill="#313131"/>
<path d="M374.7 120.39L370.6 120.41L370.23 115.52L374.3 115.51L374.7 120.39Z" fill="#313131"/>
<path d="M374.81 121.7L370.7 121.71L370.62 120.58L374.71 120.57L374.81 121.7Z" fill="#313131"/>
<path d="M374.88 115.211L378.95 115.201L376.71 113.301L374.88 115.211Z" fill="#313131"/>
<path d="M376.54 110.881L376.76 113.421" stroke="#313131" stroke-width="0.25" stroke-miterlimit="10"/>
<path d="M379.4 120.38L375.3 120.39L374.9 115.51L378.97 115.5L379.4 120.38Z" fill="#313131"/>
<path d="M379.52 121.691L375.41 121.701L375.32 120.571L379.42 120.561L379.52 121.691Z" fill="#313131"/>
<path d="M381.3 110.859L381.53 113.399" stroke="#313131" stroke-width="0.25" stroke-miterlimit="10"/>
<path d="M379.66 115.199L383.73 115.189L381.48 113.289L379.66 115.199Z" fill="#313131"/>
<path d="M384.21 120.37L380.12 120.38L379.68 115.5L383.76 115.48L384.21 120.37Z" fill="#313131"/>
<path d="M384.34 121.669L380.23 121.679L380.13 120.559L384.23 120.539L384.34 121.669Z" fill="#313131"/>
<path d="M411.53 119.499H410.37L409.37 111.969C409.364 111.919 409.369 111.868 409.385 111.819C409.401 111.771 409.428 111.727 409.464 111.691C409.499 111.654 409.542 111.626 409.59 111.609C409.638 111.591 409.689 111.585 409.74 111.589H418.23C418.34 111.589 418.447 111.627 418.532 111.696C418.618 111.765 418.677 111.862 418.7 111.969L419.7 119.109C419.706 119.16 419.701 119.211 419.685 119.259C419.668 119.308 419.641 119.352 419.606 119.388C419.57 119.425 419.527 119.453 419.479 119.47C419.432 119.488 419.38 119.494 419.33 119.489H415.15C415.062 119.49 414.976 119.467 414.901 119.423C414.825 119.379 414.763 119.316 414.72 119.239C414.574 118.924 414.337 118.661 414.039 118.482C413.741 118.304 413.396 118.219 413.05 118.239C412.684 118.219 412.324 118.337 412.042 118.571C411.76 118.805 411.577 119.136 411.53 119.499Z" fill="#313131"/>
<path d="M422.38 112.939H419.51L420.42 119.479H420.7C420.7 119.479 420.56 118.029 422.27 118.049C422.697 118.001 423.127 118.123 423.466 118.389C423.804 118.655 424.025 119.043 424.08 119.469H426.08L425.61 116.229L422.38 112.939ZM420.78 115.939L420.43 113.559H422.08L424.21 115.849L420.78 115.939Z" fill="#313131"/>
<path d="M413.09 118.449C412.937 118.44 412.784 118.464 412.642 118.519C412.499 118.575 412.371 118.661 412.265 118.771C412.159 118.882 412.079 119.014 412.03 119.159C411.98 119.304 411.963 119.457 411.98 119.609C412.043 119.935 412.219 120.228 412.477 120.436C412.735 120.645 413.058 120.755 413.39 120.749C413.544 120.768 413.7 120.751 413.846 120.7C413.992 120.648 414.124 120.563 414.232 120.451C414.339 120.34 414.42 120.205 414.466 120.057C414.513 119.909 414.524 119.752 414.5 119.599C414.438 119.272 414.263 118.977 414.005 118.766C413.747 118.556 413.423 118.444 413.09 118.449ZM413.29 120.019C413.169 120.019 413.052 119.977 412.959 119.901C412.866 119.824 412.803 119.718 412.78 119.599C412.773 119.544 412.78 119.488 412.798 119.435C412.816 119.383 412.846 119.335 412.886 119.295C412.925 119.256 412.973 119.226 413.026 119.207C413.078 119.189 413.134 119.183 413.19 119.189C413.309 119.187 413.426 119.227 413.519 119.302C413.612 119.377 413.676 119.482 413.7 119.599C413.709 119.657 413.705 119.715 413.688 119.771C413.672 119.827 413.642 119.878 413.603 119.92C413.563 119.963 413.514 119.995 413.46 120.016C413.406 120.037 413.348 120.045 413.29 120.039V120.019Z" fill="#313131"/>
<path d="M422.37 118.451C422.217 118.435 422.064 118.454 421.92 118.508C421.777 118.561 421.647 118.646 421.542 118.757C421.436 118.868 421.358 119.002 421.313 119.148C421.267 119.295 421.256 119.449 421.28 119.601C421.343 119.928 421.521 120.222 421.781 120.431C422.041 120.639 422.366 120.749 422.7 120.741C422.853 120.758 423.008 120.74 423.153 120.687C423.297 120.635 423.428 120.549 423.535 120.438C423.641 120.327 423.72 120.192 423.766 120.045C423.812 119.898 423.824 119.743 423.8 119.591C423.732 119.263 423.552 118.97 423.291 118.762C423.03 118.554 422.704 118.444 422.37 118.451ZM422.59 120.011C422.47 120.013 422.354 119.973 422.26 119.898C422.167 119.823 422.103 119.718 422.08 119.601C422.074 119.546 422.08 119.49 422.098 119.438C422.115 119.386 422.144 119.338 422.182 119.298C422.22 119.258 422.267 119.227 422.318 119.206C422.369 119.186 422.425 119.177 422.48 119.181C422.599 119.178 422.716 119.218 422.809 119.293C422.902 119.368 422.966 119.473 422.99 119.591C422.997 119.646 422.993 119.702 422.976 119.755C422.959 119.808 422.93 119.857 422.891 119.897C422.853 119.938 422.806 119.969 422.753 119.988C422.701 120.008 422.645 120.016 422.59 120.011Z" fill="#313131"/>
</g>
<defs>
<clipPath id="clip0_1574_10975">
<rect width="657.36" height="346.87" fill="white"/>
</clipPath>
</defs>
</svg>
