<svg width="820" height="18" viewBox="0 0 820 18" fill="none" xmlns="http://www.w3.org/2000/svg"
    preserveAspectRatio="none">
    <path
        d="M1.00002 2.69939C6.50002 12.9994 18.9 18.7994 30.3 15.9994C37.9 14.0994 43.2 7.79939 50.6 5.49939C57.8 3.29939 64.6 6.69939 70.7 10.1994C76.3 13.2994 82.2 17.0994 88.8 17.2994C95.9 17.5994 101.7 13.1994 107.7 10.1994C116 5.99939 123.1 7.29939 131.2 10.9994C137.5 13.8994 143.8 16.9994 151 16.0994C158.1 15.1994 164.5 11.5994 171.1 8.99939C179.7 5.69939 186.9 5.99939 195.3 9.69939C202.3 12.6994 208.9 15.7994 216.8 14.9994C223.9 14.2994 230.6 11.4994 237.3 8.99939C244.5 6.29939 252.2 3.4994 260.1 4.7994C267.7 5.9994 273.7 11.0994 280.4 14.3994C286.6 17.3994 292.7 17.7994 299.3 15.6994C306.3 13.3994 312.9 8.99939 320.4 8.39939C328.5 7.79939 334.2 14.2994 342 14.5994C349 14.8994 355.3 10.9994 361.5 8.49939C369.6 5.19939 376.4 5.79939 384.2 9.39939C390.3 12.0994 396.8 15.7994 403.7 14.3994C411.1 12.8994 416.2 6.49939 424.2 6.39939C431.1 6.29939 437.6 9.19939 444 11.3994C449.4 13.1994 455.3 15.0994 461 13.6994C467.8 12.0994 470.9 5.29939 477.1 2.99939C482.1 1.19939 486 4.9994 489.8 7.5994C492.8 9.6994 496.1 11.2994 499.6 12.2994C506.4 14.2994 513.8 14.0994 520.5 11.6994C528.1 8.89939 534.9 2.3994 543.4 2.5994C551.4 2.7994 557.4 9.29939 565 10.9994C580.1 14.2994 592.9 -0.400607 608.1 3.49939C615.1 5.29939 621.1 9.89939 628.1 11.4994C630.8 12.0994 633.5 12.1994 636.2 11.4994C640.2 10.3994 643.1 7.49939 646.7 5.69939C659.3 -0.700611 670.4 14.1994 682.8 14.1994C689.8 14.1994 693.4 8.39939 699.3 5.99939C707.3 2.69939 714.2 9.9994 721.7 11.2994C728.6 12.4994 734.5 8.49939 740.8 6.49939C745 5.09939 748.9 4.8994 753 6.5994C756.6 8.0994 759.7 10.3994 763.3 11.9994C766.1 13.1994 769.1 13.8994 772.2 13.2994C775.5 12.5994 778.2 10.5994 781.3 9.49939C786.3 7.69939 789.8 9.89939 794.4 11.3994C797.7 12.4994 801.2 12.6994 804.7 12.0994C810.6 10.9994 815.7 7.5994 819.1 2.5994C819.6 1.7994 818.8 -0.200607 818 0.999393C813.4 7.89939 804.6 11.5994 796.5 9.5994C793.3 8.7994 790.4 6.79939 787 6.39939C783.4 5.89939 780.2 7.4994 777 9.0994C773.3 10.8994 769.8 11.8994 765.8 10.6994C762.1 9.59939 759 7.19939 755.5 5.49939C749.1 2.29939 743.4 3.1994 736.9 5.7994C733.4 7.1994 729.9 8.8994 726 9.2994C721.8 9.6994 718.1 8.19939 714.4 6.49939C708.5 3.79939 702.9 1.3994 696.8 5.0994C693.8 6.8994 691.4 9.49939 688.2 10.8994C684.8 12.4994 681.2 12.2994 677.7 11.2994C671.7 9.5994 666.5 5.89939 660.7 3.69939C654.9 1.49939 649.5 1.59939 644.1 4.89939C640.9 6.89939 638.1 9.19939 634.2 9.69939C630.3 10.1994 626.5 8.99939 622.9 7.49939C616.6 4.89939 610.5 0.899399 603.5 0.599399C596.5 0.199399 589.8 3.2994 583.4 5.7994C575.6 8.7994 568.1 10.7994 560.1 7.0994C553.8 4.1994 548 -0.300601 540.7 0.599399C533 1.5994 527 6.9994 519.9 9.5994C512.1 12.4994 503.2 12.0994 495.6 8.69939C489.9 6.19939 484.3 -1.2006 477.4 0.599399C471 2.2994 467.8 9.3994 461.3 11.2994C448.5 15.0994 436.1 3.59939 423.3 4.19939C415.9 4.49939 411.1 9.99939 404.4 11.9994C396.7 14.2994 389.4 9.4994 382.6 6.5994C376.4 3.9994 370.5 3.1994 364 5.2994C357.1 7.4994 350.6 12.0994 343.2 12.5994C335.3 13.0994 329.4 6.49939 321.5 6.39939C314.6 6.39939 308.4 9.89939 302.2 12.3994C294.6 15.4994 287.8 16.1994 280.3 12.5994C273.9 9.4994 268.2 4.6994 261 3.0994C246.8 0.0993989 233.8 9.69939 220.4 12.4994C211.9 14.2994 204.8 12.0994 197.1 8.69939C190.4 5.69939 183.9 3.5994 176.5 5.2994C169.4 6.8994 163 10.7994 156.1 12.9994C147.9 15.5994 141 13.8994 133.4 10.3994C127.2 7.59939 120.7 4.39939 113.8 5.99939C106.7 7.59939 101.2 12.6994 94.4 14.8994C80.2 19.2994 70 4.59939 56.6 3.39939C49.3 2.79939 43.7 7.29939 37.9 10.8994C31.6 14.8994 24.7 16.3994 17.3 14.4994C10.5 12.7994 4.70002 8.39939 1.30001 2.19939C1.30001 0.99939 0.700016 2.19939 1.00002 2.69939Z"
        fill="#E6E3D6" />
</svg>