<svg xmlns="http://www.w3.org/2000/svg" width="222" height="5" viewBox="0 0 222 5" fill="none"
    preserveAspectRatio="none">
    <path
        d="M0.0256618 0.69999C1.70589 3.73053 5.49405 5.43705 8.97672 4.61322C11.2985 4.05418 12.9176 2.20055 15.1783 1.52383C17.3779 0.876528 19.4553 1.8769 21.3188 2.9067C23.0296 3.8188 24.832 4.93687 26.8483 4.99571C29.0173 5.08398 30.7892 3.78938 32.6222 2.9067C35.1578 1.67094 37.3268 2.05344 39.8013 3.14208C41.726 3.99534 43.6506 4.90745 45.8502 4.64264C48.0192 4.37784 49.9744 3.31862 51.9907 2.55362C54.618 1.58267 56.8175 1.67094 59.3837 2.75958C61.5222 3.64227 63.5385 4.55437 65.9519 4.31899C68.1209 4.11303 70.1677 3.28919 72.2146 2.55362C74.4141 1.75921 76.7665 0.935374 79.1799 1.31787C81.5017 1.67094 83.3347 3.1715 85.3815 4.14245C87.2756 5.02513 89.1391 5.14283 91.1554 4.52495C93.2939 3.84822 95.3101 2.55362 97.6014 2.37709C100.076 2.20055 101.817 4.11303 104.2 4.2013C106.339 4.28957 108.263 3.14208 110.157 2.40651C112.632 1.43556 114.709 1.61209 117.092 2.67131C118.956 3.46573 120.941 4.55437 123.049 4.14245C125.31 3.70111 126.868 1.81805 129.312 1.78863C131.42 1.75921 133.406 2.61247 135.361 3.25977C137.01 3.78938 138.813 4.34841 140.554 3.93649C142.632 3.46573 143.579 1.46498 145.473 0.788259C147 0.25865 148.192 1.37672 149.353 2.14171C150.269 2.75959 151.277 3.23035 152.346 3.52458C154.424 4.11303 156.684 4.05418 158.731 3.34804C161.053 2.5242 163.13 0.611724 165.727 0.67057C168.171 0.729415 170.004 2.64189 172.326 3.14208C176.939 4.11303 180.849 -0.212115 185.493 0.935373C187.631 1.46498 189.464 2.81843 191.603 3.28919C192.428 3.46573 193.252 3.49515 194.077 3.28919C195.299 2.96554 196.185 2.11228 197.285 1.58267C201.134 -0.300384 204.525 4.08361 208.313 4.08361C210.452 4.08361 211.552 2.37709 213.354 1.67094C215.798 0.699991 217.906 2.84785 220.197 3.23035C221.511 3.5 222.057 2.77312 221.511 2.64189C220.965 2.51067 219.097 2.31824 217.967 1.81806C216.165 1.02364 214.454 0.317497 212.59 1.40614C211.674 1.93575 210.941 2.70074 209.963 3.11265C208.924 3.58342 207.825 3.52458 206.755 3.23035C204.922 2.73016 203.334 1.64152 201.562 0.994217C199.79 0.346917 198.14 0.376339 196.491 1.34729C195.513 1.93574 194.658 2.61247 193.466 2.75958C192.275 2.9067 191.114 2.55362 190.014 2.11228C188.09 1.34729 186.226 0.170383 184.087 0.0821149C181.949 -0.0355761 179.902 0.876528 177.947 1.6121C175.564 2.49478 173.273 3.08324 170.829 1.99459C168.904 1.14133 167.132 -0.18269 164.902 0.0821149C162.55 0.376342 160.717 1.96517 158.548 2.73016C156.165 3.58342 153.446 3.46573 151.124 2.46536C149.383 1.72979 147.672 -0.447495 145.564 0.0821149C143.609 0.582302 142.632 2.67132 140.646 3.23035C136.736 4.34841 132.947 0.964795 129.037 1.14133C126.776 1.2296 125.31 2.84785 123.263 3.43631C120.911 4.11303 118.681 2.70074 116.603 1.84748C114.709 1.08249 112.907 0.847106 110.921 1.46498C108.813 2.11228 106.827 3.46573 104.567 3.61285C102.153 3.75996 100.351 1.81805 97.9374 1.78863C95.8295 1.78863 93.9354 2.81843 92.0413 3.554C89.7195 4.4661 87.6422 4.67206 85.3509 3.61285C83.3958 2.70074 81.6544 1.28845 79.4548 0.817684C75.1168 -0.0649989 71.1453 2.75958 67.0517 3.58342C64.4549 4.11303 62.2859 3.46573 59.9336 2.46536C57.8868 1.58267 55.901 0.964796 53.6404 1.46498C51.4713 1.93575 49.5162 3.08323 47.4082 3.73053C44.9031 4.49553 42.7952 3.99534 40.4734 2.96554C38.5794 2.1417 36.5936 1.20018 34.4857 1.67094C32.3167 2.14171 30.6364 3.64226 28.5591 4.28957C24.221 5.58417 21.1049 1.25902 17.0113 0.905948C14.7812 0.729412 13.0704 2.05344 11.2985 3.11265C9.37387 4.28957 7.26594 4.73091 5.00526 4.17188C2.92788 3.67169 1.156 2.37709 0.117311 0.552876C0.117311 0.199803 -0.0659873 0.552876 0.0256618 0.69999Z"
        fill="#E6E3D6" />
</svg>