<svg xmlns="http://www.w3.org/2000/svg" width="231" height="5" viewBox="0 0 231 5" fill="none">
    <path
        d="M0.0267357 0.69999C1.77729 3.73053 5.72398 5.43705 9.3524 4.61322C11.7713 4.05418 13.4582 2.20055 15.8135 1.52383C18.1052 0.876528 20.2695 1.8769 22.211 2.9067C23.9934 3.8188 25.8712 4.93687 27.9719 4.99571C30.2317 5.08398 32.0777 3.78938 33.9874 2.9067C36.6292 1.67094 38.889 2.05344 41.4671 3.14208C43.4722 3.99534 45.4774 4.90745 47.769 4.64264C50.0288 4.37784 52.0659 3.31862 54.1665 2.55362C56.9037 1.58267 59.1954 1.67094 61.8689 2.75958C64.0969 3.64227 66.1976 4.55437 68.712 4.31899C70.9718 4.11303 73.1043 3.28919 75.2368 2.55362C77.5284 1.75921 79.9792 0.935374 82.4936 1.31787C84.9126 1.67094 86.8223 3.1715 88.9547 4.14245C90.9281 5.02513 92.8696 5.14283 94.9703 4.52495C97.1982 3.84822 99.2989 2.55362 101.686 2.37709C104.264 2.20055 106.078 4.11303 108.561 4.2013C110.789 4.28957 112.794 3.14208 114.767 2.40651C117.345 1.43556 119.51 1.61209 121.992 2.67131C123.934 3.46573 126.003 4.55437 128.199 4.14245C130.554 3.70111 132.177 1.81805 134.724 1.78863C136.92 1.75921 138.989 2.61247 141.026 3.25977C142.744 3.78938 144.622 4.34841 146.436 3.93649C148.601 3.46573 149.587 1.46498 151.561 0.788259C153.152 0.25865 154.394 1.37672 155.603 2.14171C156.558 2.75959 157.608 3.23035 158.722 3.52458C160.886 4.11303 163.242 4.05418 165.374 3.34804C167.793 2.5242 169.958 0.611724 172.663 0.67057C175.209 0.729415 177.119 2.64189 179.538 3.14208C184.344 4.11303 188.418 -0.212115 193.256 0.935373C195.484 1.46498 197.393 2.81843 199.621 3.28919C200.481 3.46573 201.34 3.49515 202.199 3.28919C203.473 2.96554 204.396 2.11228 205.541 1.58267C209.552 -0.300384 213.085 4.08361 217.031 4.08361C219.259 4.08361 220.405 2.37709 222.283 1.67094C224.829 0.699991 227.025 2.84785 229.413 3.23035C230.781 3.5 231.35 2.77312 230.781 2.64189C230.213 2.51067 228.267 2.31824 227.089 1.81806C225.211 1.02364 223.429 0.317497 221.487 1.40614C220.533 1.93575 219.769 2.70074 218.75 3.11265C217.668 3.58342 216.522 3.52458 215.408 3.23035C213.499 2.73016 211.843 1.64152 209.997 0.994217C208.151 0.346917 206.433 0.376339 204.714 1.34729C203.695 1.93574 202.804 2.61247 201.563 2.75958C200.322 2.9067 199.112 2.55362 197.966 2.11228C195.961 1.34729 194.02 0.170383 191.792 0.0821149C189.564 -0.0355761 187.431 0.876528 185.394 1.6121C182.912 2.49478 180.524 3.08324 177.978 1.99459C175.973 1.14133 174.127 -0.18269 171.804 0.0821149C169.353 0.376342 167.443 1.96517 165.183 2.73016C162.701 3.58342 159.868 3.46573 157.449 2.46536C155.635 1.72979 153.852 -0.447495 151.656 0.0821149C149.619 0.582302 148.601 2.67132 146.532 3.23035C142.458 4.34841 138.511 0.964795 134.437 1.14133C132.082 1.2296 130.554 2.84785 128.422 3.43631C125.971 4.11303 123.647 2.70074 121.483 1.84748C119.51 1.08249 117.632 0.847106 115.563 1.46498C113.367 2.11228 111.298 3.46573 108.943 3.61285C106.428 3.75996 104.551 1.81805 102.036 1.78863C99.84 1.78863 97.8666 2.81843 95.8933 3.554C93.4743 4.4661 91.31 4.67206 88.9229 3.61285C86.8859 2.70074 85.0717 1.28845 82.7801 0.817684C78.2605 -0.0649989 74.1228 2.75958 69.8578 3.58342C67.1524 4.11303 64.8926 3.46573 62.4418 2.46536C60.3094 1.58267 58.2405 0.964796 55.8852 1.46498C53.6254 1.93575 51.5884 3.08323 49.3923 3.73053C46.7824 4.49553 44.5862 3.99534 42.1673 2.96554C40.1939 2.1417 38.1251 1.20018 35.9289 1.67094C33.6691 2.14171 31.9186 3.64226 29.7543 4.28957C25.2347 5.58417 21.9882 1.25902 17.7232 0.905948C15.3998 0.729412 13.6174 2.05344 11.7713 3.11265C9.76617 4.28957 7.57002 4.73091 5.21473 4.17188C3.05041 3.67169 1.20438 2.37709 0.12222 0.552876C0.12222 0.199803 -0.0687489 0.552876 0.0267357 0.69999Z"
        fill="#E6E3D6" />
</svg>