<svg width="476" height="11" viewBox="0 0 476 11" fill="none" xmlns="http://www.w3.org/2000/svg"
    preserveAspectRatio="none">
    <path
        d="M475.951 1.53998C472.752 8.20717 465.539 11.9615 458.908 10.1491C454.488 8.91921 451.405 4.84121 447.101 3.35242C442.913 1.92836 438.957 4.12918 435.409 6.39473C432.152 8.40136 428.72 10.8611 424.881 10.9906C420.751 11.1848 417.377 8.33663 413.887 6.39473C409.06 3.67607 404.93 4.51756 400.218 6.91257C396.554 8.78975 392.889 10.7964 388.701 10.2138C384.571 9.63124 380.849 7.30096 377.01 5.61797C372.007 3.48188 367.819 3.67607 362.933 6.07108C358.862 8.01298 355.023 10.0196 350.428 9.50178C346.298 9.04867 342.401 7.23623 338.503 5.61797C334.315 3.87026 329.837 2.05782 325.241 2.89931C320.821 3.67607 317.331 6.9773 313.434 9.11339C309.827 11.0553 306.279 11.3142 302.44 9.95489C298.369 8.46609 294.53 5.61797 290.167 5.22959C285.456 4.84121 282.14 9.04867 277.603 9.24286C273.531 9.43705 269.867 6.91257 266.261 5.29432C261.549 3.15823 257.594 3.54661 253.057 5.87689C249.509 7.6246 245.728 10.0196 241.714 9.11339C237.41 8.14244 234.443 3.99972 229.79 3.93499C225.777 3.87026 221.996 5.74743 218.273 7.17149C215.132 8.33663 211.7 9.56651 208.385 8.66028C204.429 7.6246 202.626 3.22296 199.02 1.73417C196.112 0.569029 193.843 3.02878 191.633 4.71176C189.888 6.07109 187.968 7.10677 185.933 7.75407C181.977 9.04867 177.673 8.9192 173.776 7.36568C169.355 5.55324 165.4 1.34579 160.456 1.47525C155.802 1.60471 152.312 5.81216 147.892 6.91257C139.108 9.04867 131.663 -0.466652 122.822 2.05782C118.75 3.22296 115.26 6.20054 111.188 7.23623C109.618 7.62461 108.047 7.68934 106.477 7.23623C104.15 6.52419 102.463 4.64702 100.369 3.48188C93.0405 -0.660844 86.584 8.98393 79.3713 8.98393C75.2997 8.98393 73.2057 5.22959 69.7738 3.67607C65.1205 1.53998 61.107 6.26528 56.7445 7.10677C52.731 7.88353 49.2992 5.29432 45.6347 3.99972C43.1917 3.0935 40.9232 2.96405 38.5384 4.06446C36.4444 5.03541 34.6412 6.52419 32.5472 7.55988C30.9185 8.33664 29.1736 8.78975 27.3704 8.40137C25.4509 7.94826 23.8804 6.65365 22.0772 5.94162C19.1689 4.77648 17.1331 6.20054 14.4574 7.17149C12.5379 7.88352 10.5021 8.01299 8.46622 7.62461C5.03439 6.91258 2.06793 4.71176 0.090271 1.47525C-0.200562 0.957413 0.26474 -0.337192 0.730072 0.439569C3.40573 4.90594 8.52441 7.30096 13.2359 6.00636C15.0972 5.48852 16.7841 4.19391 18.7617 3.93499C20.8557 3.61134 22.717 4.64703 24.5784 5.68271C26.7306 6.84785 28.7664 7.49514 31.093 6.71838C33.2452 6.00635 35.0484 4.45283 37.0842 3.35242C40.8069 1.28106 44.1223 1.86363 47.9032 3.54661C49.939 4.45283 51.9749 5.55325 54.2433 5.81217C56.6863 6.07109 58.8385 5.10013 60.9907 3.99972C64.4225 2.25201 67.6798 0.698493 71.228 3.09351C72.973 4.25865 74.369 5.94162 76.2303 6.84784C78.208 7.88352 80.302 7.75407 82.3378 7.10677C85.8278 6.00636 88.8525 3.61134 92.2261 2.18728C95.5998 0.763217 98.7408 0.827945 101.882 2.96404C103.743 4.25864 105.372 5.74743 107.64 6.07108C109.909 6.39473 112.119 5.61797 114.213 4.64702C117.878 2.96404 121.426 0.374843 125.497 0.180653C129.569 -0.0782675 133.466 1.92836 137.189 3.54661C141.726 5.48852 146.088 6.78312 150.742 4.38811C154.406 2.51093 157.78 -0.401918 162.026 0.180653C166.505 0.827953 169.995 4.32338 174.125 6.00636C178.662 7.88353 183.839 7.6246 188.259 5.42378C191.575 3.80553 194.832 -0.984488 198.845 0.180653C202.568 1.28106 204.429 5.8769 208.21 7.10677C215.656 9.56651 222.868 2.12255 230.314 2.51093C234.618 2.70512 237.41 6.26527 241.307 7.55988C245.786 9.04867 250.032 5.94163 253.987 4.06446C257.594 2.38147 261.026 1.86363 264.806 3.22296C268.82 4.64702 272.601 7.62461 276.905 7.94826C281.5 8.27191 284.932 3.99972 289.527 3.93499C293.541 3.93499 297.147 6.20054 300.753 7.81879C305.174 9.82542 309.129 10.2785 313.492 7.94826C317.215 5.94163 320.53 2.83459 324.718 1.7989C332.978 -0.142998 340.539 6.07108 348.334 7.88353C353.278 9.04867 357.408 7.6246 361.886 5.42378C365.784 3.48188 369.564 2.12255 373.869 3.22296C377.999 4.25864 381.721 6.78311 385.735 8.20718C390.504 9.89016 394.518 8.78974 398.939 6.52419C402.545 4.71175 406.326 2.64039 410.339 3.67607C414.469 4.71175 417.668 8.01298 421.624 9.43704C429.883 12.2852 435.816 2.76985 443.611 1.99309C447.857 1.60471 451.114 4.51756 454.488 6.84784C458.152 9.43704 462.166 10.408 466.47 9.17813C470.425 8.07772 473.799 5.22959 475.777 1.21633C475.777 0.439567 476.126 1.21633 475.951 1.53998Z"
        fill="#E6E3D6" />
</svg>