<svg xmlns="http://www.w3.org/2000/svg" width="163" height="6" viewBox="0 0 163 6" fill="none"
    preserveAspectRatio="none">
    <path
        d="M0.499501 0.923395C36.3526 0.923395 72.2056 1 108.059 1C118.271 1 128.372 1 138.584 1C139.139 1 139.139 0.0808083 138.584 0.0808083C102.731 0.0808083 66.8776 0.0042031 31.0246 0.0042031C20.8125 0.0042031 10.7115 0.0042031 0.499501 0.0042031C-0.1665 -0.0723974 -0.1665 0.923395 0.499501 0.923395Z"
        fill="#313131" />
    <path
        d="M37.4499 4.80545C69.8499 4.40545 102.35 4.50545 134.85 4.90545C144.05 5.00545 153.15 5.20545 162.35 5.30545C162.85 5.30545 162.85 4.10547 162.35 4.10547C129.95 3.50547 97.45 3.20545 65.05 3.40545C55.85 3.40545 46.75 3.50547 37.55 3.60547C36.85 3.50547 36.8499 4.80545 37.4499 4.80545Z"
        fill="#313131" />
</svg>