<svg width="70" height="70" viewBox="0 0 70 70" fill="none" xmlns="http://www.w3.org/2000/svg">
<path d="M1.40382 46.5708C1.40382 47.1708 1.30382 47.6707 1.40382 48.2707C1.50382 48.8707 1.70382 49.5708 1.90382 50.1708C2.30382 51.4708 2.70372 52.6708 3.30372 53.8708C4.40372 56.1708 5.80379 58.3707 7.5038 60.2707C10.9038 64.1707 15.5038 67.2708 20.6038 68.3708C21.2038 68.4708 21.3037 67.2708 20.8037 67.0708C16.0037 65.5708 11.6037 63.0708 8.20375 59.3708C6.50375 57.5708 5.1038 55.3708 4.0038 53.1708C3.5038 52.0708 3.00375 50.9708 2.70375 49.8708C2.50375 49.1708 2.30375 48.5708 2.20375 47.8708C2.10375 47.3708 1.90375 47.0708 1.70375 46.5708C1.60375 46.1708 1.40382 46.3708 1.40382 46.5708Z" fill="#313131"/>
<path d="M32.9042 2.8704C36.6042 2.9704 40.3042 3.17039 43.9042 4.17039C47.5042 5.17039 50.9042 6.67038 54.0042 8.67038C60.2042 12.6704 65.2041 18.4704 67.8041 25.3704C68.1041 26.2704 68.8042 25.2704 68.6042 24.6704C66.0042 17.4704 60.9042 11.4704 54.4042 7.3704C48.2042 3.4704 40.2041 0.770397 32.8041 1.8704C32.4041 1.9704 32.4042 2.8704 32.9042 2.8704Z" fill="#313131"/>
</svg>
